<?xml version="1.0" encoding="utf-8"?>
<!-- Generator: Adobe Illustrator 23.0.3, SVG Export Plug-In . SVG Version: 6.00 Build 0)  -->
<svg version="1.1" id="Слой_1" xmlns="http://www.w3.org/2000/svg" xmlns:xlink="http://www.w3.org/1999/xlink" x="0px" y="0px"
	 viewBox="0 0 2615 1503" style="enable-background:new 0 0 2615 1503;" xml:space="preserve">
<style type="text/css">
	.st0{fill:#B82528;}
	.st1{fill:#FFFFFF;}
</style>
<g>
	<g id="Canvas">
		<path id="Фигура_2060" class="st0" d="M933.7,0h728.6L2647,1555l-169,2L1298,334L185,1513l-225,55L933.7,0z M554.2,1503
			c0,0,254.7-239.6,258.1-242.9s16.7-15.2,30.4-15.2h926c14.5,0,21.9,6.4,30.4,15.2s242.9,242.9,242.9,242.9H554.2z M1009.6,1077.9
			L1298,759.1l303.6,318.8L1009.6,1077.9z"/>
		<path id="Фигура_3_копия_2" class="st1" d="M1298.8,630L700,1262.1l598.8-971.6l608.4,971.6L1298.8,630z
			 M1037.7,1062.2l91.2-101.4h348.3l96.2,101.4H1037.7z M1196,891l102.2-110L1408,891H1196z"/>
	</g>
</g>
</svg>
