<?xml version="1.0" encoding="utf-8"?>
<!-- Generator: Adobe Illustrator 23.0.3, SVG Export Plug-In . SVG Version: 6.00 Build 0)  -->
<svg version="1.1" id="Слой_1" xmlns="http://www.w3.org/2000/svg" xmlns:xlink="http://www.w3.org/1999/xlink" x="0px" y="0px"
	 viewBox="0 0 599 636" style="enable-background:new 0 0 599 636;" xml:space="preserve">
<style type="text/css">
	
		.st0{opacity:0.839;fill:url(#Прямоугольник_скругл._углы_504_копия_17_1_);enable-background:new    ;}
	.st1{fill:#65A8C2;}
	.st2{clip-path:url(#SVGID_2_);}
	.st3{opacity:0.369;fill:#EBF6F2;enable-background:new    ;}
	.st4{fill:#EBF6F2;}
	.st5{fill:#BAD9D9;}
	.st6{opacity:0.51;fill:#335B6A;enable-background:new    ;}
	.st7{opacity:0.549;fill:#335B6A;enable-background:new    ;}
	.st8{opacity:0.549;fill:#EBF6F2;enable-background:new    ;}
	.st9{clip-path:url(#SVGID_4_);}
	.st10{fill:#F7B6A4;}
	.st11{clip-path:url(#SVGID_6_);}
	.st12{opacity:0.361;fill:#FEE9DF;enable-background:new    ;}
	.st13{fill:#FEE9DF;}
	.st14{fill:#D3708D;}
	.st15{fill:#494775;}
	.st16{fill:#23B2EA;}
	.st17{fill:#9695B6;}
	.st18{clip-path:url(#SVGID_8_);}
	.st19{opacity:0.361;fill:#C2CFE0;enable-background:new    ;}
	.st20{fill:#C2CFE0;}
	.st21{fill:#5D5988;}
	.st22{fill:#A9AAC8;}
	.st23{clip-path:url(#SVGID_10_);}
	.st24{fill:#696999;}
	.st25{opacity:0.631;enable-background:new    ;}
	.st26{fill:#4286A1;}
	.st27{fill:#BED9CF;}
	.st28{fill:#1C6789;}
	.st29{clip-path:url(#SVGID_12_);}
	.st30{fill:#2A88B2;}
	.st31{fill:#E8F4EE;}
	.st32{clip-path:url(#SVGID_14_);}
	.st33{fill:#383852;}
	.st34{opacity:0.4;enable-background:new    ;}
	.st35{clip-path:url(#SVGID_16_);}
	.st36{clip-path:url(#SVGID_18_);}
	.st37{clip-path:url(#SVGID_20_);}
	.st38{clip-path:url(#SVGID_22_);}
	.st39{clip-path:url(#SVGID_24_);}
	.st40{fill:#FF584E;}
	.st41{fill:#6C6A96;}
	.st42{opacity:0.431;fill:#D0F2FF;enable-background:new    ;}
	.st43{fill:#FFFFFF;}
</style>
<g>
	<g id="Canvas">
		
			<linearGradient id="Прямоугольник_скругл._углы_504_копия_17_1_" gradientUnits="userSpaceOnUse" x1="50.6758" y1="818.1173" x2="50.1005" y2="817.5062" gradientTransform="matrix(447.0194 0 0 -262.9847 -22269.9746 215561.4688)">
			<stop  offset="6.333087e-02" style="stop-color:#364D88;stop-opacity:0.58"/>
			<stop  offset="0.4093" style="stop-color:#29407A;stop-opacity:0.2765"/>
			<stop  offset="0.7244" style="stop-color:#233A73;stop-opacity:0"/>
			<stop  offset="1" style="stop-color:#192F67;stop-opacity:0"/>
		</linearGradient>
		<path id="Прямоугольник_скругл._углы_504_копия_17" class="st0" d="M253.6,358.6l223.3,134.9
			c1.4,0.8,1.4,2,0.2,2.7L260.1,620.5c-1.5,0.7-3.2,0.7-4.7-0.1L32.1,485.4c-1.4-0.8-1.4-2-0.2-2.7l217.1-124.2
			C250.4,357.8,252.2,357.8,253.6,358.6z"/>
		<g id="Группа_196">
			<g id="Фигура_853-2">
				<path id="Фигура_853-3" class="st1" d="M469,348c25.8-16.8,57-33.6,57-85v-24c0-6.3,20-12.3,20-1v28
					c0,47.9-27.1,79.4-71,102C468.9,371.1,455.6,356.7,469,348z"/>
				<g>
					<defs>
						<path id="SVGID_1_" d="M469,348c25.8-16.8,57-33.6,57-85v-24c0-6.3,20-12.3,20-1v28c0,47.9-27.1,79.4-71,102
							C468.9,371.1,455.6,356.7,469,348z"/>
					</defs>
					<clipPath id="SVGID_2_">
						<use xlink:href="#SVGID_1_"  style="overflow:visible;"/>
					</clipPath>
					<g id="Clip" class="st2">
						<path id="Фигура_854" class="st3" d="M479,356c0,0,33-23.5,40-31s-3.6-16.3-15-7s-31.6,23.3-35,25S479,356,479,356z"/>
						<path id="Фигура_854_копия" class="st3" d="M474,361c0,0,33-23.5,40-31s-3.6-16.3-15-7s-31.6,23.3-35,25
							S474,361,474,361z"/>
						<path id="Фигура_854_копия_2" class="st4" d="M468,367c0,0,33-23.5,40-31s-3.6-16.3-15-7s-31.6,23.3-35,25
							S468,367,468,367z"/>
						<path id="Фигура_853_копия" class="st5" d="M479,354c25.8-16.8,57-33.6,57-85v-36c0-6.3,20-12.3,20-1v40
							c0,47.9-27.1,79.4-71,102C478.9,377.1,465.6,362.7,479,354z"/>
						<path id="Фигура_855_копия_3" class="st6" d="M494.2,357.1c0,0,8.1-7.4,1-15.5s-16.3-0.3-16.3-0.3l-1.3-1.5
							c0,0,10.5-9.3,19.1,0.5s-1.2,18.3-1.2,18.3L494.2,357.1z M525.7,329.5c0,0,5.1-9.7-4.4-14.9s-15.4,5.3-15.4,5.3l-1.8-1
							c0,0,6.7-12.3,18.1-6.1s5.2,17.6,5.2,17.6L525.7,329.5z M523,273h2c0,0,0.2,11,11,11s11-12,11-12h2c0,0,0,14-13,14
							S523,273,523,273z M523,244h2c0,0,0.2,11,11,11s11-12,11-12h2c0,0,0,14-13,14S523,244,523,244z"/>
						<path id="Эллипс_855" class="st7" d="M476,354.5c0-0.3,0.2-0.5,0.5-0.5s0.5,0.2,0.5,0.5s-0.2,0.5-0.5,0.5
							S476,354.8,476,354.5z M481,348.5c0-0.3,0.2-0.5,0.5-0.5s0.5,0.2,0.5,0.5s-0.2,0.5-0.5,0.5S481,348.8,481,348.5z M490,344.5
							c0-0.8,0.7-1.5,1.5-1.5s1.5,0.7,1.5,1.5s-0.7,1.5-1.5,1.5S490,345.3,490,344.5z M517,333.5c0-0.3,0.2-0.5,0.5-0.5
							s0.5,0.2,0.5,0.5s-0.2,0.5-0.5,0.5S517,333.8,517,333.5z M505,333.5c0-0.3,0.2-0.5,0.5-0.5s0.5,0.2,0.5,0.5s-0.2,0.5-0.5,0.5
							S505,333.8,505,333.5z M513,325c0-0.6,0.4-1,1-1s1,0.4,1,1s-0.4,1-1,1S513,325.6,513,325z M519,317.5c0-0.8,0.7-1.5,1.5-1.5
							s1.5,0.7,1.5,1.5s-0.7,1.5-1.5,1.5S519,318.3,519,317.5z M516,312c0-0.6,0.4-1,1-1s1,0.4,1,1s-0.4,1-1,1S516,312.6,516,312z
							 M526,309.5c0-0.8,0.7-1.5,1.5-1.5s1.5,0.7,1.5,1.5s-0.7,1.5-1.5,1.5S526,310.3,526,309.5z M535,295c0-0.6,0.4-1,1-1
							s1,0.4,1,1s-0.4,1-1,1S535,295.6,535,295z M530,291c0-0.6,0.4-1,1-1s1,0.4,1,1s-0.4,1-1,1S530,291.6,530,291z M538,285.5
							c0-1.4,1.1-2.5,2.5-2.5s2.5,1.1,2.5,2.5s-1.1,2.5-2.5,2.5S538,286.9,538,285.5z M530,274c0-0.6,0.4-1,1-1s1,0.4,1,1
							s-0.4,1-1,1S530,274.6,530,274z M542,269c0-0.6,0.4-1,1-1s1,0.4,1,1s-0.4,1-1,1S542,269.6,542,269z M532,256.5
							c0-0.3,0.2-0.5,0.5-0.5s0.5,0.2,0.5,0.5s-0.2,0.5-0.5,0.5S532,256.8,532,256.5z"/>
						<path id="Эллипс_856" class="st8" d="M481,355.5c0-0.3,0.2-0.5,0.5-0.5s0.5,0.2,0.5,0.5s-0.2,0.5-0.5,0.5
							S481,355.8,481,355.5z M487,341.5c0-1.4,1.1-2.5,2.5-2.5s2.5,1.1,2.5,2.5s-1.1,2.5-2.5,2.5S487,342.9,487,341.5z M511,330.5
							c0-0.3,0.2-0.5,0.5-0.5s0.5,0.2,0.5,0.5s-0.2,0.5-0.5,0.5S511,330.8,511,330.5z M504,328.5c0-0.3,0.2-0.5,0.5-0.5
							s0.5,0.2,0.5,0.5s-0.2,0.5-0.5,0.5S504,328.8,504,328.5z M523,320c0-1.1,0.9-2,2-2s2,0.9,2,2s-0.9,2-2,2S523,321.1,523,320z
							 M512,320.5c0-0.8,0.7-1.5,1.5-1.5s1.5,0.7,1.5,1.5s-0.7,1.5-1.5,1.5S512,321.3,512,320.5z M522,308c0-0.6,0.4-1,1-1
							s1,0.4,1,1s-0.4,1-1,1S522,308.6,522,308z M529,300.5c0-0.8,0.7-1.5,1.5-1.5s1.5,0.7,1.5,1.5s-0.7,1.5-1.5,1.5
							S529,301.3,529,300.5z M528,289c0-0.6,0.4-1,1-1s1,0.4,1,1s-0.4,1-1,1S528,289.6,528,289z M531,283c0-0.6,0.4-1,1-1s1,0.4,1,1
							s-0.4,1-1,1S531,283.6,531,283z M535,271c0-1.7,1.3-3,3-3s3,1.3,3,3s-1.3,3-3,3S535,272.7,535,271z M530,264c0-0.6,0.4-1,1-1
							s1,0.4,1,1s-0.4,1-1,1S530,264.6,530,264z"/>
					</g>
				</g>
			</g>
			<g id="Фигура_853_копия_2-2">
				<path id="Фигура_853_копия_2-3" class="st1" d="M251,215c25.8-16.8,57-33.6,57-85v-24c0-6.3,20-12.3,20-1v28
					c0,47.9-27.1,79.4-71,102C250.9,238.1,237.6,223.7,251,215z"/>
				<g>
					<defs>
						<path id="SVGID_3_" d="M251,215c25.8-16.8,57-33.6,57-85v-24c0-6.3,20-12.3,20-1v28c0,47.9-27.1,79.4-71,102
							C250.9,238.1,237.6,223.7,251,215z"/>
					</defs>
					<clipPath id="SVGID_4_">
						<use xlink:href="#SVGID_3_"  style="overflow:visible;"/>
					</clipPath>
					<g id="Clip-2" class="st9">
						<path id="Фигура_854_копия_3" class="st3" d="M261,223c0,0,33-23.5,40-31s-3.6-16.3-15-7s-31.6,23.3-35,25
							S261,223,261,223z"/>
						<path id="Фигура_854_копия_4" class="st3" d="M256,228c0,0,33-23.5,40-31s-3.6-16.3-15-7s-31.6,23.3-35,25
							S256,228,256,228z"/>
						<path id="Фигура_854_копия_5" class="st4" d="M250,234c0,0,33-23.5,40-31s-3.6-16.3-15-7s-31.6,23.3-35,25
							S250,234,250,234z"/>
						<path id="Фигура_853_копия_3" class="st5" d="M261,221c25.8-16.8,57-33.6,57-85v-36c0-6.3,20-12.3,20-1v40
							c0,47.9-27.1,79.4-71,102C260.9,244.1,247.6,229.7,261,221z"/>
						<path id="Фигура_855_копия_4" class="st6" d="M276.2,224.1c0,0,8.1-7.4,1-15.5s-16.3-0.3-16.3-0.3l-1.3-1.5
							c0,0,10.5-9.3,19.1,0.5s-1.2,18.3-1.2,18.3L276.2,224.1z M307.7,196.5c0,0,5.1-9.7-4.4-14.9s-15.4,5.3-15.4,5.3l-1.8-1
							c0,0,6.7-12.3,18.1-6.1s5.2,17.6,5.2,17.6L307.7,196.5z M305,140h2c0,0,0.2,11,11,11s11-12,11-12h2c0,0,0,14-13,14
							S305,140,305,140z M305,111h2c0,0,0.2,11,11,11s11-12,11-12h2c0,0,0,14-13,14S305,111,305,111z"/>
						<path id="Эллипс_855_копия" class="st7" d="M258,221.5c0-0.3,0.2-0.5,0.5-0.5s0.5,0.2,0.5,0.5s-0.2,0.5-0.5,0.5
							S258,221.8,258,221.5z M263,215.5c0-0.3,0.2-0.5,0.5-0.5s0.5,0.2,0.5,0.5s-0.2,0.5-0.5,0.5S263,215.8,263,215.5z M272,211.5
							c0-0.8,0.7-1.5,1.5-1.5s1.5,0.7,1.5,1.5s-0.7,1.5-1.5,1.5S272,212.3,272,211.5z M299,200.5c0-0.3,0.2-0.5,0.5-0.5
							s0.5,0.2,0.5,0.5s-0.2,0.5-0.5,0.5S299,200.8,299,200.5z M287,200.5c0-0.3,0.2-0.5,0.5-0.5s0.5,0.2,0.5,0.5s-0.2,0.5-0.5,0.5
							S287,200.8,287,200.5z M295,192c0-0.6,0.4-1,1-1s1,0.4,1,1s-0.4,1-1,1S295,192.6,295,192z M301,184.5c0-0.8,0.7-1.5,1.5-1.5
							s1.5,0.7,1.5,1.5s-0.7,1.5-1.5,1.5S301,185.3,301,184.5z M298,179c0-0.6,0.4-1,1-1s1,0.4,1,1s-0.4,1-1,1S298,179.6,298,179z
							 M308,176.5c0-0.8,0.7-1.5,1.5-1.5s1.5,0.7,1.5,1.5s-0.7,1.5-1.5,1.5S308,177.3,308,176.5z M317,162c0-0.6,0.4-1,1-1
							s1,0.4,1,1s-0.4,1-1,1S317,162.6,317,162z M312,158c0-0.6,0.4-1,1-1s1,0.4,1,1s-0.4,1-1,1S312,158.6,312,158z M320,152.5
							c0-1.4,1.1-2.5,2.5-2.5s2.5,1.1,2.5,2.5s-1.1,2.5-2.5,2.5S320,153.9,320,152.5z M312,141c0-0.6,0.4-1,1-1s1,0.4,1,1
							s-0.4,1-1,1S312,141.6,312,141z M324,136c0-0.6,0.4-1,1-1s1,0.4,1,1s-0.4,1-1,1S324,136.6,324,136z M314,123.5
							c0-0.3,0.2-0.5,0.5-0.5s0.5,0.2,0.5,0.5s-0.2,0.5-0.5,0.5S314,123.8,314,123.5z"/>
						<path id="Эллипс_856_копия" class="st8" d="M263,222.5c0-0.3,0.2-0.5,0.5-0.5s0.5,0.2,0.5,0.5s-0.2,0.5-0.5,0.5
							S263,222.8,263,222.5z M269,208.5c0-1.4,1.1-2.5,2.5-2.5s2.5,1.1,2.5,2.5s-1.1,2.5-2.5,2.5S269,209.9,269,208.5z M293,197.5
							c0-0.3,0.2-0.5,0.5-0.5s0.5,0.2,0.5,0.5s-0.2,0.5-0.5,0.5S293,197.8,293,197.5z M286,195.5c0-0.3,0.2-0.5,0.5-0.5
							s0.5,0.2,0.5,0.5s-0.2,0.5-0.5,0.5S286,195.8,286,195.5z M305,187c0-1.1,0.9-2,2-2s2,0.9,2,2s-0.9,2-2,2S305,188.1,305,187z
							 M294,187.5c0-0.8,0.7-1.5,1.5-1.5s1.5,0.7,1.5,1.5s-0.7,1.5-1.5,1.5S294,188.3,294,187.5z M304,175c0-0.6,0.4-1,1-1
							s1,0.4,1,1s-0.4,1-1,1S304,175.6,304,175z M311,167.5c0-0.8,0.7-1.5,1.5-1.5s1.5,0.7,1.5,1.5s-0.7,1.5-1.5,1.5
							S311,168.3,311,167.5z M310,156c0-0.6,0.4-1,1-1s1,0.4,1,1s-0.4,1-1,1S310,156.6,310,156z M313,150c0-0.6,0.4-1,1-1s1,0.4,1,1
							s-0.4,1-1,1S313,150.6,313,150z M317,138c0-1.7,1.3-3,3-3s3,1.3,3,3s-1.3,3-3,3S317,139.7,317,138z M312,131c0-0.6,0.4-1,1-1
							s1,0.4,1,1s-0.4,1-1,1S312,131.6,312,131z"/>
					</g>
				</g>
			</g>
			<g id="Фигура_2180_копия_3-2">
				<path id="Фигура_2180_копия_3-3" class="st10" d="M522.2,258c3.2,1.6,7.1,1.3,10.1-0.7c3.9-2.4,36.5-21.1,39.3-22.9
					s6.5-4.5,6.5-11.4v-46c-0.2-10-5.5-19.2-14-24.4c-9-5.4-219.5-130.1-223.5-132.4s-7-1.3-9.7,0.3s-36.9,21.8-39.9,23.5
					s-5.8,4-5.8,9.1v49.2c0,9.9,3.3,17.5,14,23.4C309.6,131.9,519.5,256.8,522.2,258z"/>
				<g>
					<defs>
						<path id="SVGID_5_" d="M522.2,258c3.2,1.6,7.1,1.3,10.1-0.7c3.9-2.4,36.5-21.1,39.3-22.9s6.5-4.5,6.5-11.4v-46
							c-0.2-10-5.5-19.2-14-24.4c-9-5.4-219.5-130.1-223.5-132.4s-7-1.3-9.7,0.3s-36.9,21.8-39.9,23.5s-5.8,4-5.8,9.1v49.2
							c0,9.9,3.3,17.5,14,23.4C309.6,131.9,519.5,256.8,522.2,258z"/>
					</defs>
					<clipPath id="SVGID_6_">
						<use xlink:href="#SVGID_5_"  style="overflow:visible;"/>
					</clipPath>
					<g id="Clip-3" class="st11">
						<path id="Фигура_2183_копия_3" class="st12" d="M529,183.9l44-26l7.2,13.3l-47.9,28L529,183.9z"/>
						<path id="Фигура_2182_копия_3" class="st13" d="M529,183.9l45-26.3c0,0-2.4-3.9-9.8-8.1S344.3,19.6,339.9,17.3
							s-7.4-1.6-9.8-0.3S290,40.8,286.8,42.7s-5.8,8.5-1,8.4s4.7-3.1,13,1S510.4,178.3,516.9,182S529,183.9,529,183.9z"/>
						<path id="Фигура_2181_копия_7" class="st14" d="M521.7,257.1c3.9,2.2,14.3,5.1,14.3-8.5v-46.2
							c0-11.2-3.6-19.6-13-25c-9.8-5.6-217.3-127.8-224.3-131.8S285,44.9,285,54.4v49.1c0,3.9,1.5,15.3,10.4,20.9
							C304.4,130.1,517.8,255,521.7,257.1z"/>
					</g>
				</g>
			</g>
			<path id="Фигура_2181_копия_8" class="st15" d="M517.9,249.4c3.3,1.8,12.1,4.3,12.1-7.2v-39.1c0-9.5-3.1-16.6-11-21.2
				c-8.2-4.8-212.5-125.2-218.5-128.5S289,52.7,289,60.8v41.6c0,3.3,1.3,13,8.8,17.7S514.6,247.6,517.9,249.4z"/>
			<path id="Customisable" class="st16" d="M474.7,202.2c-3.8-2.2-6.3-7.3-6.3-11.9s2.6-6.6,6-4.6c3.4,2,5.6,6.9,5.6,11.3
				c0,1.4-0.1,2-0.9,1.5l-6.8-4c0.3,1.6,1.3,3,2.7,3.8c0.6,0.4,1.4,0.6,2.1,0.4c0.2,0,0.4,0.1,0.5,0.4l1.4,2.6
				c0.2,0.3,0.1,0.5,0,0.7c-0.5,0.4-1.2,0.6-1.9,0.6C476.3,202.9,475.4,202.7,474.7,202.2z M472.2,191.2l4.3,2.5
				c-0.1-1.4-0.9-2.8-2.1-3.6c-0.3-0.2-0.6-0.3-1-0.3C472.8,189.8,472.4,190.2,472.2,191.2L472.2,191.2z M466.3,196.9l-3.2-1.9
				c-0.2-0.2-0.4-0.4-0.4-0.7v-22.2c0-0.3,0.1-0.4,0.4-0.3l3.2,1.9c0.2,0.2,0.4,0.4,0.4,0.7v22.2c0,0.2-0.1,0.3-0.2,0.3
				C466.4,196.9,466.4,196.9,466.3,196.9L466.3,196.9z M455.4,190.9c-1.4-0.9-2.5-2.3-3.2-3.8l-0.1,0.9c0,0.3-0.1,0.4-0.4,0.3
				l-2.9-1.7c-0.2-0.2-0.4-0.4-0.4-0.7v-22.2c0-0.3,0.1-0.4,0.4-0.3l3.2,1.9c0.2,0.2,0.4,0.4,0.4,0.7v8.5c0.9-0.6,2.1-0.6,3,0.1
				c3.2,1.9,5.6,7,5.6,11.5c0,3.4-1.4,5.6-3.5,5.6C456.8,191.5,456,191.3,455.4,190.9L455.4,190.9z M452.5,181
				c0,1.9,0.9,3.7,2.4,4.8c1.3,0.8,2.3-0.1,2.3-2.1c0-1.9-0.8-3.6-2.3-4.7c-0.3-0.2-0.6-0.3-0.9-0.3
				C453.1,178.7,452.5,179.6,452.5,181L452.5,181z M446,185l-2.9-1.7c-0.2-0.2-0.4-0.4-0.4-0.7l-0.1-1c-0.9,0.7-2.3,0.7-3.2,0
				c-3.2-1.9-5.6-7-5.6-11.5s2.4-6.8,5.6-4.9c1.4,1,2.5,2.3,3.2,3.9l0.1-1.1c0-0.3,0.1-0.4,0.4-0.3l2.9,1.7c0.2,0.2,0.4,0.4,0.4,0.7
				v14.6c0,0.2-0.1,0.3-0.2,0.3C446.1,185,446.1,185,446,185L446,185z M437.6,172.2c0,1.9,0.8,3.7,2.3,4.8c1.4,0.8,2.4-0.2,2.4-2
				c0-1.9-0.9-3.6-2.4-4.8c-0.3-0.2-0.6-0.3-0.9-0.3C438.2,169.9,437.6,170.8,437.6,172.2L437.6,172.2z M427.9,174.7
				c-2-1.3-3.5-3.1-4.5-5.3c-0.1-0.2-0.1-0.5,0-0.7l1.2-1.5c0.1-0.2,0.3,0,0.6,0.3c0.7,1.1,1.6,2,2.7,2.8c0.4,0.2,1,0.6,1-0.2
				c0-1.7-5.2-4-5.2-9.3c0-3.3,2.1-3.8,4.2-2.5c1.8,1.2,3.3,2.8,4.2,4.8c0.1,0.2,0.1,0.5,0,0.7l-1.2,1.4c-0.1,0.2-0.3-0.1-0.5-0.3
				c-0.5-0.8-1.2-1.6-2-2.2c-0.7-0.4-0.8,0-0.8,0.3c0,2,5.3,3.6,5.3,9.4c0,2.1-1,3-2.4,3C429.4,175.4,428.6,175.1,427.9,174.7
				L427.9,174.7z M421.2,170.4l-3.2-1.9c-0.2-0.2-0.4-0.4-0.4-0.7v-14.6c0-0.3,0.1-0.4,0.4-0.3l3.2,1.9c0.2,0.2,0.4,0.4,0.4,0.7
				v14.6c0,0.2-0.1,0.3-0.2,0.3C421.4,170.4,421.3,170.4,421.2,170.4L421.2,170.4z M415.2,166.8l-3.2-1.9c-0.2-0.2-0.4-0.4-0.4-0.7
				v-7.5c0-2.5-1.1-3.7-1.9-4.1c-0.5-0.4-1.3-0.4-1.7,0.2c-0.2,0.3-0.3,0.6-0.3,0.9v8.3c0,0.3-0.1,0.4-0.4,0.3l-3.2-1.9
				c-0.2-0.2-0.4-0.4-0.4-0.7V152c0-2.5-1.1-3.6-1.9-4.1c-1.5-0.9-2,0.7-2,1.5v7.9c0,0.3-0.1,0.4-0.4,0.3l-3.2-1.9
				c-0.2-0.2-0.4-0.4-0.4-0.7v-14.6c0-0.3,0.1-0.4,0.4-0.3l3.1,1.9c0.2,0.2,0.4,0.4,0.4,0.7l0.1,2c0.7-1.2,1.9-1.6,3.6-0.6
				c1.7,1.2,3,2.9,3.6,4.9c0.8-1.2,2.2-1.5,4-0.4c2.6,1.6,4.6,5.3,4.6,9.5v8.6c0,0.2-0.1,0.3-0.2,0.3
				C415.3,166.9,415.2,166.9,415.2,166.8L415.2,166.8z M388,151.2c-3.4-2-6.2-7.3-6.2-11.8c0-4.6,2.8-6.5,6.2-4.5
				c3.4,2,6.2,7.2,6.2,11.8c0,3.4-1.5,5.3-3.7,5.3C389.6,152,388.7,151.7,388,151.2L388,151.2z M385.6,141.7c0,1.8,0.9,3.6,2.4,4.7
				c1.3,0.8,2.4,0,2.4-1.9c0-1.9-0.9-3.6-2.4-4.7c-0.3-0.2-0.6-0.3-0.9-0.3C386.2,139.5,385.6,140.3,385.6,141.7L385.6,141.7z
				 M419.6,151.3c-1.3-0.9-2.1-2.4-2.1-4c0-1.5,0.9-2.2,2.1-1.5c1.3,0.9,2.1,2.4,2.1,4c0,1.1-0.5,1.8-1.2,1.8
				C420.2,151.6,419.9,151.5,419.6,151.3L419.6,151.3z M378.4,145.2l-3.2-1.9c-0.2-0.2-0.4-0.4-0.4-0.7v-10.9l-1.7-1
				c-0.2-0.2-0.4-0.4-0.4-0.7v-3.3c0-0.3,0.1-0.4,0.4-0.3l1.7,1v-4.3c0-0.3,0.1-0.4,0.4-0.3l3.2,1.9c0.2,0.2,0.4,0.4,0.4,0.7v4.3
				l1.7,1c0.2,0.2,0.4,0.4,0.4,0.7v3.3c0,0.3-0.1,0.4-0.4,0.3l-1.7-1V145c0,0.2-0.1,0.3-0.2,0.3
				C378.5,145.3,378.5,145.3,378.4,145.2L378.4,145.2z M367.4,139.2c-2-1.3-3.5-3.1-4.5-5.3c-0.1-0.2-0.1-0.5,0-0.7l1.2-1.5
				c0.1-0.2,0.3,0,0.6,0.3c0.7,1.1,1.6,2,2.7,2.8c0.4,0.2,1,0.6,1-0.2c0-1.7-5.2-4-5.2-9.3c0-3.3,2.1-3.8,4.2-2.5
				c1.8,1.2,3.3,2.8,4.2,4.8c0.1,0.2,0.1,0.5,0,0.7l-1.2,1.4c-0.1,0.2-0.3-0.1-0.5-0.3c-0.5-0.8-1.2-1.6-2-2.2
				c-0.7-0.4-0.8,0-0.8,0.3c0,2,5.3,3.6,5.3,9.4c0,2.1-1,3-2.4,3C369,139.9,368.2,139.6,367.4,139.2L367.4,139.2z M360.9,134.9
				l-3.1-1.9c-0.2-0.2-0.4-0.4-0.4-0.7l-0.1-1.7c-0.7,1.1-2.2,1.4-3.2,0.7c0,0-0.1,0-0.1-0.1c-2.6-1.5-4.5-5.3-4.5-9.5V113
				c0-0.3,0.1-0.4,0.4-0.3l3.2,1.9c0.2,0.2,0.4,0.4,0.4,0.7v7.6c0,2.5,1.2,3.7,1.9,4.1c1.4,0.8,2-0.2,2-1.4v-8
				c0-0.3,0.1-0.4,0.4-0.3l3.2,1.9c0.2,0.2,0.4,0.4,0.4,0.7v14.6c0,0.2-0.1,0.3-0.2,0.3C361,134.9,360.9,134.9,360.9,134.9
				L360.9,134.9z M341.7,124c-4.8-2.8-8.7-10.2-8.7-16.6c0-6.4,3.9-9.2,8.7-6.3c2.6,1.7,4.7,4,6,6.8c0.1,0.2,0.1,0.5,0,0.7l-2.1,1.8
				c-0.1,0.2-0.3,0-0.5-0.3c-0.8-1.5-2-2.8-3.4-3.7c-2.5-1.5-4.5,0-4.5,3.5c0,3.5,1.9,7.2,4.5,8.7c1.4,0.8,2.5,0.9,3.4,0.3
				c0.2-0.1,0.4,0.1,0.5,0.4l2.1,4.2c0.1,0.3,0.2,0.5,0,0.7c-0.7,0.6-1.6,0.9-2.5,0.9C344,125.1,342.8,124.7,341.7,124L341.7,124z"
				/>
		</g>
		<g id="Группа_195">
			<g id="Фигура_2180_копия_2-2">
				<path id="Фигура_2180_копия_2-3" class="st17" d="M415.2,529c3.2,1.6,7.1,1.3,10.1-0.7c3.9-2.4,70.5-43.1,73.3-44.9
					s6.5-4.5,6.5-11.4v-169c-0.2-10-5.5-19.2-14-24.4c-9-5.4-219.5-130.1-223.5-132.4s-7-1.3-9.7,0.3s-70.9,43.8-73.9,45.5
					s-5.8,4-5.8,9.1v172.2c0,9.9,3.3,17.5,14,23.4S412.5,527.8,415.2,529z"/>
				<g>
					<defs>
						<path id="SVGID_7_" d="M415.2,529c3.2,1.6,7.1,1.3,10.1-0.7c3.9-2.4,70.5-43.1,73.3-44.9s6.5-4.5,6.5-11.4v-169
							c-0.2-10-5.5-19.2-14-24.4c-9-5.4-219.5-130.1-223.5-132.4s-7-1.3-9.7,0.3s-70.9,43.8-73.9,45.5s-5.8,4-5.8,9.1v172.2
							c0,9.9,3.3,17.5,14,23.4S412.5,527.8,415.2,529z"/>
					</defs>
					<clipPath id="SVGID_8_">
						<use xlink:href="#SVGID_7_"  style="overflow:visible;"/>
					</clipPath>
					<g id="Clip-4" class="st18">
						<path id="Фигура_2183_копия_2" class="st19" d="M422,331.9l78-48l7.2,13.3l-81.9,49L422,331.9z"/>
						<path id="Фигура_2182_копия_2" class="st20" d="M422,331.9l79-48.3c0,0-2.4-3.9-9.8-8.1S271.3,145.6,266.9,143.3
							s-7.4-1.6-9.8-0.3s-74.1,45.7-77.3,47.7s-5.8,8.5-1,8.4s4.7-3.1,13,1S403.4,326.3,409.9,330S422,331.9,422,331.9z"/>
						<path id="Фигура_2181_копия_5" class="st21" d="M414.7,528.1c3.9,2.2,14.3,5.1,14.3-8.5V350.4
							c0-11.2-3.6-19.6-13-25c-9.8-5.6-217.3-127.9-224.3-131.8s-13.7-0.8-13.7,8.8v172.1c0,3.9,1.5,15.3,10.4,20.9
							S410.8,526,414.7,528.1z"/>
					</g>
				</g>
			</g>
			<g id="Фигура_753_копия_11-2">
				<path id="Фигура_753_копия_11-3" class="st22" d="M438,427c0.2-1.8,0.9-3.6,2.1-5c1.5-2,22-29.2,23.5-31.2
					s2.9-3.8,5.7-3.2s22.3,4.4,23.5,4.6s2.1,0.3,2.1,3.5v58.7c0,2.3,0.1,3.1-2.1,5.9s-21.8,28.9-23.5,31.2s-3.5,3.9-5.7,3.2
					s-21.9-4.3-23.5-4.6s-2.1-0.6-2.1-3.5V427z"/>
				<g>
					<defs>
						<path id="SVGID_9_" d="M438,427c0.2-1.8,0.9-3.6,2.1-5c1.5-2,22-29.2,23.5-31.2s2.9-3.8,5.7-3.2s22.3,4.4,23.5,4.6
							s2.1,0.3,2.1,3.5v58.7c0,2.3,0.1,3.1-2.1,5.9s-21.8,28.9-23.5,31.2s-3.5,3.9-5.7,3.2s-21.9-4.3-23.5-4.6s-2.1-0.6-2.1-3.5V427
							z"/>
					</defs>
					<clipPath id="SVGID_10_">
						<use xlink:href="#SVGID_9_"  style="overflow:visible;"/>
					</clipPath>
					<g id="Clip-5" class="st23">
						<path id="Фигура_570_копия" class="st24" d="M468,496l-34-18l-2-57l21-25l15-19l26,10l10,13l-1,82L468,496z"/>
						<path id="Фигура_571_копия" class="st25" d="M436,486l22,5l12-21l-33-8l-12,14L436,486z"/>
						<path id="Фигура_753_копия_9" class="st26" d="M474.6,477.9c-2.2-0.7-21.9-4.3-23.5-4.6c-1-0.2-1.5-0.4-1.8-1
							c-0.7-0.1-1.5-0.4-2.2-0.7c-1.3-0.7-10.3-5.2-11.3-5.7c-1.3-0.8-2-2.2-1.8-3.7c0-1.9-1-35.9-1-37.1c0.1-1.7,0.8-3.3,1.8-4.7
							c1.3-1.8,17.8-34.3,18.8-35.6s4.9-2.2,6.4-1.9s10.1,0.2,12.2,0.7c1.6,0.3,3.2,0.9,4.6,1.9c1.4,0.9,23.1,10.1,24.4,10.7
							c0.5,0.3,1,0.7,1.3,1.2c0.8,0.5,1.4,1.7,1.4,4.2c0,3.2,2,32.2,2,34.5s0.1,5-2.1,7.7s-21.8,28.6-23.5,30.9
							c-1.4,1.9-2.9,3.3-4.7,3.3C475.3,478.1,475,478,474.6,477.9z"/>
						<path id="Фигура_764_копия_3" class="st27" d="M455.5,383l22,9.5c0.8,0.7,1.7,1.4,2.6,1.9
							c0.8,0.3,23.9,4.7,23.9,4.7l-29-16.4c0,0-12.1-0.3-14-0.7S455.5,383,455.5,383z"/>
						<path id="Фигура_763_копия_3" class="st28" d="M451.9,475.4c-0.7-0.3-1.1-1.1-0.9-1.9c0-0.7-2-40.9-2-40.9l-17-8.4
							l2,40.7c0,0-0.4,2.1,3.7,3.7S452.8,475.9,451.9,475.4z"/>
					</g>
				</g>
			</g>
			<g id="Фигура_753_копия_13-2">
				<path id="Фигура_753_копия_13-3" class="st1" d="M480.6,482.9c-2.2-0.7-21.9-4.3-23.5-4.6c-1-0.2-1.5-0.4-1.8-1
					c-0.7-0.1-1.5-0.4-2.2-0.7c-1.3-0.7-10.3-5.2-11.3-5.7c-1.3-0.8-2-2.2-1.8-3.7v-39.1c0.1-1.7,0.8-3.3,1.8-4.7
					c1.3-1.8,23.8-31.3,24.8-32.6s4.9-2.2,6.4-1.9s19.1,4.2,21.2,4.7c1.6,0.3,3.2,0.9,4.6,1.9c1.4,0.9,9.1,5.1,10.4,5.7
					c0.6,0.3,1.1,0.7,1.5,1.2c0.7,0.3,1.2,0.9,1.2,3.3v35.5c0,2.3,0.1,5-2.1,7.7s-21.8,28.6-23.5,30.9c-1.4,1.9-2.9,3.3-4.7,3.3
					C481.3,483.1,481,483,480.6,482.9z"/>
				<g>
					<defs>
						<path id="SVGID_11_" d="M480.6,482.9c-2.2-0.7-21.9-4.3-23.5-4.6c-1-0.2-1.5-0.4-1.8-1c-0.7-0.1-1.5-0.4-2.2-0.7
							c-1.3-0.7-10.3-5.2-11.3-5.7c-1.3-0.8-2-2.2-1.8-3.7v-39.1c0.1-1.7,0.8-3.3,1.8-4.7c1.3-1.8,23.8-31.3,24.8-32.6
							s4.9-2.2,6.4-1.9s19.1,4.2,21.2,4.7c1.6,0.3,3.2,0.9,4.6,1.9c1.4,0.9,9.1,5.1,10.4,5.7c0.6,0.3,1.1,0.7,1.5,1.2
							c0.7,0.3,1.2,0.9,1.2,3.3v35.5c0,2.3,0.1,5-2.1,7.7s-21.8,28.6-23.5,30.9c-1.4,1.9-2.9,3.3-4.7,3.3
							C481.3,483.1,481,483,480.6,482.9z"/>
					</defs>
					<clipPath id="SVGID_12_">
						<use xlink:href="#SVGID_11_"  style="overflow:visible;"/>
					</clipPath>
					<g id="Clip-6" class="st29">
						<path id="Фигура_764_копия_4" class="st4" d="M468.5,389l15,8.5c0,0,3.8,0.6,4.6,0.9s26.9,5.7,26.9,5.7l-18-11.4
							c0,0-21.1-4.3-23-4.7S468.5,389,468.5,389z"/>
						<path id="Фигура_763_копия_4" class="st30" d="M457.9,480.4c-0.7-0.3-1.1-1.1-0.9-1.9c0-0.7-1-42.9-1-42.9l-17-8.4
							l1,42.7c0,0-0.4,2.1,3.7,3.7S458.8,480.9,457.9,480.4z"/>
						<path id="Фигура_753_копия_14" class="st31" d="M455,437c0.2-1.8,0.9-3.6,2.1-5c1.5-2,22-29.2,23.5-31.2
							s2.9-3.8,5.7-3.2s22.3,4.4,23.5,4.6s2.1,0.3,2.1,3.5v37.7c0,2.3,0.1,3.1-2.1,5.9s-21.8,28.9-23.5,31.2s-3.5,3.9-5.7,3.2
							s-21.9-4.3-23.5-4.6s-2.1-0.6-2.1-3.5V437z"/>
						<path id="Фигура_753_копия_15" class="st5" d="M456,438c0.2-1.8,0.9-3.6,2.1-5c1.5-2,22-29.2,23.5-31.2
							s2.9-3.8,5.7-3.2s22.3,4.4,23.5,4.6s2.1,0.3,2.1,3.5v37.7c0,2.3,0.1,3.1-2.1,5.9s-21.8,28.9-23.5,31.2s-3.5,3.9-5.7,3.2
							s-21.9-4.3-23.5-4.6s-2.1-0.6-2.1-3.5V438z"/>
					</g>
				</g>
			</g>
			<g id="Фигура_753_копия_16-2">
				<path id="Фигура_753_копия_16-3" class="st30" d="M464,437.4c0.1-1.3,0.7-2.5,1.5-3.5c1.1-1.4,15.5-20.3,16.5-21.6
					s2-2.6,4-2.2s15.7,3.1,16.5,3.2s1.5,0.2,1.5,2.4v26.2c0,1.6,0.1,2.2-1.5,4.1s-15.3,20-16.5,21.6s-2.4,2.7-4,2.2
					s-15.3-3-16.5-3.2s-1.5-0.4-1.5-2.4V437.4z"/>
				<g>
					<defs>
						<path id="SVGID_13_" d="M464,437.4c0.1-1.3,0.7-2.5,1.5-3.5c1.1-1.4,15.5-20.3,16.5-21.6s2-2.6,4-2.2s15.7,3.1,16.5,3.2
							s1.5,0.2,1.5,2.4v26.2c0,1.6,0.1,2.2-1.5,4.1s-15.3,20-16.5,21.6s-2.4,2.7-4,2.2s-15.3-3-16.5-3.2s-1.5-0.4-1.5-2.4V437.4z"/>
					</defs>
					<clipPath id="SVGID_14_">
						<use xlink:href="#SVGID_13_"  style="overflow:visible;"/>
					</clipPath>
					<g id="Clip-7" class="st32">
						<path id="Фигура_568_копия" class="st4" d="M487,471l-17-12l-9-1v13l21,2L487,471z"/>
						<path id="Фигура_567_копия" class="st1" d="M505,444l-19-8l-19,26l22,10L505,444z"/>
						<path id="Фигура_753_копия_17" class="st33" d="M449,430.4c0.1-1.3,0.7-2.5,1.5-3.5c1.1-1.4,15.5-20.3,16.5-21.6
							s2-2.6,4-2.2s15.7,3.1,16.5,3.2s1.5,0.2,1.5,2.4v26.2c0,1.6,0.1,2.2-1.5,4.1s-15.3,20-16.5,21.6s-2.4,2.7-4,2.2
							s-15.3-3-16.5-3.2s-1.5-0.4-1.5-2.4V430.4z"/>
						<path id="Фигура_753_копия_18" class="st34" d="M456,433.4c0.1-1.3,0.7-2.5,1.5-3.5c1.1-1.4,15.5-20.3,16.5-21.6
							s2-2.6,4-2.2s15.7,3.1,16.5,3.2s1.5,0.2,1.5,2.4v26.2c0,1.6,0.1,2.2-1.5,4.1s-15.3,20-16.5,21.6s-2.4,2.7-4,2.2
							s-15.3-3-16.5-3.2s-1.5-0.4-1.5-2.4V433.4z"/>
					</g>
				</g>
			</g>
			<g id="Фигура_753_копия_19-2">
				<path id="Фигура_753_копия_19-3" class="st22" d="M453.2,349.9c0.1-0.9,0.4-1.7,1-2.4c0.7-1,10.6-14.1,11.3-15
					s1.4-1.8,2.7-1.5s10.7,2.1,11.3,2.2s1,0.1,1,1.7v28.3c0.1,1.1-0.3,2.1-1,2.9c-1.1,1.3-10.5,13.9-11.3,15s-1.7,1.9-2.7,1.5
					s-10.5-2.1-11.3-2.2s-1-0.3-1-1.7V349.9z"/>
				<g>
					<defs>
						<path id="SVGID_15_" d="M453.2,349.9c0.1-0.9,0.4-1.7,1-2.4c0.7-1,10.6-14.1,11.3-15s1.4-1.8,2.7-1.5s10.7,2.1,11.3,2.2
							s1,0.1,1,1.7v28.3c0.1,1.1-0.3,2.1-1,2.9c-1.1,1.3-10.5,13.9-11.3,15s-1.7,1.9-2.7,1.5s-10.5-2.1-11.3-2.2s-1-0.3-1-1.7V349.9
							z"/>
					</defs>
					<clipPath id="SVGID_16_">
						<use xlink:href="#SVGID_15_"  style="overflow:visible;"/>
					</clipPath>
					<g id="Clip-8" class="st35">
						<path id="Фигура_570_копия_2" class="st24" d="M467.7,383.1l-16.4-8.7l-1-27.4l10.1-12l7.2-9.1l12.5,4.8l4.8,6.3
							l-0.5,39.5L467.7,383.1z"/>
						<path id="Фигура_571_копия_2" class="st25" d="M452.3,378.3l10.6,2.4l5.8-10.1l-15.9-3.9l-5.8,6.7L452.3,378.3z"/>
						<path id="Фигура_753_копия_20" class="st26" d="M470.9,374.4c-1.1-0.3-10.5-2.1-11.3-2.2c-0.5-0.1-0.7-0.2-0.9-0.5
							c-0.4-0.1-0.7-0.2-1-0.4c-0.6-0.3-4.9-2.5-5.4-2.8c-0.6-0.4-1-1.1-0.9-1.8c0-0.9-0.5-17.3-0.5-17.8c0.1-0.8,0.4-1.6,0.9-2.2
							c0.6-0.9,8.6-16.5,9.1-17.1c0.9-0.7,2-1,3.1-0.9c0.8,0.2,4.9,0.1,5.9,0.3c0.8,0.1,1.5,0.5,2.2,0.9c0.7,0.4,11.1,4.9,11.7,5.2
							c0.3,0.1,0.5,0.3,0.6,0.6c0.4,0.2,0.7,0.8,0.7,2c0,1.5,1,15.5,1,16.6c0.1,1.3-0.2,2.7-1,3.7c-1.1,1.3-10.5,13.8-11.3,14.9
							c-0.7,0.9-1.4,1.6-2.2,1.6C471.2,374.5,471.1,374.5,470.9,374.4z"/>
						<path id="Фигура_764_копия_5" class="st27" d="M461.7,328.7l10.6,4.6c0.4,0.4,0.8,0.7,1.3,0.9
							c0.4,0.1,11.5,2.2,11.5,2.2l-13.9-7.9c0,0-5.8-0.1-6.7-0.3C463.4,328.3,462.5,328.4,461.7,328.7z"/>
						<path id="Фигура_763_копия_5" class="st28" d="M460,373.2c-0.3-0.2-0.5-0.5-0.4-0.9c0-0.4-1-19.7-1-19.7l-8.2-4.1
							l1,19.6c0,0-0.2,1,1.8,1.8S460.4,373.4,460,373.2z"/>
					</g>
				</g>
			</g>
			<g id="Фигура_753_копия_21-2">
				<path id="Фигура_753_копия_21-3" class="st1" d="M473.8,376.8c-1.1-0.3-10.5-2.1-11.3-2.2c-0.5-0.1-0.7-0.2-0.9-0.5
					c-0.4-0.1-0.7-0.2-1-0.4c-0.6-0.3-4.9-2.5-5.4-2.8c-0.6-0.4-1-1.1-0.9-1.8v-18.8c0.1-0.8,0.4-1.6,0.9-2.2
					c0.6-0.9,11.5-15.1,12-15.7c0.9-0.7,2-1,3.1-0.9c0.8,0.2,9.2,2,10.2,2.2c0.8,0.1,1.5,0.5,2.2,0.9c0.7,0.4,4.4,2.5,5,2.8
					c0.3,0.1,0.5,0.3,0.7,0.6c0.4,0.1,0.6,0.4,0.6,1.6v17.1c0.1,1.3-0.2,2.7-1,3.7c-1.1,1.3-10.5,13.8-11.3,14.9
					c-0.7,0.9-1.4,1.6-2.2,1.6C474.1,376.9,473.9,376.9,473.8,376.8z"/>
				<g>
					<defs>
						<path id="SVGID_17_" d="M473.8,376.8c-1.1-0.3-10.5-2.1-11.3-2.2c-0.5-0.1-0.7-0.2-0.9-0.5c-0.4-0.1-0.7-0.2-1-0.4
							c-0.6-0.3-4.9-2.5-5.4-2.8c-0.6-0.4-1-1.1-0.9-1.8v-18.8c0.1-0.8,0.4-1.6,0.9-2.2c0.6-0.9,11.5-15.1,12-15.7
							c0.9-0.7,2-1,3.1-0.9c0.8,0.2,9.2,2,10.2,2.2c0.8,0.1,1.5,0.5,2.2,0.9c0.7,0.4,4.4,2.5,5,2.8c0.3,0.1,0.5,0.3,0.7,0.6
							c0.4,0.1,0.6,0.4,0.6,1.6v17.1c0.1,1.3-0.2,2.7-1,3.7c-1.1,1.3-10.5,13.8-11.3,14.9c-0.7,0.9-1.4,1.6-2.2,1.6
							C474.1,376.9,473.9,376.9,473.8,376.8z"/>
					</defs>
					<clipPath id="SVGID_18_">
						<use xlink:href="#SVGID_17_"  style="overflow:visible;"/>
					</clipPath>
					<g id="Clip-9" class="st36">
						<path id="Фигура_764_копия_6" class="st4" d="M468,331.6l7.2,4.1c0,0,1.8,0.3,2.2,0.4s11.5,2.2,11.5,2.2l-7.2-5
							c0,0-10.1-2.1-11.1-2.2C469.7,331.2,468.8,331.3,468,331.6z"/>
						<path id="Фигура_763_копия_6" class="st30" d="M462.8,375.6c-0.3-0.2-0.5-0.5-0.4-0.9c0-0.4-0.5-20.6-0.5-20.6
							l-8.2-4.1l0.5,20.6c0,0-0.2,1,1.8,1.8S463.3,375.9,462.8,375.6z"/>
						<path id="Фигура_753_копия_22" class="st31" d="M461.4,354.7c0.1-0.9,0.4-1.7,1-2.4c0.7-1,10.6-14.1,11.3-15
							s1.4-1.8,2.7-1.5s10.7,2.1,11.3,2.2s1,0.1,1,1.7v18.2c0.1,1.1-0.3,2.1-1,2.9c-1.1,1.3-10.5,13.9-11.3,15s-1.7,1.9-2.7,1.5
							s-10.5-2.1-11.3-2.2s-1-0.3-1-1.7V354.7z"/>
						<path id="Фигура_753_копия_23" class="st5" d="M461.9,355.2c0.1-0.9,0.4-1.7,1-2.4c0.7-1,10.6-14.1,11.3-15
							s1.4-1.8,2.7-1.5s10.7,2.1,11.3,2.2s1,0.1,1,1.7v18.2c0.1,1.1-0.3,2.1-1,2.9c-1.1,1.3-10.5,13.9-11.3,15s-1.7,1.9-2.7,1.5
							s-10.5-2.1-11.3-2.2s-1-0.3-1-1.7V355.2z"/>
					</g>
				</g>
			</g>
			<g id="Фигура_753_копия_24-2">
				<path id="Фигура_753_копия_24-3" class="st30" d="M465.8,354.9c0.1-0.6,0.3-1.2,0.7-1.7c0.5-0.7,7.4-9.8,7.9-10.4
					s1-1.3,1.9-1.1s7.5,1.5,7.9,1.6s0.7,0.1,0.7,1.2v12.6c0.1,0.7-0.2,1.5-0.7,2c-0.7,0.9-7.4,9.6-7.9,10.4s-1.2,1.3-1.9,1.1
					s-7.4-1.4-7.9-1.6s-0.7-0.2-0.7-1.2V354.9z"/>
				<g>
					<defs>
						<path id="SVGID_19_" d="M465.8,354.9c0.1-0.6,0.3-1.2,0.7-1.7c0.5-0.7,7.4-9.8,7.9-10.4s1-1.3,1.9-1.1s7.5,1.5,7.9,1.6
							s0.7,0.1,0.7,1.2v12.6c0.1,0.7-0.2,1.5-0.7,2c-0.7,0.9-7.4,9.6-7.9,10.4s-1.2,1.3-1.9,1.1s-7.4-1.4-7.9-1.6s-0.7-0.2-0.7-1.2
							V354.9z"/>
					</defs>
					<clipPath id="SVGID_20_">
						<use xlink:href="#SVGID_19_"  style="overflow:visible;"/>
					</clipPath>
					<g id="Clip-10" class="st37">
						<path id="Фигура_568_копия_2" class="st4" d="M476.8,371.1l-8.2-5.8l-4.3-0.5v6.3l10.1,1L476.8,371.1z"/>
						<path id="Фигура_567_копия_2" class="st1" d="M485.5,358.1l-9.1-3.9l-9.1,12.5l10.6,4.8L485.5,358.1z"/>
						<path id="Фигура_753_копия_25" class="st33" d="M458.6,351.6c0.1-0.6,0.3-1.2,0.7-1.7c0.5-0.7,7.4-9.8,7.9-10.4
							s1-1.3,1.9-1.1s7.5,1.5,7.9,1.6s0.7,0.1,0.7,1.2v12.6c0.1,0.7-0.2,1.5-0.7,2c-0.7,0.9-7.4,9.6-7.9,10.4s-1.2,1.3-1.9,1.1
							s-7.4-1.4-7.9-1.6s-0.7-0.2-0.7-1.2V351.6z"/>
						<path id="Фигура_753_копия_26" class="st34" d="M461.9,353c0.1-0.6,0.3-1.2,0.7-1.7c0.5-0.7,7.4-9.8,7.9-10.4
							s1-1.3,1.9-1.1s7.5,1.5,7.9,1.6s0.7,0.1,0.7,1.2v12.6c0.1,0.7-0.2,1.5-0.7,2c-0.7,0.9-7.4,9.6-7.9,10.4s-1.2,1.3-1.9,1.1
							s-7.4-1.4-7.9-1.6s-0.7-0.2-0.7-1.2V353z"/>
					</g>
				</g>
			</g>
			<g id="Фигура_753_копия_27-2">
				<path id="Фигура_753_копия_27-3" class="st1" d="M498.8,498.4c-1.7-0.5-16.7-3.3-18-3.5c-0.7-0.1-1.2-0.3-1.4-0.8
					c-0.6-0.1-1.1-0.3-1.6-0.6c-1-0.5-7.8-3.9-8.6-4.4c-1-0.6-1.5-1.7-1.4-2.8v-29.8c0.1-1.3,0.6-2.5,1.4-3.5
					c1-1.4,18.2-23.9,19-24.8s3.7-1.7,4.9-1.4s14.6,3.2,16.1,3.5c1.3,0.2,2.4,0.7,3.5,1.4c1.1,0.7,6.9,3.9,7.9,4.4
					c0.5,0.2,0.9,0.5,1.2,0.9c0.6,0.2,0.9,0.7,0.9,2.5v27.1c0.2,2.1-0.4,4.2-1.6,5.9c-1.7,2.1-16.7,21.8-18,23.5
					c-1.1,1.5-2.2,2.5-3.6,2.5C499.3,498.5,499,498.5,498.8,498.4z"/>
				<g>
					<defs>
						<path id="SVGID_21_" d="M498.8,498.4c-1.7-0.5-16.7-3.3-18-3.5c-0.7-0.1-1.2-0.3-1.4-0.8c-0.6-0.1-1.1-0.3-1.6-0.6
							c-1-0.5-7.8-3.9-8.6-4.4c-1-0.6-1.5-1.7-1.4-2.8v-29.8c0.1-1.3,0.6-2.5,1.4-3.5c1-1.4,18.2-23.9,19-24.8s3.7-1.7,4.9-1.4
							s14.6,3.2,16.1,3.5c1.3,0.2,2.4,0.7,3.5,1.4c1.1,0.7,6.9,3.9,7.9,4.4c0.5,0.2,0.9,0.5,1.2,0.9c0.6,0.2,0.9,0.7,0.9,2.5v27.1
							c0.2,2.1-0.4,4.2-1.6,5.9c-1.7,2.1-16.7,21.8-18,23.5c-1.1,1.5-2.2,2.5-3.6,2.5C499.3,498.5,499,498.5,498.8,498.4z"/>
					</defs>
					<clipPath id="SVGID_22_">
						<use xlink:href="#SVGID_21_"  style="overflow:visible;"/>
					</clipPath>
					<g id="Clip-11" class="st38">
						<path id="Фигура_764_копия_7" class="st4" d="M489.5,426.8l11.4,6.5c0,0,2.9,0.5,3.5,0.7s20.5,4.3,20.5,4.3
							l-13.7-8.7c0,0-16.1-3.3-17.5-3.5S489.5,426.8,489.5,426.8z"/>
						<path id="Фигура_763_копия_7" class="st30" d="M481.4,496.5c-0.5-0.3-0.8-0.8-0.7-1.4c0-0.6-0.8-32.7-0.8-32.7
							l-13-6.4l0.8,32.6c0,0-0.3,1.6,2.8,2.8S482.1,496.8,481.4,496.5z"/>
						<path id="Фигура_753_копия_28" class="st31" d="M479.2,463.4c0.1-1.4,0.7-2.7,1.6-3.8c1.2-1.6,16.8-22.3,18-23.8
							s2.2-2.9,4.4-2.5s17,3.4,18,3.5s1.6,0.2,1.6,2.7v28.8c0,1.7,0.1,2.4-1.6,4.5s-16.7,22-18,23.8s-2.6,3-4.4,2.5
							s-16.7-3.3-18-3.5s-1.6-0.4-1.6-2.7L479.2,463.4z"/>
						<path id="Фигура_753_копия_29" class="st5" d="M480,464.2c0.1-1.4,0.7-2.7,1.6-3.8c1.2-1.6,16.8-22.3,18-23.8
							s2.2-2.9,4.4-2.5s17,3.4,18,3.5s1.6,0.2,1.6,2.7v28.8c0,1.7,0.1,2.4-1.6,4.5s-16.7,22-18,23.8s-2.6,3-4.4,2.5
							s-16.7-3.3-18-3.5s-1.6-0.4-1.6-2.7L480,464.2z"/>
					</g>
				</g>
			</g>
		</g>
		<g id="_c_копия_2">
			<g id="Фигура_2180-2">
				<path id="Фигура_2180-3" class="st10" d="M395.1,509c3.2,1.6,7,1.3,10-0.7c3.9-2.4,1.6-0.1,4.4-1.8s6.5-4.5,6.5-11.4v-139
					c-0.2-10-5.5-19.2-13.9-24.4c-9-5.5-191.5-114.1-195.5-116.4s-7-1.3-9.7,0.3s-2,0.7-5,2.4s-5.8,4-5.8,9.1v142.3
					c0,9.9,3.3,17.5,13.9,23.5S392.5,507.8,395.1,509z"/>
				<g>
					<defs>
						<path id="SVGID_23_" d="M395.1,509c3.2,1.6,7,1.3,10-0.7c3.9-2.4,1.6-0.1,4.4-1.8s6.5-4.5,6.5-11.4v-139
							c-0.2-10-5.5-19.2-13.9-24.4c-9-5.5-191.5-114.1-195.5-116.4s-7-1.3-9.7,0.3s-2,0.7-5,2.4s-5.8,4-5.8,9.1v142.3
							c0,9.9,3.3,17.5,13.9,23.5S392.5,507.8,395.1,509z"/>
					</defs>
					<clipPath id="SVGID_24_">
						<use xlink:href="#SVGID_23_"  style="overflow:visible;"/>
					</clipPath>
					<g id="Clip-12" class="st39">
						<path id="Фигура_2183" class="st12" d="M402,341.9l9-5l7.2,13.3l-12.9,6L402,341.9z"/>
						<path id="Фигура_2182" class="st13" d="M402,341.9l10-5.3c0,0-2.4-3.9-9.8-8.1S210.3,214.6,205.9,212.3
							s-7.4-1.6-9.8-0.3s-5.1,2.7-8.3,4.7s-5.8,8.5-1,8.4s4.7-3.1,13,1S383.4,336.3,389.9,340S402,341.9,402,341.9z"/>
						<path id="Фигура_2181" class="st14" d="M393.7,509.1c3.9,2.2,14.4,5.1,14.4-8.5V359.4c0-11.2-3.6-19.6-13.1-25
							c-9.8-5.6-189.2-111.9-196.3-115.8s-13.7-0.8-13.7,8.8v142.1c0,3.9,1.5,15.3,10.4,20.9S389.8,507,393.7,509.1z"/>
					</g>
				</g>
			</g>
			<path id="Фигура_2181_копия" class="st15" d="M391.3,502.2c3.7,2.1,13.7,4.9,13.7-8.1V361.3
				c0-10.7-3.5-18.7-12.5-23.9c-9.3-5.4-184.7-109.1-191.4-112.8s-13.1-0.7-13.1,8.4v135.6c0,3.7,1.4,14.6,10,20
				S387.6,500.1,391.3,502.2z"/>
			<path id="Эллипс_3848" class="st40" d="M203.4,231.8c1.4,0.9,2.3,2.5,2.4,4.2c0,1.5-1.1,2.1-2.4,1.4
				c-1.4-0.9-2.3-2.5-2.4-4.2C201,231.6,202,231,203.4,231.8z"/>
			<path id="Эллипс_3848_копия_2" class="st41" d="M220.6,247.2c-1.4-0.9-2.3-2.5-2.4-4.2c0-1.5,1.1-2.1,2.4-1.4
				c1.4,0.9,2.3,2.5,2.4,4.2c0,1.1-0.5,1.7-1.3,1.7C221.3,247.5,220.9,247.4,220.6,247.2z M212,242.2c-1.4-0.9-2.3-2.5-2.4-4.2
				c0-1.5,1.1-2.1,2.4-1.4c1.4,0.9,2.3,2.5,2.4,4.2c0,1.1-0.5,1.7-1.3,1.7C212.7,242.6,212.3,242.4,212,242.2L212,242.2z"/>
		</g>
		<path id="Customisable-2" class="st42" d="M419.2,271.2c-3.2-1.9-3.1-5.3,0.1-7.8c3.3-2.6,7.9-3,11.6-1c1.4,0.7,2.3,2.1,2.4,3.7
			c0,0.2-0.1,0.4-0.4,0.4l-2.6,0.2c-0.3,0-0.4,0-0.5-0.3c-0.3-0.7-0.8-1.3-1.4-1.6c-1.2-0.8-2.7-0.9-4.1-0.3l6.3,3.8
			c0.7,0.4,0.4,0.9-0.6,1.6c-1.9,1.5-4.2,2.3-6.6,2.3C421.9,272.3,420.4,271.9,419.2,271.2z M422.3,268.8c1.1,0.6,2.5,0.6,3.6-0.2
			l-4-2.4c-0.6,0.5-0.7,1.5-0.2,2.1C421.9,268.5,422.1,268.7,422.3,268.8L422.3,268.8z M406.6,270.7l-3-1.8c-0.2-0.1-0.2-0.3,0-0.5
			l15.5-12.2c0.2-0.2,0.5-0.2,0.7-0.1l3,1.8c0.2,0.1,0.2,0.3,0,0.5l-15.5,12.2c-0.1,0.1-0.2,0.1-0.4,0.1
			C406.8,270.8,406.7,270.8,406.6,270.7L406.6,270.7z M393.3,262.8l-3-1.8c-0.2-0.1-0.2-0.3,0-0.5l15.5-12.2
			c0.2-0.2,0.5-0.2,0.7-0.1l2.7,1.6c0.2,0.1,0.2,0.3,0,0.5l-0.6,0.6c1.5-0.2,3,0,4.3,0.7c3,1.8,2.7,5.1-0.5,7.6s-8,3.2-11,1.4
			c-1-0.5-1.6-1.5-1.6-2.6l-5.9,4.7c-0.1,0.1-0.2,0.1-0.4,0.1C393.5,262.9,393.4,262.9,393.3,262.8L393.3,262.8z M404.5,254.6
			c-1.3,1-1.4,2.4-0.2,3.2c1.5,0.7,3.3,0.5,4.5-0.6c1.4-1.1,1.5-2.4,0.2-3.2c-0.5-0.3-1.1-0.4-1.7-0.4
			C406.4,253.6,405.3,254,404.5,254.6z M393.1,255.3l-2.7-1.6c-0.2-0.1-0.2-0.3,0-0.5l0.8-0.7c-1.5,0.3-3.1,0-4.4-0.7
			c-3-1.8-2.7-5.1,0.5-7.6s8-3.2,11-1.4c1.1,0.5,1.7,1.6,1.7,2.8l0.8-0.5c0.2-0.1,0.5-0.2,0.7-0.1l2.7,1.6c0.2,0.1,0.2,0.3,0,0.5
			l-10.2,8.1c-0.1,0.1-0.2,0.1-0.4,0.1C393.2,255.4,393.1,255.4,393.1,255.3L393.1,255.3z M390.7,246.4c-1.4,1.1-1.4,2.4-0.2,3.1
			c1.5,0.7,3.3,0.5,4.5-0.6c1.3-1,1.5-2.4,0.2-3.2c-0.5-0.3-1.1-0.4-1.7-0.4C392.5,245.4,391.5,245.7,390.7,246.4L390.7,246.4z
			 M375.8,245.4c-2-1.2-2.7-3.3-0.4-5.1c2.2-1.7,4.6-1.2,6.4-0.8c1.3,0.3,2.3,0.6,2.8,0.3c0.5-0.4-0.1-0.8-0.4-1
			c-1-0.5-2.2-0.8-3.3-0.8c-0.3,0-0.5-0.1-0.5-0.3l0.5-1.9c0.1-0.2,0.3-0.3,0.5-0.4c2.1-0.3,4.2,0.1,6,1.1c2.1,1.2,3.2,3.6,0.9,5.4
			c-2.4,1.9-4.7,1.4-6.5,0.9c-1.2-0.4-2.2-0.7-2.8-0.3c-0.2,0.2-0.4,0.5,0.2,0.9c0.8,0.4,1.7,0.6,2.6,0.6c0.3,0,0.6,0.1,0.5,0.3
			l-0.4,1.8c0,0.2-0.2,0.4-0.4,0.4c-0.4,0.1-0.9,0.1-1.3,0.1C378.6,246.5,377.1,246.2,375.8,245.4L375.8,245.4z M362.8,245.1
			c-1.1-0.6-1.1-1.8,0-2.7c1.1-0.8,2.6-1,3.9-0.4c1.1,0.6,1.1,1.8,0,2.7c-0.7,0.5-1.5,0.8-2.3,0.8
			C363.9,245.6,363.3,245.4,362.8,245.1L362.8,245.1z M370,241.6l-3-1.8c-0.2-0.1-0.2-0.3,0-0.5l10.2-8.1c0.2-0.2,0.5-0.2,0.7-0.1
			l3,1.8c0.2,0.1,0.2,0.3,0,0.5l-10.2,8c-0.1,0.1-0.2,0.1-0.4,0.1C370.2,241.7,370.1,241.7,370,241.6L370,241.6z M360.1,236.1
			c-1.4-0.7-2.2-2.2-1.8-3.8c-1.7,0.6-3.6,0.4-5.3-0.4c-1.3-0.6-1.9-2.1-1.4-3.5l-1.4,1c-0.2,0.1-0.5,0.2-0.7,0.1l-2.9-1.7
			c-0.2-0.1-0.2-0.3,0-0.5l10.2-8.1c0.2-0.2,0.5-0.2,0.7-0.1l3,1.8c0.2,0.1,0.2,0.3,0,0.5l-5.5,4.3c-0.7,0.4-0.9,1.4-0.5,2.1
			c0.1,0.2,0.3,0.4,0.5,0.5c0.8,0.5,2.1,0.7,3.8-0.6l5.2-4.1c0.2-0.2,0.5-0.2,0.7-0.1l3,1.8c0.2,0.1,0.2,0.3,0,0.5l-5.8,4.5
			c-0.6,0.5-0.7,1.3-0.3,2c0.1,0.2,0.3,0.3,0.5,0.4c0.8,0.5,2.1,0.8,3.9-0.6l5.2-4.1c0.2-0.2,0.5-0.2,0.7-0.1l3,1.8
			c0.2,0.1,0.2,0.3,0,0.5l-6,4.8c-1.6,1.3-3.6,2-5.7,2.1C362.3,237,361.2,236.7,360.1,236.1L360.1,236.1z M338.8,223.4
			c-3.2-1.9-3.2-5.4-0.1-7.9c3.2-2.5,8.3-3,11.4-1.1c3.2,1.9,3.2,5.4,0.1,7.9c-2,1.5-4.3,2.3-6.8,2.2
			C341.8,224.6,340.2,224.2,338.8,223.4L338.8,223.4z M342.3,217.6c-1.4,1.1-1.3,2.4-0.1,3.1c1.5,0.7,3.2,0.5,4.5-0.5
			c1.3-1.1,1.3-2.4,0.1-3.1c-0.5-0.3-1.1-0.4-1.7-0.4C344,216.7,343,217,342.3,217.6L342.3,217.6z M326.8,220.6l-3-1.8
			c-0.2-0.1-0.2-0.3,0-0.5l3-2.4l-1.6-0.9c-0.2-0.1-0.2-0.3,0-0.5l2.3-1.8c0.2-0.2,0.5-0.2,0.7-0.1l1.6,0.9l7.6-6
			c0.2-0.2,0.5-0.2,0.7-0.1l3,1.8c0.2,0.1,0.2,0.3,0,0.5l-7.6,6l1.6,0.9c0.2,0.1,0.2,0.3,0,0.5l-2.3,1.8c-0.2,0.2-0.5,0.2-0.7,0.1
			l-1.6-0.9l-3,2.4c-0.1,0.1-0.2,0.1-0.4,0.1C327,220.6,326.9,220.6,326.8,220.6L326.8,220.6z M319.6,212c-2-1.2-2.7-3.3-0.4-5.1
			c2.2-1.7,4.6-1.2,6.4-0.8c1.3,0.3,2.3,0.6,2.8,0.3c0.5-0.4-0.1-0.8-0.4-1c-1-0.5-2.2-0.8-3.3-0.8c-0.3,0-0.5-0.1-0.5-0.3l0.5-1.9
			c0.1-0.2,0.3-0.3,0.5-0.4c2.1-0.3,4.2,0.1,6,1.1c2.1,1.2,3.2,3.6,0.9,5.4c-2.4,1.9-4.7,1.4-6.5,0.9c-1.2-0.4-2.2-0.7-2.8-0.3
			c-0.2,0.2-0.4,0.5,0.2,0.9c0.8,0.4,1.7,0.6,2.6,0.6c0.3,0,0.6,0.1,0.5,0.3l-0.4,1.8c0,0.2-0.2,0.4-0.4,0.4
			c-0.4,0.1-0.9,0.1-1.3,0.1C322.3,213.1,320.8,212.8,319.6,212z M313.8,208.2l-3-1.8c-0.2-0.1-0.2-0.3,0-0.5l5.6-4.4
			c0.8-0.7,1.2-1.7-0.1-2.5c-0.7-0.4-2.1-0.8-3.8,0.6l-5.3,4.2c-0.2,0.2-0.5,0.2-0.7,0.1l-3-1.8c-0.2-0.1-0.2-0.3,0-0.5l6.1-4.8
			c2.9-2.3,6.5-2.7,8.9-1.2c1.2,0.6,1.7,2,1.3,3.3l1.3-0.9c0.2-0.1,0.5-0.2,0.7-0.1l2.9,1.7c0.2,0.1,0.2,0.3,0,0.5l-10.2,8.1
			c-0.1,0.1-0.2,0.1-0.4,0.1C313.9,208.3,313.8,208.3,313.8,208.2L313.8,208.2z M291.1,201.5c-4.5-2.7-4.6-7.6-0.1-11.2
			c4.5-3.5,11.6-4.1,16.1-1.5c2.2,1.3,3.3,3.2,3.3,5.1c0,0.2-0.2,0.3-0.5,0.4l-4,0.5c-0.3,0.1-0.5,0-0.5-0.2c-0.2-1.2-0.9-2.3-2-2.8
			c-2.7-1.4-6-1-8.4,0.9c-2.5,1.9-2.5,4.5-0.1,5.9c1.3,0.7,2.9,1.1,4.4,1c0.3,0,0.5,0.1,0.4,0.3l-0.1,2.8c0,0.2-0.2,0.4-0.5,0.4
			c-0.6,0.1-1.1,0.1-1.7,0.1C295.1,203.1,293,202.5,291.1,201.5L291.1,201.5z"/>
		<path id="module.exports_arkecosystem_core-event-emitter_:_" class="st43" d="M200.8,373.3l-0.6-0.4c-0.1-0.1-0.1-0.1-0.1-0.2
			V372c0-0.1,0-0.1,0.1-0.1l0.2,0.1c0.2,0.1,0.3,0,0.3-0.2v-2.7c0-0.1,0-0.1,0-0.2l0.3-0.4c0-0.1,0-0.2,0-0.2l-0.3-0.7
			c0-0.1,0-0.1,0-0.2v-2.7c0-0.2-0.1-0.4-0.3-0.5l-0.2-0.1c-0.1-0.1-0.1-0.1-0.1-0.2v-0.6c0-0.1,0-0.1,0.1-0.1l0.6,0.4
			c0.4,0.3,0.7,0.8,0.7,1.4v3c0,0.1,0,0.2,0,0.2l0.3,0.8c0,0.1,0,0.2,0,0.2l-0.3,0.4c0,0.1,0,0.1,0,0.2v3c0,0.5-0.2,0.7-0.4,0.7
			C201,373.4,200.9,373.3,200.8,373.3z M262.2,302.8l-0.6-0.4c-0.4-0.3-0.7-0.8-0.7-1.4v-3c0-0.1,0-0.2,0-0.2l-0.3-0.7
			c0-0.1,0-0.2,0-0.2l0.3-0.4c0-0.1,0-0.1,0-0.2v-3c0-0.7,0.3-0.8,0.7-0.6l0.6,0.4c0.1,0.1,0.1,0.1,0.1,0.2v0.6c0,0.1,0,0.1-0.1,0.1
			l-0.2-0.1c-0.2-0.1-0.3,0-0.3,0.2v2.7c0,0.1,0,0.1,0,0.2l-0.3,0.4c0,0.1,0,0.2,0,0.2l0.3,0.7c0,0.1,0,0.2,0,0.2v2.7
			c0,0.2,0.1,0.4,0.3,0.5l0.2,0.1c0.1,0.1,0.1,0.1,0.1,0.2v0.6C262.3,302.8,262.3,302.8,262.2,302.8
			C262.2,302.8,262.2,302.8,262.2,302.8L262.2,302.8z M257.6,296.7l-2.5-1.5c-0.1-0.1-0.1-0.1-0.1-0.2v-0.6c0-0.1,0-0.1,0.1-0.1
			l2.5,1.5c0.1,0.1,0.1,0.1,0.1,0.2v0.6C257.7,296.7,257.7,296.7,257.6,296.7C257.6,296.7,257.6,296.7,257.6,296.7L257.6,296.7z
			 M257.6,295.1l-2.5-1.5c-0.1-0.1-0.1-0.1-0.1-0.2v-0.6c0-0.1,0-0.1,0.1-0.1l2.5,1.5c0.1,0.1,0.1,0.1,0.1,0.2v0.6
			C257.7,295.1,257.7,295.1,257.6,295.1C257.6,295.1,257.6,295.1,257.6,295.1L257.6,295.1z M250.8,294.7c-0.6-0.4-1.1-1.1-1.5-1.8
			c0-0.1,0-0.2,0-0.2l0.2-0.3c0.1-0.1,0.1,0,0.2,0.1c0.2,0.5,0.6,0.9,1,1.2c0.3,0.2,0.6,0.2,0.6-0.2c0-1.1-2-1.9-2-3.7
			c0-1,0.6-1.2,1.3-0.8c0.6,0.4,1,0.9,1.3,1.6c0,0.1,0,0.2,0,0.2l-0.2,0.3c0,0.1-0.1,0-0.2-0.1c-0.2-0.4-0.5-0.7-0.8-1
			c-0.3-0.2-0.5-0.1-0.5,0.3c0,1.1,2,1.8,2,3.7c0,0.7-0.3,1-0.8,1C251.3,294.9,251,294.9,250.8,294.7L250.8,294.7z M248.2,293
			l-0.6-0.4c-0.1-0.1-0.1-0.1-0.1-0.2v-4.3l-0.6-0.3c-0.1-0.1-0.1-0.1-0.1-0.2v-0.6c0-0.1,0-0.1,0.1-0.1l0.6,0.3v-1.5
			c0-0.1,0-0.1,0.1-0.1l0.6,0.4c0.1,0.1,0.1,0.1,0.1,0.2v1.5l0.6,0.3c0.1,0.1,0.1,0.1,0.1,0.2v0.6c0,0.1,0,0.1-0.1,0.1l-0.6-0.3v4.3
			C248.3,293,248.3,293,248.2,293C248.2,293,248.2,293,248.2,293L248.2,293z M244.9,291.1l-0.6-0.4c-0.1-0.1-0.1-0.1-0.1-0.2v-5.1
			c0-0.1,0-0.1,0.1-0.1l0.6,0.3c0.1,0.1,0.1,0.1,0.1,0.2l0,0.6c0.1-0.3,0.5-0.5,0.8-0.3c0.1,0,0.1,0.1,0.1,0.1
			c0.2,0.1,0.4,0.3,0.5,0.5c0.1,0.1,0.1,0.2,0,0.2l-0.2,0.5c0,0.1-0.1,0.1-0.2,0c-0.1-0.1-0.2-0.2-0.3-0.3c-0.5-0.3-0.8,0-0.8,0.7
			v3.1C245,291,244.9,291.1,244.9,291.1C244.9,291.1,244.9,291.1,244.9,291.1L244.9,291.1z M241.5,289.2c-1.3-1-2-2.4-2-4
			c0-1.6,0.9-2.3,2-1.7c1.3,1,2,2.4,2,4c0,1.2-0.5,1.9-1.2,1.9C242,289.5,241.8,289.4,241.5,289.2L241.5,289.2z M240.4,285.7
			c0,1,0.4,1.9,1.2,2.5c0.7,0.4,1.2,0,1.2-1.1c0-1-0.4-1.9-1.2-2.5c-0.1-0.1-0.3-0.1-0.5-0.1C240.6,284.4,240.4,284.9,240.4,285.7
			L240.4,285.7z M235.9,287.8l-0.6-0.4c-0.1-0.1-0.1-0.1-0.1-0.2v-2c0,0,0,0,0-0.1V280c0-0.1,0-0.1,0.1-0.1l0.5,0.3
			c0.1,0.1,0.1,0.1,0.1,0.2l0,0.6c0.3-0.4,0.9-0.4,1.3-0.1c1.2,1,1.9,2.4,1.9,4c0,1.6-0.8,2.4-1.9,1.7c-0.6-0.4-1-0.9-1.2-1.5v2.6
			C236,287.8,236,287.8,235.9,287.8C235.9,287.8,235.9,287.8,235.9,287.8L235.9,287.8z M236,283c0,1,0.4,1.9,1.2,2.5
			c0.7,0.4,1.2-0.1,1.2-1.1c0-1-0.4-1.9-1.2-2.5c-0.1-0.1-0.3-0.1-0.4-0.1C236.2,281.8,236,282.3,236,283L236,283z M234.4,284.9
			l-0.7-0.4c-0.1,0-0.1-0.1-0.1-0.2l-0.8-2.3l-0.8,1.3c0,0-0.1,0.1-0.1,0c0,0,0,0,0,0l-0.7-0.4c-0.1,0-0.1-0.2-0.1-0.2c0,0,0,0,0,0
			l1.2-1.9l-1.2-3.2c-0.1-0.1,0-0.2,0.1-0.2l0.7,0.4c0.1,0,0.1,0.1,0.1,0.2l0.7,2.1l0.8-1.2c0-0.1,0.1-0.1,0.1,0l0.7,0.4
			c0.1,0,0.1,0.1,0.1,0.2c0,0,0,0,0,0l-1.2,1.7l1.2,3.3C234.6,284.8,234.5,284.9,234.4,284.9C234.5,284.9,234.4,284.9,234.4,284.9
			L234.4,284.9z M229.2,281.9c-1.3-0.9-2-2.4-2-4c0-1.6,0.8-2.4,1.9-1.7c1.2,0.9,1.9,2.3,1.8,3.8c0,0.4,0,0.6-0.3,0.5l-2.7-1.6
			c0.1,0.9,0.5,1.7,1.3,2.2c0.3,0.2,0.6,0.2,0.9,0.1c0.1,0,0.1,0,0.2,0.1l0.3,0.5c0.1,0.1,0.1,0.2,0,0.3c-0.2,0.2-0.4,0.2-0.6,0.2
			C229.7,282.1,229.4,282.1,229.2,281.9L229.2,281.9z M228,278l2.2,1.3c0-0.8-0.4-1.6-1.1-2.1c-0.1-0.1-0.3-0.1-0.4-0.1
			C228.3,277,228,277.4,228,278L228,278z M226.2,280.1c-0.3-0.2-0.5-0.6-0.5-1c0-0.4,0.2-0.6,0.5-0.4c0.3,0.2,0.5,0.6,0.5,1
			c0,0.3-0.1,0.5-0.3,0.5C226.3,280.2,226.2,280.2,226.2,280.1L226.2,280.1z M223.7,278.7c-1.3-0.9-2-2.4-2-4c0-1.6,0.8-2.4,1.9-1.7
			c1.2,0.9,1.9,2.3,1.8,3.8c0,0.4,0,0.6-0.3,0.5l-2.7-1.6c0.1,0.9,0.5,1.7,1.3,2.2c0.3,0.2,0.6,0.2,0.9,0.1c0.1,0,0.1,0,0.2,0.1
			l0.3,0.5c0.1,0.1,0.1,0.2,0,0.3c-0.2,0.2-0.4,0.2-0.6,0.2C224.2,278.9,224,278.8,223.7,278.7L223.7,278.7z M222.5,274.7l2.2,1.3
			c0-0.8-0.4-1.6-1.1-2.1c-0.1-0.1-0.3-0.1-0.4-0.1C222.8,273.8,222.6,274.1,222.5,274.7L222.5,274.7z M221,276.9l-0.6-0.4
			c-0.1-0.1-0.1-0.1-0.1-0.2v-7.8c0-0.1,0-0.1,0.1-0.1l0.6,0.4c0.1,0.1,0.1,0.1,0.1,0.2v7.8C221.1,276.9,221.1,276.9,221,276.9
			C221,276.9,221,276.9,221,276.9L221,276.9z M219.4,276l-0.6-0.3c-0.1-0.1-0.1-0.1-0.1-0.2l0-0.7c-0.2,0.4-0.7,0.5-1.1,0.3
			c0,0-0.1,0-0.1-0.1c-1-0.7-1.5-1.9-1.4-3.1v-3.2c0-0.1,0-0.1,0.1-0.1l0.6,0.4c0.1,0.1,0.1,0.1,0.1,0.2v3c-0.1,0.7,0.2,1.4,0.8,1.8
			c0.6,0.4,1-0.2,1-0.6v-3.2c0-0.1,0-0.1,0.1-0.1l0.6,0.4c0.1,0.1,0.1,0.1,0.1,0.2v5.1C219.5,275.9,219.5,276,219.4,276
			C219.4,276,219.4,276,219.4,276L219.4,276z M215.2,273.5l-0.5-0.3c-0.1-0.1-0.1-0.1-0.1-0.2l0-0.6c-0.3,0.4-0.9,0.4-1.3,0.1
			c-1.2-0.9-1.9-2.4-1.9-4c0-1.6,0.8-2.4,1.9-1.7c0.6,0.4,1,0.9,1.2,1.6v-3.2c0-0.1,0-0.1,0.1-0.1l0.6,0.4c0.1,0.1,0.1,0.1,0.1,0.2
			v7.8C215.3,273.5,215.3,273.5,215.2,273.5C215.3,273.5,215.2,273.5,215.2,273.5L215.2,273.5z M212.2,269c0,1,0.4,1.9,1.2,2.5
			c0.7,0.4,1.2-0.1,1.2-1.1c0-1-0.4-1.9-1.2-2.5c-0.1-0.1-0.3-0.1-0.5-0.1C212.5,267.7,212.2,268.2,212.2,269L212.2,269z M209,269.9
			c-1.3-1-2-2.4-2-4c0-1.6,0.9-2.3,2-1.7c1.3,1,2,2.4,2,4c0,1.2-0.5,1.9-1.2,1.9C209.5,270.1,209.2,270.1,209,269.9L209,269.9z
			 M207.8,266.3c0,1,0.4,1.9,1.2,2.5c0.7,0.4,1.2,0,1.2-1.1c0-1-0.4-1.9-1.2-2.5c-0.1-0.1-0.3-0.1-0.5-0.1
			C208.1,265.1,207.8,265.6,207.8,266.3L207.8,266.3z M206.2,268.1l-0.6-0.4c-0.1-0.1-0.1-0.1-0.1-0.2v-3c0.1-0.7-0.2-1.4-0.8-1.8
			c-0.7-0.4-1,0.2-1,0.6v3.1c0,0.1,0,0.1-0.1,0.1l-0.6-0.4c-0.1-0.1-0.1-0.1-0.1-0.2v-3c0.1-0.7-0.2-1.4-0.8-1.8
			c-0.7-0.4-1,0.3-1,0.6v3.2c0,0.1,0,0.1-0.1,0.1l-0.6-0.4c-0.1-0.1-0.1-0.1-0.1-0.2v-5.1c0-0.1,0-0.1,0.1-0.1l0.6,0.3
			c0.1,0.1,0.1,0.1,0.1,0.2l0,0.8c0.2-0.4,0.7-0.6,1.1-0.4c0,0,0.1,0.1,0.1,0.1c0.6,0.4,1,1.1,1.2,1.8c0.3-0.4,0.7-0.6,1.4-0.2
			c1,0.7,1.5,1.9,1.4,3.1v3.2C206.4,268.1,206.3,268.2,206.2,268.1C206.3,268.2,206.3,268.2,206.2,268.1L206.2,268.1z"/>
		<path id="module.exports_arkecosystem_core-event-emitter_:_копия" class="st16" d="M343.1,365.7L343.1,365.7
			c-0.1-0.1-0.2-0.1-0.1-0.2c0.1-0.3,0.2-0.5,0.1-0.8c-0.3-0.2-0.5-0.6-0.5-1c0-0.4,0.2-0.5,0.5-0.4c0.3,0.3,0.5,0.7,0.5,1.1
			C343.6,364.9,343.5,365.3,343.1,365.7C343.2,365.7,343.2,365.7,343.1,365.7C343.1,365.7,343.1,365.7,343.1,365.7z M341,364.7
			l-0.6-0.4c-0.1-0.1-0.1-0.1-0.1-0.2v-0.6c0-0.1,0-0.1,0.1-0.1l0.2,0.1c0.2,0.1,0.3,0,0.3-0.2v-2.6c0-0.1,0-0.1,0-0.2l0.3-0.4
			c0-0.1,0-0.2,0-0.2l-0.3-0.7c0-0.1,0-0.1,0-0.2v-2.6c0-0.2-0.1-0.4-0.3-0.5l-0.2-0.1c-0.1-0.1-0.1-0.1-0.1-0.2v-0.6
			c0-0.1,0-0.1,0.1-0.1l0.6,0.4c0.4,0.3,0.7,0.8,0.7,1.4v3c0,0.1,0,0.2,0,0.2l0.3,0.8c0,0.1,0,0.1,0,0.2l-0.3,0.4c0,0.1,0,0.1,0,0.2
			v3c0,0.5-0.2,0.7-0.4,0.7C341.2,364.8,341.1,364.8,341,364.7L341,364.7z M339.5,363.9l-0.6-0.4c-0.4-0.3-0.7-0.8-0.7-1.4v-3
			c0-0.1,0-0.2,0-0.2l-0.3-0.7c0-0.1,0-0.2,0-0.2l0.3-0.4c0-0.1,0-0.1,0-0.2v-3c0-0.7,0.3-0.8,0.7-0.6l0.6,0.4
			c0.1,0.1,0.1,0.1,0.1,0.2v0.6c0,0.1,0,0.1-0.1,0.1l-0.2-0.1c-0.2-0.1-0.3,0-0.3,0.2v2.7c0,0.1,0,0.1,0,0.2l-0.3,0.4
			c0,0.1,0,0.2,0,0.2l0.3,0.7c0,0.1,0,0.2,0,0.2v2.6c0,0.2,0.1,0.4,0.3,0.5l0.2,0.1c0.1,0.1,0.1,0.1,0.1,0.2v0.6
			C339.7,363.9,339.6,363.9,339.5,363.9C339.6,363.9,339.5,363.9,339.5,363.9L339.5,363.9z M334.7,359.7c-0.3-0.2-0.5-0.6-0.5-1
			c0-0.4,0.2-0.5,0.5-0.4c0.3,0.2,0.5,0.6,0.5,1c0,0.3-0.1,0.5-0.3,0.5C334.8,359.8,334.8,359.8,334.7,359.7L334.7,359.7z
			 M330,356.8l-0.6-0.4c-0.1-0.1-0.1-0.1-0.1-0.2v-5.1c0-0.1,0-0.1,0.1-0.1l0.6,0.3c0.1,0.1,0.1,0.1,0.1,0.2l0,0.6
			c0.1-0.3,0.5-0.5,0.8-0.3c0.1,0,0.1,0.1,0.1,0.1c0.2,0.1,0.4,0.3,0.5,0.5c0.1,0.1,0.1,0.2,0,0.2l-0.2,0.5c0,0.1-0.1,0.1-0.2,0
			c-0.1-0.1-0.2-0.2-0.3-0.3c-0.5-0.3-0.8,0-0.8,0.7v3.1C330.1,356.8,330.1,356.8,330,356.8C330,356.8,330,356.8,330,356.8
			L330,356.8z M326.9,355.1c-1.3-0.9-2-2.4-2-4c0-1.6,0.8-2.4,1.9-1.7c1.2,0.9,1.9,2.3,1.8,3.8c0,0.4,0,0.6-0.3,0.5l-2.7-1.6
			c0.1,0.9,0.5,1.7,1.3,2.2c0.3,0.2,0.6,0.2,0.9,0.1c0.1,0,0.1,0,0.2,0.1l0.3,0.5c0.1,0.1,0.1,0.2,0,0.3c-0.2,0.2-0.4,0.2-0.6,0.2
			C327.4,355.4,327.1,355.3,326.9,355.1L326.9,355.1z M325.7,351.2l2.2,1.3c0-0.8-0.4-1.6-1.1-2.1c-0.1-0.1-0.3-0.1-0.4-0.1
			C326,350.2,325.8,350.6,325.7,351.2L325.7,351.2z M334.7,355c-0.3-0.2-0.5-0.6-0.5-1c0-0.4,0.2-0.5,0.5-0.4c0.3,0.2,0.5,0.6,0.5,1
			c0,0.3-0.1,0.4-0.3,0.4C334.8,355.1,334.8,355,334.7,355L334.7,355z M333.5,353.6l-0.4-0.2c-0.1-0.1-0.1-0.1-0.1-0.2L333,351
			c0-0.1,0-0.1,0.1-0.1l0.5,0.3c0.1,0.1,0.1,0.1,0.1,0.2l-0.1,2.1C333.6,353.6,333.6,353.6,333.5,353.6
			C333.5,353.6,333.5,353.6,333.5,353.6L333.5,353.6z M323.7,353.1l-0.6-0.4c-0.1-0.1-0.1-0.1-0.1-0.2v-4.3l-0.6-0.3
			c-0.1-0.1-0.1-0.1-0.1-0.2V347c0-0.1,0-0.1,0.1-0.1l0.6,0.3v-1.5c0-0.1,0-0.1,0.1-0.1l0.6,0.4c0.1,0.1,0.1,0.1,0.1,0.2v1.5
			l0.6,0.3c0.1,0.1,0.1,0.1,0.1,0.2v0.6c0,0.1,0,0.1-0.1,0.1l-0.6-0.3v4.3C323.8,353.1,323.8,353.1,323.7,353.1
			C323.8,353.1,323.7,353.1,323.7,353.1L323.7,353.1z M332.5,353l-0.4-0.2c-0.1-0.1-0.1-0.1-0.1-0.2l-0.1-2.2c0-0.1,0-0.1,0.1-0.1
			l0.5,0.3c0.1,0.1,0.1,0.1,0.1,0.2l-0.1,2.1C332.6,352.9,332.5,353,332.5,353C332.5,353,332.5,353,332.5,353L332.5,353z
			 M321.1,351.6l-0.6-0.4c-0.1-0.1-0.1-0.1-0.1-0.2v-4.3l-0.6-0.3c-0.1-0.1-0.1-0.1-0.1-0.2v-0.6c0-0.1,0-0.1,0.1-0.1l0.6,0.3v-1.5
			c0-0.1,0-0.1,0.1-0.1l0.6,0.3c0.1,0.1,0.1,0.1,0.1,0.2v1.5l0.6,0.3c0.1,0.1,0.1,0.1,0.1,0.2v0.6c0,0.1,0,0.1-0.1,0.1l-0.6-0.3v4.3
			C321.2,351.5,321.2,351.6,321.1,351.6C321.2,351.6,321.1,351.6,321.1,351.6L321.1,351.6z M319,350.3l-0.6-0.4
			c-0.1-0.1-0.1-0.1-0.1-0.2v-5.1c0-0.1,0-0.1,0.1-0.1l0.6,0.3c0.1,0.1,0.1,0.1,0.1,0.2v5.1C319.2,350.3,319.1,350.3,319,350.3
			C319.1,350.3,319,350.3,319,350.3L319,350.3z M317.5,349.4l-0.6-0.3c-0.1-0.1-0.1-0.1-0.1-0.2v-3c0.1-0.7-0.2-1.4-0.8-1.8
			c-0.7-0.4-1,0.2-1,0.6v3.1c0,0.1,0,0.1-0.1,0.1l-0.6-0.3c-0.1-0.1-0.1-0.1-0.1-0.2v-3c0.1-0.7-0.2-1.4-0.8-1.8
			c-0.7-0.4-1,0.3-1,0.6v3.2c0,0.1,0,0.1-0.1,0.1l-0.6-0.3c-0.1-0.1-0.1-0.1-0.1-0.2v-5.1c0-0.1,0-0.1,0.1-0.1l0.6,0.3
			c0.1,0.1,0.1,0.1,0.1,0.2l0,0.7c0.2-0.4,0.7-0.6,1.1-0.4c0,0,0.1,0.1,0.1,0.1c0.6,0.4,1.1,1,1.2,1.8c0.3-0.4,0.7-0.6,1.4-0.2
			c1,0.7,1.5,1.9,1.4,3.1v3.2C317.6,349.4,317.5,349.4,317.5,349.4C317.5,349.4,317.5,349.4,317.5,349.4L317.5,349.4z M309.1,344.6
			c-1.3-0.9-2-2.4-2-4c0-1.6,0.8-2.4,1.9-1.7c1.2,0.9,1.9,2.3,1.8,3.8c0,0.4,0,0.6-0.3,0.5l-2.7-1.6c0.1,0.9,0.5,1.7,1.3,2.2
			c0.3,0.2,0.6,0.2,0.9,0.1c0.1,0,0.1,0,0.2,0.1l0.3,0.5c0.1,0.1,0.1,0.2,0,0.3c-0.2,0.2-0.4,0.2-0.6,0.2
			C309.6,344.8,309.3,344.7,309.1,344.6L309.1,344.6z M307.9,340.7l2.2,1.3c0-0.8-0.4-1.6-1.1-2.1c-0.1-0.1-0.3-0.1-0.4-0.1
			C308.2,339.7,307.9,340,307.9,340.7L307.9,340.7z M318.7,343.6c-0.3-0.2-0.5-0.6-0.5-1c0-0.4,0.2-0.5,0.5-0.4
			c0.3,0.2,0.5,0.6,0.5,1c0,0.3-0.1,0.5-0.3,0.5C318.9,343.6,318.8,343.6,318.7,343.6L318.7,343.6z M302.8,340.7l-0.6-0.4
			c-0.1-0.1-0.1-0.1-0.1-0.2v-4.3l-0.6-0.3c-0.1-0.1-0.1-0.1-0.1-0.2v-0.6c0-0.1,0-0.1,0.1-0.1l0.6,0.3v-1.5c0-0.1,0-0.1,0.1-0.1
			l0.6,0.4c0.1,0.1,0.1,0.1,0.1,0.2v1.5l0.6,0.3c0.1,0.1,0.1,0.1,0.1,0.2v0.6c0,0.1,0,0.1-0.1,0.1l-0.6-0.3v4.3
			C302.9,340.7,302.8,340.7,302.8,340.7C302.8,340.7,302.8,340.7,302.8,340.7z M306.4,340.2l-2.1-1.3c-0.1-0.1-0.1-0.1-0.1-0.2v-0.6
			c0-0.1,0-0.1,0.1-0.1l2.1,1.3c0.1,0.1,0.1,0.1,0.1,0.2v0.6C306.5,340.2,306.4,340.2,306.4,340.2
			C306.4,340.2,306.4,340.2,306.4,340.2L306.4,340.2z M300.8,339.6l-0.6-0.4c-0.1-0.1-0.1-0.1-0.1-0.2v-3c0.1-0.7-0.2-1.4-0.8-1.8
			c-0.7-0.4-1,0.3-1,0.6v3.2c0,0.1,0,0.1-0.1,0.1l-0.6-0.3c-0.1-0.1-0.1-0.1-0.1-0.2v-5.1c0-0.1,0-0.1,0.1-0.1l0.6,0.3
			c0.1,0.1,0.1,0.1,0.1,0.2l0,0.8c0.2-0.4,0.7-0.6,1.1-0.4c0,0,0.1,0.1,0.1,0.1c0.9,0.7,1.5,1.9,1.4,3v3.2
			C300.9,339.5,300.9,339.6,300.8,339.6C300.8,339.6,300.8,339.6,300.8,339.6L300.8,339.6z M295.1,336.3c-1.3-0.9-2-2.4-2-4
			c0-1.6,0.8-2.4,1.9-1.7c1.2,0.9,1.9,2.3,1.8,3.8c0,0.4,0,0.6-0.3,0.5l-2.7-1.6c0.1,0.9,0.5,1.7,1.3,2.2c0.3,0.2,0.6,0.2,0.9,0.1
			c0.1,0,0.1,0,0.2,0.1l0.3,0.5c0.1,0.1,0.1,0.2,0,0.3c-0.2,0.2-0.4,0.2-0.6,0.2C295.6,336.6,295.3,336.5,295.1,336.3L295.1,336.3z
			 M293.9,332.4l2.2,1.3c0-0.8-0.4-1.6-1.1-2.1c-0.1-0.1-0.3-0.1-0.4-0.1C294.2,331.4,294,331.8,293.9,332.4z M291.4,334l-0.6-0.4
			c-0.1-0.1-0.1-0.1-0.1-0.2l-1.4-6c0-0.1,0-0.2,0.1-0.1l0.6,0.4c0.1,0.1,0.1,0.1,0.1,0.2l1.1,4.6l1.1-3.3c0-0.1,0.1-0.1,0.1,0
			l0.6,0.4c0.1,0,0.1,0.2,0.1,0.2l-1.5,4.2C291.5,334,291.5,334,291.4,334C291.4,334,291.4,334,291.4,334L291.4,334z M287.3,331.7
			c-1.3-0.9-2-2.4-2-4c0-1.6,0.8-2.4,1.9-1.7c1.2,0.9,1.9,2.3,1.8,3.8c0,0.4,0,0.6-0.3,0.5l-2.7-1.6c0.1,0.9,0.5,1.7,1.3,2.2
			c0.3,0.2,0.6,0.2,0.9,0.1c0.1,0,0.1,0,0.2,0.1l0.3,0.5c0.1,0.1,0.1,0.2,0,0.3c-0.2,0.2-0.4,0.2-0.6,0.2
			C287.8,331.9,287.5,331.9,287.3,331.7L287.3,331.7z M286.1,327.8l2.2,1.3c0-0.8-0.4-1.6-1.1-2.1c-0.1-0.1-0.3-0.1-0.4-0.1
			C286.4,326.8,286.2,327.2,286.1,327.8L286.1,327.8z M280,327.4c-1.3-0.9-2-2.4-2-4c0-1.6,0.8-2.4,1.9-1.7c1.2,0.9,1.9,2.3,1.8,3.8
			c0,0.4,0,0.6-0.3,0.5l-2.7-1.6c0.1,0.9,0.5,1.7,1.3,2.2c0.3,0.2,0.6,0.2,0.9,0.1c0.1,0,0.1,0,0.2,0.1l0.3,0.5
			c0.1,0.1,0.1,0.2,0,0.3c-0.2,0.2-0.4,0.2-0.6,0.2C280.5,327.6,280.2,327.5,280,327.4L280,327.4z M278.8,323.5l2.2,1.3
			c0-0.8-0.4-1.6-1.1-2.1c-0.1-0.1-0.3-0.1-0.4-0.1C279.1,322.5,278.8,322.8,278.8,323.5L278.8,323.5z M284.6,327.3l-2.1-1.3
			c-0.1-0.1-0.1-0.1-0.1-0.2v-0.6c0-0.1,0-0.1,0.1-0.1l2.1,1.3c0.1,0.1,0.1,0.1,0.1,0.2v0.6C284.7,327.3,284.7,327.4,284.6,327.3
			C284.6,327.4,284.6,327.3,284.6,327.3L284.6,327.3z M276.3,325l-0.6-0.3c-0.1-0.1-0.1-0.1-0.1-0.2v-5.1c0-0.1,0-0.1,0.1-0.1
			l0.6,0.3c0.1,0.1,0.1,0.1,0.1,0.2l0,0.5c0.1-0.3,0.5-0.5,0.8-0.3c0.1,0,0.1,0.1,0.1,0.1c0.2,0.1,0.4,0.3,0.5,0.5
			c0.1,0.1,0.1,0.2,0,0.2l-0.2,0.5c0,0.1-0.1,0.1-0.2,0c-0.1-0.1-0.2-0.2-0.3-0.3c-0.5-0.3-0.8,0-0.8,0.7v3.1
			C276.4,325,276.4,325.1,276.3,325C276.3,325.1,276.3,325.1,276.3,325L276.3,325z M272.9,323.2c-1.3-1-2-2.4-2-4
			c0-1.6,0.9-2.3,2-1.7c1.3,0.9,2,2.4,2,4c0,1.2-0.5,1.9-1.2,1.9C273.4,323.5,273.2,323.4,272.9,323.2L272.9,323.2z M271.8,319.7
			c0,1,0.4,1.9,1.2,2.5c0.7,0.4,1.2,0,1.2-1.1c0-1-0.4-1.9-1.2-2.5c-0.1-0.1-0.3-0.1-0.5-0.1C272.1,318.5,271.8,318.9,271.8,319.7
			L271.8,319.7z M269.1,320.9c-1.2-0.9-2-2.4-2-4c0-1.6,0.8-2.3,2-1.7c0.7,0.5,1.2,1.1,1.5,1.8c0,0.1,0,0.2,0,0.2l-0.3,0.3
			c-0.1,0-0.1,0-0.2-0.1c-0.2-0.5-0.5-0.9-0.9-1.1c-0.7-0.4-1.2,0.1-1.2,1.1c0,1,0.4,1.9,1.2,2.5c0.3,0.2,0.7,0.2,1,0
			c0.1,0,0.1,0,0.2,0.1l0.3,0.7c0,0.1,0.1,0.2,0,0.2c-0.2,0.2-0.5,0.3-0.7,0.3C269.6,321.2,269.3,321.1,269.1,320.9L269.1,320.9z
			 M264.4,319.4l-0.6-0.4c-0.1,0-0.1-0.1-0.1-0.2l2.6-7.8c0-0.1,0.1-0.1,0.1,0l0.6,0.4c0.1,0,0.1,0.2,0.1,0.2l-2.6,7.8
			C264.5,319.4,264.5,319.5,264.4,319.4C264.4,319.5,264.4,319.5,264.4,319.4L264.4,319.4z M263.1,317.3l-0.6-0.4
			c-0.1-0.1-0.1-0.1-0.1-0.2v-3c0.1-0.7-0.2-1.4-0.8-1.8c-0.7-0.4-1,0.2-1,0.6v3.1c0,0.1,0,0.1-0.1,0.1l-0.6-0.3
			c-0.1-0.1-0.1-0.1-0.1-0.2v-3c0.1-0.7-0.2-1.4-0.8-1.8c-0.7-0.4-1,0.3-1,0.6v3.2c0,0.1,0,0.1-0.1,0.1l-0.6-0.3
			c-0.1-0.1-0.1-0.1-0.1-0.2v-5.1c0-0.1,0-0.1,0.1-0.1l0.6,0.3c0.1,0.1,0.1,0.1,0.1,0.2l0,0.8c0.2-0.4,0.7-0.6,1.1-0.4
			c0,0,0.1,0.1,0.1,0.1c0.6,0.4,1.1,1,1.2,1.8c0.3-0.4,0.7-0.6,1.4-0.2c1,0.7,1.5,1.9,1.4,3.1v3.2
			C263.2,317.2,263.2,317.3,263.1,317.3C263.1,317.3,263.1,317.3,263.1,317.3L263.1,317.3z M254.7,312.5c-1.3-0.9-2-2.4-2-4
			c0-1.6,0.8-2.4,1.9-1.7c1.2,0.9,1.9,2.3,1.8,3.8c0,0.4,0,0.6-0.3,0.5l-2.7-1.6c0.1,0.9,0.5,1.7,1.3,2.2c0.3,0.2,0.6,0.2,0.9,0.1
			c0.1,0,0.1,0,0.2,0.1l0.3,0.5c0.1,0.1,0.1,0.2,0,0.3c-0.2,0.2-0.4,0.2-0.6,0.2C255.2,312.7,255,312.6,254.7,312.5L254.7,312.5z
			 M253.5,308.5l2.2,1.3c0-0.8-0.4-1.6-1.1-2.1c-0.1-0.1-0.3-0.1-0.4-0.1C253.8,307.6,253.6,307.9,253.5,308.5L253.5,308.5z
			 M251.5,310.4l-0.6-0.4c-0.1-0.1-0.1-0.1-0.1-0.2v-4.3l-0.6-0.3c-0.1-0.1-0.1-0.1-0.1-0.2v-0.6c0-0.1,0-0.1,0.1-0.1l0.6,0.3v-1.5
			c0-0.1,0-0.1,0.1-0.1l0.6,0.3c0.1,0.1,0.1,0.1,0.1,0.2v1.5l0.6,0.3c0.1,0.1,0.1,0.1,0.1,0.2v0.6c0,0.1,0,0.1-0.1,0.1l-0.6-0.3v4.3
			C251.7,310.4,251.6,310.4,251.5,310.4C251.6,310.4,251.6,310.4,251.5,310.4L251.5,310.4z M248.5,308.8c-0.6-0.4-1.2-1-1.5-1.8
			c0-0.1,0-0.2,0-0.2l0.2-0.3c0.1-0.1,0.1,0,0.2,0.1c0.2,0.5,0.6,0.9,1,1.2c0.3,0.2,0.6,0.2,0.6-0.2c0-1.1-2-1.9-2-3.7
			c0-1,0.6-1.2,1.3-0.8c0.6,0.4,1,0.9,1.3,1.6c0,0.1,0,0.2,0,0.2l-0.2,0.3c0,0.1-0.1,0-0.2-0.1c-0.2-0.4-0.5-0.7-0.8-1
			c-0.3-0.2-0.5-0.1-0.5,0.3c0,1.1,2,1.8,2,3.7c0,0.7-0.3,1-0.8,1C248.9,309,248.7,308.9,248.5,308.8L248.5,308.8z M244.6,308.5
			l-0.6-0.3c-0.1,0-0.1-0.2-0.1-0.2l0.6-1.6l-1.5-6.1c0-0.1,0-0.2,0.1-0.1l0.6,0.4c0.1,0.1,0.1,0.1,0.1,0.2l1.1,4.6l1.1-3.3
			c0-0.1,0.1-0.1,0.1,0l0.6,0.4c0.1,0,0.1,0.1,0.1,0.2l-2,6C244.8,308.5,244.7,308.5,244.6,308.5
			C244.7,308.5,244.7,308.5,244.6,308.5L244.6,308.5z M241.5,304.6c-0.6-0.4-1.1-1.1-1.5-1.8c0-0.1,0-0.2,0-0.2l0.2-0.3
			c0.1-0.1,0.1,0,0.2,0.1c0.2,0.5,0.6,0.9,1,1.2c0.3,0.2,0.6,0.2,0.6-0.2c0-1.1-2-1.9-2-3.7c0-1,0.6-1.2,1.3-0.8
			c0.6,0.4,1,0.9,1.3,1.6c0,0.1,0,0.2,0,0.2l-0.2,0.3c0,0.1-0.1,0-0.2-0.1c-0.2-0.4-0.5-0.7-0.8-1c-0.3-0.2-0.5-0.1-0.5,0.3
			c0,1.1,2,1.8,2,3.7c0,0.7-0.3,1-0.8,1C241.9,304.8,241.7,304.8,241.5,304.6L241.5,304.6z M237.6,302.3c-1.3-0.9-2-2.4-2-4
			c0-1.6,0.9-2.3,2-1.7c1.3,0.9,2,2.4,2,4c0,1.2-0.5,1.9-1.2,1.9C238.1,302.6,237.8,302.5,237.6,302.3L237.6,302.3z M236.4,298.8
			c0,1,0.4,1.9,1.2,2.5c0.7,0.4,1.2,0,1.2-1.1c0-1-0.4-1.9-1.2-2.5c-0.1-0.1-0.3-0.1-0.5-0.1C236.7,297.6,236.4,298,236.4,298.8
			L236.4,298.8z M233.8,300.1c-1.3-0.9-2-2.4-2-4c0-1.6,0.8-2.3,2-1.7c0.7,0.5,1.2,1.1,1.5,1.8c0,0.1,0,0.2,0,0.2l-0.3,0.3
			c-0.1,0-0.1,0-0.2-0.1c-0.2-0.5-0.5-0.9-0.9-1.1c-0.7-0.4-1.2,0.1-1.2,1.1c0,1,0.4,1.9,1.2,2.5c0.3,0.2,0.7,0.2,1,0
			c0.1,0,0.1,0,0.2,0.1l0.3,0.7c0,0.1,0.1,0.2,0,0.2c-0.2,0.2-0.5,0.3-0.7,0.3C234.3,300.3,234,300.2,233.8,300.1L233.8,300.1z
			 M229.6,297.6c-1.3-0.9-2-2.4-2-4c0-1.6,0.8-2.4,1.9-1.7c1.2,0.9,1.9,2.3,1.8,3.8c0,0.4,0,0.6-0.3,0.5l-2.7-1.6
			c0.1,0.9,0.5,1.7,1.3,2.2c0.3,0.2,0.6,0.2,0.9,0.1c0.1,0,0.1,0,0.2,0.1l0.3,0.5c0.1,0.1,0.1,0.2,0,0.3c-0.2,0.2-0.4,0.2-0.6,0.2
			C230.1,297.8,229.8,297.8,229.6,297.6L229.6,297.6z M228.4,293.7l2.2,1.3c0-0.8-0.4-1.6-1.1-2.1c-0.1-0.1-0.3-0.1-0.4-0.1
			C228.7,292.7,228.4,293.1,228.4,293.7L228.4,293.7z M227.5,296.2l-0.6-0.4c-0.1,0-0.1-0.1-0.1-0.2l-1.3-3.1l-0.6,0.6v1.3
			c0,0.1,0,0.1-0.1,0.1l-0.6-0.4c-0.1-0.1-0.1-0.1-0.1-0.2v-7.8c0-0.1,0-0.1,0.1-0.1l0.6,0.4c0.1,0.1,0.1,0.1,0.1,0.2v5l1.6-1.5
			c0,0,0.1,0,0.1,0l0.7,0.4c0.1,0.1,0.1,0.2,0.1,0.2l-1.4,1.2l1.6,3.9C227.6,296.2,227.6,296.2,227.5,296.2
			C227.5,296.2,227.5,296.2,227.5,296.2L227.5,296.2z M222,293l-0.6-0.3c-0.1-0.1-0.1-0.1-0.1-0.2v-5.1c0-0.1,0-0.1,0.1-0.1l0.6,0.3
			c0.1,0.1,0.1,0.1,0.1,0.2l0,0.5c0.1-0.3,0.5-0.5,0.8-0.3c0.1,0,0.1,0.1,0.1,0.1c0.2,0.1,0.4,0.3,0.5,0.5c0.1,0.1,0.1,0.2,0,0.2
			l-0.2,0.5c0,0.1-0.1,0.1-0.2,0c-0.1-0.1-0.2-0.2-0.3-0.3c-0.5-0.3-0.8,0-0.8,0.7v3.1C222.1,292.9,222.1,293,222,293
			C222,293,222,293,222,293L222,293z M220.4,292l-0.5-0.3c-0.1-0.1-0.1-0.1-0.1-0.2l0-0.6c-0.3,0.4-0.9,0.4-1.3,0.1
			c-1.2-0.9-1.9-2.4-1.9-4c0-1.6,0.8-2.4,1.9-1.7c0.6,0.4,1,1,1.3,1.6l0-0.6c0-0.1,0-0.1,0.1-0.1l0.5,0.3c0.1,0.1,0.1,0.1,0.1,0.2
			v5.1C220.5,292,220.5,292,220.4,292C220.4,292,220.4,292,220.4,292L220.4,292z M217.4,287.5c0,1,0.4,1.9,1.2,2.5
			c0.7,0.4,1.2-0.1,1.2-1.1c0-1-0.4-1.9-1.2-2.5c-0.1-0.1-0.3-0.1-0.5-0.1C217.7,286.3,217.4,286.8,217.4,287.5L217.4,287.5z
			 M213.2,287.9c-1.8-1.3-2.9-3.4-2.9-5.6c0-2.5,1.4-3.2,2.9-2.3c1.8,1.3,2.8,3.3,2.8,5.5c0,1.6-0.6,1.9-1.3,1.5
			c-0.3-0.2-0.6-0.5-0.7-0.9c-0.3,0.1-0.6,0.1-0.9-0.1c-0.9-0.7-1.4-1.7-1.4-2.8c0-1.1,0.6-1.7,1.4-1.2c0.4,0.3,0.8,0.7,1,1.1
			l0.1-0.3l0.4,0.2l-0.2,2.2c-0.1,0.3,0.1,0.7,0.3,0.9c0.3,0.2,0.5-0.2,0.5-1.1c0-1.6-0.8-3.2-2.1-4.1c-1.1-0.6-2.2-0.2-2.2,1.8
			c0,1.7,0.8,3.3,2.2,4.3c0.3,0.2,0.7,0.3,1.1,0.2l0.5,0.8c-0.2,0.1-0.4,0.2-0.7,0.2C213.9,288.2,213.5,288.1,213.2,287.9
			L213.2,287.9z M212.4,283.5c0,0.6,0.3,1.2,0.8,1.6c0.5,0.3,0.8,0,0.8-0.7c0-0.6-0.3-1.3-0.8-1.6c-0.1-0.1-0.2-0.1-0.3-0.1
			C212.5,282.7,212.3,283,212.4,283.5L212.4,283.5z M209.6,280.4l-0.4-0.2c-0.1-0.1-0.1-0.1-0.1-0.2l-0.1-2.2c0-0.1,0-0.1,0.1-0.1
			l0.5,0.3c0.1,0.1,0.1,0.1,0.1,0.2l-0.1,2.1C209.7,280.3,209.7,280.4,209.6,280.4C209.7,280.4,209.6,280.4,209.6,280.4L209.6,280.4
			z M208.6,279.7l-0.4-0.2c-0.1-0.1-0.1-0.1-0.1-0.2l-0.1-2.2c0-0.1,0-0.1,0.1-0.1l0.5,0.3c0.1,0.1,0.1,0.1,0.1,0.2l-0.1,2.1
			C208.7,279.7,208.6,279.8,208.6,279.7C208.6,279.8,208.6,279.7,208.6,279.7L208.6,279.7z"/>
		<path id="module.exports_arkecosystem_core-event-emitter_:_копия_2" class="st16" d="M336.2,376.8L336.2,376.8
			c-0.1-0.1-0.2-0.1-0.1-0.2c0.1-0.3,0.2-0.5,0.1-0.8c-0.3-0.2-0.5-0.6-0.5-1c0-0.4,0.2-0.5,0.5-0.4c0.3,0.3,0.5,0.7,0.5,1.1
			C336.7,376,336.6,376.5,336.2,376.8C336.3,376.8,336.3,376.8,336.2,376.8C336.2,376.8,336.2,376.8,336.2,376.8z M334.1,375.9
			l-0.6-0.4c-0.1-0.1-0.1-0.1-0.1-0.2v-0.6c0-0.1,0-0.1,0.1-0.1l0.2,0.1c0.2,0.1,0.3,0,0.3-0.2v-2.6c0-0.1,0-0.1,0-0.2l0.3-0.4
			c0-0.1,0-0.2,0-0.2l-0.3-0.7c0-0.1,0-0.1,0-0.2v-2.7c0-0.2-0.1-0.4-0.3-0.5l-0.2-0.1c-0.1-0.1-0.1-0.1-0.1-0.2v-0.6
			c0-0.1,0-0.1,0.1-0.1l0.6,0.4c0.4,0.3,0.7,0.8,0.7,1.4v3c0,0.1,0,0.2,0,0.2l0.3,0.8c0,0.1,0,0.1,0,0.2l-0.3,0.4c0,0.1,0,0.1,0,0.2
			v3c0,0.5-0.2,0.7-0.4,0.7C334.3,376,334.2,375.9,334.1,375.9L334.1,375.9z M332.6,375l-0.6-0.4c-0.4-0.3-0.7-0.8-0.7-1.4v-3
			c0-0.1,0-0.2,0-0.2l-0.3-0.7c0-0.1,0-0.2,0-0.2l0.3-0.4c0-0.1,0-0.1,0-0.2v-3c0-0.7,0.3-0.8,0.7-0.6l0.6,0.4
			c0.1,0.1,0.1,0.1,0.1,0.2v0.6c0,0.1,0,0.1-0.1,0.1l-0.2-0.1c-0.2-0.1-0.3,0-0.3,0.2v2.7c0,0.1,0,0.1,0,0.2l-0.3,0.4
			c0,0.1,0,0.2,0,0.2l0.3,0.7c0,0.1,0,0.2,0,0.2v2.6c0,0.2,0.1,0.4,0.3,0.5l0.2,0.1c0.1,0.1,0.1,0.1,0.1,0.2v0.6
			C332.8,375,332.7,375,332.6,375C332.7,375,332.6,375,332.6,375L332.6,375z M327.8,370.9c-0.3-0.2-0.5-0.6-0.5-1
			c0-0.4,0.2-0.5,0.5-0.4c0.3,0.2,0.5,0.6,0.5,1c0,0.3-0.1,0.5-0.3,0.5C327.9,370.9,327.9,370.9,327.8,370.9L327.8,370.9z
			 M322.8,367.9c-1.3-0.9-2-2.4-2-4c0-1.6,0.9-2.3,2-1.7c1.3,1,2,2.4,2,4c0,1.2-0.5,1.9-1.2,1.9
			C323.3,368.2,323.1,368.1,322.8,367.9L322.8,367.9z M321.7,364.4c0,1,0.4,1.9,1.2,2.5c0.7,0.4,1.2,0,1.2-1.1c0-1-0.4-1.9-1.2-2.5
			c-0.1-0.1-0.3-0.1-0.5-0.1C322,363.2,321.7,363.6,321.7,364.4L321.7,364.4z M327.8,366.1c-0.3-0.2-0.5-0.6-0.5-1
			c0-0.4,0.2-0.5,0.5-0.4c0.3,0.2,0.5,0.6,0.5,1c0,0.3-0.1,0.4-0.3,0.4C327.9,366.2,327.9,366.2,327.8,366.1L327.8,366.1z
			 M320.1,366.2l-0.6-0.3c-0.1-0.1-0.1-0.1-0.1-0.2v-3c0.1-0.7-0.2-1.4-0.8-1.8c-0.7-0.4-1,0.3-1,0.6v3.2c0,0.1,0,0.1-0.1,0.1
			l-0.6-0.3c-0.1-0.1-0.1-0.1-0.1-0.2v-5.1c0-0.1,0-0.1,0.1-0.1l0.6,0.3c0.1,0.1,0.1,0.1,0.1,0.2l0,0.7c0.2-0.4,0.7-0.6,1.1-0.4
			c0,0,0.1,0.1,0.1,0.1c0.9,0.7,1.5,1.9,1.4,3v3.2C320.2,366.1,320.2,366.2,320.1,366.2C320.1,366.2,320.1,366.2,320.1,366.2
			L320.1,366.2z M326.6,364.7l-0.4-0.2c-0.1-0.1-0.1-0.1-0.1-0.2l-0.1-2.2c0-0.1,0-0.1,0.1-0.1l0.5,0.3c0.1,0.1,0.1,0.1,0.1,0.2
			l-0.1,2.1C326.7,364.7,326.7,364.7,326.6,364.7C326.6,364.7,326.6,364.7,326.6,364.7L326.6,364.7z M325.5,364.1l-0.4-0.2
			c-0.1-0.1-0.1-0.1-0.1-0.2l-0.1-2.2c0-0.1,0-0.1,0.1-0.1l0.5,0.3c0.1,0.1,0.1,0.1,0.1,0.2l-0.1,2.1
			C325.7,364.1,325.6,364.1,325.5,364.1C325.6,364.1,325.6,364.1,325.5,364.1L325.5,364.1z M315.9,363.7l-0.6-0.3
			c-0.1-0.1-0.1-0.1-0.1-0.2V358c0-0.1,0-0.1,0.1-0.1l0.6,0.4c0.1,0.1,0.1,0.1,0.1,0.2v5.1C316,363.7,316,363.7,315.9,363.7
			C315.9,363.7,315.9,363.7,315.9,363.7L315.9,363.7z M311.3,363.1l-0.6-0.4c-0.1-0.1-0.1-0.1-0.1-0.2v-2c0,0,0,0,0-0.1v-5.1
			c0-0.1,0-0.1,0.1-0.1l0.5,0.3c0.1,0.1,0.1,0.1,0.1,0.2l0,0.6c0.3-0.4,0.9-0.4,1.3-0.1c1.2,0.9,1.9,2.4,1.9,4
			c0,1.6-0.8,2.4-1.9,1.7c-0.6-0.4-1-0.9-1.2-1.5v2.6C311.4,363.1,311.4,363.1,311.3,363.1C311.4,363.1,311.3,363.1,311.3,363.1
			L311.3,363.1z M311.4,358.3c0,1,0.4,1.9,1.2,2.5c0.7,0.4,1.2-0.1,1.2-1.1c0-1-0.4-1.9-1.2-2.5c-0.1-0.1-0.3-0.1-0.4-0.1
			C311.7,357.1,311.4,357.6,311.4,358.3L311.4,358.3z M305.5,357.6l-0.6-0.4c-0.1-0.1-0.1-0.1-0.1-0.2v-5.1c0-0.1,0-0.1,0.1-0.1
			l0.6,0.3c0.1,0.1,0.1,0.1,0.1,0.2l0,0.5c0.1-0.3,0.5-0.5,0.8-0.3c0.1,0,0.1,0.1,0.1,0.1c0.2,0.1,0.4,0.3,0.5,0.5
			c0.1,0.1,0.1,0.2,0,0.2l-0.2,0.5c0,0.1-0.1,0.1-0.2,0c-0.1-0.1-0.2-0.2-0.3-0.3c-0.5-0.3-0.8,0-0.8,0.7v3.1
			C305.6,357.5,305.6,357.6,305.5,357.6C305.6,357.6,305.5,357.6,305.5,357.6L305.5,357.6z M309.8,357.5l-2.1-1.3
			c-0.1-0.1-0.1-0.1-0.1-0.2v-0.6c0-0.1,0-0.1,0.1-0.1l2.1,1.3c0.1,0.1,0.1,0.1,0.1,0.2v0.6C309.9,357.4,309.8,357.5,309.8,357.5
			C309.8,357.5,309.8,357.5,309.8,357.5L309.8,357.5z M315.6,356.9c-0.3-0.2-0.5-0.6-0.5-1c0-0.4,0.2-0.5,0.5-0.4
			c0.3,0.2,0.5,0.6,0.5,1c0,0.3-0.1,0.4-0.3,0.4C315.7,357,315.7,357,315.6,356.9L315.6,356.9z M302.4,355.9c-1.3-0.9-2-2.4-2-4
			c0-1.6,0.8-2.4,1.9-1.7c1.2,0.9,1.9,2.3,1.8,3.8c0,0.4,0,0.6-0.3,0.5l-2.7-1.6c0.1,0.9,0.5,1.7,1.3,2.2c0.3,0.2,0.6,0.2,0.9,0.1
			c0.1,0,0.1,0,0.2,0.1l0.3,0.5c0.1,0.1,0.1,0.2,0,0.3c-0.2,0.2-0.4,0.2-0.6,0.2C302.9,356.1,302.7,356,302.4,355.9L302.4,355.9z
			 M301.2,352l2.2,1.3c0-0.8-0.4-1.6-1.1-2.1c-0.1-0.1-0.3-0.1-0.4-0.1C301.6,351,301.3,351.3,301.2,352L301.2,352z M297.8,355.2
			c-0.6-0.4-1.2-0.9-1.6-1.5c-0.1-0.1-0.1-0.2,0-0.3l0.2-0.4c0-0.1,0.1-0.1,0.2,0c0.3,0.4,0.7,0.8,1.2,1.1c0.6,0.3,1.3,0.4,1.3-0.6
			v-0.7c-0.3,0.4-0.9,0.5-1.3,0.1c0,0,0,0,0,0c-1.2-0.9-1.9-2.4-1.9-3.9c0-1.5,0.8-2.3,1.9-1.7c0.6,0.4,1,1,1.3,1.6l0-0.6
			c0-0.1,0-0.1,0.1-0.1l0.5,0.3c0.1,0.1,0.1,0.1,0.1,0.2v5.2c0,1.1-0.4,1.4-1,1.4C298.5,355.5,298.1,355.4,297.8,355.2L297.8,355.2z
			 M296.7,349.6c0,0.9,0.4,1.8,1.2,2.4c0.7,0.4,1.2-0.1,1.2-1c0-0.9-0.4-1.8-1.2-2.4c-0.1-0.1-0.3-0.1-0.5-0.1
			C296.9,348.4,296.7,348.8,296.7,349.6L296.7,349.6z M293.2,352.5c-0.6-0.4-1.2-0.9-1.6-1.5c-0.1-0.1-0.1-0.2,0-0.3l0.2-0.4
			c0-0.1,0.1-0.1,0.2,0c0.3,0.4,0.7,0.8,1.2,1.1c0.6,0.3,1.3,0.4,1.3-0.6v-0.7c-0.3,0.4-0.9,0.5-1.3,0.1c0,0,0,0,0,0
			c-1.2-0.9-1.9-2.4-1.9-3.9c0-1.5,0.8-2.3,1.9-1.7c0.6,0.4,1,1,1.3,1.6l0-0.6c0-0.1,0-0.1,0.1-0.1l0.5,0.3c0.1,0.1,0.1,0.1,0.1,0.2
			v5.2c0,1.1-0.4,1.4-1,1.4C293.9,352.8,293.5,352.7,293.2,352.5L293.2,352.5z M292.1,346.9c0,0.9,0.4,1.8,1.2,2.4
			c0.7,0.4,1.2-0.1,1.2-1c0-0.9-0.4-1.8-1.2-2.4c-0.1-0.1-0.3-0.1-0.5-0.1C292.4,345.7,292.1,346.1,292.1,346.9L292.1,346.9z
			 M288.8,347.9c-1.3-0.9-2-2.4-2-4c0-1.6,0.9-2.3,2-1.7c1.3,0.9,2,2.4,2,4c0,1.2-0.5,1.9-1.2,1.9
			C289.3,348.1,289.1,348,288.8,347.9L288.8,347.9z M287.7,344.3c0,1,0.4,1.9,1.2,2.5c0.7,0.4,1.2,0,1.2-1.1c0-1-0.4-1.9-1.2-2.5
			c-0.1-0.1-0.3-0.1-0.5-0.1C288,343.1,287.7,343.5,287.7,344.3L287.7,344.3z M286.1,346.1l-0.6-0.3c-0.1-0.1-0.1-0.1-0.1-0.2v-7.8
			c0-0.1,0-0.1,0.1-0.1l0.6,0.3c0.1,0.1,0.1,0.1,0.1,0.2v7.8C286.2,346.1,286.2,346.1,286.1,346.1
			C286.1,346.1,286.1,346.1,286.1,346.1L286.1,346.1z M279.9,342.6c-1.3-0.9-2-2.4-2-4c0-1.6,0.8-2.4,1.9-1.7
			c1.2,0.9,1.9,2.3,1.8,3.8c0,0.4,0,0.6-0.3,0.5l-2.7-1.6c0.1,0.9,0.5,1.7,1.3,2.2c0.3,0.2,0.6,0.2,0.9,0.1c0.1,0,0.1,0,0.2,0.1
			l0.3,0.5c0.1,0.1,0.1,0.2,0,0.3c-0.2,0.2-0.4,0.2-0.6,0.2C280.5,342.8,280.2,342.7,279.9,342.6L279.9,342.6z M278.8,338.7l2.2,1.3
			c0-0.8-0.4-1.6-1.1-2.1c-0.1-0.1-0.3-0.1-0.4-0.1C279.1,337.7,278.8,338.1,278.8,338.7L278.8,338.7z M284.6,342.6l-2.1-1.3
			c-0.1-0.1-0.1-0.1-0.1-0.2v-0.6c0-0.1,0-0.1,0.1-0.1l2.1,1.3c0.1,0.1,0.1,0.1,0.1,0.2v0.6C284.7,342.5,284.6,342.6,284.6,342.6
			C284.6,342.6,284.6,342.6,284.6,342.6L284.6,342.6z M276.3,340.3l-0.6-0.4c-0.1-0.1-0.1-0.1-0.1-0.2v-5.1c0-0.1,0-0.1,0.1-0.1
			l0.6,0.3c0.1,0.1,0.1,0.1,0.1,0.2l0,0.5c0.1-0.3,0.5-0.5,0.8-0.3c0.1,0,0.1,0.1,0.1,0.1c0.2,0.1,0.4,0.3,0.5,0.5
			c0.1,0.1,0.1,0.2,0,0.2l-0.2,0.5c0,0.1-0.1,0.1-0.2,0c-0.1-0.1-0.2-0.2-0.3-0.3c-0.5-0.3-0.8,0-0.8,0.7v3.1
			C276.4,340.2,276.4,340.3,276.3,340.3C276.3,340.3,276.3,340.3,276.3,340.3L276.3,340.3z M272.9,338.5c-1.3-0.9-2-2.4-2-4
			c0-1.6,0.9-2.3,2-1.7c1.3,0.9,2,2.4,2,4c0,1.2-0.5,1.9-1.2,1.9C273.4,338.7,273.2,338.6,272.9,338.5L272.9,338.5z M271.8,334.9
			c0,1,0.4,1.9,1.2,2.5c0.7,0.4,1.2,0,1.2-1.1c0-1-0.4-1.9-1.2-2.5c-0.1-0.1-0.3-0.1-0.5-0.1C272.1,333.7,271.8,334.1,271.8,334.9
			L271.8,334.9z M269.1,336.2c-1.3-0.9-2-2.4-2-4c0-1.6,0.8-2.3,2-1.7c0.7,0.5,1.2,1.1,1.5,1.8c0,0.1,0,0.2,0,0.2l-0.3,0.3
			c-0.1,0-0.1,0-0.2-0.1c-0.2-0.5-0.5-0.9-0.9-1.1c-0.7-0.4-1.2,0.1-1.2,1.1c0,1,0.4,1.9,1.2,2.5c0.3,0.2,0.7,0.2,1,0
			c0.1,0,0.1,0,0.2,0.1l0.3,0.7c0,0.1,0.1,0.2,0,0.2c-0.2,0.2-0.5,0.3-0.7,0.3C269.6,336.4,269.3,336.3,269.1,336.2L269.1,336.2z
			 M264.4,334.7l-0.6-0.4c-0.1,0-0.1-0.1-0.1-0.2l2.6-7.8c0-0.1,0.1-0.1,0.1,0l0.6,0.4c0.1,0,0.1,0.2,0.1,0.2l-2.6,7.8
			C264.5,334.7,264.4,334.7,264.4,334.7C264.4,334.7,264.4,334.7,264.4,334.7L264.4,334.7z M263.1,332.5l-0.6-0.3
			c-0.1-0.1-0.1-0.1-0.1-0.2v-3c0.1-0.7-0.2-1.4-0.8-1.8c-0.7-0.4-1,0.2-1,0.6v3.1c0,0.1,0,0.1-0.1,0.1l-0.6-0.4
			c-0.1-0.1-0.1-0.1-0.1-0.2v-3c0.1-0.7-0.2-1.4-0.8-1.8c-0.7-0.4-1,0.3-1,0.6v3.2c0,0.1,0,0.1-0.1,0.1l-0.6-0.4
			c-0.1-0.1-0.1-0.1-0.1-0.2v-5.1c0-0.1,0-0.1,0.1-0.1l0.6,0.3c0.1,0.1,0.1,0.1,0.1,0.2l0,0.8c0.2-0.4,0.7-0.6,1.1-0.4
			c0,0,0.1,0.1,0.1,0.1c0.6,0.4,1.1,1,1.2,1.8c0.3-0.4,0.7-0.6,1.4-0.2c1,0.7,1.5,1.9,1.4,3.1v3.2
			C263.2,332.5,263.2,332.5,263.1,332.5C263.1,332.5,263.1,332.5,263.1,332.5L263.1,332.5z M254.7,327.7c-1.3-0.9-2-2.4-2-4
			c0-1.6,0.8-2.4,1.9-1.7c1.2,0.9,1.9,2.3,1.8,3.8c0,0.4,0,0.6-0.3,0.5l-2.7-1.6c0.1,0.9,0.5,1.7,1.3,2.2c0.3,0.2,0.6,0.2,0.9,0.1
			c0.1,0,0.1,0,0.2,0.1l0.3,0.5c0.1,0.1,0.1,0.2,0,0.3c-0.2,0.2-0.4,0.2-0.6,0.2C255.2,327.9,254.9,327.8,254.7,327.7L254.7,327.7z
			 M253.5,323.8l2.2,1.3c0-0.8-0.4-1.6-1.1-2.1c-0.1-0.1-0.3-0.1-0.4-0.1C253.8,322.8,253.6,323.1,253.5,323.8L253.5,323.8z
			 M251.5,325.7l-0.6-0.3c-0.1-0.1-0.1-0.1-0.1-0.2v-4.3l-0.6-0.3c-0.1-0.1-0.1-0.1-0.1-0.2v-0.6c0-0.1,0-0.1,0.1-0.1l0.6,0.3v-1.5
			c0-0.1,0-0.1,0.1-0.1l0.6,0.4c0.1,0.1,0.1,0.1,0.1,0.2v1.5l0.6,0.3c0.1,0.1,0.1,0.1,0.1,0.2v0.6c0,0.1,0,0.1-0.1,0.1l-0.6-0.3v4.3
			C251.6,325.6,251.6,325.7,251.5,325.7C251.6,325.7,251.5,325.7,251.5,325.7L251.5,325.7z M248.5,324c-0.6-0.4-1.1-1.1-1.5-1.8
			c0-0.1,0-0.2,0-0.2l0.2-0.3c0.1-0.1,0.1,0,0.2,0.1c0.2,0.5,0.6,0.9,1,1.2c0.3,0.2,0.6,0.2,0.6-0.2c0-1.1-2-1.9-2-3.7
			c0-1,0.6-1.2,1.3-0.8c0.6,0.4,1,0.9,1.3,1.6c0,0.1,0,0.2,0,0.2l-0.2,0.3c0,0.1-0.1,0-0.2-0.1c-0.2-0.4-0.5-0.7-0.8-1
			c-0.3-0.2-0.5-0.1-0.5,0.3c0,1.1,2,1.8,2,3.7c0,0.7-0.3,1-0.8,1C248.9,324.2,248.7,324.1,248.5,324L248.5,324z M244.6,323.7
			l-0.6-0.3c-0.1,0-0.1-0.2-0.1-0.2l0.6-1.6l-1.5-6.1c0-0.1,0-0.2,0.1-0.1l0.6,0.4c0.1,0.1,0.1,0.1,0.1,0.2l1.1,4.6l1.1-3.3
			c0-0.1,0.1-0.1,0.1,0l0.6,0.4c0.1,0,0.1,0.1,0.1,0.2l-2,6C244.8,323.7,244.7,323.7,244.6,323.7
			C244.7,323.7,244.6,323.7,244.6,323.7L244.6,323.7z M241.5,319.8c-0.6-0.4-1.1-1.1-1.5-1.8c0-0.1,0-0.2,0-0.2l0.2-0.3
			c0.1-0.1,0.1,0,0.2,0.1c0.2,0.5,0.6,0.9,1,1.2c0.3,0.2,0.6,0.2,0.6-0.2c0-1.1-2-1.9-2-3.7c0-1,0.6-1.2,1.3-0.8
			c0.6,0.4,1,0.9,1.3,1.6c0,0.1,0,0.2,0,0.2l-0.2,0.3c0,0.1-0.1,0-0.2-0.1c-0.2-0.4-0.5-0.7-0.8-1c-0.3-0.2-0.5-0.1-0.5,0.3
			c0,1.1,2,1.8,2,3.7c0,0.7-0.3,1-0.8,1C241.9,320,241.7,320,241.5,319.8L241.5,319.8z M237.6,317.6c-1.3-0.9-2-2.4-2-4
			c0-1.6,0.9-2.3,2-1.7c1.3,0.9,2,2.4,2,4c0,1.2-0.5,1.9-1.2,1.9C238.1,317.8,237.8,317.7,237.6,317.6L237.6,317.6z M236.4,314
			c0,1,0.4,1.9,1.2,2.5c0.7,0.4,1.2,0,1.2-1.1c0-1-0.4-1.9-1.2-2.5c-0.1-0.1-0.3-0.1-0.5-0.1C236.7,312.8,236.4,313.2,236.4,314
			L236.4,314z M233.7,315.3c-1.3-0.9-2-2.4-2-4c0-1.6,0.8-2.3,2-1.7c0.7,0.5,1.2,1.1,1.5,1.8c0,0.1,0,0.2,0,0.2l-0.3,0.3
			c-0.1,0-0.1,0-0.2-0.1c-0.2-0.5-0.5-0.9-0.9-1.1c-0.7-0.4-1.2,0.1-1.2,1.1c0,1,0.4,1.9,1.2,2.5c0.3,0.2,0.7,0.2,1,0
			c0.1,0,0.1,0,0.2,0.1l0.3,0.7c0,0.1,0.1,0.2,0,0.2c-0.2,0.2-0.5,0.3-0.7,0.3C234.2,315.5,234,315.4,233.7,315.3L233.7,315.3z
			 M229.6,312.8c-1.3-0.9-2-2.4-2-4c0-1.6,0.8-2.4,1.9-1.7c1.2,0.9,1.9,2.3,1.8,3.8c0,0.4,0,0.6-0.3,0.5l-2.7-1.6
			c0.1,0.9,0.5,1.7,1.3,2.2c0.3,0.2,0.6,0.2,0.9,0.1c0.1,0,0.1,0,0.2,0.1l0.3,0.5c0.1,0.1,0.1,0.2,0,0.3c-0.2,0.2-0.4,0.2-0.6,0.2
			C230.1,313.1,229.8,313,229.6,312.8L229.6,312.8z M228.4,308.9l2.2,1.3c0-0.8-0.4-1.6-1.1-2.1c-0.1-0.1-0.3-0.1-0.4-0.1
			C228.7,307.9,228.4,308.3,228.4,308.9L228.4,308.9z M227.5,311.4l-0.6-0.4c-0.1,0-0.1-0.1-0.1-0.2l-1.3-3.1l-0.6,0.6v1.3
			c0,0.1,0,0.1-0.1,0.1l-0.6-0.3c-0.1-0.1-0.1-0.1-0.1-0.2v-7.8c0-0.1,0-0.1,0.1-0.1l0.6,0.3c0.1,0.1,0.1,0.1,0.1,0.2v5l1.6-1.5
			c0,0,0.1,0,0.1,0l0.7,0.4c0.1,0.1,0.1,0.2,0.1,0.2l-1.4,1.2l1.6,3.9C227.6,311.4,227.6,311.5,227.5,311.4
			C227.5,311.5,227.5,311.5,227.5,311.4L227.5,311.4z M222,308.2l-0.6-0.4c-0.1-0.1-0.1-0.1-0.1-0.2v-5.1c0-0.1,0-0.1,0.1-0.1
			l0.6,0.3c0.1,0.1,0.1,0.1,0.1,0.2l0,0.6c0.1-0.3,0.5-0.5,0.8-0.3c0.1,0,0.1,0.1,0.1,0.1c0.2,0.1,0.4,0.3,0.5,0.5
			c0.1,0.1,0.1,0.2,0,0.2l-0.2,0.5c0,0.1-0.1,0.1-0.2,0c-0.1-0.1-0.2-0.2-0.3-0.3c-0.5-0.3-0.8,0-0.8,0.7v3.1
			C222.1,308.2,222.1,308.2,222,308.2C222,308.2,222,308.2,222,308.2L222,308.2z M220.4,307.3l-0.5-0.3c-0.1-0.1-0.1-0.1-0.1-0.2
			l0-0.6c-0.3,0.4-0.9,0.4-1.3,0.1c-1.2-0.9-1.9-2.4-1.9-4c0-1.6,0.8-2.4,1.9-1.7c0.6,0.4,1,1,1.3,1.6l0-0.6c0-0.1,0-0.1,0.1-0.1
			l0.5,0.3c0.1,0.1,0.1,0.1,0.1,0.2v5.1C220.5,307.2,220.5,307.3,220.4,307.3C220.4,307.3,220.4,307.3,220.4,307.3L220.4,307.3z
			 M217.4,302.8c0,1,0.4,1.9,1.2,2.5c0.7,0.4,1.2-0.1,1.2-1.1c0-1-0.4-1.9-1.2-2.5c-0.1-0.1-0.3-0.1-0.5-0.1
			C217.7,301.5,217.4,302,217.4,302.8L217.4,302.8z M213.2,303.1c-1.8-1.3-2.9-3.4-2.9-5.6c0-2.5,1.4-3.2,2.9-2.3
			c1.8,1.3,2.8,3.3,2.8,5.5c0,1.6-0.6,1.9-1.3,1.5c-0.3-0.2-0.6-0.5-0.7-0.9c-0.3,0.1-0.6,0.1-0.9-0.1c-0.9-0.7-1.4-1.7-1.4-2.8
			c0-1.1,0.6-1.7,1.4-1.2c0.4,0.3,0.8,0.7,1,1.1l0.1-0.3l0.4,0.2l-0.2,2.2c-0.1,0.3,0.1,0.7,0.3,0.9c0.3,0.2,0.5-0.2,0.5-1.1
			c0-1.6-0.8-3.2-2.1-4.1c-1.1-0.6-2.2-0.2-2.2,1.8c0,1.7,0.8,3.3,2.2,4.3c0.3,0.2,0.7,0.3,1.1,0.2l0.5,0.8
			c-0.2,0.1-0.4,0.2-0.7,0.2C213.9,303.4,213.5,303.3,213.2,303.1L213.2,303.1z M212.3,298.7c0,0.6,0.3,1.2,0.8,1.6
			c0.5,0.3,0.8,0,0.8-0.7c0-0.6-0.3-1.3-0.8-1.6c-0.1-0.1-0.2-0.1-0.3-0.1C212.5,297.9,212.3,298.2,212.3,298.7L212.3,298.7z
			 M209.6,295.6l-0.4-0.2c-0.1-0.1-0.1-0.1-0.1-0.2L209,293c0-0.1,0-0.1,0.1-0.1l0.5,0.3c0.1,0.1,0.1,0.1,0.1,0.2l-0.1,2.1
			C209.7,295.6,209.7,295.6,209.6,295.6C209.6,295.6,209.6,295.6,209.6,295.6L209.6,295.6z M208.5,295l-0.4-0.2
			c-0.1-0.1-0.1-0.1-0.1-0.2l-0.1-2.2c0-0.1,0-0.1,0.1-0.1l0.5,0.3c0.1,0.1,0.1,0.1,0.1,0.2l-0.1,2.1
			C208.7,294.9,208.6,295,208.5,295C208.6,295,208.6,295,208.5,295L208.5,295z"/>
		<path id="module.exports_arkecosystem_core-event-emitter_:_копия_3" class="st16" d="M361.5,407L361.5,407
			c-0.1-0.1-0.2-0.1-0.1-0.2c0.1-0.3,0.2-0.5,0.1-0.8c-0.3-0.2-0.5-0.6-0.5-1c0-0.4,0.2-0.5,0.5-0.4c0.3,0.3,0.5,0.7,0.5,1.1
			C362,406.2,361.9,406.6,361.5,407C361.6,407,361.6,407,361.5,407C361.5,407,361.5,407,361.5,407z M359.4,406l-0.6-0.4
			c-0.1-0.1-0.1-0.1-0.1-0.2v-0.6c0-0.1,0-0.1,0.1-0.1l0.2,0.1c0.2,0.1,0.3,0,0.3-0.2v-2.6c0-0.1,0-0.1,0-0.2l0.3-0.4
			c0-0.1,0-0.2,0-0.2l-0.3-0.7c0-0.1,0-0.1,0-0.2v-2.7c0-0.2-0.1-0.4-0.3-0.5l-0.2-0.1c-0.1-0.1-0.1-0.1-0.1-0.2v-0.6
			c0-0.1,0-0.1,0.1-0.1l0.6,0.4c0.4,0.3,0.7,0.8,0.7,1.4v3c0,0.1,0,0.2,0,0.2l0.3,0.8c0,0.1,0,0.1,0,0.2l-0.3,0.4c0,0.1,0,0.1,0,0.2
			v3c0,0.5-0.2,0.7-0.4,0.7C359.5,406.1,359.4,406.1,359.4,406L359.4,406z M357.9,405.2l-0.6-0.4c-0.4-0.3-0.7-0.8-0.7-1.4v-3
			c0-0.1,0-0.2,0-0.2l-0.3-0.7c0-0.1,0-0.2,0-0.2l0.3-0.4c0-0.1,0-0.1,0-0.2v-3c0-0.7,0.3-0.8,0.7-0.6l0.6,0.4
			c0.1,0.1,0.1,0.1,0.1,0.2v0.6c0,0.1,0,0.1-0.1,0.1l-0.2-0.1c-0.2-0.1-0.3,0-0.3,0.2v2.7c0,0.1,0,0.1,0,0.2l-0.3,0.4
			c0,0.1,0,0.2,0,0.2l0.3,0.7c0,0.1,0,0.2,0,0.2v2.6c0,0.2,0.1,0.4,0.3,0.5l0.2,0.1c0.1,0.1,0.1,0.1,0.1,0.2v0.6
			C358,405.2,358,405.2,357.9,405.2C358,405.2,357.9,405.2,357.9,405.2L357.9,405.2z M353.1,401c-0.3-0.2-0.5-0.6-0.5-1
			c0-0.4,0.2-0.5,0.5-0.4c0.3,0.2,0.5,0.6,0.5,1c0,0.3-0.1,0.5-0.3,0.5C353.2,401.1,353.2,401.1,353.1,401L353.1,401z M348.6,398.4
			c-0.6-0.4-1.1-1.1-1.5-1.8c0-0.1,0-0.2,0-0.2l0.2-0.3c0.1-0.1,0.1,0,0.2,0.1c0.2,0.5,0.6,0.9,1,1.2c0.3,0.2,0.6,0.2,0.6-0.2
			c0-1.1-2-1.9-2-3.7c0-1,0.6-1.2,1.3-0.8c0.6,0.4,1,0.9,1.3,1.6c0,0.1,0,0.2,0,0.2l-0.2,0.3c0,0.1-0.1,0-0.2-0.1
			c-0.2-0.4-0.5-0.7-0.8-1c-0.3-0.2-0.5-0.1-0.5,0.3c0,1.1,2,1.8,2,3.7c0,0.7-0.3,1-0.8,1C349.1,398.6,348.8,398.5,348.6,398.4
			L348.6,398.4z M345,396.2c-1.3-0.9-2-2.4-2-4c0-1.6,0.8-2.4,1.9-1.7c1.2,0.9,1.9,2.3,1.8,3.8c0,0.4,0,0.6-0.3,0.5l-2.7-1.6
			c0.1,0.9,0.5,1.7,1.3,2.2c0.3,0.2,0.6,0.2,0.9,0.1c0.1,0,0.1,0,0.2,0.1l0.3,0.5c0.1,0.1,0.1,0.2,0,0.3c-0.2,0.2-0.4,0.2-0.6,0.2
			C345.5,396.5,345.2,396.4,345,396.2z M343.8,392.3l2.2,1.3c0-0.8-0.4-1.6-1.1-2.1c-0.1-0.1-0.3-0.1-0.4-0.1
			C344.1,391.4,343.9,391.7,343.8,392.3L343.8,392.3z M353.1,396.3c-0.3-0.2-0.5-0.6-0.5-1c0-0.4,0.2-0.5,0.5-0.4
			c0.3,0.2,0.5,0.6,0.5,1c0,0.3-0.1,0.5-0.3,0.5C353.2,396.4,353.2,396.3,353.1,396.3z M351.9,394.9l-0.4-0.2
			c-0.1-0.1-0.1-0.1-0.1-0.2l-0.1-2.2c0-0.1,0-0.1,0.1-0.1l0.5,0.3c0.1,0.1,0.1,0.1,0.1,0.2l-0.1,2.1
			C352,394.9,352,394.9,351.9,394.9C351.9,394.9,351.9,394.9,351.9,394.9L351.9,394.9z M337.9,394.1c-0.6-0.4-1.2-0.9-1.6-1.5
			c-0.1-0.1-0.1-0.2,0-0.3l0.2-0.4c0-0.1,0.1-0.1,0.2,0c0.3,0.4,0.7,0.8,1.2,1.1c0.6,0.3,1.3,0.4,1.3-0.6v-0.7
			c-0.3,0.4-0.9,0.5-1.3,0.1c0,0,0,0,0,0c-1.2-0.9-1.9-2.4-1.9-3.9c0-1.5,0.8-2.3,1.9-1.7c0.6,0.4,1,1,1.3,1.6l0-0.6
			c0-0.1,0-0.1,0.1-0.1l0.5,0.3c0.1,0.1,0.1,0.1,0.1,0.2v5.2c0,1.1-0.4,1.4-1,1.4C338.5,394.4,338.2,394.3,337.9,394.1L337.9,394.1z
			 M336.7,388.4c0,0.9,0.4,1.8,1.2,2.4c0.7,0.4,1.2-0.1,1.2-1c0-0.9-0.4-1.8-1.2-2.4c-0.1-0.1-0.3-0.1-0.5-0.1
			C337,387.3,336.7,387.7,336.7,388.4L336.7,388.4z M350.8,394.3l-0.4-0.2c-0.1-0.1-0.1-0.1-0.1-0.2l-0.1-2.2c0-0.1,0-0.1,0.1-0.1
			l0.5,0.3c0.1,0.1,0.1,0.1,0.1,0.2l-0.1,2.1C351,394.2,350.9,394.3,350.8,394.3C350.9,394.3,350.9,394.3,350.8,394.3L350.8,394.3z
			 M341.3,393.9l-0.6-0.4c-0.1-0.1-0.1-0.1-0.1-0.2v-5.1c0-0.1,0-0.1,0.1-0.1l0.6,0.3c0.1,0.1,0.1,0.1,0.1,0.2l0,0.5
			c0.1-0.3,0.5-0.5,0.8-0.3c0.1,0,0.1,0.1,0.1,0.1c0.2,0.1,0.4,0.3,0.5,0.5c0.1,0.1,0.1,0.2,0,0.2l-0.2,0.5c0,0.1-0.1,0.1-0.2,0
			c-0.1-0.1-0.2-0.2-0.3-0.3c-0.5-0.3-0.8,0-0.8,0.7v3.1C341.4,393.9,341.4,393.9,341.3,393.9C341.3,393.9,341.3,393.9,341.3,393.9
			L341.3,393.9z M334.7,390l-0.6-0.4c-0.1-0.1-0.1-0.1-0.1-0.2v-4.3l-0.6-0.3c-0.1-0.1-0.1-0.1-0.1-0.2v-0.6c0-0.1,0-0.1,0.1-0.1
			l0.6,0.3v-1.5c0-0.1,0-0.1,0.1-0.1l0.6,0.4c0.1,0.1,0.1,0.1,0.1,0.2v1.5l0.6,0.3c0.1,0.1,0.1,0.1,0.1,0.2v0.6c0,0.1,0,0.1-0.1,0.1
			l-0.6-0.3v4.3C334.8,390,334.8,390.1,334.7,390C334.8,390,334.7,390,334.7,390L334.7,390z M331.7,388.4c-0.6-0.4-1.1-1-1.5-1.8
			c0-0.1,0-0.2,0-0.2l0.2-0.3c0.1-0.1,0.1,0,0.2,0.1c0.2,0.5,0.6,0.9,1,1.2c0.3,0.2,0.6,0.2,0.6-0.2c0-1.1-2-1.9-2-3.7
			c0-1,0.6-1.2,1.3-0.8c0.6,0.4,1,0.9,1.3,1.6c0,0.1,0,0.2,0,0.2l-0.2,0.3c0,0.1-0.1,0-0.2-0.1c-0.2-0.4-0.5-0.7-0.8-1
			c-0.3-0.2-0.5-0.1-0.5,0.3c0,1.1,2,1.8,2,3.7c0,0.7-0.3,1-0.8,1C332.1,388.6,331.9,388.5,331.7,388.4L331.7,388.4z M327.8,386.1
			c-1.3-1-2-2.4-2-4c0-1.6,0.9-2.3,2-1.7c1.3,0.9,2,2.4,2,4c0,1.2-0.5,1.9-1.2,1.9C328.3,386.3,328,386.2,327.8,386.1L327.8,386.1z
			 M326.6,382.5c0,1,0.4,1.9,1.2,2.5c0.7,0.4,1.2,0,1.2-1.1c0-1-0.4-1.9-1.2-2.5c-0.1-0.1-0.3-0.1-0.5-0.1
			C326.9,381.3,326.6,381.8,326.6,382.5L326.6,382.5z M322.1,384.7l-0.6-0.4c-0.1-0.1-0.1-0.1-0.1-0.2v-2c0,0,0,0,0-0.1v-5.1
			c0-0.1,0-0.1,0.1-0.1l0.5,0.3c0.1,0.1,0.1,0.1,0.1,0.2l0,0.6c0.3-0.4,0.9-0.4,1.3-0.1c1.2,0.9,1.9,2.4,1.9,4
			c0,1.6-0.8,2.4-1.9,1.7c-0.6-0.4-1-0.9-1.2-1.5v2.6C322.2,384.7,322.2,384.7,322.1,384.7C322.2,384.7,322.1,384.7,322.1,384.7
			L322.1,384.7z M322.2,379.9c0,1,0.4,1.9,1.2,2.5c0.7,0.4,1.2-0.1,1.2-1.1c0-1-0.4-1.9-1.2-2.5c-0.1-0.1-0.3-0.1-0.4-0.1
			C322.5,378.7,322.2,379.2,322.2,379.9L322.2,379.9z M316,379.1c-1.3-0.9-2-2.4-2-4c0-1.6,0.8-2.4,1.9-1.7c1.2,0.9,1.9,2.3,1.8,3.8
			c0,0.4,0,0.6-0.3,0.5l-2.7-1.6c0.1,0.9,0.5,1.7,1.3,2.2c0.3,0.2,0.6,0.2,0.9,0.1c0.1,0,0.1,0,0.2,0.1l0.3,0.5
			c0.1,0.1,0.1,0.2,0,0.3c-0.2,0.2-0.4,0.2-0.6,0.2C316.5,379.3,316.2,379.2,316,379.1L316,379.1z M314.8,375.2l2.2,1.3
			c0-0.8-0.4-1.6-1.1-2.1c-0.1-0.1-0.3-0.1-0.4-0.1C315.1,374.2,314.8,374.5,314.8,375.2L314.8,375.2z M320.6,379l-2.1-1.3
			c-0.1-0.1-0.1-0.1-0.1-0.2v-0.6c0-0.1,0-0.1,0.1-0.1l2.1,1.3c0.1,0.1,0.1,0.1,0.1,0.2v0.6C320.7,379,320.7,379.1,320.6,379
			C320.6,379.1,320.6,379.1,320.6,379L320.6,379z M312.1,376.8c-0.6-0.4-1.1-1.1-1.5-1.8c0-0.1,0-0.2,0-0.2l0.2-0.3
			c0.1-0.1,0.1,0,0.2,0.1c0.2,0.5,0.6,0.9,1,1.2c0.3,0.2,0.6,0.2,0.6-0.2c0-1.1-2-1.9-2-3.7c0-1,0.6-1.2,1.3-0.8
			c0.6,0.4,1,0.9,1.3,1.6c0,0.1,0,0.2,0,0.2l-0.2,0.3c0,0.1-0.1,0-0.2-0.1c-0.2-0.4-0.5-0.7-0.8-1c-0.3-0.2-0.5-0.1-0.5,0.3
			c0,1.1,2,1.8,2,3.7c0,0.7-0.3,1-0.8,1C312.5,377,312.3,376.9,312.1,376.8L312.1,376.8z M309.9,375.3l-0.5-0.3
			c-0.1-0.1-0.1-0.1-0.1-0.2l0-0.6c-0.3,0.4-0.9,0.4-1.3,0.1c-1.2-0.9-1.9-2.4-1.9-4c0-1.6,0.8-2.4,1.9-1.7c0.6,0.4,1,1,1.3,1.6
			l0-0.6c0-0.1,0-0.1,0.1-0.1l0.5,0.3c0.1,0.1,0.1,0.1,0.1,0.2v5.1C310,375.3,310,375.4,309.9,375.3
			C309.9,375.4,309.9,375.4,309.9,375.3L309.9,375.3z M306.9,370.8c0,1,0.4,1.9,1.2,2.5c0.7,0.4,1.2-0.1,1.2-1.1
			c0-1-0.4-1.9-1.2-2.5c-0.1-0.1-0.3-0.1-0.5-0.1C307.1,369.6,306.9,370.1,306.9,370.8L306.9,370.8z M303.7,371.8
			c-0.6-0.4-1-1-1.3-1.6l0,0.5c0,0.1,0,0.1-0.1,0.1l-0.5-0.3c-0.1-0.1-0.1-0.1-0.1-0.2v-7.8c0-0.1,0-0.1,0.1-0.1l0.6,0.4
			c0.1,0.1,0.1,0.1,0.1,0.2v3.2c0.3-0.4,0.9-0.4,1.2-0.1c1.2,0.9,1.9,2.4,1.9,4c0,1.2-0.5,2-1.2,2
			C304.2,372.1,303.9,372,303.7,371.8L303.7,371.8z M302.5,368.2c0,1,0.4,1.9,1.2,2.5c0.7,0.4,1.2-0.1,1.2-1.1c0-1-0.4-1.9-1.2-2.5
			c-0.1-0.1-0.3-0.1-0.4-0.1C302.7,367,302.5,367.5,302.5,368.2L302.5,368.2z M300.8,370l-0.5-0.3c-0.1-0.1-0.1-0.1-0.1-0.2l0-0.6
			c-0.3,0.4-0.9,0.4-1.3,0.1c-1.2-0.9-1.9-2.4-1.9-4c0-1.6,0.8-2.4,1.9-1.7c0.6,0.4,1,1,1.3,1.6l0-0.6c0-0.1,0-0.1,0.1-0.1l0.5,0.3
			c0.1,0.1,0.1,0.1,0.1,0.2v5.1C300.9,369.9,300.9,370,300.8,370C300.8,370,300.8,370,300.8,370L300.8,370z M297.8,365.5
			c0,1,0.4,1.9,1.2,2.5c0.7,0.4,1.2-0.1,1.2-1.1c0-1-0.4-1.9-1.2-2.5c-0.1-0.1-0.3-0.1-0.5-0.1C298,364.2,297.8,364.7,297.8,365.5
			L297.8,365.5z M295.8,367l-0.6-0.4c-0.1-0.1-0.1-0.1-0.1-0.2v-4.3l-0.6-0.3c-0.1-0.1-0.1-0.1-0.1-0.2v-0.6c0-0.1,0-0.1,0.1-0.1
			l0.6,0.3v-1.5c0-0.1,0-0.1,0.1-0.1l0.6,0.4c0.1,0.1,0.1,0.1,0.1,0.2v1.5l0.6,0.3c0.1,0.1,0.1,0.1,0.1,0.2v0.6c0,0.1,0,0.1-0.1,0.1
			l-0.6-0.3v4.3C295.9,367,295.9,367,295.8,367C295.8,367,295.8,367,295.8,367L295.8,367z M293.7,365.8l-0.5-0.3
			c-0.1-0.1-0.1-0.1-0.1-0.2l0-0.6c-0.3,0.4-0.9,0.4-1.3,0.1c-1.2-0.9-1.9-2.4-1.9-4c0-1.6,0.8-2.4,1.9-1.7c0.6,0.4,1,1,1.3,1.6
			l0-0.6c0-0.1,0-0.1,0.1-0.1l0.5,0.3c0.1,0.1,0.1,0.1,0.1,0.2v5.1C293.8,365.8,293.8,365.8,293.7,365.8
			C293.7,365.8,293.7,365.8,293.7,365.8L293.7,365.8z M290.7,361.3c0,1,0.4,1.9,1.2,2.5c0.7,0.4,1.2-0.1,1.2-1.1
			c0-1-0.4-1.9-1.2-2.5c-0.1-0.1-0.3-0.1-0.5-0.1C290.9,360.1,290.7,360.5,290.7,361.3L290.7,361.3z M289.1,363.1l-0.5-0.3
			c-0.1-0.1-0.1-0.1-0.1-0.2l0-0.6c-0.3,0.4-0.9,0.4-1.3,0.1c-1.2-0.9-1.9-2.4-1.9-4c0-1.6,0.8-2.4,1.9-1.7c0.6,0.4,1,0.9,1.2,1.6
			v-3.2c0-0.1,0-0.1,0.1-0.1l0.6,0.3c0.1,0.1,0.1,0.1,0.1,0.2v7.8C289.2,363,289.2,363.1,289.1,363.1
			C289.2,363.1,289.1,363.1,289.1,363.1L289.1,363.1z M286.1,358.6c0,1,0.4,1.9,1.2,2.5c0.7,0.4,1.2-0.1,1.2-1.1
			c0-1-0.4-1.9-1.2-2.5c-0.1-0.1-0.3-0.1-0.5-0.1C286.4,357.4,286.1,357.8,286.1,358.6L286.1,358.6z M211.5,363
			c-0.3-0.2-0.5-0.6-0.5-1c0-0.4,0.2-0.5,0.5-0.4c0.3,0.2,0.5,0.6,0.5,1c0,0.3-0.1,0.5-0.3,0.5C211.6,363.1,211.6,363,211.5,363
			L211.5,363z M210,362.1c-0.3-0.2-0.5-0.6-0.5-1c0-0.4,0.2-0.5,0.5-0.4c0.3,0.2,0.5,0.6,0.5,1c0,0.3-0.1,0.5-0.3,0.5
			C210.1,362.2,210.1,362.1,210,362.1z M208.5,361.2c-0.3-0.2-0.5-0.6-0.5-1c0-0.4,0.2-0.5,0.5-0.4c0.3,0.2,0.5,0.6,0.5,1
			c0,0.3-0.1,0.5-0.3,0.5C208.6,361.3,208.5,361.3,208.5,361.2L208.5,361.2z M280,357.8c-1.3-0.9-2-2.4-2-4c0-1.6,0.8-2.4,1.9-1.7
			c1.2,0.9,1.9,2.3,1.8,3.8c0,0.4,0,0.6-0.3,0.5l-2.7-1.6c0.1,0.9,0.5,1.7,1.3,2.2c0.3,0.2,0.6,0.2,0.9,0.1c0.1,0,0.1,0,0.2,0.1
			l0.3,0.5c0.1,0.1,0.1,0.2,0,0.3c-0.2,0.2-0.4,0.2-0.6,0.2C280.5,358,280.2,358,280,357.8L280,357.8z M278.8,353.9l2.2,1.3
			c0-0.8-0.4-1.6-1.1-2.1c-0.1-0.1-0.3-0.1-0.4-0.1C279.1,352.9,278.8,353.3,278.8,353.9L278.8,353.9z M284.6,357.8l-2.1-1.3
			c-0.1-0.1-0.1-0.1-0.1-0.2v-0.6c0-0.1,0-0.1,0.1-0.1l2.1,1.3c0.1,0.1,0.1,0.1,0.1,0.2v0.6C284.7,357.7,284.7,357.8,284.6,357.8
			C284.6,357.8,284.6,357.8,284.6,357.8L284.6,357.8z M276.3,355.5l-0.6-0.3c-0.1-0.1-0.1-0.1-0.1-0.2v-5.1c0-0.1,0-0.1,0.1-0.1
			l0.6,0.3c0.1,0.1,0.1,0.1,0.1,0.2l0,0.5c0.1-0.3,0.5-0.5,0.8-0.3c0.1,0,0.1,0.1,0.1,0.1c0.2,0.1,0.4,0.3,0.5,0.5
			c0.1,0.1,0.1,0.2,0,0.2l-0.2,0.5c0,0.1-0.1,0.1-0.2,0c-0.1-0.1-0.2-0.2-0.3-0.3c-0.5-0.3-0.8,0-0.8,0.7v3.1
			C276.4,355.4,276.4,355.5,276.3,355.5C276.3,355.5,276.3,355.5,276.3,355.5L276.3,355.5z M272.9,353.7c-1.3-1-2-2.4-2-4
			c0-1.6,0.9-2.3,2-1.7c1.3,0.9,2,2.4,2,4c0,1.2-0.5,1.9-1.2,1.9C273.4,353.9,273.2,353.8,272.9,353.7L272.9,353.7z M271.8,350.1
			c0,1,0.4,1.9,1.2,2.5c0.7,0.4,1.2,0,1.2-1.1c0-1-0.4-1.9-1.2-2.5c-0.1-0.1-0.3-0.1-0.5-0.1C272.1,348.9,271.8,349.3,271.8,350.1
			L271.8,350.1z M269.1,351.4c-1.2-0.9-2-2.4-2-4c0-1.6,0.8-2.3,2-1.7c0.7,0.5,1.2,1.1,1.5,1.8c0,0.1,0,0.2,0,0.2l-0.3,0.3
			c-0.1,0-0.1,0-0.2-0.1c-0.2-0.5-0.5-0.9-0.9-1.1c-0.7-0.4-1.2,0.1-1.2,1.1c0,1,0.4,1.9,1.2,2.5c0.3,0.2,0.7,0.2,1,0
			c0.1,0,0.1,0,0.2,0.1l0.3,0.7c0,0.1,0.1,0.2,0,0.2c-0.2,0.2-0.5,0.3-0.7,0.3C269.6,351.6,269.3,351.5,269.1,351.4L269.1,351.4z
			 M264.4,349.9l-0.6-0.4c-0.1,0-0.1-0.1-0.1-0.2l2.6-7.8c0-0.1,0.1-0.1,0.1,0l0.6,0.4c0.1,0,0.1,0.2,0.1,0.2l-2.6,7.8
			C264.5,349.9,264.5,349.9,264.4,349.9C264.4,349.9,264.4,349.9,264.4,349.9L264.4,349.9z M211.5,347.8c-0.3-0.2-0.5-0.6-0.5-1
			c0-0.4,0.2-0.5,0.5-0.4c0.3,0.2,0.5,0.6,0.5,1c0,0.3-0.1,0.4-0.3,0.4C211.6,347.8,211.6,347.8,211.5,347.8L211.5,347.8z
			 M263.1,347.7l-0.6-0.4c-0.1-0.1-0.1-0.1-0.1-0.2v-3c0.1-0.7-0.2-1.4-0.8-1.8c-0.7-0.4-1,0.2-1,0.6v3.1c0,0.1,0,0.1-0.1,0.1
			l-0.6-0.3c-0.1-0.1-0.1-0.1-0.1-0.2v-3c0.1-0.7-0.2-1.4-0.8-1.8c-0.7-0.4-1,0.3-1,0.6v3.2c0,0.1,0,0.1-0.1,0.1l-0.6-0.3
			c-0.1-0.1-0.1-0.1-0.1-0.2v-5.1c0-0.1,0-0.1,0.1-0.1l0.6,0.3c0.1,0.1,0.1,0.1,0.1,0.2l0,0.8c0.2-0.4,0.7-0.6,1.1-0.4
			c0,0,0.1,0.1,0.1,0.1c0.6,0.4,1.1,1,1.2,1.8c0.3-0.4,0.7-0.6,1.4-0.2c1,0.7,1.5,1.9,1.4,3.1v3.2
			C263.2,347.7,263.2,347.7,263.1,347.7C263.1,347.7,263.1,347.7,263.1,347.7L263.1,347.7z M210,346.9c-0.3-0.2-0.5-0.6-0.5-1
			c0-0.4,0.2-0.5,0.5-0.4c0.3,0.2,0.5,0.6,0.5,1c0,0.3-0.1,0.4-0.3,0.4C210.1,346.9,210.1,346.9,210,346.9L210,346.9z M208.5,346
			c-0.3-0.2-0.5-0.6-0.5-1c0-0.4,0.2-0.5,0.5-0.4c0.3,0.2,0.5,0.6,0.5,1c0,0.3-0.1,0.5-0.3,0.5C208.6,346.1,208.5,346,208.5,346z
			 M254.7,342.9c-1.3-0.9-2-2.4-2-4c0-1.6,0.8-2.4,1.9-1.7c1.2,0.9,1.9,2.3,1.8,3.8c0,0.4,0,0.6-0.3,0.5l-2.7-1.6
			c0.1,0.9,0.5,1.7,1.3,2.2c0.3,0.2,0.6,0.2,0.9,0.1c0.1,0,0.1,0,0.2,0.1l0.3,0.5c0.1,0.1,0.1,0.2,0,0.3c-0.2,0.2-0.4,0.2-0.6,0.2
			C255.2,343.1,255,343,254.7,342.9L254.7,342.9z M253.5,339l2.2,1.3c0-0.8-0.4-1.6-1.1-2.1c-0.1-0.1-0.3-0.1-0.4-0.1
			C253.8,338,253.6,338.4,253.5,339L253.5,339z M251.5,340.9l-0.6-0.3c-0.1-0.1-0.1-0.1-0.1-0.2V336l-0.6-0.3
			c-0.1-0.1-0.1-0.1-0.1-0.2v-0.6c0-0.1,0-0.1,0.1-0.1l0.6,0.3v-1.5c0-0.1,0-0.1,0.1-0.1l0.6,0.3c0.1,0.1,0.1,0.1,0.1,0.2v1.5
			l0.6,0.3c0.1,0.1,0.1,0.1,0.1,0.2v0.6c0,0.1,0,0.1-0.1,0.1l-0.6-0.3v4.3C251.7,340.8,251.6,340.9,251.5,340.9
			C251.6,340.9,251.6,340.9,251.5,340.9L251.5,340.9z M248.5,339.2c-0.6-0.4-1.1-1.1-1.5-1.8c0-0.1,0-0.2,0-0.2l0.2-0.3
			c0.1-0.1,0.1,0,0.2,0.1c0.2,0.5,0.6,0.9,1,1.2c0.3,0.2,0.6,0.2,0.6-0.2c0-1.1-2-1.9-2-3.7c0-1,0.6-1.2,1.3-0.8
			c0.6,0.4,1,0.9,1.3,1.6c0,0.1,0,0.2,0,0.2l-0.2,0.3c0,0.1-0.1,0-0.2-0.1c-0.2-0.4-0.5-0.7-0.8-1c-0.3-0.2-0.5-0.1-0.5,0.3
			c0,1.1,2,1.8,2,3.7c0,0.7-0.3,1-0.8,1C248.9,339.4,248.7,339.3,248.5,339.2L248.5,339.2z M244.6,338.9l-0.6-0.4
			c-0.1,0-0.1-0.2-0.1-0.2l0.6-1.6l-1.5-6.1c0-0.1,0-0.2,0.1-0.1l0.6,0.4c0.1,0.1,0.1,0.1,0.1,0.2l1.1,4.6l1.1-3.3
			c0-0.1,0.1-0.1,0.1,0l0.6,0.4c0.1,0,0.1,0.1,0.1,0.2l-2,6C244.8,338.9,244.7,338.9,244.6,338.9
			C244.7,338.9,244.6,338.9,244.6,338.9z M241.5,335.1c-0.6-0.4-1.1-1.1-1.5-1.8c0-0.1,0-0.2,0-0.2l0.2-0.3c0.1-0.1,0.1,0,0.2,0.1
			c0.2,0.5,0.6,0.9,1,1.2c0.3,0.2,0.6,0.2,0.6-0.2c0-1.1-2-1.9-2-3.7c0-1,0.6-1.2,1.3-0.8c0.6,0.4,1,0.9,1.3,1.6c0,0.1,0,0.2,0,0.2
			l-0.2,0.3c0,0.1-0.1,0-0.2-0.1c-0.2-0.4-0.5-0.7-0.8-1c-0.3-0.2-0.5-0.1-0.5,0.3c0,1.1,2,1.8,2,3.7c0,0.7-0.3,1-0.8,1
			C241.9,335.3,241.7,335.2,241.5,335.1z M237.6,332.8c-1.3-0.9-2-2.4-2-4c0-1.6,0.9-2.3,2-1.7c1.3,0.9,2,2.4,2,4
			c0,1.2-0.5,1.9-1.2,1.9C238.1,333,237.8,332.9,237.6,332.8L237.6,332.8z M236.4,329.2c0,1,0.4,1.9,1.2,2.5c0.7,0.4,1.2,0,1.2-1.1
			c0-1-0.4-1.9-1.2-2.5c-0.1-0.1-0.3-0.1-0.5-0.1C236.7,328,236.4,328.5,236.4,329.2L236.4,329.2z M211.5,332.6
			c-0.3-0.2-0.5-0.6-0.5-1c0-0.4,0.2-0.5,0.5-0.4c0.3,0.2,0.5,0.6,0.5,1c0,0.3-0.1,0.5-0.3,0.5C211.6,332.6,211.6,332.6,211.5,332.6
			L211.5,332.6z M210,331.7c-0.3-0.2-0.5-0.6-0.5-1c0-0.4,0.2-0.5,0.5-0.4c0.3,0.2,0.5,0.6,0.5,1c0,0.3-0.1,0.5-0.3,0.5
			C210.1,331.7,210.1,331.7,210,331.7z M208.5,330.8c-0.3-0.2-0.5-0.6-0.5-1c0-0.4,0.2-0.5,0.5-0.4c0.3,0.2,0.5,0.6,0.5,1
			c0,0.3-0.1,0.4-0.3,0.4C208.6,330.8,208.5,330.8,208.5,330.8L208.5,330.8z M233.8,330.5c-1.3-0.9-2-2.4-2-4c0-1.6,0.8-2.3,2-1.7
			c0.7,0.5,1.2,1.1,1.5,1.8c0,0.1,0,0.2,0,0.2l-0.3,0.3c-0.1,0-0.1,0-0.2-0.1c-0.2-0.5-0.5-0.9-0.9-1.1c-0.7-0.4-1.2,0.1-1.2,1.1
			c0,1,0.4,1.9,1.2,2.5c0.3,0.2,0.7,0.2,1,0c0.1,0,0.1,0,0.2,0.1l0.3,0.7c0.1,0.1,0.1,0.2,0,0.2c-0.2,0.2-0.5,0.3-0.7,0.3
			C234.3,330.7,234,330.6,233.8,330.5L233.8,330.5z M229.6,328c-1.3-0.9-2-2.4-2-4c0-1.6,0.8-2.4,1.9-1.7c1.2,0.9,1.9,2.3,1.8,3.8
			c0,0.4,0,0.6-0.3,0.5l-2.7-1.6c0.1,0.9,0.5,1.7,1.3,2.2c0.3,0.2,0.6,0.2,0.9,0.1c0.1,0,0.1,0,0.2,0.1l0.3,0.5
			c0.1,0.1,0.1,0.2,0,0.3c-0.2,0.2-0.4,0.2-0.6,0.2C230.1,328.3,229.8,328.2,229.6,328L229.6,328z M228.4,324.1l2.2,1.3
			c0-0.8-0.4-1.6-1.1-2.1c-0.1-0.1-0.3-0.1-0.4-0.1C228.7,323.2,228.4,323.5,228.4,324.1L228.4,324.1z M227.5,326.7l-0.6-0.4
			c-0.1,0-0.1-0.1-0.1-0.2l-1.3-3.1l-0.6,0.6v1.3c0,0.1,0,0.1-0.1,0.1l-0.6-0.4c-0.1-0.1-0.1-0.1-0.1-0.2v-7.8c0-0.1,0-0.1,0.1-0.1
			l0.6,0.4c0.1,0.1,0.1,0.1,0.1,0.2v5l1.6-1.5c0,0,0.1,0,0.1,0l0.7,0.4c0.1,0.1,0.1,0.2,0.1,0.2l-1.4,1.2l1.6,3.9
			C227.6,326.6,227.6,326.7,227.5,326.7C227.5,326.7,227.5,326.7,227.5,326.7L227.5,326.7z M222,323.4l-0.6-0.3
			c-0.1-0.1-0.1-0.1-0.1-0.2v-5.1c0-0.1,0-0.1,0.1-0.1l0.6,0.3c0.1,0.1,0.1,0.1,0.1,0.2l0,0.5c0.1-0.3,0.5-0.5,0.8-0.3
			c0.1,0,0.1,0.1,0.1,0.1c0.2,0.1,0.4,0.3,0.5,0.5c0.1,0.1,0.1,0.2,0,0.2l-0.2,0.5c0,0.1-0.1,0.1-0.2,0c-0.1-0.1-0.2-0.2-0.3-0.3
			c-0.5-0.3-0.8,0-0.8,0.7v3.1C222.1,323.4,222.1,323.4,222,323.4C222,323.4,222,323.4,222,323.4L222,323.4z M220.4,322.5l-0.5-0.3
			c-0.1-0.1-0.1-0.1-0.1-0.2l0-0.6c-0.3,0.4-0.9,0.4-1.3,0.1c-1.2-0.9-1.9-2.4-1.9-4c0-1.6,0.8-2.4,1.9-1.7c0.6,0.4,1,1,1.3,1.6
			l0-0.6c0-0.1,0-0.1,0.1-0.1l0.5,0.3c0.1,0.1,0.1,0.1,0.1,0.2v5.1C220.5,322.4,220.5,322.5,220.4,322.5
			C220.4,322.5,220.4,322.5,220.4,322.5L220.4,322.5z M217.4,318c0,1,0.4,1.9,1.2,2.5c0.7,0.4,1.2-0.1,1.2-1.1c0-1-0.4-1.9-1.2-2.5
			c-0.1-0.1-0.3-0.1-0.5-0.1C217.7,316.7,217.4,317.2,217.4,318L217.4,318z M213.2,318.3c-1.8-1.3-2.9-3.4-2.9-5.6
			c0-2.5,1.4-3.2,2.9-2.3c1.8,1.3,2.8,3.3,2.8,5.5c0,1.6-0.6,1.9-1.3,1.5c-0.3-0.2-0.6-0.5-0.7-0.9c-0.3,0.1-0.6,0.1-0.9-0.1
			c-0.9-0.7-1.4-1.7-1.4-2.8c0-1.1,0.6-1.7,1.4-1.2c0.4,0.3,0.8,0.7,1,1.1l0.1-0.3l0.4,0.2l-0.2,2.2c-0.1,0.3,0.1,0.7,0.3,0.9
			c0.3,0.2,0.5-0.2,0.5-1.1c0-1.6-0.8-3.2-2.1-4.1c-1.1-0.6-2.2-0.2-2.2,1.8c0,1.7,0.8,3.3,2.2,4.3c0.3,0.2,0.7,0.3,1.1,0.2l0.5,0.8
			c-0.2,0.1-0.4,0.2-0.7,0.2C213.9,318.6,213.5,318.5,213.2,318.3L213.2,318.3z M212.4,313.9c0,0.6,0.3,1.2,0.8,1.6
			c0.5,0.3,0.8,0,0.8-0.7c0-0.6-0.3-1.3-0.8-1.6c-0.1-0.1-0.2-0.1-0.3-0.1C212.5,313.1,212.3,313.4,212.4,313.9L212.4,313.9z
			 M209.6,310.8l-0.4-0.2c-0.1-0.1-0.1-0.1-0.1-0.2l-0.1-2.2c0-0.1,0-0.1,0.1-0.1l0.5,0.3c0.1,0.1,0.1,0.1,0.1,0.2l-0.1,2.1
			C209.7,310.8,209.7,310.8,209.6,310.8C209.7,310.8,209.6,310.8,209.6,310.8L209.6,310.8z M208.6,310.2l-0.4-0.2
			c-0.1-0.1-0.1-0.1-0.1-0.2l-0.1-2.2c0-0.1,0-0.1,0.1-0.1l0.5,0.3c0.1,0.1,0.1,0.1,0.1,0.2l-0.1,2.1
			C208.7,310.1,208.6,310.2,208.6,310.2C208.6,310.2,208.6,310.2,208.6,310.2L208.6,310.2z"/>
	</g>
</g>
</svg>
