<?xml version="1.0" encoding="utf-8"?>
<!-- Generator: Adobe Illustrator 23.0.3, SVG Export Plug-In . SVG Version: 6.00 Build 0)  -->
<svg version="1.1" id="Слой_1" xmlns="http://www.w3.org/2000/svg" xmlns:xlink="http://www.w3.org/1999/xlink" x="0px" y="0px"
	 viewBox="0 0 502 518" style="enable-background:new 0 0 502 518;" xml:space="preserve">
<style type="text/css">
	.st0{fill:#9695B6;}
	.st1{clip-path:url(#SVGID_2_);}
	.st2{opacity:0.361;fill:#C2CFE0;enable-background:new    ;}
	.st3{fill:#C2CFE0;}
	.st4{fill:#5D5988;}
	.st5{clip-path:url(#SVGID_4_);}
	.st6{clip-path:url(#SVGID_6_);}
	.st7{fill:#A6AAC5;}
	.st8{fill:#4A4673;}
	.st9{opacity:0.22;enable-background:new    ;}
	.st10{fill:#F7B6A4;}
	.st11{clip-path:url(#SVGID_8_);}
	.st12{opacity:0.361;fill:#FEE9DF;enable-background:new    ;}
	.st13{fill:#FEE9DF;}
	.st14{fill:#D3708D;}
	.st15{fill:#494775;}
	.st16{fill:#FF584E;}
	.st17{fill:#6C6A96;}
	.st18{fill:#F8F2EF;}
	.st19{fill:#FFFFFF;}
	.st20{clip-path:url(#SVGID_10_);}
	.st21{fill:#2BE0F0;}
	.st22{fill:#C6C5DA;}
	.st23{fill:#F5F0ED;}
	.st24{fill:#78546D;}
	.st25{opacity:0.588;fill:url(#Фигура_1087_1_);enable-background:new    ;}
	.st26{fill:#311B5C;}
	.st27{clip-path:url(#SVGID_12_);}
	.st28{fill:#49329A;}
	.st29{fill:#EBB590;}
	.st30{fill:#ED9768;}
	.st31{opacity:0.42;enable-background:new    ;}
</style>
<g>
	<g id="Canvas">
		<g id="_c_копия">
			<g id="Фигура_2180-4">
				<path id="Фигура_2180-5" class="st0" d="M436.2,385c3.2,1.6,7.1,1.3,10.1-0.7c3.9-2.4,5.5-4.1,8.3-5.9s6.5-4.5,6.5-11.4
					v-169c-0.2-10-5.5-19.2-14-24.4c-9-5.4-219.5-130.1-223.5-132.4s-7-1.3-9.7,0.3s-5.9,4.8-8.9,6.5s-5.8,4-5.8,9.1v172.2
					c0,9.9,3.3,17.5,14,23.4S433.5,383.8,436.2,385z"/>
				<g>
					<defs>
						<path id="SVGID_1_" d="M436.2,385c3.2,1.6,7.1,1.3,10.1-0.7c3.9-2.4,5.5-4.1,8.3-5.9s6.5-4.5,6.5-11.4v-169
							c-0.2-10-5.5-19.2-14-24.4c-9-5.4-219.5-130.1-223.5-132.4s-7-1.3-9.7,0.3s-5.9,4.8-8.9,6.5s-5.8,4-5.8,9.1v172.2
							c0,9.9,3.3,17.5,14,23.4S433.5,383.8,436.2,385z"/>
					</defs>
					<clipPath id="SVGID_2_">
						<use xlink:href="#SVGID_1_"  style="overflow:visible;"/>
					</clipPath>
					<g id="Clip" class="st1">
						<path id="Фигура_2183" class="st2" d="M443,187.9l13-9l7.2,13.3l-16.9,10L443,187.9z"/>
						<path id="Фигура_2182" class="st3" d="M443,187.9l14-9.3c0,0-2.4-3.9-9.8-8.1S227.3,40.6,222.9,38.3s-7.4-1.6-9.8-0.3
							s-9.1,6.7-12.3,8.7s-5.8,8.5-1,8.4s4.7-3.1,13,1S424.4,182.3,430.9,186S443,187.9,443,187.9z"/>
						<path id="Фигура_2181" class="st4" d="M435.7,384.1c3.9,2.2,14.3,5.1,14.3-8.5V206.4c0-11.2-3.6-19.6-13-25
							c-9.8-5.6-217.3-127.8-224.3-131.8S199,48.9,199,58.4v172.1c0,3.9,1.5,15.3,10.4,20.9S431.8,382,435.7,384.1z"/>
					</g>
				</g>
			</g>
		</g>
		<g id="_c">
			<g id="Фигура_2180-6">
				<path id="Фигура_2180-7" class="st0" d="M286.2,476c3.2,1.6,7.1,1.3,10.1-0.7c3.9-2.4,128.5-79.1,131.3-80.9
					s6.5-4.5,6.5-11.4v-169c-0.2-10-5.5-19.2-14-24.4c-9-5.4-219.5-130.1-223.5-132.4s-7-1.3-9.7,0.3S57.8,137.4,54.8,139.2
					s-5.8,4-5.8,9.1v172.2c0,9.9,3.3,17.5,14,23.4S283.5,474.8,286.2,476z"/>
				<g>
					<defs>
						<path id="SVGID_3_" d="M286.2,476c3.2,1.6,7.1,1.3,10.1-0.7c3.9-2.4,128.5-79.1,131.3-80.9s6.5-4.5,6.5-11.4v-169
							c-0.2-10-5.5-19.2-14-24.4c-9-5.4-219.5-130.1-223.5-132.4s-7-1.3-9.7,0.3S57.8,137.4,54.8,139.2s-5.8,4-5.8,9.1v172.2
							c0,9.9,3.3,17.5,14,23.4S283.5,474.8,286.2,476z"/>
					</defs>
					<clipPath id="SVGID_4_">
						<use xlink:href="#SVGID_3_"  style="overflow:visible;"/>
					</clipPath>
					<g id="Clip-2" class="st5">
						<path id="Фигура_2183-2" class="st2" d="M293,278.9l136-84l7.2,13.3l-139.9,85L293,278.9z"/>
						<path id="Фигура_2182-2" class="st3" d="M293,278.9l137-84.3c0,0-2.4-3.9-9.8-8.1S200.3,56.6,195.9,54.3
							s-7.4-1.6-9.8-0.3S54,135.8,50.8,137.7s-5.8,8.5-1,8.4s4.7-3.1,13,1S274.4,273.3,280.9,277S293,278.9,293,278.9z"/>
						<path id="Фигура_2181-2" class="st4" d="M285.7,475.1c3.9,2.2,14.3,5.1,14.3-8.5V297.4c0-11.2-3.6-19.6-13-25
							c-9.8-5.6-217.3-127.8-224.3-131.8S49,139.9,49,149.4v172.1c0,3.9,1.5,15.3,10.4,20.9S281.8,473,285.7,475.1z"/>
					</g>
				</g>
			</g>
			<g id="Фигура_2181_копия-2">
				<path id="Фигура_2181_копия-3" class="st0" d="M278.7,463.2c3.6,2,13.3,4.7,13.3-7.9V298.1c0-10.4-3.4-18.1-12-23
					c-9-5.2-205.8-120.9-212.3-124.5S55,149.8,55,158.6v160c0,3.6,1.4,14.1,9.6,19.3S275.2,461.2,278.7,463.2z"/>
				<g>
					<defs>
						<path id="SVGID_5_" d="M278.7,463.2c3.6,2,13.3,4.7,13.3-7.9V298.1c0-10.4-3.4-18.1-12-23c-9-5.2-205.8-120.9-212.3-124.5
							S55,149.8,55,158.6v160c0,3.6,1.4,14.1,9.6,19.3S275.2,461.2,278.7,463.2z"/>
					</defs>
					<clipPath id="SVGID_6_">
						<use xlink:href="#SVGID_5_"  style="overflow:visible;"/>
					</clipPath>
					<g id="Clip-3" class="st6">
						<path id="Фигура_2194" class="st3" d="M53,341l85-53l194,104c0,0-23.5,100.4-27,100S53,341,53,341z"/>
						<path id="Фигура_2193" class="st7" d="M61,338l77-48l-6-16l-86,51L61,338z"/>
						<path id="Фигура_2181_копия_2" class="st8" d="M347.7,418.2c3.6,2,13.3,4.7,13.3-7.9V253.1c0-10.4-3.4-18.1-12-23
							c-9-5.2-205.8-120.9-212.3-124.5s-12.7-0.7-12.7,8.1v160c0,3.6,1.4,14.1,9.6,19.3S344.2,416.2,347.7,418.2z"/>
						<path id="Фигура_2181_копия_3" class="st9" d="M309.7,443.2c3.6,2,13.3,4.7,13.3-7.9V278.1c0-10.4-3.4-18.1-12-23
							c-9-5.2-205.8-120.9-212.3-124.5S86,129.8,86,138.6v160c0,3.6,1.4,14.1,9.6,19.3S306.2,441.2,309.7,443.2z"/>
					</g>
				</g>
			</g>
		</g>
		<g id="_c_копия_2">
			<g id="Фигура_2180-8">
				<path id="Фигура_2180-9" class="st10" d="M244.1,410c3.2,1.6,7,1.3,10-0.7c3.9-2.4,13.6-8.1,16.4-9.8s6.5-4.5,6.5-11.4
					v-81c-0.2-10-5.5-19.2-13.9-24.4c-9-5.5-119.5-71.1-123.5-73.4s-7-1.3-9.7,0.3s-14,8.7-17,10.4s-5.8,4-5.8,9.1v84.3
					c0,9.9,3.3,17.5,13.9,23.5S241.5,408.8,244.1,410z"/>
				<g>
					<defs>
						<path id="SVGID_7_" d="M244.1,410c3.2,1.6,7,1.3,10-0.7c3.9-2.4,13.6-8.1,16.4-9.8s6.5-4.5,6.5-11.4v-81
							c-0.2-10-5.5-19.2-13.9-24.4c-9-5.5-119.5-71.1-123.5-73.4s-7-1.3-9.7,0.3s-14,8.7-17,10.4s-5.8,4-5.8,9.1v84.3
							c0,9.9,3.3,17.5,13.9,23.5S241.5,408.8,244.1,410z"/>
					</defs>
					<clipPath id="SVGID_8_">
						<use xlink:href="#SVGID_7_"  style="overflow:visible;"/>
					</clipPath>
					<g id="Clip-4" class="st11">
						<path id="Фигура_2183-3" class="st12" d="M251,300.9l21-13l7.2,13.3l-24.9,14L251,300.9z"/>
						<path id="Фигура_2182-3" class="st13" d="M251,300.9l22-13.3c0,0-2.4-3.9-9.8-8.1s-119.8-70.9-124.2-73.1
							s-7.4-1.6-9.8-0.3s-17.1,10.7-20.3,12.7s-5.8,8.5-1,8.4s4.7-3.1,13,1s111.5,67.2,118.1,70.9S251,300.9,251,300.9z"/>
						<path id="Фигура_2181-3" class="st14" d="M242.7,410.1c3.9,2.2,14.4,5.1,14.4-8.5v-83.2c0-11.2-3.6-19.6-13.1-25
							c-9.8-5.6-117.2-68.9-124.3-72.8s-13.7-0.8-13.7,8.8v84.1c0,3.9,1.5,15.3,10.4,20.9S238.8,408,242.7,410.1z"/>
					</g>
				</g>
			</g>
			<path id="Фигура_2181_копия-4" class="st15" d="M240.3,403.2c3.7,2.1,13.7,4.9,13.7-8.1v-74.8
				c0-10.7-3.5-18.7-12.5-23.9c-9.3-5.4-112.7-66.1-119.4-69.8s-13.1-0.7-13.1,8.4v77.6c0,3.7,1.4,14.6,10,20
				S236.6,401.1,240.3,403.2z"/>
			<path id="Эллипс_3848" class="st16" d="M124.4,233.8c1.4,0.9,2.3,2.5,2.4,4.2c0,1.5-1.1,2.1-2.4,1.4
				c-1.4-0.9-2.3-2.5-2.4-4.2C122,233.6,123,233,124.4,233.8z"/>
			<path id="Эллипс_3848_копия_2" class="st17" d="M141.6,249.2c-1.4-0.9-2.3-2.5-2.4-4.2c0-1.5,1.1-2.1,2.4-1.4
				c1.4,0.9,2.3,2.5,2.4,4.2c0,1.1-0.5,1.7-1.3,1.7C142.3,249.5,141.9,249.4,141.6,249.2z M133,244.2c-1.4-0.9-2.3-2.5-2.4-4.2
				c0-1.5,1.1-2.1,2.4-1.4c1.4,0.9,2.3,2.5,2.4,4.2c0,1.1-0.5,1.7-1.3,1.7C133.7,244.6,133.3,244.4,133,244.2L133,244.2z"/>
			<path id="Open_Source" class="st18" d="M204.4,312.3c-2.5-1.7-4-4.6-4-7.7c0-2.9,1.6-4.4,3.9-3.1c2.1,1.2,3.7,4.3,3.7,7.9v0.8
				l-4.8-2.8c0.2,0.9,0.7,1.7,1.5,2.2c0.4,0.2,1.3,0.5,1.6,0.2l1.1,3c-0.2,0.1-0.5,0.2-0.8,0.2C205.8,313,205.1,312.7,204.4,312.3z
				 M203.1,305l2.3,1.4c-0.1-0.8-0.5-1.5-1.2-1.9c-0.2-0.1-0.3-0.2-0.5-0.2C203.4,304.3,203.2,304.7,203.1,305z M197,308
				c-2.5-1.7-4-4.6-4-7.7c0-3.2,1.7-4.3,4-3c1.4,0.9,2.4,2.2,3,3.7l-1.7,1.3c-0.2-0.6-0.6-1.2-1.2-1.6c-0.8-0.4-1.4-0.1-1.4,1.2
				c0,1.1,0.5,2.2,1.4,2.8c0.3,0.3,0.9,0.2,1.1-0.1c0,0,0,0,0.1-0.1l1.7,3.3c-0.3,0.4-0.8,0.7-1.4,0.7
				C198.1,308.5,197.5,308.3,197,308L197,308z M187.8,302.3v-10.2l2.7,1.5v1.1c0.6-0.5,1.5-0.6,2.2-0.1v3.6
				c-0.2-0.2-0.4-0.3-0.6-0.5c-0.6-0.3-1.3-0.5-1.6-0.2v6.2L187.8,302.3z M183.6,299.9v-1.1c-0.4,0.4-1.2,0.7-2.4,0
				c-1.5-1-2.4-2.7-2.4-4.5V287l2.7,1.5v5.6c-0.1,0.8,0.3,1.6,1,2c0.3,0.3,0.8,0.2,1.1-0.1c0,0,0,0,0,0v-6.3l2.7,1.5v10.2
				L183.6,299.9z M173.8,294.5c-2.5-1.5-4-4.8-4-7.7s1.5-4.5,4-3s4,4.8,4,7.7c0,2.1-0.8,3.6-2.3,3.6
				C174.9,295,174.3,294.8,173.8,294.5L173.8,294.5z M172.6,288.4c-0.1,1.1,0.4,2.1,1.3,2.7c0.8,0.5,1.3-0.1,1.3-1.2
				c0.1-1.1-0.4-2.1-1.3-2.7c-0.2-0.1-0.3-0.2-0.5-0.2C172.8,287,172.6,287.5,172.6,288.4L172.6,288.4z M165.2,289.4
				c-2-1.2-3.5-2.9-4.6-4.9l1.5-2.2c0.7,1.5,1.8,2.7,3.2,3.7c0.6,0.3,1.1,0.4,1.1-0.1c0-1.3-5.5-3.2-5.5-8.7c0-2.4,1.4-3.8,4.1-2.3
				c1.8,1.1,3.2,2.6,4.2,4.4l-1.6,2.1c-0.7-1.2-1.7-2.3-2.9-3.1c-0.6-0.3-0.8-0.2-0.8,0.2c0,1.3,5.5,3.4,5.5,8.6
				c0,2.1-0.7,3.1-2,3.1C166.6,290.1,165.8,289.8,165.2,289.4L165.2,289.4z M153.4,282.3v-5.6c0.1-0.8-0.3-1.6-1-2.1
				c-0.3-0.3-0.8-0.2-1.1,0.1c0,0,0,0,0,0v6.3l-2.7-1.5v-10.2l2.7,1.5v1.2c0.4-0.4,1.2-0.7,2.4,0c1.5,1,2.5,2.7,2.4,4.6v7.2
				L153.4,282.3z M144,277.1c-2.5-1.7-4-4.6-4-7.7c0-2.9,1.6-4.4,3.9-3.1c2.1,1.2,3.7,4.3,3.7,7.9v0.8l-4.8-2.8
				c0.2,0.9,0.7,1.7,1.5,2.2c0.4,0.2,1.3,0.5,1.6,0.2l1.1,3c-0.2,0.1-0.5,0.2-0.8,0.2C145.5,277.8,144.7,277.5,144,277.1L144,277.1z
				 M142.8,269.8l2.3,1.4c-0.1-0.8-0.5-1.5-1.2-1.9c-0.2-0.1-0.3-0.2-0.5-0.2C143,269.1,142.8,269.5,142.8,269.8L142.8,269.8z
				 M131.8,273.6v-14l2.7,1.5v1.1c0.5-0.6,1.4-0.6,2-0.2c1.8,1,3.1,3.7,3.1,7.1c0,3.5-1.4,4.5-3.1,3.5c-0.9-0.6-1.6-1.5-2-2.5v4.9
				L131.8,273.6z M134.4,264.9v2.6c0.2,0.5,0.6,1,1.1,1.3c0.7,0.4,1.3,0.1,1.3-1.2c0-1.1-0.5-2.1-1.3-2.8c-0.2-0.1-0.4-0.2-0.6-0.2
				C134.8,264.6,134.6,264.7,134.4,264.9L134.4,264.9z M125.4,266.2c-3-1.8-5.4-6.1-5.4-10.4s2.3-5.9,5.4-4.1
				c3,1.8,5.4,6.1,5.4,10.4c0,3.1-1.2,4.8-3.1,4.8C126.9,266.9,126.1,266.7,125.4,266.2L125.4,266.2z M123,257.6
				c-0.1,1.9,0.8,3.7,2.4,4.9c1.4,0.8,2.4-0.2,2.4-2.1c0.1-1.9-0.8-3.7-2.4-4.9c-0.3-0.2-0.6-0.3-0.9-0.3
				C123.6,255.2,123,256.1,123,257.6L123,257.6z"/>
			<g id="module.exports_arkecosystem_core-event-emitter_:_2">
				<path id="module.exports_arkecosystem_core-event-emitter_:_3" class="st19" d="M227.6,371.2c0.2-0.1,0.4-0.3,0.5-0.5
					c0,0-0.1,0-0.1,0c-0.3-0.2-0.4-0.5-0.4-0.8c0-0.4,0.2-0.5,0.5-0.4c0.4,0.3,0.6,0.7,0.5,1.1c0.1,0.5-0.2,1-0.6,1.2L227.6,371.2z
					 M226,371l-0.4-0.2v-0.7l0.4,0.2c0.2,0.1,0.4,0,0.4-0.4v-1.5c0-0.3,0.1-0.6,0.3-0.6c-0.2-0.3-0.3-0.6-0.3-0.9v-1.5
					c0-0.3-0.1-0.6-0.4-0.8l-0.4-0.2v-0.7l0.4,0.2c0.6,0.4,1,1.1,0.9,1.8v1.4c0,0.3,0.1,0.6,0.3,0.7v0.6c-0.2-0.1-0.3,0.1-0.3,0.4
					v1.4c0,0.6-0.2,0.9-0.6,0.9C226.2,371.1,226.1,371.1,226,371z M225.1,370.5c-0.6-0.4-1-1.1-0.9-1.8v-1.4c0-0.3-0.1-0.6-0.3-0.7
					v-0.6c0.2,0.1,0.3-0.1,0.3-0.4v-1.4c0-0.8,0.5-1.1,0.9-0.8l0.4,0.2v0.7l-0.4-0.2c-0.2-0.1-0.4,0-0.4,0.4v1.5
					c0,0.3-0.1,0.6-0.3,0.6c0.2,0.3,0.3,0.6,0.3,0.9v1.5c0,0.3,0.1,0.6,0.4,0.8l0.4,0.2v0.7L225.1,370.5z M221.5,367
					c-0.3-0.2-0.5-0.6-0.5-0.9c0-0.4,0.2-0.5,0.5-0.4c0.3,0.2,0.5,0.6,0.5,0.9c0,0.3-0.1,0.4-0.3,0.4
					C221.6,367.1,221.5,367.1,221.5,367L221.5,367z M216.6,364.3c-1-0.7-1.6-1.8-1.5-3c0-1.1,0.6-1.8,1.5-1.2c1,0.7,1.6,1.8,1.6,3
					c0,0.8-0.3,1.4-0.9,1.4C217,364.4,216.8,364.4,216.6,364.3L216.6,364.3z M215.8,361.7c0,0.6,0.2,1.2,0.7,1.6
					c0.5,0.3,0.8-0.1,0.8-0.7c0-0.6-0.3-1.2-0.8-1.6c-0.1-0.1-0.2-0.1-0.3-0.1C216,360.9,215.8,361.3,215.8,361.7L215.8,361.7z
					 M221.5,364.2c-0.3-0.2-0.5-0.6-0.5-0.9c0-0.4,0.2-0.5,0.5-0.4c0.3,0.2,0.5,0.6,0.5,0.9c0,0.3-0.1,0.4-0.3,0.4
					C221.6,364.3,221.5,364.3,221.5,364.2L221.5,364.2z M219.9,362.9c0,0-0.2-1.9-0.2-2.1c0-0.3,0.2-0.5,0.4-0.3
					c0.3,0.2,0.4,0.5,0.4,0.8c0,0.2-0.2,1.8-0.2,1.8L219.9,362.9z M213.7,362.5v-2.4c0-0.4-0.2-0.8-0.5-1c-0.2-0.2-0.5-0.1-0.7,0.1
					v2.7l-0.8-0.4v-4l0.8,0.4v0.5c0.3-0.3,0.7-0.3,1,0c0.6,0.4,1,1.1,1,1.8v2.8L213.7,362.5z M218.8,362.3c0,0-0.2-1.9-0.2-2.1
					c0-0.3,0.2-0.5,0.4-0.3c0.3,0.2,0.4,0.5,0.4,0.8c0,0.2-0.2,1.8-0.2,1.8L218.8,362.3z M233,361.9c0.2-0.1,0.4-0.3,0.5-0.5
					c0,0-0.1,0-0.1,0c-0.3-0.2-0.4-0.5-0.4-0.8c0-0.4,0.2-0.5,0.5-0.4c0.4,0.3,0.6,0.7,0.5,1.1c0.1,0.5-0.2,1-0.6,1.2L233,361.9z
					 M231.4,361.8l-0.4-0.2v-0.7l0.4,0.2c0.2,0.1,0.4,0,0.4-0.4v-1.5c0-0.3,0.1-0.6,0.3-0.6c-0.2-0.3-0.3-0.6-0.3-0.9v-1.5
					c0-0.3-0.1-0.6-0.4-0.8l-0.4-0.2v-0.7l0.4,0.2c0.6,0.4,0.9,1.1,0.9,1.8v1.4c0,0.3,0.1,0.6,0.3,0.7v0.6c-0.2-0.1-0.3,0.1-0.3,0.4
					v1.4c0,0.6-0.2,0.9-0.6,0.9C231.7,361.9,231.5,361.8,231.4,361.8L231.4,361.8z M230.5,361.2c-0.6-0.4-1-1.1-0.9-1.8V358
					c0-0.3-0.1-0.6-0.3-0.7v-0.6c0.2,0.1,0.3-0.1,0.3-0.4v-1.4c0-0.8,0.5-1.1,0.9-0.8l0.4,0.2v0.7l-0.4-0.2c-0.2-0.1-0.4,0-0.4,0.4
					v1.5c0,0.3-0.1,0.6-0.3,0.6c0.2,0.3,0.3,0.6,0.3,0.9v1.5c0,0.3,0.1,0.6,0.4,0.8l0.4,0.2v0.7L230.5,361.2z M210.2,360.5v-4
					l0.8,0.4v4L210.2,360.5z M206.6,360.1v-5.5l0.8,0.4v0.5c0.2-0.3,0.6-0.3,0.9-0.1c0.9,0.6,1.4,1.7,1.3,2.8c0,1.3-0.5,1.8-1.3,1.4
					c-0.4-0.3-0.7-0.7-0.9-1.1v2L206.6,360.1z M207.4,356.3v1.4c0.1,0.3,0.4,0.6,0.7,0.8c0.4,0.2,0.7,0,0.7-0.7
					c0-0.6-0.2-1.2-0.7-1.6c-0.1-0.1-0.2-0.1-0.3-0.1C207.6,356.1,207.5,356.2,207.4,356.3L207.4,356.3z M226.9,357.8
					c-0.3-0.2-0.5-0.6-0.5-0.9c0-0.4,0.2-0.5,0.5-0.4c0.3,0.2,0.5,0.6,0.5,0.9c0,0.3-0.1,0.4-0.3,0.4
					C227,357.8,227,357.8,226.9,357.8L226.9,357.8z M202.6,356.3v-4l0.8,0.4v0.5c0.2-0.3,0.6-0.3,0.9-0.1v1
					c-0.1-0.1-0.1-0.1-0.2-0.1c-0.2-0.2-0.5-0.1-0.7,0v2.6L202.6,356.3z M204.6,355.9V355l1.5,0.8v0.9L204.6,355.9z M210.6,356.4
					c-0.3-0.2-0.5-0.5-0.5-0.9c0-0.3,0.2-0.5,0.5-0.4c0.3,0.2,0.5,0.5,0.5,0.9c0,0.3-0.1,0.4-0.3,0.4
					C210.7,356.4,210.6,356.4,210.6,356.4L210.6,356.4z M200.7,355.3c-1-0.7-1.6-1.8-1.6-3c0-1.1,0.6-1.7,1.5-1.2
					c1,0.7,1.5,1.8,1.5,3v0.2l-2.2-1.2c0,0.6,0.4,1.1,0.8,1.4c0.2,0.2,0.5,0.2,0.8,0l0.3,0.9c-0.1,0.1-0.3,0.1-0.4,0.1
					C201.2,355.5,200.9,355.4,200.7,355.3L200.7,355.3z M199.9,352.4l1.4,0.8c0-0.5-0.3-1-0.7-1.3c-0.1-0.1-0.2-0.1-0.3-0.1
					C200.1,351.8,199.9,352.1,199.9,352.4L199.9,352.4z M221.9,354.8v-4l0.8,0.4v0.5c0.2-0.3,0.6-0.3,0.9-0.1v1
					c-0.1-0.1-0.1-0.1-0.2-0.1c-0.2-0.2-0.5-0.1-0.7,0v2.6L221.9,354.8z M226.9,355c-0.3-0.2-0.5-0.6-0.5-0.9c0-0.4,0.2-0.5,0.5-0.4
					c0.3,0.2,0.5,0.6,0.5,0.9c0,0.3-0.1,0.4-0.3,0.4C227,355,227,355,226.9,355L226.9,355z M196.9,354.7c-0.5-0.3-1-0.8-1.3-1.3
					l0.3-0.6c0.2,0.4,0.5,0.8,0.9,1c0.4,0.2,0.8,0.2,0.8-0.5v-0.4c-0.2,0.3-0.6,0.3-0.9,0.1c-0.9-0.6-1.4-1.7-1.3-2.7
					c0-1.3,0.6-1.7,1.3-1.3c0.4,0.3,0.7,0.7,0.9,1.1v-0.5l0.8,0.4v3.7c0,0.9-0.3,1.3-0.8,1.3C197.5,354.9,197.2,354.8,196.9,354.7
					L196.9,354.7z M196.4,350.7c0,0.6,0.2,1.2,0.7,1.5c0.2,0.1,0.5,0.1,0.7-0.1v-1.3c-0.1-0.3-0.4-0.6-0.7-0.8
					c-0.1-0.1-0.2-0.1-0.3-0.1C196.5,349.9,196.4,350.2,196.4,350.7L196.4,350.7z M219.9,353.8c-1-0.7-1.6-1.8-1.6-3
					c0-1.1,0.6-1.7,1.5-1.2c1,0.7,1.5,1.8,1.5,3v0.2l-2.2-1.2c0,0.6,0.4,1.1,0.8,1.4c0.2,0.2,0.5,0.2,0.8,0l0.3,0.9
					c-0.1,0.1-0.3,0.1-0.4,0.1C220.4,354,220.1,354,219.9,353.8L219.9,353.8z M219.1,350.9l1.4,0.8c0-0.5-0.3-1-0.7-1.3
					c-0.1-0.1-0.2-0.1-0.3-0.1C219.3,350.4,219.2,350.6,219.1,350.9L219.1,350.9z M225.3,353.7c0,0-0.2-1.9-0.2-2.1
					c0-0.3,0.2-0.5,0.4-0.3c0.3,0.2,0.4,0.5,0.4,0.8c0,0.2-0.2,1.8-0.2,1.8L225.3,353.7z M224.2,353.1c0,0-0.2-1.9-0.2-2.1
					c0-0.3,0.2-0.5,0.4-0.3c0.3,0.2,0.4,0.5,0.4,0.8c0,0.2-0.2,1.8-0.2,1.8L224.2,353.1z M193.4,352.7c-0.5-0.3-1-0.8-1.3-1.3
					l0.3-0.6c0.2,0.4,0.5,0.8,0.9,1c0.4,0.2,0.8,0.2,0.8-0.5v-0.4c-0.2,0.3-0.6,0.3-0.9,0.1c-0.9-0.6-1.4-1.7-1.3-2.8
					c0-1.3,0.6-1.7,1.3-1.3c0.4,0.3,0.7,0.7,0.9,1.1v-0.5l0.8,0.4v3.7c0,0.9-0.3,1.3-0.8,1.3C193.9,352.9,193.6,352.8,193.4,352.7
					L193.4,352.7z M192.8,348.7c0,0.6,0.2,1.2,0.7,1.5c0.2,0.1,0.5,0.1,0.7-0.1v-1.3c-0.1-0.3-0.4-0.6-0.7-0.8
					c-0.1-0.1-0.2-0.1-0.3-0.1C193,347.9,192.8,348.2,192.8,348.7L192.8,348.7z M217.4,352.4c-0.5-0.3-0.9-0.9-0.8-1.6v-2.1
					l-0.5-0.3v-0.9l0.5,0.3v-1.1l0.8,0.4v1.1l0.6,0.3v0.9l-0.6-0.3v1.8c0,0.2,0.1,0.4,0.3,0.6c0.1,0.1,0.2,0.1,0.3,0l0.2,0.9
					c-0.1,0-0.1,0-0.2,0C217.7,352.6,217.6,352.5,217.4,352.4L217.4,352.4z M215.4,351.3c-0.5-0.3-0.9-0.9-0.8-1.6v-2.1l-0.5-0.3
					v-0.9l0.5,0.3v-1.1l0.8,0.4v1.1l0.6,0.3v0.9l-0.6-0.3v1.8c0,0.2,0.1,0.4,0.3,0.6c0.1,0.1,0.2,0.1,0.3,0l0.2,0.9
					c-0.1,0-0.1,0-0.2,0C215.7,351.4,215.5,351.4,215.4,351.3L215.4,351.3z M212.9,349.8v-4l0.8,0.4v4L212.9,349.8z M190.1,349.3
					c-1-0.7-1.6-1.8-1.5-3c0-1.1,0.6-1.8,1.5-1.2c1,0.7,1.6,1.8,1.6,3c0,0.8-0.3,1.4-0.9,1.4C190.5,349.5,190.3,349.4,190.1,349.3
					L190.1,349.3z M189.3,346.8c0,0.6,0.2,1.2,0.7,1.6c0.5,0.3,0.8-0.1,0.8-0.7c0-0.6-0.3-1.2-0.8-1.6c-0.1-0.1-0.2-0.1-0.3-0.1
					C189.5,346,189.3,346.3,189.3,346.8L189.3,346.8z M211.4,348.9v-2.5c0-0.4-0.1-0.7-0.4-0.9c-0.2-0.1-0.5-0.1-0.6,0.1v2.7
					l-0.8-0.4v-2.5c0-0.4-0.1-0.7-0.4-0.9c-0.2-0.1-0.5-0.1-0.6,0.1v2.7l-0.8-0.4v-4l0.8,0.4v0.5c0.3-0.3,0.7-0.3,1-0.1
					c0.4,0.3,0.7,0.7,0.8,1.2c0.2-0.3,0.7-0.4,1-0.2c0,0,0,0,0,0c0.6,0.4,0.9,1,0.9,1.7v2.9L211.4,348.9z M187.2,347.6v-5.5l0.8,0.4
					v5.5L187.2,347.6z M205.7,345.8c-1-0.7-1.6-1.8-1.6-3c0-1.1,0.6-1.7,1.5-1.2c1,0.7,1.5,1.8,1.5,3v0.2l-2.2-1.2
					c0,0.6,0.4,1.1,0.8,1.4c0.2,0.2,0.5,0.2,0.8,0l0.3,0.9c-0.1,0.1-0.3,0.1-0.4,0.1C206.3,346.1,206,346,205.7,345.8L205.7,345.8z
					 M205,342.9l1.4,0.8c0-0.5-0.3-1-0.7-1.3c-0.1-0.1-0.2-0.1-0.3-0.1C205.1,342.4,205,342.7,205,342.9L205,342.9z M183.4,345.5
					c-1-0.7-1.6-1.8-1.6-3c0-1.1,0.6-1.7,1.5-1.2c1,0.7,1.5,1.8,1.5,3v0.2l-2.2-1.2c0,0.6,0.4,1.1,0.8,1.4c0.2,0.2,0.5,0.2,0.8,0
					l0.3,0.9c-0.1,0.1-0.3,0.1-0.4,0.1C183.9,345.8,183.6,345.7,183.4,345.5z M182.6,342.6l1.4,0.8c0-0.5-0.3-1-0.7-1.3
					c-0.1-0.1-0.2-0.1-0.3-0.1C182.8,342.1,182.7,342.4,182.6,342.6L182.6,342.6z M185.2,344.9V344l1.5,0.8v0.9L185.2,344.9z
					 M213.3,345.6c-0.3-0.2-0.5-0.5-0.5-0.9c0-0.3,0.2-0.5,0.5-0.4c0.3,0.2,0.5,0.5,0.5,0.9c0,0.3-0.1,0.4-0.3,0.4
					C213.4,345.6,213.3,345.6,213.3,345.6L213.3,345.6z M179.8,343.4v-4l0.8,0.4v0.5c0.2-0.3,0.6-0.3,0.9-0.1v1
					c-0.1-0.1-0.1-0.1-0.2-0.1c-0.2-0.2-0.5-0.1-0.7,0v2.6L179.8,343.4z M201.5,343.4c-0.5-0.3-0.9-0.9-0.8-1.6v-2.1l-0.5-0.3v-0.9
					l0.5,0.3v-1.1l0.8,0.4v1.1l0.6,0.3v0.9l-0.6-0.3v1.8c0,0.2,0.1,0.4,0.3,0.6c0.1,0.1,0.2,0.1,0.3,0l0.2,0.9c-0.1,0-0.1,0-0.2,0
					C201.8,343.6,201.6,343.5,201.5,343.4L201.5,343.4z M202.4,342.3v-0.9l1.5,0.8v0.9L202.4,342.3z M177.7,342.3
					c-1-0.7-1.6-1.8-1.5-3c0-1.1,0.6-1.8,1.5-1.2c1,0.7,1.6,1.8,1.6,3c0,0.8-0.3,1.4-0.9,1.4C178.1,342.5,177.9,342.4,177.7,342.3
					L177.7,342.3z M177,339.8c0,0.6,0.2,1.2,0.7,1.6c0.5,0.3,0.8-0.1,0.8-0.7c0-0.6-0.3-1.2-0.8-1.6c-0.1-0.1-0.2-0.1-0.3-0.1
					C177.1,339,177,339.3,177,339.8L177,339.8z M199,341.9v-2.4c0-0.4-0.2-0.8-0.5-1c-0.2-0.2-0.5-0.1-0.7,0.1v2.7l-0.8-0.4v-4
					l0.8,0.4v0.5c0.3-0.3,0.7-0.3,1,0c0.6,0.4,1,1.1,1,1.8v2.8L199,341.9z M174.7,340.6c-1-0.7-1.6-1.8-1.6-3c0-1.2,0.6-1.7,1.6-1.2
					c0.5,0.3,0.9,0.8,1.2,1.4l-0.5,0.4c-0.1-0.3-0.3-0.6-0.6-0.8c-0.5-0.3-0.8,0-0.8,0.7c0,0.6,0.3,1.2,0.8,1.6
					c0.2,0.1,0.5,0.1,0.6-0.1c0,0,0,0,0,0l0.5,0.9c-0.1,0.2-0.3,0.3-0.5,0.3C175.1,340.8,174.9,340.7,174.7,340.6L174.7,340.6z
					 M195,339.8c-1-0.7-1.6-1.8-1.6-3c0-1.1,0.6-1.7,1.5-1.2c1,0.7,1.5,1.8,1.5,3v0.2l-2.2-1.2c0,0.6,0.4,1.1,0.8,1.4
					c0.2,0.2,0.5,0.2,0.8,0l0.3,0.9c-0.1,0.1-0.3,0.1-0.4,0.1C195.5,340,195.3,339.9,195,339.8L195,339.8z M194.3,336.9l1.4,0.8
					c0-0.5-0.3-1-0.7-1.3c-0.1-0.1-0.2-0.1-0.3-0.1C194.4,336.3,194.3,336.6,194.3,336.9L194.3,336.9z M171,338.6l1.4-5l0.6,0.3
					l-1.4,5L171,338.6z M169.8,337.8v-2.5c0-0.4-0.1-0.7-0.4-0.9c-0.2-0.1-0.5-0.1-0.6,0.1v2.7l-0.8-0.4v-2.5c0-0.4-0.1-0.7-0.4-0.9
					c-0.2-0.1-0.5-0.1-0.6,0.1v2.7l-0.8-0.4v-4l0.8,0.4v0.5c0.3-0.3,0.7-0.3,1-0.1c0.4,0.3,0.7,0.7,0.8,1.2c0.2-0.3,0.7-0.4,1-0.2
					c0,0,0,0,0,0c0.6,0.4,0.9,1,0.9,1.7v2.9L169.8,337.8z M191.3,337.6l-1.2-4.6l0.8,0.5l0.8,3.2l0.8-2.3l0.8,0.5l-1.2,3.3
					L191.3,337.6z M188.6,336.1c-1-0.7-1.6-1.8-1.6-3c0-1.1,0.6-1.7,1.5-1.2c1,0.7,1.5,1.8,1.5,3v0.2l-2.2-1.2
					c0,0.6,0.4,1.1,0.8,1.4c0.2,0.2,0.5,0.2,0.8,0l0.3,0.9c-0.1,0.1-0.3,0.1-0.4,0.1C189.1,336.4,188.8,336.3,188.6,336.1
					L188.6,336.1z M187.8,333.2l1.4,0.8c0-0.5-0.3-1-0.7-1.3c-0.1-0.1-0.2-0.1-0.3-0.1C188,332.7,187.8,333,187.8,333.2L187.8,333.2
					z M164.2,334.7c-1-0.7-1.6-1.8-1.6-3c0-1.1,0.6-1.7,1.5-1.2c1,0.7,1.5,1.8,1.5,3v0.2l-2.2-1.2c0,0.6,0.4,1.1,0.8,1.4
					c0.2,0.2,0.5,0.2,0.8,0l0.3,0.9c-0.1,0.1-0.3,0.1-0.4,0.1C164.7,334.9,164.5,334.8,164.2,334.7L164.2,334.7z M163.4,331.8
					l1.4,0.8c0-0.5-0.3-1-0.7-1.3c-0.1-0.1-0.2-0.1-0.3-0.1C163.6,331.2,163.5,331.5,163.4,331.8L163.4,331.8z M161.8,333.3
					c-0.5-0.3-0.9-0.9-0.8-1.6v-2.1l-0.5-0.3v-0.9l0.5,0.3v-1.1l0.8,0.4v1.1l0.6,0.3v0.9l-0.6-0.3v1.8c0,0.2,0.1,0.4,0.3,0.6
					c0.1,0.1,0.2,0.1,0.3,0l0.2,0.9c-0.1,0-0.1,0-0.2,0C162.1,333.5,161.9,333.4,161.8,333.3L161.8,333.3z M183.4,333.2
					c-1-0.7-1.6-1.8-1.6-3c0-1.1,0.6-1.7,1.5-1.2c1,0.7,1.5,1.8,1.5,3v0.2l-2.2-1.2c0,0.6,0.4,1.1,0.8,1.4c0.2,0.2,0.5,0.2,0.8,0
					l0.3,0.9c-0.1,0.1-0.3,0.1-0.4,0.1C183.9,333.4,183.6,333.4,183.4,333.2L183.4,333.2z M182.6,330.3l1.4,0.8c0-0.5-0.3-1-0.7-1.3
					c-0.1-0.1-0.2-0.1-0.3-0.1C182.8,329.8,182.7,330,182.6,330.3L182.6,330.3z M185.2,332.6v-0.9l1.5,0.8v0.9L185.2,332.6z
					 M159,331.7c-0.5-0.3-1-0.8-1.3-1.4l0.3-0.5c0.2,0.4,0.6,0.8,1,1.1c0.3,0.2,0.5,0.1,0.5-0.1c0-0.7-1.7-1.1-1.7-2.7
					c0-0.7,0.4-1,1.2-0.6c0.5,0.3,0.9,0.7,1.2,1.2l-0.3,0.5c-0.2-0.4-0.5-0.7-0.9-0.9c-0.3-0.2-0.5-0.1-0.5,0.1
					c0,0.6,1.7,1.1,1.7,2.7c0,0.5-0.2,0.8-0.6,0.8C159.4,331.9,159.2,331.9,159,331.7L159,331.7z M179.8,331.1v-4l0.8,0.4v0.5
					c0.2-0.3,0.6-0.3,0.9-0.1v1c-0.1-0.1-0.1-0.1-0.2-0.1c-0.2-0.2-0.5-0.1-0.7,0v2.6L179.8,331.1z M155.1,331
					c-0.1-0.1-0.3-0.2-0.4-0.3l0.1-0.9c0.1,0.1,0.2,0.1,0.2,0.2c0.2,0.1,0.3,0.1,0.4-0.1l0.1-0.3l-1.2-4.7l0.8,0.5l0.8,3.2l0.8-2.3
					l0.8,0.5l-1.4,3.8c-0.1,0.4-0.3,0.5-0.6,0.5C155.4,331.2,155.2,331.1,155.1,331L155.1,331z M177.7,330c-1-0.7-1.6-1.8-1.5-3
					c0-1.1,0.6-1.8,1.5-1.2c1,0.7,1.6,1.8,1.6,3c0,0.8-0.3,1.4-0.9,1.4C178.1,330.2,177.9,330.1,177.7,330z M177,327.5
					c0,0.6,0.2,1.2,0.7,1.6c0.5,0.3,0.8-0.1,0.8-0.7c0-0.6-0.3-1.2-0.8-1.6c-0.1-0.1-0.2-0.1-0.3-0.1C177.1,326.7,177,327,177,327.5
					L177,327.5z M153,328.3c-0.5-0.3-1-0.8-1.3-1.4l0.3-0.5c0.2,0.4,0.6,0.8,1,1.1c0.3,0.2,0.5,0.1,0.5-0.1c0-0.7-1.7-1.1-1.7-2.7
					c0-0.7,0.4-1,1.2-0.6c0.5,0.3,0.9,0.7,1.2,1.2l-0.3,0.5c-0.2-0.4-0.5-0.7-0.9-1c-0.3-0.2-0.5-0.1-0.5,0.1c0,0.6,1.7,1.1,1.7,2.7
					c0,0.5-0.2,0.8-0.6,0.8C153.4,328.5,153.2,328.5,153,328.3L153,328.3z M174.7,328.3c-1-0.7-1.6-1.8-1.6-3c0-1.2,0.6-1.7,1.6-1.2
					c0.5,0.3,0.9,0.8,1.2,1.4l-0.5,0.4c-0.1-0.3-0.3-0.6-0.6-0.8c-0.5-0.3-0.8,0-0.8,0.7c0,0.6,0.3,1.2,0.8,1.6
					c0.2,0.1,0.5,0.1,0.6-0.1c0,0,0,0,0,0l0.5,0.9c-0.1,0.2-0.3,0.3-0.5,0.3C175.1,328.5,174.9,328.4,174.7,328.3L174.7,328.3z
					 M149.8,326.5c-1-0.7-1.6-1.8-1.5-3c0-1.1,0.6-1.8,1.5-1.2c1,0.7,1.6,1.8,1.6,3c0,0.8-0.3,1.4-0.9,1.4
					C150.2,326.7,150,326.7,149.8,326.5L149.8,326.5z M149,324c0,0.6,0.2,1.2,0.7,1.6c0.5,0.3,0.8-0.1,0.8-0.7
					c0-0.6-0.3-1.2-0.8-1.6c-0.1-0.1-0.2-0.1-0.3-0.1C149.2,323.2,149,323.6,149,324L149,324z M171,326.3l1.4-5l0.6,0.3l-1.4,5
					L171,326.3z M169.8,325.4v-2.5c0-0.4-0.1-0.7-0.4-0.9c-0.2-0.1-0.5-0.1-0.6,0.1v2.7l-0.8-0.4v-2.5c0-0.4-0.1-0.7-0.4-0.9
					c-0.2-0.1-0.5-0.1-0.6,0.1v2.7l-0.8-0.4v-4l0.8,0.4v0.5c0.3-0.3,0.7-0.3,1-0.1c0.4,0.3,0.7,0.7,0.8,1.2c0.2-0.3,0.7-0.4,1-0.2
					c0,0,0,0,0,0c0.6,0.4,0.9,1,0.9,1.7v2.9L169.8,325.4z M146.8,324.8c-1-0.7-1.6-1.8-1.6-3c0-1.2,0.6-1.7,1.6-1.2
					c0.5,0.3,0.9,0.8,1.2,1.4l-0.5,0.4c-0.1-0.3-0.3-0.6-0.6-0.8c-0.5-0.3-0.8,0-0.8,0.7c0,0.6,0.3,1.2,0.8,1.6
					c0.2,0.1,0.5,0.1,0.6-0.1c0,0,0,0,0,0l0.5,0.9c-0.1,0.2-0.3,0.3-0.5,0.3C147.2,325,147,325,146.8,324.8L146.8,324.8z M143.4,323
					c-1-0.7-1.6-1.8-1.6-3c0-1.1,0.6-1.7,1.5-1.2c1,0.7,1.5,1.8,1.5,3v0.2l-2.2-1.2c0,0.6,0.4,1.1,0.8,1.4c0.2,0.2,0.5,0.2,0.8,0
					l0.3,0.9c-0.1,0.1-0.3,0.1-0.4,0.1C143.9,323.2,143.7,323.1,143.4,323L143.4,323z M142.7,320.1l1.4,0.8c0-0.5-0.3-1-0.7-1.3
					c-0.1-0.1-0.2-0.1-0.3-0.1C142.8,319.5,142.7,319.8,142.7,320.1L142.7,320.1z M164.2,322.4c-1-0.7-1.6-1.8-1.6-3
					c0-1.1,0.6-1.7,1.5-1.2c1,0.7,1.5,1.8,1.5,3v0.2l-2.2-1.2c0,0.6,0.4,1.1,0.8,1.4c0.2,0.2,0.5,0.2,0.8,0l0.3,0.9
					c-0.1,0.1-0.3,0.1-0.4,0.1C164.7,322.6,164.5,322.5,164.2,322.4L164.2,322.4z M163.4,319.5l1.4,0.8c0-0.5-0.3-1-0.7-1.3
					c-0.1-0.1-0.2-0.1-0.3-0.1C163.6,318.9,163.5,319.2,163.4,319.5L163.4,319.5z M140.7,321.3l-0.8-2l-0.4,0.3v1l-0.8-0.4v-5.5
					l0.8,0.4v3.3l1.1-1.1l0.9,0.5l-1.2,1.1l1.2,2.8L140.7,321.3z M161.8,321c-0.5-0.3-0.9-0.9-0.8-1.6v-2.1l-0.5-0.3v-0.9l0.5,0.3
					v-1.1l0.8,0.4v1.1l0.6,0.3v0.9l-0.6-0.3v1.8c0,0.2,0.1,0.4,0.3,0.6c0.1,0.1,0.2,0.1,0.3,0l0.2,0.9c-0.1,0-0.1,0-0.2,0
					C162.1,321.1,161.9,321.1,161.8,321L161.8,321z M159,319.4c-0.5-0.3-1-0.8-1.3-1.4l0.3-0.5c0.2,0.4,0.6,0.8,1,1.1
					c0.3,0.2,0.5,0.1,0.5-0.1c0-0.7-1.7-1.1-1.7-2.7c0-0.7,0.4-1,1.2-0.6c0.5,0.3,0.9,0.7,1.2,1.2l-0.3,0.5
					c-0.2-0.4-0.5-0.7-0.9-0.9c-0.3-0.2-0.5-0.1-0.5,0.1c0,0.6,1.7,1.1,1.7,2.7c0,0.5-0.2,0.8-0.6,0.8
					C159.4,319.6,159.2,319.5,159,319.4L159,319.4z M136.7,319v-4l0.8,0.4v0.5c0.2-0.3,0.6-0.3,0.9-0.1v1c-0.1-0.1-0.1-0.1-0.2-0.1
					c-0.2-0.2-0.5-0.1-0.7,0v2.6L136.7,319z M155.1,318.7c-0.1-0.1-0.3-0.2-0.4-0.3l0.1-0.9c0.1,0.1,0.2,0.1,0.2,0.2
					c0.2,0.1,0.3,0.1,0.4-0.1l0.1-0.3l-1.2-4.7l0.8,0.5l0.8,3.2l0.8-2.3l0.8,0.5l-1.4,3.8c-0.1,0.4-0.3,0.5-0.6,0.5
					C155.4,318.9,155.2,318.8,155.1,318.7L155.1,318.7z M135.1,318.2v-0.4c-0.2,0.2-0.5,0.2-0.9,0c-0.6-0.4-1-1.1-1-1.9
					c0-0.9,0.6-1,1-0.7c0.4,0.2,0.7,0.6,0.9,1v-0.5c0-0.4-0.3-0.8-0.6-1c-0.3-0.2-0.6-0.2-0.9,0l-0.3-0.9c0.4-0.2,0.9-0.2,1.3,0.1
					c0.8,0.4,1.3,1.3,1.3,2.2v2.6L135.1,318.2z M134,316.3c0,0.4,0.2,0.7,0.6,0.9c0.2,0.1,0.5,0.2,0.6,0v-0.5
					c-0.1-0.3-0.3-0.5-0.6-0.7c-0.1-0.1-0.2-0.1-0.3-0.1C134.1,315.9,134,316.1,134,316.3L134,316.3z M130.4,316.1
					c-1.2-0.8-1.9-2.2-1.9-3.7c0-1.8,1.1-2.6,2.4-1.9c1.2,0.8,1.9,2.2,1.9,3.6c0,1.4-0.7,1.6-1.2,1.4c-0.3-0.2-0.5-0.6-0.6-0.9
					l0-0.1c-0.2,0.3-0.6,0.4-0.9,0.2c-0.6-0.4-1-1.2-0.9-1.9c0-1.1,0.7-1.6,1.4-1.2c0.4,0.2,0.6,0.6,0.8,1l0.1-0.4l0.7,0.4l-0.3,1.8
					c0,0.1,0,0.1,0,0.2c0,0.2,0.1,0.4,0.2,0.5c0.2,0.1,0.6-0.1,0.6-1c0-1.3-0.6-2.5-1.7-3.1c-1.1-0.6-2.1,0.2-2.1,1.7
					c0,1.3,0.6,2.5,1.7,3.2c0.3,0.2,0.7,0.3,1.1,0.2l0.1,0.3c-0.1,0-0.3,0.1-0.4,0.1C130.9,316.3,130.6,316.2,130.4,316.1
					L130.4,316.1z M129.9,313c0,0.4,0.2,0.8,0.5,1c0.2,0.1,0.5,0.1,0.7-0.1c0,0,0,0,0,0l0.2-0.9c-0.1-0.3-0.2-0.5-0.5-0.7
					c-0.1-0.1-0.2-0.1-0.3-0.1C130.1,312.2,129.9,312.6,129.9,313L129.9,313z M153,316c-0.5-0.3-1-0.8-1.3-1.4l0.3-0.5
					c0.2,0.4,0.6,0.8,1,1.1c0.3,0.2,0.5,0.1,0.5-0.1c0-0.7-1.7-1.1-1.7-2.7c0-0.7,0.4-1,1.2-0.6c0.5,0.3,0.9,0.7,1.2,1.2l-0.3,0.5
					c-0.2-0.4-0.5-0.7-0.9-0.9c-0.3-0.2-0.5-0.1-0.5,0.1c0,0.6,1.7,1.1,1.7,2.7c0,0.5-0.2,0.8-0.6,0.8
					C153.4,316.2,153.2,316.1,153,316L153,316z M169.6,314.6c-0.6-0.4-1-1.1-0.9-1.8v-1.4c0-0.3-0.1-0.6-0.3-0.7V310
					c0.2,0.1,0.3-0.1,0.3-0.4v-1.4c0-0.8,0.5-1.1,0.9-0.8l0.4,0.2v0.7l-0.4-0.2c-0.2-0.1-0.4,0-0.4,0.4v1.5c0,0.3-0.1,0.6-0.3,0.6
					c0.2,0.3,0.3,0.6,0.3,0.9v1.5c0,0.3,0.1,0.6,0.4,0.8l0.4,0.2v0.7L169.6,314.6z M149.8,314.2c-1-0.7-1.6-1.8-1.5-3
					c0-1.1,0.6-1.8,1.5-1.2c1,0.7,1.6,1.8,1.6,3c0,0.8-0.3,1.4-0.9,1.4C150.2,314.4,150,314.3,149.8,314.2L149.8,314.2z M149,311.7
					c0,0.6,0.2,1.2,0.7,1.6c0.5,0.3,0.8-0.1,0.8-0.7c0-0.6-0.3-1.2-0.8-1.6c-0.1-0.1-0.2-0.1-0.3-0.1
					C149.2,310.9,149,311.2,149,311.7L149,311.7z M146.8,312.5c-1-0.7-1.6-1.8-1.6-3c0-1.2,0.6-1.7,1.6-1.2c0.5,0.3,0.9,0.8,1.2,1.4
					l-0.5,0.4c-0.1-0.3-0.3-0.6-0.6-0.8c-0.5-0.3-0.8,0-0.8,0.7c0,0.6,0.3,1.2,0.8,1.6c0.2,0.1,0.5,0.1,0.6-0.1c0,0,0,0,0,0l0.5,0.9
					c-0.1,0.2-0.3,0.3-0.5,0.3C147.2,312.7,147,312.6,146.8,312.5L146.8,312.5z M127.4,310.7c0,0-0.2-1.9-0.2-2.1
					c0-0.3,0.2-0.5,0.4-0.3c0.3,0.2,0.4,0.5,0.4,0.8c0,0.2-0.2,1.8-0.2,1.8L127.4,310.7z M143.4,310.6c-1-0.7-1.6-1.8-1.6-3
					c0-1.1,0.6-1.7,1.5-1.2c1,0.7,1.5,1.8,1.5,3v0.2l-2.2-1.2c0,0.6,0.4,1.1,0.8,1.4c0.2,0.2,0.5,0.2,0.8,0l0.3,0.9
					c-0.1,0.1-0.3,0.1-0.4,0.1C143.9,310.9,143.7,310.8,143.4,310.6L143.4,310.6z M142.7,307.7l1.4,0.8c0-0.5-0.3-1-0.7-1.3
					c-0.1-0.1-0.2-0.1-0.3-0.1C142.8,307.2,142.7,307.5,142.7,307.7L142.7,307.7z M126.3,310.1c0,0-0.2-1.9-0.2-2.1
					c0-0.3,0.2-0.5,0.4-0.3c0.3,0.2,0.4,0.5,0.4,0.8c0,0.2-0.2,1.8-0.2,1.8L126.3,310.1z M163.9,308.1v-0.6l2.7,1.5v0.6L163.9,308.1
					z M140.7,309l-0.8-2l-0.4,0.3v1l-0.8-0.4v-5.5l0.8,0.4v3.3l1.1-1.1l0.9,0.5l-1.2,1.1l1.2,2.8L140.7,309z M160.7,308.1
					c-0.5-0.3-1-0.8-1.3-1.4l0.3-0.5c0.2,0.4,0.6,0.8,1,1.1c0.3,0.2,0.5,0.1,0.5-0.1c0-0.7-1.7-1.1-1.7-2.7c0-0.7,0.4-1,1.2-0.6
					c0.5,0.3,0.9,0.7,1.2,1.2l-0.3,0.5c-0.2-0.4-0.5-0.7-0.9-0.9c-0.3-0.2-0.5-0.1-0.5,0.1c0,0.6,1.7,1.1,1.7,2.7
					c0,0.5-0.2,0.8-0.6,0.8C161.2,308.3,160.9,308.2,160.7,308.1L160.7,308.1z M163.9,306.6v-0.7l2.7,1.5v0.7L163.9,306.6z
					 M136.7,306.7v-4l0.8,0.4v0.5c0.2-0.3,0.6-0.3,0.9-0.1v1c-0.1-0.1-0.1-0.1-0.2-0.1c-0.2-0.2-0.5-0.1-0.7,0v2.6L136.7,306.7z
					 M158.6,306.9c-0.5-0.3-0.9-0.9-0.8-1.6v-2.1l-0.5-0.3v-0.9l0.5,0.3v-1.1l0.8,0.4v1.1l0.6,0.3v0.9l-0.6-0.3v1.8
					c0,0.2,0.1,0.4,0.3,0.6c0.1,0.1,0.2,0.1,0.3,0l0.2,0.9c-0.1,0-0.1,0-0.2,0C158.9,307,158.8,307,158.6,306.9L158.6,306.9z
					 M135.1,305.9v-0.4c-0.2,0.2-0.5,0.2-0.9,0c-0.6-0.4-1-1.1-1-1.9c0-0.9,0.6-1,1-0.7c0.4,0.2,0.7,0.6,0.9,1v-0.5
					c0-0.4-0.3-0.8-0.6-1c-0.3-0.2-0.6-0.2-0.9,0l-0.3-0.9c0.4-0.2,0.9-0.2,1.3,0.1c0.8,0.4,1.3,1.3,1.3,2.2v2.6L135.1,305.9z
					 M134,304c0,0.4,0.2,0.7,0.6,0.9c0.2,0.1,0.5,0.2,0.6,0v-0.5c-0.1-0.3-0.3-0.5-0.6-0.7c-0.1-0.1-0.2-0.1-0.3-0.1
					C134.1,303.6,134,303.7,134,304z M155.5,305v-4l0.8,0.4v0.5c0.2-0.3,0.6-0.3,0.9-0.1v1c-0.1-0.1-0.1-0.1-0.2-0.1
					c-0.2-0.2-0.5-0.1-0.7,0v2.6L155.5,305z M153.3,303.9c-1-0.7-1.6-1.8-1.5-3c0-1.1,0.6-1.8,1.5-1.2c1,0.7,1.6,1.8,1.6,3
					c0,0.8-0.3,1.4-0.9,1.4C153.8,304.1,153.5,304,153.3,303.9L153.3,303.9z M152.6,301.4c0,0.6,0.2,1.2,0.7,1.6
					c0.5,0.3,0.8-0.1,0.8-0.7c0-0.6-0.3-1.2-0.8-1.6c-0.1-0.1-0.2-0.1-0.3-0.1C152.8,300.6,152.6,300.9,152.6,301.4L152.6,301.4z
					 M130.4,303.7c-1.2-0.8-1.9-2.2-1.9-3.7c0-1.8,1.1-2.6,2.4-1.9c1.2,0.8,1.9,2.2,1.9,3.6c0,1.4-0.7,1.6-1.2,1.4
					c-0.3-0.2-0.5-0.6-0.6-0.9l0-0.1c-0.2,0.3-0.6,0.4-0.9,0.2c-0.6-0.4-1-1.2-0.9-1.9c0-1.1,0.7-1.6,1.4-1.2c0.4,0.2,0.6,0.6,0.8,1
					l0.1-0.4l0.7,0.4l-0.3,1.8c0,0.1,0,0.1,0,0.2c0,0.2,0.1,0.4,0.2,0.5c0.2,0.1,0.6-0.1,0.6-1c0-1.3-0.6-2.5-1.7-3.1
					c-1.1-0.6-2.1,0.2-2.1,1.7c0,1.3,0.6,2.5,1.7,3.2c0.3,0.2,0.7,0.3,1.1,0.2l0.1,0.3c-0.1,0-0.3,0.1-0.4,0.1
					C130.9,304,130.6,303.9,130.4,303.7L130.4,303.7z M129.9,300.7c0,0.4,0.2,0.8,0.5,1c0.2,0.1,0.5,0.1,0.7-0.1c0,0,0,0,0,0
					l0.2-0.9c-0.1-0.3-0.2-0.5-0.5-0.7c-0.1-0.1-0.2-0.1-0.3-0.1C130.1,299.9,129.9,300.3,129.9,300.7L129.9,300.7z M148.5,302.6
					v-5.5l0.8,0.4v0.5c0.2-0.3,0.6-0.3,0.9-0.1c0.9,0.6,1.4,1.7,1.3,2.8c0,1.3-0.5,1.8-1.3,1.4c-0.4-0.3-0.7-0.7-0.9-1.1v2
					L148.5,302.6z M149.2,298.8v1.4c0.1,0.3,0.4,0.6,0.7,0.8c0.4,0.2,0.7-0.1,0.7-0.7c0-0.6-0.2-1.2-0.7-1.6
					c-0.1-0.1-0.2-0.1-0.3-0.1C149.4,298.6,149.3,298.7,149.2,298.8L149.2,298.8z M147.2,300.4l-0.7-1.7l-0.7,1l-0.9-0.5l1-1.5
					l-1-2.5l0.9,0.5l0.6,1.6l0.6-0.9l0.9,0.5l-1,1.4l1,2.6L147.2,300.4z M127.4,298.4c0,0-0.2-1.9-0.2-2.1c0-0.3,0.2-0.5,0.4-0.3
					c0.3,0.2,0.4,0.5,0.4,0.8c0,0.2-0.2,1.8-0.2,1.8L127.4,298.4z M143.4,298.3c-1-0.7-1.6-1.8-1.6-3c0-1.1,0.6-1.7,1.5-1.2
					c1,0.7,1.5,1.8,1.5,3v0.2l-2.2-1.2c0,0.6,0.4,1.1,0.8,1.4c0.2,0.2,0.5,0.2,0.8,0l0.3,0.9c-0.1,0.1-0.3,0.1-0.4,0.1
					C143.9,298.5,143.7,298.5,143.4,298.3L143.4,298.3z M142.7,295.4l1.4,0.8c0-0.5-0.3-1-0.7-1.3c-0.1-0.1-0.2-0.1-0.3-0.1
					C142.8,294.9,142.7,295.1,142.7,295.4L142.7,295.4z M126.3,297.8c0,0-0.2-1.9-0.2-2.1c0-0.3,0.2-0.5,0.4-0.3
					c0.3,0.2,0.4,0.5,0.4,0.8c0,0.2-0.2,1.8-0.2,1.8L126.3,297.8z M140.9,296.9c-0.3-0.2-0.5-0.6-0.5-0.9c0-0.4,0.2-0.5,0.5-0.4
					c0.3,0.2,0.5,0.6,0.5,0.9c0,0.3-0.1,0.4-0.3,0.4C141,296.9,141,296.9,140.9,296.9L140.9,296.9z M138.6,295.6
					c-1-0.7-1.6-1.8-1.6-3c0-1.1,0.6-1.7,1.5-1.2c1,0.7,1.5,1.8,1.5,3v0.2l-2.2-1.2c0,0.6,0.4,1.1,0.8,1.4c0.2,0.2,0.5,0.2,0.8,0
					l0.3,0.9c-0.1,0.1-0.3,0.1-0.4,0.1C139.1,295.8,138.8,295.7,138.6,295.6L138.6,295.6z M137.8,292.7l1.4,0.8c0-0.5-0.3-1-0.7-1.3
					c-0.1-0.1-0.2-0.1-0.3-0.1C138,292.1,137.8,292.4,137.8,292.7L137.8,292.7z M135.7,293.8v-5.5l0.8,0.4v5.5L135.7,293.8z
					 M134.1,293v-0.5c-0.3,0.2-0.7,0.3-1,0c-0.6-0.4-1-1.1-0.9-1.8v-2.8l0.8,0.4v2.4c0,0.4,0.2,0.8,0.5,1c0.2,0.1,0.5,0.1,0.7-0.1
					V289l0.8,0.4v4L134.1,293z M130.6,291v-0.5c-0.2,0.3-0.6,0.3-0.9,0.1c-0.9-0.7-1.4-1.7-1.3-2.8c0-1.3,0.6-1.8,1.3-1.4
					c0.4,0.3,0.7,0.7,0.9,1.1v-2l0.8,0.4v5.5L130.6,291z M129.2,288.2c0,0.6,0.2,1.2,0.7,1.6c0.2,0.2,0.5,0.1,0.7-0.1v-1.4
					c-0.1-0.3-0.4-0.6-0.7-0.8c-0.1-0.1-0.2-0.1-0.3-0.1C129.4,287.4,129.2,287.7,129.2,288.2L129.2,288.2z M126.5,288.7
					c-1-0.7-1.6-1.8-1.5-3c0-1.1,0.6-1.8,1.5-1.2c1,0.7,1.6,1.8,1.6,3c0,0.8-0.3,1.4-0.9,1.4C126.9,288.9,126.7,288.9,126.5,288.7
					L126.5,288.7z M125.7,286.2c0,0.6,0.2,1.2,0.7,1.6c0.5,0.3,0.8-0.1,0.8-0.7c0-0.6-0.3-1.2-0.8-1.6c-0.1-0.1-0.2-0.1-0.3-0.1
					C125.9,285.4,125.7,285.8,125.7,286.2L125.7,286.2z M123.6,287v-2.5c0-0.4-0.1-0.7-0.4-0.9c-0.2-0.1-0.5-0.1-0.6,0.1v2.7
					l-0.8-0.4v-2.5c0-0.4-0.1-0.7-0.4-0.9c-0.2-0.1-0.5-0.1-0.6,0.1v2.7L120,285v-4l0.8,0.4v0.5c0.3-0.3,0.7-0.3,1-0.1
					c0.4,0.3,0.7,0.7,0.8,1.2c0.2-0.3,0.7-0.4,1-0.2c0,0,0,0,0,0c0.6,0.4,0.9,1,0.9,1.7v2.9L123.6,287z"/>
				<g>
					<defs>
						<path id="SVGID_9_" d="M227.6,371.2c0.2-0.1,0.4-0.3,0.5-0.5c0,0-0.1,0-0.1,0c-0.3-0.2-0.4-0.5-0.4-0.8c0-0.4,0.2-0.5,0.5-0.4
							c0.4,0.3,0.6,0.7,0.5,1.1c0.1,0.5-0.2,1-0.6,1.2L227.6,371.2z M226,371l-0.4-0.2v-0.7l0.4,0.2c0.2,0.1,0.4,0,0.4-0.4v-1.5
							c0-0.3,0.1-0.6,0.3-0.6c-0.2-0.3-0.3-0.6-0.3-0.9v-1.5c0-0.3-0.1-0.6-0.4-0.8l-0.4-0.2v-0.7l0.4,0.2c0.6,0.4,1,1.1,0.9,1.8
							v1.4c0,0.3,0.1,0.6,0.3,0.7v0.6c-0.2-0.1-0.3,0.1-0.3,0.4v1.4c0,0.6-0.2,0.9-0.6,0.9C226.2,371.1,226.1,371.1,226,371z
							 M225.1,370.5c-0.6-0.4-1-1.1-0.9-1.8v-1.4c0-0.3-0.1-0.6-0.3-0.7v-0.6c0.2,0.1,0.3-0.1,0.3-0.4v-1.4c0-0.8,0.5-1.1,0.9-0.8
							l0.4,0.2v0.7l-0.4-0.2c-0.2-0.1-0.4,0-0.4,0.4v1.5c0,0.3-0.1,0.6-0.3,0.6c0.2,0.3,0.3,0.6,0.3,0.9v1.5c0,0.3,0.1,0.6,0.4,0.8
							l0.4,0.2v0.7L225.1,370.5z M221.5,367c-0.3-0.2-0.5-0.6-0.5-0.9c0-0.4,0.2-0.5,0.5-0.4c0.3,0.2,0.5,0.6,0.5,0.9
							c0,0.3-0.1,0.4-0.3,0.4C221.6,367.1,221.5,367.1,221.5,367L221.5,367z M216.6,364.3c-1-0.7-1.6-1.8-1.5-3
							c0-1.1,0.6-1.8,1.5-1.2c1,0.7,1.6,1.8,1.6,3c0,0.8-0.3,1.4-0.9,1.4C217,364.4,216.8,364.4,216.6,364.3L216.6,364.3z
							 M215.8,361.7c0,0.6,0.2,1.2,0.7,1.6c0.5,0.3,0.8-0.1,0.8-0.7c0-0.6-0.3-1.2-0.8-1.6c-0.1-0.1-0.2-0.1-0.3-0.1
							C216,360.9,215.8,361.3,215.8,361.7L215.8,361.7z M221.5,364.2c-0.3-0.2-0.5-0.6-0.5-0.9c0-0.4,0.2-0.5,0.5-0.4
							c0.3,0.2,0.5,0.6,0.5,0.9c0,0.3-0.1,0.4-0.3,0.4C221.6,364.3,221.5,364.3,221.5,364.2L221.5,364.2z M219.9,362.9
							c0,0-0.2-1.9-0.2-2.1c0-0.3,0.2-0.5,0.4-0.3c0.3,0.2,0.4,0.5,0.4,0.8c0,0.2-0.2,1.8-0.2,1.8L219.9,362.9z M213.7,362.5v-2.4
							c0-0.4-0.2-0.8-0.5-1c-0.2-0.2-0.5-0.1-0.7,0.1v2.7l-0.8-0.4v-4l0.8,0.4v0.5c0.3-0.3,0.7-0.3,1,0c0.6,0.4,1,1.1,1,1.8v2.8
							L213.7,362.5z M218.8,362.3c0,0-0.2-1.9-0.2-2.1c0-0.3,0.2-0.5,0.4-0.3c0.3,0.2,0.4,0.5,0.4,0.8c0,0.2-0.2,1.8-0.2,1.8
							L218.8,362.3z M233,361.9c0.2-0.1,0.4-0.3,0.5-0.5c0,0-0.1,0-0.1,0c-0.3-0.2-0.4-0.5-0.4-0.8c0-0.4,0.2-0.5,0.5-0.4
							c0.4,0.3,0.6,0.7,0.5,1.1c0.1,0.5-0.2,1-0.6,1.2L233,361.9z M231.4,361.8l-0.4-0.2v-0.7l0.4,0.2c0.2,0.1,0.4,0,0.4-0.4v-1.5
							c0-0.3,0.1-0.6,0.3-0.6c-0.2-0.3-0.3-0.6-0.3-0.9v-1.5c0-0.3-0.1-0.6-0.4-0.8l-0.4-0.2v-0.7l0.4,0.2c0.6,0.4,0.9,1.1,0.9,1.8
							v1.4c0,0.3,0.1,0.6,0.3,0.7v0.6c-0.2-0.1-0.3,0.1-0.3,0.4v1.4c0,0.6-0.2,0.9-0.6,0.9C231.7,361.9,231.5,361.8,231.4,361.8
							L231.4,361.8z M230.5,361.2c-0.6-0.4-1-1.1-0.9-1.8V358c0-0.3-0.1-0.6-0.3-0.7v-0.6c0.2,0.1,0.3-0.1,0.3-0.4v-1.4
							c0-0.8,0.5-1.1,0.9-0.8l0.4,0.2v0.7l-0.4-0.2c-0.2-0.1-0.4,0-0.4,0.4v1.5c0,0.3-0.1,0.6-0.3,0.6c0.2,0.3,0.3,0.6,0.3,0.9v1.5
							c0,0.3,0.1,0.6,0.4,0.8l0.4,0.2v0.7L230.5,361.2z M210.2,360.5v-4l0.8,0.4v4L210.2,360.5z M206.6,360.1v-5.5l0.8,0.4v0.5
							c0.2-0.3,0.6-0.3,0.9-0.1c0.9,0.6,1.4,1.7,1.3,2.8c0,1.3-0.5,1.8-1.3,1.4c-0.4-0.3-0.7-0.7-0.9-1.1v2L206.6,360.1z
							 M207.4,356.3v1.4c0.1,0.3,0.4,0.6,0.7,0.8c0.4,0.2,0.7,0,0.7-0.7c0-0.6-0.2-1.2-0.7-1.6c-0.1-0.1-0.2-0.1-0.3-0.1
							C207.6,356.1,207.5,356.2,207.4,356.3L207.4,356.3z M226.9,357.8c-0.3-0.2-0.5-0.6-0.5-0.9c0-0.4,0.2-0.5,0.5-0.4
							c0.3,0.2,0.5,0.6,0.5,0.9c0,0.3-0.1,0.4-0.3,0.4C227,357.8,227,357.8,226.9,357.8L226.9,357.8z M202.6,356.3v-4l0.8,0.4v0.5
							c0.2-0.3,0.6-0.3,0.9-0.1v1c-0.1-0.1-0.1-0.1-0.2-0.1c-0.2-0.2-0.5-0.1-0.7,0v2.6L202.6,356.3z M204.6,355.9V355l1.5,0.8v0.9
							L204.6,355.9z M210.6,356.4c-0.3-0.2-0.5-0.5-0.5-0.9c0-0.3,0.2-0.5,0.5-0.4c0.3,0.2,0.5,0.5,0.5,0.9c0,0.3-0.1,0.4-0.3,0.4
							C210.7,356.4,210.6,356.4,210.6,356.4L210.6,356.4z M200.7,355.3c-1-0.7-1.6-1.8-1.6-3c0-1.1,0.6-1.7,1.5-1.2
							c1,0.7,1.5,1.8,1.5,3v0.2l-2.2-1.2c0,0.6,0.4,1.1,0.8,1.4c0.2,0.2,0.5,0.2,0.8,0l0.3,0.9c-0.1,0.1-0.3,0.1-0.4,0.1
							C201.2,355.5,200.9,355.4,200.7,355.3L200.7,355.3z M199.9,352.4l1.4,0.8c0-0.5-0.3-1-0.7-1.3c-0.1-0.1-0.2-0.1-0.3-0.1
							C200.1,351.8,199.9,352.1,199.9,352.4L199.9,352.4z M221.9,354.8v-4l0.8,0.4v0.5c0.2-0.3,0.6-0.3,0.9-0.1v1
							c-0.1-0.1-0.1-0.1-0.2-0.1c-0.2-0.2-0.5-0.1-0.7,0v2.6L221.9,354.8z M226.9,355c-0.3-0.2-0.5-0.6-0.5-0.9
							c0-0.4,0.2-0.5,0.5-0.4c0.3,0.2,0.5,0.6,0.5,0.9c0,0.3-0.1,0.4-0.3,0.4C227,355,227,355,226.9,355L226.9,355z M196.9,354.7
							c-0.5-0.3-1-0.8-1.3-1.3l0.3-0.6c0.2,0.4,0.5,0.8,0.9,1c0.4,0.2,0.8,0.2,0.8-0.5v-0.4c-0.2,0.3-0.6,0.3-0.9,0.1
							c-0.9-0.6-1.4-1.7-1.3-2.7c0-1.3,0.6-1.7,1.3-1.3c0.4,0.3,0.7,0.7,0.9,1.1v-0.5l0.8,0.4v3.7c0,0.9-0.3,1.3-0.8,1.3
							C197.5,354.9,197.2,354.8,196.9,354.7L196.9,354.7z M196.4,350.7c0,0.6,0.2,1.2,0.7,1.5c0.2,0.1,0.5,0.1,0.7-0.1v-1.3
							c-0.1-0.3-0.4-0.6-0.7-0.8c-0.1-0.1-0.2-0.1-0.3-0.1C196.5,349.9,196.4,350.2,196.4,350.7L196.4,350.7z M219.9,353.8
							c-1-0.7-1.6-1.8-1.6-3c0-1.1,0.6-1.7,1.5-1.2c1,0.7,1.5,1.8,1.5,3v0.2l-2.2-1.2c0,0.6,0.4,1.1,0.8,1.4c0.2,0.2,0.5,0.2,0.8,0
							l0.3,0.9c-0.1,0.1-0.3,0.1-0.4,0.1C220.4,354,220.1,354,219.9,353.8L219.9,353.8z M219.1,350.9l1.4,0.8c0-0.5-0.3-1-0.7-1.3
							c-0.1-0.1-0.2-0.1-0.3-0.1C219.3,350.4,219.2,350.6,219.1,350.9L219.1,350.9z M225.3,353.7c0,0-0.2-1.9-0.2-2.1
							c0-0.3,0.2-0.5,0.4-0.3c0.3,0.2,0.4,0.5,0.4,0.8c0,0.2-0.2,1.8-0.2,1.8L225.3,353.7z M224.2,353.1c0,0-0.2-1.9-0.2-2.1
							c0-0.3,0.2-0.5,0.4-0.3c0.3,0.2,0.4,0.5,0.4,0.8c0,0.2-0.2,1.8-0.2,1.8L224.2,353.1z M193.4,352.7c-0.5-0.3-1-0.8-1.3-1.3
							l0.3-0.6c0.2,0.4,0.5,0.8,0.9,1c0.4,0.2,0.8,0.2,0.8-0.5v-0.4c-0.2,0.3-0.6,0.3-0.9,0.1c-0.9-0.6-1.4-1.7-1.3-2.8
							c0-1.3,0.6-1.7,1.3-1.3c0.4,0.3,0.7,0.7,0.9,1.1v-0.5l0.8,0.4v3.7c0,0.9-0.3,1.3-0.8,1.3C193.9,352.9,193.6,352.8,193.4,352.7
							L193.4,352.7z M192.8,348.7c0,0.6,0.2,1.2,0.7,1.5c0.2,0.1,0.5,0.1,0.7-0.1v-1.3c-0.1-0.3-0.4-0.6-0.7-0.8
							c-0.1-0.1-0.2-0.1-0.3-0.1C193,347.9,192.8,348.2,192.8,348.7L192.8,348.7z M217.4,352.4c-0.5-0.3-0.9-0.9-0.8-1.6v-2.1
							l-0.5-0.3v-0.9l0.5,0.3v-1.1l0.8,0.4v1.1l0.6,0.3v0.9l-0.6-0.3v1.8c0,0.2,0.1,0.4,0.3,0.6c0.1,0.1,0.2,0.1,0.3,0l0.2,0.9
							c-0.1,0-0.1,0-0.2,0C217.7,352.6,217.6,352.5,217.4,352.4L217.4,352.4z M215.4,351.3c-0.5-0.3-0.9-0.9-0.8-1.6v-2.1l-0.5-0.3
							v-0.9l0.5,0.3v-1.1l0.8,0.4v1.1l0.6,0.3v0.9l-0.6-0.3v1.8c0,0.2,0.1,0.4,0.3,0.6c0.1,0.1,0.2,0.1,0.3,0l0.2,0.9
							c-0.1,0-0.1,0-0.2,0C215.7,351.4,215.5,351.4,215.4,351.3L215.4,351.3z M212.9,349.8v-4l0.8,0.4v4L212.9,349.8z M190.1,349.3
							c-1-0.7-1.6-1.8-1.5-3c0-1.1,0.6-1.8,1.5-1.2c1,0.7,1.6,1.8,1.6,3c0,0.8-0.3,1.4-0.9,1.4C190.5,349.5,190.3,349.4,190.1,349.3
							L190.1,349.3z M189.3,346.8c0,0.6,0.2,1.2,0.7,1.6c0.5,0.3,0.8-0.1,0.8-0.7c0-0.6-0.3-1.2-0.8-1.6c-0.1-0.1-0.2-0.1-0.3-0.1
							C189.5,346,189.3,346.3,189.3,346.8L189.3,346.8z M211.4,348.9v-2.5c0-0.4-0.1-0.7-0.4-0.9c-0.2-0.1-0.5-0.1-0.6,0.1v2.7
							l-0.8-0.4v-2.5c0-0.4-0.1-0.7-0.4-0.9c-0.2-0.1-0.5-0.1-0.6,0.1v2.7l-0.8-0.4v-4l0.8,0.4v0.5c0.3-0.3,0.7-0.3,1-0.1
							c0.4,0.3,0.7,0.7,0.8,1.2c0.2-0.3,0.7-0.4,1-0.2c0,0,0,0,0,0c0.6,0.4,0.9,1,0.9,1.7v2.9L211.4,348.9z M187.2,347.6v-5.5
							l0.8,0.4v5.5L187.2,347.6z M205.7,345.8c-1-0.7-1.6-1.8-1.6-3c0-1.1,0.6-1.7,1.5-1.2c1,0.7,1.5,1.8,1.5,3v0.2l-2.2-1.2
							c0,0.6,0.4,1.1,0.8,1.4c0.2,0.2,0.5,0.2,0.8,0l0.3,0.9c-0.1,0.1-0.3,0.1-0.4,0.1C206.3,346.1,206,346,205.7,345.8L205.7,345.8
							z M205,342.9l1.4,0.8c0-0.5-0.3-1-0.7-1.3c-0.1-0.1-0.2-0.1-0.3-0.1C205.1,342.4,205,342.7,205,342.9L205,342.9z M183.4,345.5
							c-1-0.7-1.6-1.8-1.6-3c0-1.1,0.6-1.7,1.5-1.2c1,0.7,1.5,1.8,1.5,3v0.2l-2.2-1.2c0,0.6,0.4,1.1,0.8,1.4c0.2,0.2,0.5,0.2,0.8,0
							l0.3,0.9c-0.1,0.1-0.3,0.1-0.4,0.1C183.9,345.8,183.6,345.7,183.4,345.5z M182.6,342.6l1.4,0.8c0-0.5-0.3-1-0.7-1.3
							c-0.1-0.1-0.2-0.1-0.3-0.1C182.8,342.1,182.7,342.4,182.6,342.6L182.6,342.6z M185.2,344.9V344l1.5,0.8v0.9L185.2,344.9z
							 M213.3,345.6c-0.3-0.2-0.5-0.5-0.5-0.9c0-0.3,0.2-0.5,0.5-0.4c0.3,0.2,0.5,0.5,0.5,0.9c0,0.3-0.1,0.4-0.3,0.4
							C213.4,345.6,213.3,345.6,213.3,345.6L213.3,345.6z M179.8,343.4v-4l0.8,0.4v0.5c0.2-0.3,0.6-0.3,0.9-0.1v1
							c-0.1-0.1-0.1-0.1-0.2-0.1c-0.2-0.2-0.5-0.1-0.7,0v2.6L179.8,343.4z M201.5,343.4c-0.5-0.3-0.9-0.9-0.8-1.6v-2.1l-0.5-0.3
							v-0.9l0.5,0.3v-1.1l0.8,0.4v1.1l0.6,0.3v0.9l-0.6-0.3v1.8c0,0.2,0.1,0.4,0.3,0.6c0.1,0.1,0.2,0.1,0.3,0l0.2,0.9
							c-0.1,0-0.1,0-0.2,0C201.8,343.6,201.6,343.5,201.5,343.4L201.5,343.4z M202.4,342.3v-0.9l1.5,0.8v0.9L202.4,342.3z
							 M177.7,342.3c-1-0.7-1.6-1.8-1.5-3c0-1.1,0.6-1.8,1.5-1.2c1,0.7,1.6,1.8,1.6,3c0,0.8-0.3,1.4-0.9,1.4
							C178.1,342.5,177.9,342.4,177.7,342.3L177.7,342.3z M177,339.8c0,0.6,0.2,1.2,0.7,1.6c0.5,0.3,0.8-0.1,0.8-0.7
							c0-0.6-0.3-1.2-0.8-1.6c-0.1-0.1-0.2-0.1-0.3-0.1C177.1,339,177,339.3,177,339.8L177,339.8z M199,341.9v-2.4
							c0-0.4-0.2-0.8-0.5-1c-0.2-0.2-0.5-0.1-0.7,0.1v2.7l-0.8-0.4v-4l0.8,0.4v0.5c0.3-0.3,0.7-0.3,1,0c0.6,0.4,1,1.1,1,1.8v2.8
							L199,341.9z M174.7,340.6c-1-0.7-1.6-1.8-1.6-3c0-1.2,0.6-1.7,1.6-1.2c0.5,0.3,0.9,0.8,1.2,1.4l-0.5,0.4
							c-0.1-0.3-0.3-0.6-0.6-0.8c-0.5-0.3-0.8,0-0.8,0.7c0,0.6,0.3,1.2,0.8,1.6c0.2,0.1,0.5,0.1,0.6-0.1c0,0,0,0,0,0l0.5,0.9
							c-0.1,0.2-0.3,0.3-0.5,0.3C175.1,340.8,174.9,340.7,174.7,340.6L174.7,340.6z M195,339.8c-1-0.7-1.6-1.8-1.6-3
							c0-1.1,0.6-1.7,1.5-1.2c1,0.7,1.5,1.8,1.5,3v0.2l-2.2-1.2c0,0.6,0.4,1.1,0.8,1.4c0.2,0.2,0.5,0.2,0.8,0l0.3,0.9
							c-0.1,0.1-0.3,0.1-0.4,0.1C195.5,340,195.3,339.9,195,339.8L195,339.8z M194.3,336.9l1.4,0.8c0-0.5-0.3-1-0.7-1.3
							c-0.1-0.1-0.2-0.1-0.3-0.1C194.4,336.3,194.3,336.6,194.3,336.9L194.3,336.9z M171,338.6l1.4-5l0.6,0.3l-1.4,5L171,338.6z
							 M169.8,337.8v-2.5c0-0.4-0.1-0.7-0.4-0.9c-0.2-0.1-0.5-0.1-0.6,0.1v2.7l-0.8-0.4v-2.5c0-0.4-0.1-0.7-0.4-0.9
							c-0.2-0.1-0.5-0.1-0.6,0.1v2.7l-0.8-0.4v-4l0.8,0.4v0.5c0.3-0.3,0.7-0.3,1-0.1c0.4,0.3,0.7,0.7,0.8,1.2c0.2-0.3,0.7-0.4,1-0.2
							c0,0,0,0,0,0c0.6,0.4,0.9,1,0.9,1.7v2.9L169.8,337.8z M191.3,337.6l-1.2-4.6l0.8,0.5l0.8,3.2l0.8-2.3l0.8,0.5l-1.2,3.3
							L191.3,337.6z M188.6,336.1c-1-0.7-1.6-1.8-1.6-3c0-1.1,0.6-1.7,1.5-1.2c1,0.7,1.5,1.8,1.5,3v0.2l-2.2-1.2
							c0,0.6,0.4,1.1,0.8,1.4c0.2,0.2,0.5,0.2,0.8,0l0.3,0.9c-0.1,0.1-0.3,0.1-0.4,0.1C189.1,336.4,188.8,336.3,188.6,336.1
							L188.6,336.1z M187.8,333.2l1.4,0.8c0-0.5-0.3-1-0.7-1.3c-0.1-0.1-0.2-0.1-0.3-0.1C188,332.7,187.8,333,187.8,333.2
							L187.8,333.2z M164.2,334.7c-1-0.7-1.6-1.8-1.6-3c0-1.1,0.6-1.7,1.5-1.2c1,0.7,1.5,1.8,1.5,3v0.2l-2.2-1.2
							c0,0.6,0.4,1.1,0.8,1.4c0.2,0.2,0.5,0.2,0.8,0l0.3,0.9c-0.1,0.1-0.3,0.1-0.4,0.1C164.7,334.9,164.5,334.8,164.2,334.7
							L164.2,334.7z M163.4,331.8l1.4,0.8c0-0.5-0.3-1-0.7-1.3c-0.1-0.1-0.2-0.1-0.3-0.1C163.6,331.2,163.5,331.5,163.4,331.8
							L163.4,331.8z M161.8,333.3c-0.5-0.3-0.9-0.9-0.8-1.6v-2.1l-0.5-0.3v-0.9l0.5,0.3v-1.1l0.8,0.4v1.1l0.6,0.3v0.9l-0.6-0.3v1.8
							c0,0.2,0.1,0.4,0.3,0.6c0.1,0.1,0.2,0.1,0.3,0l0.2,0.9c-0.1,0-0.1,0-0.2,0C162.1,333.5,161.9,333.4,161.8,333.3L161.8,333.3z
							 M183.4,333.2c-1-0.7-1.6-1.8-1.6-3c0-1.1,0.6-1.7,1.5-1.2c1,0.7,1.5,1.8,1.5,3v0.2l-2.2-1.2c0,0.6,0.4,1.1,0.8,1.4
							c0.2,0.2,0.5,0.2,0.8,0l0.3,0.9c-0.1,0.1-0.3,0.1-0.4,0.1C183.9,333.4,183.6,333.4,183.4,333.2L183.4,333.2z M182.6,330.3
							l1.4,0.8c0-0.5-0.3-1-0.7-1.3c-0.1-0.1-0.2-0.1-0.3-0.1C182.8,329.8,182.7,330,182.6,330.3L182.6,330.3z M185.2,332.6v-0.9
							l1.5,0.8v0.9L185.2,332.6z M159,331.7c-0.5-0.3-1-0.8-1.3-1.4l0.3-0.5c0.2,0.4,0.6,0.8,1,1.1c0.3,0.2,0.5,0.1,0.5-0.1
							c0-0.7-1.7-1.1-1.7-2.7c0-0.7,0.4-1,1.2-0.6c0.5,0.3,0.9,0.7,1.2,1.2l-0.3,0.5c-0.2-0.4-0.5-0.7-0.9-0.9
							c-0.3-0.2-0.5-0.1-0.5,0.1c0,0.6,1.7,1.1,1.7,2.7c0,0.5-0.2,0.8-0.6,0.8C159.4,331.9,159.2,331.9,159,331.7L159,331.7z
							 M179.8,331.1v-4l0.8,0.4v0.5c0.2-0.3,0.6-0.3,0.9-0.1v1c-0.1-0.1-0.1-0.1-0.2-0.1c-0.2-0.2-0.5-0.1-0.7,0v2.6L179.8,331.1z
							 M155.1,331c-0.1-0.1-0.3-0.2-0.4-0.3l0.1-0.9c0.1,0.1,0.2,0.1,0.2,0.2c0.2,0.1,0.3,0.1,0.4-0.1l0.1-0.3l-1.2-4.7l0.8,0.5
							l0.8,3.2l0.8-2.3l0.8,0.5l-1.4,3.8c-0.1,0.4-0.3,0.5-0.6,0.5C155.4,331.2,155.2,331.1,155.1,331L155.1,331z M177.7,330
							c-1-0.7-1.6-1.8-1.5-3c0-1.1,0.6-1.8,1.5-1.2c1,0.7,1.6,1.8,1.6,3c0,0.8-0.3,1.4-0.9,1.4C178.1,330.2,177.9,330.1,177.7,330z
							 M177,327.5c0,0.6,0.2,1.2,0.7,1.6c0.5,0.3,0.8-0.1,0.8-0.7c0-0.6-0.3-1.2-0.8-1.6c-0.1-0.1-0.2-0.1-0.3-0.1
							C177.1,326.7,177,327,177,327.5L177,327.5z M153,328.3c-0.5-0.3-1-0.8-1.3-1.4l0.3-0.5c0.2,0.4,0.6,0.8,1,1.1
							c0.3,0.2,0.5,0.1,0.5-0.1c0-0.7-1.7-1.1-1.7-2.7c0-0.7,0.4-1,1.2-0.6c0.5,0.3,0.9,0.7,1.2,1.2l-0.3,0.5
							c-0.2-0.4-0.5-0.7-0.9-1c-0.3-0.2-0.5-0.1-0.5,0.1c0,0.6,1.7,1.1,1.7,2.7c0,0.5-0.2,0.8-0.6,0.8
							C153.4,328.5,153.2,328.5,153,328.3L153,328.3z M174.7,328.3c-1-0.7-1.6-1.8-1.6-3c0-1.2,0.6-1.7,1.6-1.2
							c0.5,0.3,0.9,0.8,1.2,1.4l-0.5,0.4c-0.1-0.3-0.3-0.6-0.6-0.8c-0.5-0.3-0.8,0-0.8,0.7c0,0.6,0.3,1.2,0.8,1.6
							c0.2,0.1,0.5,0.1,0.6-0.1c0,0,0,0,0,0l0.5,0.9c-0.1,0.2-0.3,0.3-0.5,0.3C175.1,328.5,174.9,328.4,174.7,328.3L174.7,328.3z
							 M149.8,326.5c-1-0.7-1.6-1.8-1.5-3c0-1.1,0.6-1.8,1.5-1.2c1,0.7,1.6,1.8,1.6,3c0,0.8-0.3,1.4-0.9,1.4
							C150.2,326.7,150,326.7,149.8,326.5L149.8,326.5z M149,324c0,0.6,0.2,1.2,0.7,1.6c0.5,0.3,0.8-0.1,0.8-0.7
							c0-0.6-0.3-1.2-0.8-1.6c-0.1-0.1-0.2-0.1-0.3-0.1C149.2,323.2,149,323.6,149,324L149,324z M171,326.3l1.4-5l0.6,0.3l-1.4,5
							L171,326.3z M169.8,325.4v-2.5c0-0.4-0.1-0.7-0.4-0.9c-0.2-0.1-0.5-0.1-0.6,0.1v2.7l-0.8-0.4v-2.5c0-0.4-0.1-0.7-0.4-0.9
							c-0.2-0.1-0.5-0.1-0.6,0.1v2.7l-0.8-0.4v-4l0.8,0.4v0.5c0.3-0.3,0.7-0.3,1-0.1c0.4,0.3,0.7,0.7,0.8,1.2c0.2-0.3,0.7-0.4,1-0.2
							c0,0,0,0,0,0c0.6,0.4,0.9,1,0.9,1.7v2.9L169.8,325.4z M146.8,324.8c-1-0.7-1.6-1.8-1.6-3c0-1.2,0.6-1.7,1.6-1.2
							c0.5,0.3,0.9,0.8,1.2,1.4l-0.5,0.4c-0.1-0.3-0.3-0.6-0.6-0.8c-0.5-0.3-0.8,0-0.8,0.7c0,0.6,0.3,1.2,0.8,1.6
							c0.2,0.1,0.5,0.1,0.6-0.1c0,0,0,0,0,0l0.5,0.9c-0.1,0.2-0.3,0.3-0.5,0.3C147.2,325,147,325,146.8,324.8L146.8,324.8z
							 M143.4,323c-1-0.7-1.6-1.8-1.6-3c0-1.1,0.6-1.7,1.5-1.2c1,0.7,1.5,1.8,1.5,3v0.2l-2.2-1.2c0,0.6,0.4,1.1,0.8,1.4
							c0.2,0.2,0.5,0.2,0.8,0l0.3,0.9c-0.1,0.1-0.3,0.1-0.4,0.1C143.9,323.2,143.7,323.1,143.4,323L143.4,323z M142.7,320.1l1.4,0.8
							c0-0.5-0.3-1-0.7-1.3c-0.1-0.1-0.2-0.1-0.3-0.1C142.8,319.5,142.7,319.8,142.7,320.1L142.7,320.1z M164.2,322.4
							c-1-0.7-1.6-1.8-1.6-3c0-1.1,0.6-1.7,1.5-1.2c1,0.7,1.5,1.8,1.5,3v0.2l-2.2-1.2c0,0.6,0.4,1.1,0.8,1.4c0.2,0.2,0.5,0.2,0.8,0
							l0.3,0.9c-0.1,0.1-0.3,0.1-0.4,0.1C164.7,322.6,164.5,322.5,164.2,322.4L164.2,322.4z M163.4,319.5l1.4,0.8
							c0-0.5-0.3-1-0.7-1.3c-0.1-0.1-0.2-0.1-0.3-0.1C163.6,318.9,163.5,319.2,163.4,319.5L163.4,319.5z M140.7,321.3l-0.8-2
							l-0.4,0.3v1l-0.8-0.4v-5.5l0.8,0.4v3.3l1.1-1.1l0.9,0.5l-1.2,1.1l1.2,2.8L140.7,321.3z M161.8,321c-0.5-0.3-0.9-0.9-0.8-1.6
							v-2.1l-0.5-0.3v-0.9l0.5,0.3v-1.1l0.8,0.4v1.1l0.6,0.3v0.9l-0.6-0.3v1.8c0,0.2,0.1,0.4,0.3,0.6c0.1,0.1,0.2,0.1,0.3,0l0.2,0.9
							c-0.1,0-0.1,0-0.2,0C162.1,321.1,161.9,321.1,161.8,321L161.8,321z M159,319.4c-0.5-0.3-1-0.8-1.3-1.4l0.3-0.5
							c0.2,0.4,0.6,0.8,1,1.1c0.3,0.2,0.5,0.1,0.5-0.1c0-0.7-1.7-1.1-1.7-2.7c0-0.7,0.4-1,1.2-0.6c0.5,0.3,0.9,0.7,1.2,1.2l-0.3,0.5
							c-0.2-0.4-0.5-0.7-0.9-0.9c-0.3-0.2-0.5-0.1-0.5,0.1c0,0.6,1.7,1.1,1.7,2.7c0,0.5-0.2,0.8-0.6,0.8
							C159.4,319.6,159.2,319.5,159,319.4L159,319.4z M136.7,319v-4l0.8,0.4v0.5c0.2-0.3,0.6-0.3,0.9-0.1v1
							c-0.1-0.1-0.1-0.1-0.2-0.1c-0.2-0.2-0.5-0.1-0.7,0v2.6L136.7,319z M155.1,318.7c-0.1-0.1-0.3-0.2-0.4-0.3l0.1-0.9
							c0.1,0.1,0.2,0.1,0.2,0.2c0.2,0.1,0.3,0.1,0.4-0.1l0.1-0.3l-1.2-4.7l0.8,0.5l0.8,3.2l0.8-2.3l0.8,0.5l-1.4,3.8
							c-0.1,0.4-0.3,0.5-0.6,0.5C155.4,318.9,155.2,318.8,155.1,318.7L155.1,318.7z M135.1,318.2v-0.4c-0.2,0.2-0.5,0.2-0.9,0
							c-0.6-0.4-1-1.1-1-1.9c0-0.9,0.6-1,1-0.7c0.4,0.2,0.7,0.6,0.9,1v-0.5c0-0.4-0.3-0.8-0.6-1c-0.3-0.2-0.6-0.2-0.9,0l-0.3-0.9
							c0.4-0.2,0.9-0.2,1.3,0.1c0.8,0.4,1.3,1.3,1.3,2.2v2.6L135.1,318.2z M134,316.3c0,0.4,0.2,0.7,0.6,0.9c0.2,0.1,0.5,0.2,0.6,0
							v-0.5c-0.1-0.3-0.3-0.5-0.6-0.7c-0.1-0.1-0.2-0.1-0.3-0.1C134.1,315.9,134,316.1,134,316.3L134,316.3z M130.4,316.1
							c-1.2-0.8-1.9-2.2-1.9-3.7c0-1.8,1.1-2.6,2.4-1.9c1.2,0.8,1.9,2.2,1.9,3.6c0,1.4-0.7,1.6-1.2,1.4c-0.3-0.2-0.5-0.6-0.6-0.9
							l0-0.1c-0.2,0.3-0.6,0.4-0.9,0.2c-0.6-0.4-1-1.2-0.9-1.9c0-1.1,0.7-1.6,1.4-1.2c0.4,0.2,0.6,0.6,0.8,1l0.1-0.4l0.7,0.4
							l-0.3,1.8c0,0.1,0,0.1,0,0.2c0,0.2,0.1,0.4,0.2,0.5c0.2,0.1,0.6-0.1,0.6-1c0-1.3-0.6-2.5-1.7-3.1c-1.1-0.6-2.1,0.2-2.1,1.7
							c0,1.3,0.6,2.5,1.7,3.2c0.3,0.2,0.7,0.3,1.1,0.2l0.1,0.3c-0.1,0-0.3,0.1-0.4,0.1C130.9,316.3,130.6,316.2,130.4,316.1
							L130.4,316.1z M129.9,313c0,0.4,0.2,0.8,0.5,1c0.2,0.1,0.5,0.1,0.7-0.1c0,0,0,0,0,0l0.2-0.9c-0.1-0.3-0.2-0.5-0.5-0.7
							c-0.1-0.1-0.2-0.1-0.3-0.1C130.1,312.2,129.9,312.6,129.9,313L129.9,313z M153,316c-0.5-0.3-1-0.8-1.3-1.4l0.3-0.5
							c0.2,0.4,0.6,0.8,1,1.1c0.3,0.2,0.5,0.1,0.5-0.1c0-0.7-1.7-1.1-1.7-2.7c0-0.7,0.4-1,1.2-0.6c0.5,0.3,0.9,0.7,1.2,1.2l-0.3,0.5
							c-0.2-0.4-0.5-0.7-0.9-0.9c-0.3-0.2-0.5-0.1-0.5,0.1c0,0.6,1.7,1.1,1.7,2.7c0,0.5-0.2,0.8-0.6,0.8
							C153.4,316.2,153.2,316.1,153,316L153,316z M169.6,314.6c-0.6-0.4-1-1.1-0.9-1.8v-1.4c0-0.3-0.1-0.6-0.3-0.7V310
							c0.2,0.1,0.3-0.1,0.3-0.4v-1.4c0-0.8,0.5-1.1,0.9-0.8l0.4,0.2v0.7l-0.4-0.2c-0.2-0.1-0.4,0-0.4,0.4v1.5c0,0.3-0.1,0.6-0.3,0.6
							c0.2,0.3,0.3,0.6,0.3,0.9v1.5c0,0.3,0.1,0.6,0.4,0.8l0.4,0.2v0.7L169.6,314.6z M149.8,314.2c-1-0.7-1.6-1.8-1.5-3
							c0-1.1,0.6-1.8,1.5-1.2c1,0.7,1.6,1.8,1.6,3c0,0.8-0.3,1.4-0.9,1.4C150.2,314.4,150,314.3,149.8,314.2L149.8,314.2z
							 M149,311.7c0,0.6,0.2,1.2,0.7,1.6c0.5,0.3,0.8-0.1,0.8-0.7c0-0.6-0.3-1.2-0.8-1.6c-0.1-0.1-0.2-0.1-0.3-0.1
							C149.2,310.9,149,311.2,149,311.7L149,311.7z M146.8,312.5c-1-0.7-1.6-1.8-1.6-3c0-1.2,0.6-1.7,1.6-1.2
							c0.5,0.3,0.9,0.8,1.2,1.4l-0.5,0.4c-0.1-0.3-0.3-0.6-0.6-0.8c-0.5-0.3-0.8,0-0.8,0.7c0,0.6,0.3,1.2,0.8,1.6
							c0.2,0.1,0.5,0.1,0.6-0.1c0,0,0,0,0,0l0.5,0.9c-0.1,0.2-0.3,0.3-0.5,0.3C147.2,312.7,147,312.6,146.8,312.5L146.8,312.5z
							 M127.4,310.7c0,0-0.2-1.9-0.2-2.1c0-0.3,0.2-0.5,0.4-0.3c0.3,0.2,0.4,0.5,0.4,0.8c0,0.2-0.2,1.8-0.2,1.8L127.4,310.7z
							 M143.4,310.6c-1-0.7-1.6-1.8-1.6-3c0-1.1,0.6-1.7,1.5-1.2c1,0.7,1.5,1.8,1.5,3v0.2l-2.2-1.2c0,0.6,0.4,1.1,0.8,1.4
							c0.2,0.2,0.5,0.2,0.8,0l0.3,0.9c-0.1,0.1-0.3,0.1-0.4,0.1C143.9,310.9,143.7,310.8,143.4,310.6L143.4,310.6z M142.7,307.7
							l1.4,0.8c0-0.5-0.3-1-0.7-1.3c-0.1-0.1-0.2-0.1-0.3-0.1C142.8,307.2,142.7,307.5,142.7,307.7L142.7,307.7z M126.3,310.1
							c0,0-0.2-1.9-0.2-2.1c0-0.3,0.2-0.5,0.4-0.3c0.3,0.2,0.4,0.5,0.4,0.8c0,0.2-0.2,1.8-0.2,1.8L126.3,310.1z M163.9,308.1v-0.6
							l2.7,1.5v0.6L163.9,308.1z M140.7,309l-0.8-2l-0.4,0.3v1l-0.8-0.4v-5.5l0.8,0.4v3.3l1.1-1.1l0.9,0.5l-1.2,1.1l1.2,2.8
							L140.7,309z M160.7,308.1c-0.5-0.3-1-0.8-1.3-1.4l0.3-0.5c0.2,0.4,0.6,0.8,1,1.1c0.3,0.2,0.5,0.1,0.5-0.1
							c0-0.7-1.7-1.1-1.7-2.7c0-0.7,0.4-1,1.2-0.6c0.5,0.3,0.9,0.7,1.2,1.2l-0.3,0.5c-0.2-0.4-0.5-0.7-0.9-0.9
							c-0.3-0.2-0.5-0.1-0.5,0.1c0,0.6,1.7,1.1,1.7,2.7c0,0.5-0.2,0.8-0.6,0.8C161.2,308.3,160.9,308.2,160.7,308.1L160.7,308.1z
							 M163.9,306.6v-0.7l2.7,1.5v0.7L163.9,306.6z M136.7,306.7v-4l0.8,0.4v0.5c0.2-0.3,0.6-0.3,0.9-0.1v1
							c-0.1-0.1-0.1-0.1-0.2-0.1c-0.2-0.2-0.5-0.1-0.7,0v2.6L136.7,306.7z M158.6,306.9c-0.5-0.3-0.9-0.9-0.8-1.6v-2.1l-0.5-0.3
							v-0.9l0.5,0.3v-1.1l0.8,0.4v1.1l0.6,0.3v0.9l-0.6-0.3v1.8c0,0.2,0.1,0.4,0.3,0.6c0.1,0.1,0.2,0.1,0.3,0l0.2,0.9
							c-0.1,0-0.1,0-0.2,0C158.9,307,158.8,307,158.6,306.9L158.6,306.9z M135.1,305.9v-0.4c-0.2,0.2-0.5,0.2-0.9,0
							c-0.6-0.4-1-1.1-1-1.9c0-0.9,0.6-1,1-0.7c0.4,0.2,0.7,0.6,0.9,1v-0.5c0-0.4-0.3-0.8-0.6-1c-0.3-0.2-0.6-0.2-0.9,0l-0.3-0.9
							c0.4-0.2,0.9-0.2,1.3,0.1c0.8,0.4,1.3,1.3,1.3,2.2v2.6L135.1,305.9z M134,304c0,0.4,0.2,0.7,0.6,0.9c0.2,0.1,0.5,0.2,0.6,0
							v-0.5c-0.1-0.3-0.3-0.5-0.6-0.7c-0.1-0.1-0.2-0.1-0.3-0.1C134.1,303.6,134,303.7,134,304z M155.5,305v-4l0.8,0.4v0.5
							c0.2-0.3,0.6-0.3,0.9-0.1v1c-0.1-0.1-0.1-0.1-0.2-0.1c-0.2-0.2-0.5-0.1-0.7,0v2.6L155.5,305z M153.3,303.9
							c-1-0.7-1.6-1.8-1.5-3c0-1.1,0.6-1.8,1.5-1.2c1,0.7,1.6,1.8,1.6,3c0,0.8-0.3,1.4-0.9,1.4C153.8,304.1,153.5,304,153.3,303.9
							L153.3,303.9z M152.6,301.4c0,0.6,0.2,1.2,0.7,1.6c0.5,0.3,0.8-0.1,0.8-0.7c0-0.6-0.3-1.2-0.8-1.6c-0.1-0.1-0.2-0.1-0.3-0.1
							C152.8,300.6,152.6,300.9,152.6,301.4L152.6,301.4z M130.4,303.7c-1.2-0.8-1.9-2.2-1.9-3.7c0-1.8,1.1-2.6,2.4-1.9
							c1.2,0.8,1.9,2.2,1.9,3.6c0,1.4-0.7,1.6-1.2,1.4c-0.3-0.2-0.5-0.6-0.6-0.9l0-0.1c-0.2,0.3-0.6,0.4-0.9,0.2
							c-0.6-0.4-1-1.2-0.9-1.9c0-1.1,0.7-1.6,1.4-1.2c0.4,0.2,0.6,0.6,0.8,1l0.1-0.4l0.7,0.4l-0.3,1.8c0,0.1,0,0.1,0,0.2
							c0,0.2,0.1,0.4,0.2,0.5c0.2,0.1,0.6-0.1,0.6-1c0-1.3-0.6-2.5-1.7-3.1c-1.1-0.6-2.1,0.2-2.1,1.7c0,1.3,0.6,2.5,1.7,3.2
							c0.3,0.2,0.7,0.3,1.1,0.2l0.1,0.3c-0.1,0-0.3,0.1-0.4,0.1C130.9,304,130.6,303.9,130.4,303.7L130.4,303.7z M129.9,300.7
							c0,0.4,0.2,0.8,0.5,1c0.2,0.1,0.5,0.1,0.7-0.1c0,0,0,0,0,0l0.2-0.9c-0.1-0.3-0.2-0.5-0.5-0.7c-0.1-0.1-0.2-0.1-0.3-0.1
							C130.1,299.9,129.9,300.3,129.9,300.7L129.9,300.7z M148.5,302.6v-5.5l0.8,0.4v0.5c0.2-0.3,0.6-0.3,0.9-0.1
							c0.9,0.6,1.4,1.7,1.3,2.8c0,1.3-0.5,1.8-1.3,1.4c-0.4-0.3-0.7-0.7-0.9-1.1v2L148.5,302.6z M149.2,298.8v1.4
							c0.1,0.3,0.4,0.6,0.7,0.8c0.4,0.2,0.7-0.1,0.7-0.7c0-0.6-0.2-1.2-0.7-1.6c-0.1-0.1-0.2-0.1-0.3-0.1
							C149.4,298.6,149.3,298.7,149.2,298.8L149.2,298.8z M147.2,300.4l-0.7-1.7l-0.7,1l-0.9-0.5l1-1.5l-1-2.5l0.9,0.5l0.6,1.6
							l0.6-0.9l0.9,0.5l-1,1.4l1,2.6L147.2,300.4z M127.4,298.4c0,0-0.2-1.9-0.2-2.1c0-0.3,0.2-0.5,0.4-0.3c0.3,0.2,0.4,0.5,0.4,0.8
							c0,0.2-0.2,1.8-0.2,1.8L127.4,298.4z M143.4,298.3c-1-0.7-1.6-1.8-1.6-3c0-1.1,0.6-1.7,1.5-1.2c1,0.7,1.5,1.8,1.5,3v0.2
							l-2.2-1.2c0,0.6,0.4,1.1,0.8,1.4c0.2,0.2,0.5,0.2,0.8,0l0.3,0.9c-0.1,0.1-0.3,0.1-0.4,0.1
							C143.9,298.5,143.7,298.5,143.4,298.3L143.4,298.3z M142.7,295.4l1.4,0.8c0-0.5-0.3-1-0.7-1.3c-0.1-0.1-0.2-0.1-0.3-0.1
							C142.8,294.9,142.7,295.1,142.7,295.4L142.7,295.4z M126.3,297.8c0,0-0.2-1.9-0.2-2.1c0-0.3,0.2-0.5,0.4-0.3
							c0.3,0.2,0.4,0.5,0.4,0.8c0,0.2-0.2,1.8-0.2,1.8L126.3,297.8z M140.9,296.9c-0.3-0.2-0.5-0.6-0.5-0.9c0-0.4,0.2-0.5,0.5-0.4
							c0.3,0.2,0.5,0.6,0.5,0.9c0,0.3-0.1,0.4-0.3,0.4C141,296.9,141,296.9,140.9,296.9L140.9,296.9z M138.6,295.6
							c-1-0.7-1.6-1.8-1.6-3c0-1.1,0.6-1.7,1.5-1.2c1,0.7,1.5,1.8,1.5,3v0.2l-2.2-1.2c0,0.6,0.4,1.1,0.8,1.4c0.2,0.2,0.5,0.2,0.8,0
							l0.3,0.9c-0.1,0.1-0.3,0.1-0.4,0.1C139.1,295.8,138.8,295.7,138.6,295.6L138.6,295.6z M137.8,292.7l1.4,0.8
							c0-0.5-0.3-1-0.7-1.3c-0.1-0.1-0.2-0.1-0.3-0.1C138,292.1,137.8,292.4,137.8,292.7L137.8,292.7z M135.7,293.8v-5.5l0.8,0.4
							v5.5L135.7,293.8z M134.1,293v-0.5c-0.3,0.2-0.7,0.3-1,0c-0.6-0.4-1-1.1-0.9-1.8v-2.8l0.8,0.4v2.4c0,0.4,0.2,0.8,0.5,1
							c0.2,0.1,0.5,0.1,0.7-0.1V289l0.8,0.4v4L134.1,293z M130.6,291v-0.5c-0.2,0.3-0.6,0.3-0.9,0.1c-0.9-0.7-1.4-1.7-1.3-2.8
							c0-1.3,0.6-1.8,1.3-1.4c0.4,0.3,0.7,0.7,0.9,1.1v-2l0.8,0.4v5.5L130.6,291z M129.2,288.2c0,0.6,0.2,1.2,0.7,1.6
							c0.2,0.2,0.5,0.1,0.7-0.1v-1.4c-0.1-0.3-0.4-0.6-0.7-0.8c-0.1-0.1-0.2-0.1-0.3-0.1C129.4,287.4,129.2,287.7,129.2,288.2
							L129.2,288.2z M126.5,288.7c-1-0.7-1.6-1.8-1.5-3c0-1.1,0.6-1.8,1.5-1.2c1,0.7,1.6,1.8,1.6,3c0,0.8-0.3,1.4-0.9,1.4
							C126.9,288.9,126.7,288.9,126.5,288.7L126.5,288.7z M125.7,286.2c0,0.6,0.2,1.2,0.7,1.6c0.5,0.3,0.8-0.1,0.8-0.7
							c0-0.6-0.3-1.2-0.8-1.6c-0.1-0.1-0.2-0.1-0.3-0.1C125.9,285.4,125.7,285.8,125.7,286.2L125.7,286.2z M123.6,287v-2.5
							c0-0.4-0.1-0.7-0.4-0.9c-0.2-0.1-0.5-0.1-0.6,0.1v2.7l-0.8-0.4v-2.5c0-0.4-0.1-0.7-0.4-0.9c-0.2-0.1-0.5-0.1-0.6,0.1v2.7
							L120,285v-4l0.8,0.4v0.5c0.3-0.3,0.7-0.3,1-0.1c0.4,0.3,0.7,0.7,0.8,1.2c0.2-0.3,0.7-0.4,1-0.2c0,0,0,0,0,0
							c0.6,0.4,0.9,1,0.9,1.7v2.9L123.6,287z"/>
					</defs>
					<clipPath id="SVGID_10_">
						<use xlink:href="#SVGID_9_"  style="overflow:visible;"/>
					</clipPath>
					<g id="Clip-5" class="st20">
						<path id="Фигура_3850" class="st21" d="M122.4,302.3l2-10l38.3,20.7l13.4,7.3l52.4,28.7l-0.7,7.3v4l-4,2l-1.3,2v6l0.7,2
							l16.1,6l2.7,7.3v7.3l-9.4-2c0,0-99.7-46.4-100.1-46.7s-7.7-4.4-8.7-5.3s-6.7-19.3-6.7-19.3L122.4,302.3z"/>
					</g>
				</g>
			</g>
		</g>
		<g id="Группа_93">
			<path id="Forma_1" class="st22" d="M403.6,248c1.7,4.6,2.8,13.3,1.2,21c6.7,4.4,9,23.3,5.8,41.7c9.6-4.5,21-12.7,28.4-12.7
				c-6.9,2.7-16.3,5.7-25.2,11.7c-1.7,1.1-4.2,2.3-4.1,5.7c10.3-4.8,20.5-9.5,29-10.6c-8.4,2.9-18.6,5.8-29,11.4
				c-4.3,14.8-13,25.9-24.9,34.1c1.3,3.3,3.7,3.4,4.3,9.6c0.9,9.2-1.4,24.8,0.9,29.9c1.1,2.5,2.9,1.5,4.1,3.5
				c-2.9,6.7-10.2,5.4-11,0.6c-1.4-8.2,2.2-24.3-1.7-28.2c0.3,9.7-1.6,24.7,0.3,32.4c0.7,3,2.9,3.1,2.3,6.6
				c-13.6,9.9-7.9-20.9-10.1-35.8c-2.1,1.4-1.2,5.1-1.2,6.9c-0.1,15.9,2.2,36.3-9.6,41c-0.3-3.1,1.6-5.4,2.3-8.8
				c2.2-10.2-0.4-22,0.6-33.3c-4.5,7.5,0.5,21.8-2.3,32.2c-1.6,6-6.8,11.2-10.7,11.2c0.5-4.1,3.2-5,4.3-9.2c1.6-5.8,0-12,0.6-19.5
				c-8.3,7.2-14.8,8.2-18,2.5c-1.4-2.6-1.8-6.4-3.5-8.4s-4.4-0.9-5.2-4.5c10.3-9.6,10.7,9.2,20,4.2c2.8-1.5,4.3-3.7,7-6.1
				c0.6-4.8,2.2-9.4,4.6-13.5c-11.5,4.4-21.1,4.7-25.5-5.2c-10.3,6.7-20,14.3-29,22.7c8.1-8.9,18-16.2,28.7-22.9
				c-0.6-5.1-6.1-0.4-9.6,1.8c-6.7,4.3-13.2,9.1-19.4,14.2c7.3-8,17.6-13.5,27.5-19.3c-3-12-2-34.5,4.6-46.5
				c-1.9-5.8-1.3-17.3,1.2-24c7.4-3.8,11.9-1.7,16.5,0c5.7-5.8,12.4-10.7,19.7-14.4c3.3-1.7,6.8-1.5,9.3-3.3
				c2.5-1.8,5.2-7.3,7.5-10.2C397,253,400.1,250.2,403.6,248z"/>
			<path id="Эллипс_1079" class="st23" d="M395,286.4c6.6-3.9,12,0.5,12,10s-5.4,20.3-12,24.2s-12-0.5-12-10
				S388.4,290.3,395,286.4z"/>
			<path id="Эллипс_1079_копия" class="st24" d="M395.5,290.1c5.2-3.1,9.5,0.4,9.5,7.8s-4.3,15.9-9.5,18.9
				s-9.5-0.4-9.5-7.8S390.3,293.2,395.5,290.1z"/>
			
				<linearGradient id="Фигура_1087_1_" gradientUnits="userSpaceOnUse" x1="1.9762" y1="756.8934" x2="0.9762" y2="756.0594" gradientTransform="matrix(23 0 0 -80 358 60867)">
				<stop  offset="0" style="stop-color:#4C3E67;stop-opacity:0.58"/>
				<stop  offset="0.853" style="stop-color:#E5DCF6;stop-opacity:8.600000e-02"/>
				<stop  offset="1" style="stop-color:#E5DCF6;stop-opacity:0"/>
			</linearGradient>
			<path id="Фигура_1087" class="st25" d="M403,310l-2,66l-21,11l8-80L403,310z"/>
			<g id="Фигура_1081-2">
				<path id="Фигура_1081-3" class="st26" d="M398,291c0,0,18.3,8.3,30-5c14.9-16.9-9.9-25-15-35c-5.4-10.7,2.5-22.3,5-25
					s5.8-2,2,2c-2.8,3-5.4,12-2,18c5.7,10.2,21.9,8.3,28.1,24.2C454,290.6,434,328.8,392,316c-1.2-0.4-6.9-1.9-4-16c1.4-7,9-10,9-10
					"/>
				<g>
					<defs>
						<path id="SVGID_11_" d="M398,291c0,0,18.3,8.3,30-5c14.9-16.9-9.9-25-15-35c-5.4-10.7,2.5-22.3,5-25s5.8-2,2,2
							c-2.8,3-5.4,12-2,18c5.7,10.2,21.9,8.3,28.1,24.2C454,290.6,434,328.8,392,316c-1.2-0.4-6.9-1.9-4-16c1.4-7,9-10,9-10"/>
					</defs>
					<clipPath id="SVGID_12_">
						<use xlink:href="#SVGID_11_"  style="overflow:visible;"/>
					</clipPath>
					<g id="Clip-6" class="st27">
						<path id="Фигура_1088" class="st28" d="M395,301c-3-2.3-7.4-4.5-12-4c-2.2,0.2-0.1-1.9,3.2-4.1
							c3.6-2.3,8.6-4.7,10.8-3.9c4.2,1.4,7.1,5.8,8,10c0.6,2.4-1.9,3.5-4.7,3.5C398.4,302.6,396.6,302,395,301z M412,292
							c-2.2-2.4,0.6-3.4,4-2s8.1-4,11-9s7.3-5.7,10-2s-2.7,8.1-7,11s-6.3,7.6-10,8c-0.2,0-0.4,0-0.6,0
							C416.1,298,414.1,294.3,412,292z M424,271c-1.2-1.2-4.7-2.6-14-13s-0.2-8.1,5-8s1.3,2.4,3,8c1.7,5.6,3.6,2.4,6,2s5.2,0.4,8,5
							s0.9,4.6-3,7c-0.8,0.6-1.7,1-2.7,1.1C425,273.1,424.8,271.8,424,271z"/>
						<path id="Фигура_1083" class="st29" d="M434,256c0,0-15.5-2.1-19-10s1.2-17.2,5-20s5.3-2.1,5-1S434,256,434,256z"/>
						<path id="Фигура_1082" class="st30" d="M381,296c0,0,3.2,14.7,27,15c17.8,0.2,29-8,34-17s6.3-19.1,5-25s2.7,14.7,1,21
							s-5.8,24.1-16,27s-20.9,8.9-28,8s-20.3-4.8-22-11S381,296,381,296z"/>
						<path id="Фигура_1088-2" class="st31" d="M395,318c-0.4-0.3-0.7-0.6-1-1c-0.7-1.4-3.9-9.1-2-14c2.1-5.5,5.8-10.3,8-11
							s3.8-2.1,0-3s-6.2-0.8-8,1s-5,6.3-6,9s-0.9,6.1-1,8c-0.2,1.7,0.1,3.5,1,5c1.1,2.1,1.2,3.9,3,5s2,1.9,3,2
							C393.1,318.9,394.1,318.5,395,318z"/>
					</g>
				</g>
			</g>
		</g>
	</g>
</g>
</svg>
