<?xml version="1.0" encoding="utf-8"?>
<!-- Generator: Adobe Illustrator 23.0.3, SVG Export Plug-In . SVG Version: 6.00 Build 0)  -->
<svg version="1.1" id="Слой_1" xmlns="http://www.w3.org/2000/svg" xmlns:xlink="http://www.w3.org/1999/xlink" x="0px" y="0px"
	 viewBox="0 0 519 705" style="enable-background:new 0 0 519 705;" xml:space="preserve">
<style type="text/css">
	
		.st0{opacity:0.839;fill:url(#Прямоугольник_скругл._углы_504_копия_17_1_);enable-background:new    ;}
	.st1{fill:#9695B6;}
	.st2{clip-path:url(#SVGID_2_);}
	.st3{opacity:0.361;fill:#C2CFE0;enable-background:new    ;}
	.st4{fill:#C2CFE0;}
	.st5{fill:#5D5988;}
	.st6{fill:#47446C;}
	.st7{fill:#3DC6B7;}
	.st8{fill:#6B6896;}
	.st9{fill:#F3DD25;}
	.st10{clip-path:url(#SVGID_4_);}
	.st11{fill:#A6AAC5;}
	.st12{opacity:0.431;fill:#47446C;enable-background:new    ;}
	.st13{clip-path:url(#SVGID_6_);}
	.st14{fill:#65A8C2;}
	.st15{clip-path:url(#SVGID_8_);}
	.st16{opacity:0.369;fill:#EBF6F2;enable-background:new    ;}
	.st17{fill:#EBF6F2;}
	.st18{fill:#BAD9D9;}
	.st19{opacity:0.51;fill:#335B6A;enable-background:new    ;}
	.st20{opacity:0.549;fill:#335B6A;enable-background:new    ;}
	.st21{opacity:0.549;fill:#EBF6F2;enable-background:new    ;}
	.st22{clip-path:url(#SVGID_10_);}
	.st23{fill:#F7B6A4;}
	.st24{clip-path:url(#SVGID_12_);}
	.st25{opacity:0.361;fill:#FEE9DF;enable-background:new    ;}
	.st26{fill:#FEE9DF;}
	.st27{fill:#D3708D;}
	.st28{fill:#494775;}
	.st29{fill:#23B2EA;}
	.st30{clip-path:url(#SVGID_14_);}
	.st31{fill:#A9AAC8;}
	.st32{clip-path:url(#SVGID_16_);}
	.st33{fill:#696999;}
	.st34{opacity:0.631;enable-background:new    ;}
	.st35{fill:#4286A1;}
	.st36{fill:#BED9CF;}
	.st37{fill:#1C6789;}
	.st38{clip-path:url(#SVGID_18_);}
	.st39{fill:#2A88B2;}
	.st40{fill:#E8F4EE;}
	.st41{clip-path:url(#SVGID_20_);}
	.st42{fill:#383852;}
	.st43{opacity:0.4;enable-background:new    ;}
	.st44{opacity:0.239;fill:#D5F3FF;enable-background:new    ;}
	.st45{clip-path:url(#SVGID_22_);}
	.st46{fill:#FF584E;}
	.st47{fill:#6C6A96;}
	.st48{fill:#7A75B6;}
	.st49{fill:#514F80;}
	.st50{clip-path:url(#SVGID_24_);}
	.st51{fill:#FFDCD2;}
	.st52{clip-path:url(#SVGID_26_);}
	.st53{fill:#3E3B5B;}
	.st54{clip-path:url(#SVGID_28_);}
	.st55{fill:#484568;}
	.st56{fill:#FFC8D4;}
	.st57{fill:#2C2A44;}
	.st58{clip-path:url(#SVGID_30_);}
	.st59{fill:#383655;}
	.st60{fill:#212030;}
</style>
<g>
	<g id="Canvas">
		<g id="Группа_197_копия_2">
			
				<linearGradient id="Прямоугольник_скругл._углы_504_копия_17_1_" gradientUnits="userSpaceOnUse" x1="10.7647" y1="852.235" x2="10.2756" y2="851.7155" gradientTransform="matrix(447.0194 0 0 -262.9842 -4498.1992 224596.5156)">
				<stop  offset="0" style="stop-color:#364D88;stop-opacity:0.58"/>
				<stop  offset="0.647" style="stop-color:#233A73;stop-opacity:0"/>
				<stop  offset="1" style="stop-color:#192F67;stop-opacity:0"/>
			</linearGradient>
			<path id="Прямоугольник_скругл._углы_504_копия_17" class="st0" d="M184.6,418.6l223.3,134.9
				c1.4,0.8,1.4,2,0.2,2.7L229.1,662.4c-1.5,0.7-3.2,0.7-4.7-0.1L1.1,527.4c-1.4-0.8-1.4-2-0.2-2.7l179.1-106.2
				C181.4,417.8,183.2,417.8,184.6,418.6z"/>
			<g id="Фигура_2180_копия_2-2">
				<path id="Фигура_2180_копия_2-3" class="st1" d="M346.2,589c3.2,1.6,7.1,1.3,10.1-0.7c3.9-2.4,70.5-43.1,73.3-44.9
					s6.5-4.5,6.5-11.4v-15c-0.2-10-5.5-19.2-14-24.4c-9-5.4-219.5-130.1-223.5-132.4s-7-1.3-9.7,0.3s-70.9,43.8-73.9,45.5
					s-5.8,4-5.8,9.1v18.2c0,9.9,3.3,17.5,14,23.4S343.5,587.8,346.2,589z"/>
				<g>
					<defs>
						<path id="SVGID_1_" d="M346.2,589c3.2,1.6,7.1,1.3,10.1-0.7c3.9-2.4,70.5-43.1,73.3-44.9s6.5-4.5,6.5-11.4v-15
							c-0.2-10-5.5-19.2-14-24.4c-9-5.4-219.5-130.1-223.5-132.4s-7-1.3-9.7,0.3s-70.9,43.8-73.9,45.5s-5.8,4-5.8,9.1v18.2
							c0,9.9,3.3,17.5,14,23.4S343.5,587.8,346.2,589z"/>
					</defs>
					<clipPath id="SVGID_2_">
						<use xlink:href="#SVGID_1_"  style="overflow:visible;"/>
					</clipPath>
					<g id="Clip" class="st2">
						<path id="Фигура_2183_копия_2" class="st3" d="M353,545.9l78-48l7.2,13.3l-81.9,49L353,545.9z"/>
						<path id="Фигура_2182_копия_2" class="st4" d="M353,545.9l79-48.3c0,0-2.4-3.9-9.8-8.1S202.3,359.6,197.9,357.3
							s-7.4-1.6-9.8-0.3s-74.1,45.7-77.3,47.7s-5.8,8.5-1,8.4s4.7-3.1,13,1S334.4,540.3,340.9,544S353,545.9,353,545.9z"/>
						<path id="Фигура_2181_копия_5" class="st5" d="M345.7,590.1c3.9,2.2,14.3,5.1,14.3-8.5v-17.2
							c0-11.2-3.6-19.6-13-25c-9.8-5.6-217.3-127.9-224.3-131.8s-13.7-0.8-13.7,8.8v18.1c0,3.9,1.5,15.3,10.4,20.9
							S341.8,588,345.7,590.1z"/>
					</g>
				</g>
			</g>
			<path id="Прямоугольник_скругл._углы1029" class="st6" d="M179.7,458.4l105,62.1
				c3.1,1.9,5.7,6.9,5.7,11.4s-2.5,6.5-5.7,4.6l-105-62.1c-3.1-1.9-5.7-6.9-5.7-11.4S176.5,456.5,179.7,458.4z"/>
			<path id="Эллипс_1030" class="st7" d="M181.3,464.3c1.5,1.2,2.4,3,2.4,4.9c0,1.9-1.1,2.9-2.4,2.1c-1.5-1.2-2.4-3-2.4-4.9
				C179,464.5,180,463.6,181.3,464.3z"/>
			<path id="Эллипс_1030_копия" class="st7" d="M188.7,468.7c1.5,1.2,2.4,3,2.4,4.9c0,1.9-1.1,2.9-2.4,2.1
				c-1.5-1.2-2.4-3-2.4-4.9C186.3,468.9,187.4,467.9,188.7,468.7z"/>
			<path id="Эллипс_1030_копия_2" class="st7" d="M283.7,524.9c1.5,1.2,2.4,3,2.4,4.9c0,1.9-1.1,2.9-2.4,2.1
				c-1.5-1.2-2.4-3-2.4-4.9C281.3,525.1,282.4,524.2,283.7,524.9z"/>
			<path id="Прямоугольник_скругл._углы1032" class="st8" d="M196.3,473.2l35.5,21c1.6,1.2,2.5,3,2.5,5
				c0,1.9-1.1,2.8-2.5,2l-35.5-21c-1.6-1.2-2.5-3-2.5-5C193.9,473.3,195,472.4,196.3,473.2z"/>
			<path id="Прямоугольник_скругл._углы1032_копия" class="st9" d="M196.3,473.2l21.3,12.6
				c1.6,1.2,2.5,3,2.5,5c0,1.9-1.1,2.8-2.5,2l-21.3-12.6c-1.6-1.2-2.5-3-2.5-5C193.9,473.3,195,472.4,196.3,473.2z"/>
			<g id="Эллипс_1035-2">
				<path id="Эллипс_1035-3" class="st1" d="M334.2,541.6c7.3,4.2,13.2,15.2,13.2,24.6s-5.9,13.6-13.2,9.4S321,560.4,321,551
					S326.9,537.4,334.2,541.6z"/>
				<g>
					<defs>
						<path id="SVGID_3_" d="M334.2,541.6c7.3,4.2,13.2,15.2,13.2,24.6s-5.9,13.6-13.2,9.4S321,560.4,321,551
							S326.9,537.4,334.2,541.6z"/>
					</defs>
					<clipPath id="SVGID_4_">
						<use xlink:href="#SVGID_3_"  style="overflow:visible;"/>
					</clipPath>
					<g id="Clip-2" class="st10">
						<path id="Фигура_1038-2" class="st4" d="M320,570l22-12l11,7c0,0-1.3,17.2-4,17s-11.1-2.4-14-3S320,570,320,570z"/>
						<path id="Фигура_1037-2" class="st11" d="M321,562l18-9l5,6l-21,11L321,562z"/>
						<path id="Эллипс_1035_копия" class="st6" d="M348.2,533.6c7.3,4.2,13.2,15.2,13.2,24.6s-5.9,13.6-13.2,9.4
							S335,552.4,335,543S340.9,529.4,348.2,533.6z"/>
						<path id="Эллипс_1035_копия_2" class="st12" d="M338.2,538.6c7.3,4.2,13.2,15.2,13.2,24.6s-5.9,13.6-13.2,9.4
							S325,557.4,325,548S330.9,534.4,338.2,538.6z"/>
					</g>
				</g>
			</g>
			<g id="Эллипс_1035_копия_3-2">
				<path id="Эллипс_1035_копия_3-3" class="st1" d="M128.2,417.6c7.3,4.2,13.2,15.2,13.2,24.6s-5.9,13.6-13.2,9.4
					S115,436.4,115,427S120.9,413.4,128.2,417.6z"/>
				<g>
					<defs>
						<path id="SVGID_5_" d="M128.2,417.6c7.3,4.2,13.2,15.2,13.2,24.6s-5.9,13.6-13.2,9.4S115,436.4,115,427
							S120.9,413.4,128.2,417.6z"/>
					</defs>
					<clipPath id="SVGID_6_">
						<use xlink:href="#SVGID_5_"  style="overflow:visible;"/>
					</clipPath>
					<g id="Clip-3" class="st13">
						<path id="Фигура_1038_копия" class="st4" d="M114,446l22-12l11,7c0,0-1.3,17.2-4,17s-11.1-2.4-14-3
							S114,446,114,446z"/>
						<path id="Фигура_1037_копия" class="st11" d="M115,438l18-9l5,6l-21,11L115,438z"/>
						<path id="Эллипс_1035_копия_4" class="st6" d="M142.2,409.6c7.3,4.2,13.2,15.2,13.2,24.6s-5.9,13.6-13.2,9.4
							S129,428.4,129,419S134.9,405.4,142.2,409.6z"/>
						<path id="Эллипс_1035_копия_5" class="st12" d="M132.2,414.6c7.3,4.2,13.2,15.2,13.2,24.6s-5.9,13.6-13.2,9.4
							S119,433.4,119,424S124.9,410.4,132.2,414.6z"/>
					</g>
				</g>
			</g>
			<g id="Группа_196">
				<g id="Фигура_853-2">
					<path id="Фигура_853-3" class="st14" d="M400,337c25.8-16.8,57-33.6,57-85v-24c0-6.3,20-12.3,20-1v28
						c0,47.9-27.1,79.4-71,102C399.9,360.1,386.6,345.7,400,337z"/>
					<g>
						<defs>
							<path id="SVGID_7_" d="M400,337c25.8-16.8,57-33.6,57-85v-24c0-6.3,20-12.3,20-1v28c0,47.9-27.1,79.4-71,102
								C399.9,360.1,386.6,345.7,400,337z"/>
						</defs>
						<clipPath id="SVGID_8_">
							<use xlink:href="#SVGID_7_"  style="overflow:visible;"/>
						</clipPath>
						<g id="Clip-4" class="st15">
							<path id="Фигура_854" class="st16" d="M410,345c0,0,33-23.5,40-31s-3.6-16.3-15-7s-31.6,23.3-35,25S410,345,410,345z"
								/>
							<path id="Фигура_854_копия" class="st16" d="M405,350c0,0,33-23.5,40-31s-3.6-16.3-15-7s-31.6,23.3-35,25
								S405,350,405,350z"/>
							<path id="Фигура_854_копия_2" class="st17" d="M399,356c0,0,33-23.5,40-31s-3.6-16.3-15-7s-31.6,23.3-35,25
								S399,356,399,356z"/>
							<path id="Фигура_853_копия" class="st18" d="M410,343c25.8-16.8,57-33.6,57-85v-36c0-6.3,20-12.3,20-1v40
								c0,47.9-27.1,79.4-71,102C409.9,366.1,396.6,351.7,410,343z"/>
							<path id="Фигура_855_копия_3" class="st19" d="M425.2,346.1c0,0,8.1-7.4,1-15.5s-16.3-0.3-16.3-0.3l-1.3-1.5
								c0,0,10.5-9.3,19.1,0.5s-1.2,18.3-1.2,18.3L425.2,346.1z M456.7,318.5c0,0,5.1-9.7-4.4-14.9s-15.4,5.3-15.4,5.3l-1.8-1
								c0,0,6.7-12.3,18.1-6.1s5.2,17.6,5.2,17.6L456.7,318.5z M454,262h2c0,0,0.2,11,11,11s11-12,11-12h2c0,0,0,14-13,14
								S454,262,454,262z M454,233h2c0,0,0.2,11,11,11s11-12,11-12h2c0,0,0,14-13,14S454,233,454,233z"/>
							<path id="Эллипс_855" class="st20" d="M407,343.5c0-0.3,0.2-0.5,0.5-0.5s0.5,0.2,0.5,0.5s-0.2,0.5-0.5,0.5
								S407,343.8,407,343.5z M412,337.5c0-0.3,0.2-0.5,0.5-0.5s0.5,0.2,0.5,0.5s-0.2,0.5-0.5,0.5S412,337.8,412,337.5z M421,333.5
								c0-0.8,0.7-1.5,1.5-1.5s1.5,0.7,1.5,1.5s-0.7,1.5-1.5,1.5S421,334.3,421,333.5z M448,322.5c0-0.3,0.2-0.5,0.5-0.5
								s0.5,0.2,0.5,0.5s-0.2,0.5-0.5,0.5S448,322.8,448,322.5z M436,322.5c0-0.3,0.2-0.5,0.5-0.5s0.5,0.2,0.5,0.5s-0.2,0.5-0.5,0.5
								S436,322.8,436,322.5z M444,314c0-0.6,0.4-1,1-1s1,0.4,1,1s-0.4,1-1,1S444,314.6,444,314z M450,306.5c0-0.8,0.7-1.5,1.5-1.5
								s1.5,0.7,1.5,1.5s-0.7,1.5-1.5,1.5S450,307.3,450,306.5z M447,301c0-0.6,0.4-1,1-1s1,0.4,1,1s-0.4,1-1,1S447,301.6,447,301z
								 M457,298.5c0-0.8,0.7-1.5,1.5-1.5s1.5,0.7,1.5,1.5s-0.7,1.5-1.5,1.5S457,299.3,457,298.5z M466,284c0-0.6,0.4-1,1-1
								s1,0.4,1,1s-0.4,1-1,1S466,284.6,466,284z M461,280c0-0.6,0.4-1,1-1s1,0.4,1,1s-0.4,1-1,1S461,280.6,461,280z M469,274.5
								c0-1.4,1.1-2.5,2.5-2.5s2.5,1.1,2.5,2.5s-1.1,2.5-2.5,2.5S469,275.9,469,274.5z M461,263c0-0.6,0.4-1,1-1s1,0.4,1,1
								s-0.4,1-1,1S461,263.6,461,263z M473,258c0-0.6,0.4-1,1-1s1,0.4,1,1s-0.4,1-1,1S473,258.6,473,258z M463,245.5
								c0-0.3,0.2-0.5,0.5-0.5s0.5,0.2,0.5,0.5s-0.2,0.5-0.5,0.5S463,245.8,463,245.5z"/>
							<path id="Эллипс_856" class="st21" d="M412,344.5c0-0.3,0.2-0.5,0.5-0.5s0.5,0.2,0.5,0.5s-0.2,0.5-0.5,0.5
								S412,344.8,412,344.5z M418,330.5c0-1.4,1.1-2.5,2.5-2.5s2.5,1.1,2.5,2.5s-1.1,2.5-2.5,2.5S418,331.9,418,330.5z M442,319.5
								c0-0.3,0.2-0.5,0.5-0.5s0.5,0.2,0.5,0.5s-0.2,0.5-0.5,0.5S442,319.8,442,319.5z M435,317.5c0-0.3,0.2-0.5,0.5-0.5
								s0.5,0.2,0.5,0.5s-0.2,0.5-0.5,0.5S435,317.8,435,317.5z M454,309c0-1.1,0.9-2,2-2s2,0.9,2,2s-0.9,2-2,2S454,310.1,454,309z
								 M443,309.5c0-0.8,0.7-1.5,1.5-1.5s1.5,0.7,1.5,1.5s-0.7,1.5-1.5,1.5S443,310.3,443,309.5z M453,297c0-0.6,0.4-1,1-1
								s1,0.4,1,1s-0.4,1-1,1S453,297.6,453,297z M460,289.5c0-0.8,0.7-1.5,1.5-1.5s1.5,0.7,1.5,1.5s-0.7,1.5-1.5,1.5
								S460,290.3,460,289.5z M459,278c0-0.6,0.4-1,1-1s1,0.4,1,1s-0.4,1-1,1S459,278.6,459,278z M462,272c0-0.6,0.4-1,1-1
								s1,0.4,1,1s-0.4,1-1,1S462,272.6,462,272z M466,260c0-1.7,1.3-3,3-3s3,1.3,3,3s-1.3,3-3,3S466,261.7,466,260z M461,253
								c0-0.6,0.4-1,1-1s1,0.4,1,1s-0.4,1-1,1S461,253.6,461,253z"/>
						</g>
					</g>
				</g>
				<g id="Фигура_853_копия_2-2">
					<path id="Фигура_853_копия_2-3" class="st14" d="M182,204c25.8-16.8,57-33.6,57-85V95c0-6.3,20-12.3,20-1v28
						c0,47.9-27.1,79.4-71,102C181.9,227.1,168.6,212.7,182,204z"/>
					<g>
						<defs>
							<path id="SVGID_9_" d="M182,204c25.8-16.8,57-33.6,57-85V95c0-6.3,20-12.3,20-1v28c0,47.9-27.1,79.4-71,102
								C181.9,227.1,168.6,212.7,182,204z"/>
						</defs>
						<clipPath id="SVGID_10_">
							<use xlink:href="#SVGID_9_"  style="overflow:visible;"/>
						</clipPath>
						<g id="Clip-5" class="st22">
							<path id="Фигура_854_копия_3" class="st16" d="M192,212c0,0,33-23.5,40-31s-3.6-16.3-15-7s-31.6,23.3-35,25
								S192,212,192,212z"/>
							<path id="Фигура_854_копия_4" class="st16" d="M187,217c0,0,33-23.5,40-31s-3.6-16.3-15-7s-31.6,23.3-35,25
								S187,217,187,217z"/>
							<path id="Фигура_854_копия_5" class="st17" d="M181,223c0,0,33-23.5,40-31s-3.6-16.3-15-7s-31.6,23.3-35,25
								S181,223,181,223z"/>
							<path id="Фигура_853_копия_3" class="st18" d="M192,210c25.8-16.8,57-33.6,57-85V89c0-6.3,20-12.3,20-1v40
								c0,47.9-27.1,79.4-71,102C191.9,233.1,178.6,218.7,192,210z"/>
							<path id="Фигура_855_копия_4" class="st19" d="M207.2,213.1c0,0,8.1-7.4,1-15.5s-16.3-0.3-16.3-0.3l-1.3-1.5
								c0,0,10.5-9.3,19.1,0.5s-1.2,18.3-1.2,18.3L207.2,213.1z M238.7,185.5c0,0,5.1-9.7-4.4-14.9s-15.4,5.3-15.4,5.3l-1.8-1
								c0,0,6.7-12.3,18.1-6.1s5.2,17.6,5.2,17.6L238.7,185.5z M236,129h2c0,0,0.2,11,11,11s11-12,11-12h2c0,0,0,14-13,14
								S236,129,236,129z M236,100h2c0,0,0.2,11,11,11s11-12,11-12h2c0,0,0,14-13,14S236,100,236,100z"/>
							<path id="Эллипс_855_копия" class="st20" d="M189,210.5c0-0.3,0.2-0.5,0.5-0.5s0.5,0.2,0.5,0.5s-0.2,0.5-0.5,0.5
								S189,210.8,189,210.5z M194,204.5c0-0.3,0.2-0.5,0.5-0.5s0.5,0.2,0.5,0.5s-0.2,0.5-0.5,0.5S194,204.8,194,204.5z M203,200.5
								c0-0.8,0.7-1.5,1.5-1.5s1.5,0.7,1.5,1.5s-0.7,1.5-1.5,1.5S203,201.3,203,200.5z M230,189.5c0-0.3,0.2-0.5,0.5-0.5
								s0.5,0.2,0.5,0.5s-0.2,0.5-0.5,0.5S230,189.8,230,189.5z M218,189.5c0-0.3,0.2-0.5,0.5-0.5s0.5,0.2,0.5,0.5s-0.2,0.5-0.5,0.5
								S218,189.8,218,189.5z M226,181c0-0.6,0.4-1,1-1s1,0.4,1,1s-0.4,1-1,1S226,181.6,226,181z M232,173.5c0-0.8,0.7-1.5,1.5-1.5
								s1.5,0.7,1.5,1.5s-0.7,1.5-1.5,1.5S232,174.3,232,173.5z M229,168c0-0.6,0.4-1,1-1s1,0.4,1,1s-0.4,1-1,1S229,168.6,229,168z
								 M239,165.5c0-0.8,0.7-1.5,1.5-1.5s1.5,0.7,1.5,1.5s-0.7,1.5-1.5,1.5S239,166.3,239,165.5z M248,151c0-0.6,0.4-1,1-1
								s1,0.4,1,1s-0.4,1-1,1S248,151.6,248,151z M243,147c0-0.6,0.4-1,1-1s1,0.4,1,1s-0.4,1-1,1S243,147.6,243,147z M251,141.5
								c0-1.4,1.1-2.5,2.5-2.5s2.5,1.1,2.5,2.5s-1.1,2.5-2.5,2.5S251,142.9,251,141.5z M243,130c0-0.6,0.4-1,1-1s1,0.4,1,1
								s-0.4,1-1,1S243,130.6,243,130z M255,125c0-0.6,0.4-1,1-1c0.6,0,1,0.4,1,1s-0.4,1-1,1C255.4,126,255,125.6,255,125z
								 M245,112.5c0-0.3,0.2-0.5,0.5-0.5s0.5,0.2,0.5,0.5s-0.2,0.5-0.5,0.5S245,112.8,245,112.5z"/>
							<path id="Эллипс_856_копия" class="st21" d="M194,211.5c0-0.3,0.2-0.5,0.5-0.5s0.5,0.2,0.5,0.5s-0.2,0.5-0.5,0.5
								S194,211.8,194,211.5z M200,197.5c0-1.4,1.1-2.5,2.5-2.5s2.5,1.1,2.5,2.5s-1.1,2.5-2.5,2.5S200,198.9,200,197.5z M224,186.5
								c0-0.3,0.2-0.5,0.5-0.5s0.5,0.2,0.5,0.5s-0.2,0.5-0.5,0.5S224,186.8,224,186.5z M217,184.5c0-0.3,0.2-0.5,0.5-0.5
								s0.5,0.2,0.5,0.5s-0.2,0.5-0.5,0.5S217,184.8,217,184.5z M236,176c0-1.1,0.9-2,2-2s2,0.9,2,2s-0.9,2-2,2S236,177.1,236,176z
								 M225,176.5c0-0.8,0.7-1.5,1.5-1.5s1.5,0.7,1.5,1.5s-0.7,1.5-1.5,1.5S225,177.3,225,176.5z M235,164c0-0.6,0.4-1,1-1
								s1,0.4,1,1s-0.4,1-1,1S235,164.6,235,164z M242,156.5c0-0.8,0.7-1.5,1.5-1.5s1.5,0.7,1.5,1.5s-0.7,1.5-1.5,1.5
								S242,157.3,242,156.5z M241,145c0-0.6,0.4-1,1-1s1,0.4,1,1s-0.4,1-1,1S241,145.6,241,145z M244,139c0-0.6,0.4-1,1-1
								s1,0.4,1,1s-0.4,1-1,1S244,139.6,244,139z M248,127c0-1.7,1.3-3,3-3s3,1.3,3,3c0,1.7-1.3,3-3,3l0,0
								C249.3,130,248,128.7,248,127z M243,120c0-0.6,0.4-1,1-1s1,0.4,1,1s-0.4,1-1,1S243,120.6,243,120z"/>
						</g>
					</g>
				</g>
				<g id="Фигура_2180_копия_3-2">
					<path id="Фигура_2180_копия_3-3" class="st23" d="M453.2,247c3.2,1.6,7.1,1.3,10.1-0.7c3.9-2.4,36.5-21.1,39.3-22.9
						s6.5-4.5,6.5-11.4v-46c-0.2-10-5.5-19.2-14-24.4c-9-5.4-219.6-130.1-223.5-132.4s-7-1.3-9.7,0.3s-36.9,21.8-39.9,23.5
						c-3,1.8-5.8,4-5.8,9.1v49.2c0,9.9,3.3,17.5,14,23.4S450.5,245.8,453.2,247z"/>
					<g>
						<defs>
							<path id="SVGID_11_" d="M453.2,247c3.2,1.6,7.1,1.3,10.1-0.7c3.9-2.4,36.5-21.1,39.3-22.9s6.5-4.5,6.5-11.4v-46
								c-0.2-10-5.5-19.2-14-24.4c-9-5.4-219.6-130.1-223.5-132.4s-7-1.3-9.7,0.3s-36.9,21.8-39.9,23.5c-3,1.8-5.8,4-5.8,9.1v49.2
								c0,9.9,3.3,17.5,14,23.4S450.5,245.8,453.2,247z"/>
						</defs>
						<clipPath id="SVGID_12_">
							<use xlink:href="#SVGID_11_"  style="overflow:visible;"/>
						</clipPath>
						<g id="Clip-6" class="st24">
							<path id="Фигура_2183_копия_3" class="st25" d="M460,172.9l44-26l7.2,13.3l-47.9,28L460,172.9z"/>
							<path id="Фигура_2182_копия_3" class="st26" d="M460,172.9l45-26.3c0,0-2.4-3.9-9.8-8.1S275.3,8.6,270.9,6.3
								s-7.4-1.6-9.8-0.3S221,29.8,217.8,31.7s-5.8,8.5-1,8.4s4.7-3.1,13,1S441.4,167.3,447.9,171S460,172.9,460,172.9z"/>
							<path id="Фигура_2181_копия_7" class="st27" d="M452.7,246.1c3.9,2.2,14.3,5.1,14.3-8.5v-46.2
								c0-11.2-3.6-19.6-13-25c-9.8-5.6-217.3-127.8-224.3-131.8S216,33.9,216,43.4v49.1c0,3.9,1.5,15.3,10.4,20.9
								S448.8,244,452.7,246.1z"/>
						</g>
					</g>
				</g>
				<path id="Фигура_2181_копия_8" class="st28" d="M448.9,238.4c3.3,1.8,12.1,4.3,12.1-7.2v-39.1
					c0-9.5-3.1-16.6-11-21.2c-8.2-4.8-212.5-125.2-218.5-128.5S220,41.7,220,49.8v41.6c0,3.3,1.3,13,8.8,17.7
					S445.6,236.6,448.9,238.4z"/>
				<path id="_Users_копия" class="st29" d="M375.6,176.8c-3-2-5.5-4.8-7-8.1c-0.2-0.3-0.2-0.7,0-1l1.8-2.2
					c0.2-0.2,0.5,0,0.9,0.5c1.1,1.7,2.5,3.1,4.2,4.2c0.6,0.4,1.6,1,1.6-0.2c0-2.6-8.1-6.3-8.1-14c0-4.8,3.3-5.5,6.5-3.5
					c2.8,1.8,5.1,4.3,6.5,7.4c0.2,0.5,0.1,0.8,0,1l-1.9,2c-0.2,0.2-0.5-0.1-0.8-0.5c-1.4-1.8-2.1-2.7-3.1-3.3
					c-1.1-0.6-1.3,0-1.3,0.4c0,2.9,8.1,5.7,8.1,14.3c0,3-1.5,4.2-3.5,4.2C378.1,177.9,376.7,177.5,375.6,176.8z M359.6,166.6l-5-3
					c-0.4-0.2-0.6-0.6-0.6-1v-21.6c0-0.4,0.2-0.6,0.6-0.4l4.8,2.9c0.3,0.2,0.6,0.6,0.6,1l0.1,2.9c0.9-1.8,2.4-2.6,4.7-1.2
					c1.1,0.7,1.9,1.6,2.6,2.8c0.3,0.4,0.4,0.8,0.2,1.3l-1.4,3.7c-0.1,0.5-0.5,0.4-0.9,0c-0.5-0.5-1-0.9-1.6-1.3
					c-2.3-1.4-3.6,0-3.6,2.7v10.9c0,0.3-0.1,0.5-0.3,0.5C359.8,166.7,359.7,166.6,359.6,166.6L359.6,166.6z M343.1,157.4
					c-5.8-3.5-9.8-11.2-9.8-17.9s4-9.7,9.3-6.5c5.3,3.2,8.7,10.5,8.7,17c0,2-0.2,2.9-1.4,2.2l-10.5-6.3c0.5,2.4,2.1,4.5,4.2,5.7
					c1,0.7,2.1,0.9,3.3,0.8c0.4-0.1,0.6,0.1,0.8,0.6l2.2,4c0.3,0.5,0.2,0.8-0.1,1c-0.8,0.5-1.7,0.8-2.7,0.8
					C345.7,158.6,344.4,158.2,343.1,157.4L343.1,157.4z M339.3,140.9l6.6,3.9c-0.2-2.2-1.4-4.2-3.2-5.4c-0.5-0.3-1-0.5-1.6-0.5
					C340.3,138.9,339.6,139.5,339.3,140.9L339.3,140.9z M324.1,146c-3-2-5.5-4.8-7-8.1c-0.2-0.3-0.2-0.7,0-1l1.8-2.2
					c0.2-0.2,0.5,0,0.9,0.5c1.1,1.7,2.5,3.1,4.2,4.2c0.6,0.4,1.6,1,1.6-0.2c0-2.6-8.1-6.3-8.1-14c0-4.8,3.3-5.5,6.5-3.5
					c2.8,1.8,5.1,4.3,6.5,7.4c0.2,0.5,0.1,0.8,0,1l-1.9,2c-0.2,0.2-0.5-0.1-0.8-0.5c-1.4-1.8-2.1-2.7-3.1-3.3
					c-1.1-0.6-1.3,0-1.3,0.4c0,2.9,8.1,5.7,8.1,14.3c0,3-1.5,4.2-3.5,4.2C326.6,147.2,325.3,146.8,324.1,146L324.1,146z
					 M304.2,134.1c-5.9-3.5-10.2-10.9-10.2-19.5V95.2c0-0.4,0.2-0.6,0.6-0.4l5.2,3.1c0.4,0.2,0.6,0.6,0.6,1v19.4
					c0,3.5,1.2,6.2,3.8,7.8c2.6,1.6,3.8,0.3,3.8-3.2v-19.4c0-0.4,0.2-0.6,0.6-0.4l5.2,3.1c0.4,0.2,0.6,0.6,0.6,1v19.4
					c0,6.1-2.1,9-5.4,9C307.3,135.6,305.6,135,304.2,134.1z"/>
			</g>
			<g id="Группа_195">
				<g id="Фигура_2180_копия_4-2">
					<path id="Фигура_2180_копия_4-3" class="st1" d="M346.2,414c3.2,1.6,7.1,1.3,10.1-0.7c3.9-2.4,70.5-43.1,73.3-44.9
						s6.5-4.5,6.5-11.4v-65c-0.2-10-5.5-19.2-14-24.4c-9-5.4-219.5-130.1-223.5-132.4s-7-1.3-9.7,0.3s-70.9,43.8-73.9,45.5
						s-5.8,4-5.8,9.1v68.2c0,9.9,3.3,17.5,14,23.4S343.5,412.8,346.2,414z"/>
					<g>
						<defs>
							<path id="SVGID_13_" d="M346.2,414c3.2,1.6,7.1,1.3,10.1-0.7c3.9-2.4,70.5-43.1,73.3-44.9s6.5-4.5,6.5-11.4v-65
								c-0.2-10-5.5-19.2-14-24.4c-9-5.4-219.5-130.1-223.5-132.4s-7-1.3-9.7,0.3s-70.9,43.8-73.9,45.5s-5.8,4-5.8,9.1v68.2
								c0,9.9,3.3,17.5,14,23.4S343.5,412.8,346.2,414z"/>
						</defs>
						<clipPath id="SVGID_14_">
							<use xlink:href="#SVGID_13_"  style="overflow:visible;"/>
						</clipPath>
						<g id="Clip-7" class="st30">
							<path id="Фигура_2183_копия_4" class="st3" d="M353,320.9l78-48l7.2,13.3l-81.9,49L353,320.9z"/>
							<path id="Фигура_2182_копия_4" class="st4" d="M353,320.9l79-48.3c0,0-2.4-3.9-9.8-8.1S202.3,134.6,197.9,132.3
								s-7.4-1.6-9.8-0.3s-74.1,45.7-77.3,47.7s-5.8,8.5-1,8.4s4.7-3.1,13,1S334.4,315.3,340.9,319S353,320.9,353,320.9z"/>
							<path id="Фигура_2181_копия_12" class="st5" d="M345.7,415.1c3.9,2.2,14.3,5.1,14.3-8.5v-67.2
								c0-11.2-3.6-19.6-13-25c-9.8-5.6-217.3-127.9-224.3-131.8s-13.7-0.8-13.7,8.8v68.1c0,3.9,1.5,15.3,10.4,20.9
								S341.8,413,345.7,415.1z"/>
						</g>
					</g>
				</g>
				<g id="Фигура_753_копия_19-2">
					<path id="Фигура_753_копия_19-3" class="st31" d="M384.2,338.9c0.1-0.9,0.4-1.7,1-2.4c0.7-1,10.6-14.1,11.3-15
						s1.4-1.8,2.7-1.5s10.7,2.1,11.3,2.2s1,0.1,1,1.7v28.3c0.1,1.1-0.3,2.1-1,2.9c-1.1,1.3-10.5,13.9-11.3,15s-1.7,1.9-2.7,1.5
						s-10.5-2.1-11.3-2.2s-1-0.3-1-1.7V338.9z"/>
					<g>
						<defs>
							<path id="SVGID_15_" d="M384.2,338.9c0.1-0.9,0.4-1.7,1-2.4c0.7-1,10.6-14.1,11.3-15s1.4-1.8,2.7-1.5s10.7,2.1,11.3,2.2
								s1,0.1,1,1.7v28.3c0.1,1.1-0.3,2.1-1,2.9c-1.1,1.3-10.5,13.9-11.3,15s-1.7,1.9-2.7,1.5s-10.5-2.1-11.3-2.2s-1-0.3-1-1.7
								V338.9z"/>
						</defs>
						<clipPath id="SVGID_16_">
							<use xlink:href="#SVGID_15_"  style="overflow:visible;"/>
						</clipPath>
						<g id="Clip-8" class="st32">
							<path id="Фигура_570_копия_2" class="st33" d="M398.7,372.1l-16.4-8.7l-1-27.4l10.1-12l7.2-9.1l12.5,4.8l4.8,6.3
								l-0.5,39.5L398.7,372.1z"/>
							<path id="Фигура_571_копия_2" class="st34" d="M383.3,367.3l10.6,2.4l5.8-10.1l-15.9-3.9l-5.8,6.7L383.3,367.3z"
								/>
							<path id="Фигура_753_копия_20" class="st35" d="M401.9,363.4c-1.1-0.3-10.5-2.1-11.3-2.2
								c-0.5-0.1-0.7-0.2-0.9-0.5c-0.4-0.1-0.7-0.2-1-0.4c-0.6-0.3-4.9-2.5-5.4-2.8c-0.6-0.4-1-1.1-0.9-1.8c0-0.9-0.5-17.3-0.5-17.8
								c0.1-0.8,0.4-1.6,0.9-2.2c0.6-0.9,8.6-16.5,9.1-17.1c0.9-0.7,2-1,3.1-0.9c0.8,0.2,4.9,0.1,5.9,0.3c0.8,0.1,1.5,0.5,2.2,0.9
								c0.7,0.4,11.1,4.9,11.7,5.2c0.3,0.1,0.5,0.3,0.6,0.6c0.4,0.2,0.7,0.8,0.7,2c0,1.5,1,15.5,1,16.6c0.1,1.3-0.2,2.7-1,3.7
								c-1.1,1.3-10.5,13.8-11.3,14.9c-0.7,0.9-1.4,1.6-2.2,1.6C402.2,363.5,402.1,363.5,401.9,363.4z"/>
							<path id="Фигура_764_копия_5" class="st36" d="M392.7,317.7l10.6,4.6c0.4,0.4,0.8,0.7,1.3,0.9
								c0.4,0.1,11.5,2.2,11.5,2.2l-13.9-7.9c0,0-5.8-0.1-6.7-0.3C394.4,317.3,393.5,317.4,392.7,317.7z"/>
							<path id="Фигура_763_копия_5" class="st37" d="M391,362.2c-0.3-0.2-0.5-0.5-0.4-0.9c0-0.4-1-19.7-1-19.7l-8.2-4.1
								l1,19.6c0,0-0.2,1,1.8,1.8S391.4,362.4,391,362.2z"/>
						</g>
					</g>
				</g>
				<g id="Фигура_753_копия_21-2">
					<path id="Фигура_753_копия_21-3" class="st14" d="M404.8,365.8c-1.1-0.3-10.5-2.1-11.3-2.2
						c-0.5-0.1-0.7-0.2-0.9-0.5c-0.4-0.1-0.7-0.2-1-0.4c-0.6-0.3-4.9-2.5-5.4-2.8c-0.6-0.4-1-1.1-0.9-1.8v-18.8
						c0.1-0.8,0.4-1.6,0.9-2.2c0.6-0.9,11.5-15.1,12-15.7c0.9-0.7,2-1,3.1-0.9c0.8,0.2,9.2,2,10.2,2.2c0.8,0.1,1.5,0.5,2.2,0.9
						c0.7,0.4,4.4,2.5,5,2.8c0.3,0.1,0.5,0.3,0.7,0.6c0.4,0.1,0.6,0.4,0.6,1.6v17.1c0.1,1.3-0.2,2.7-1,3.7
						c-1.1,1.3-10.5,13.8-11.3,14.9c-0.7,0.9-1.4,1.6-2.2,1.6C405.1,365.9,404.9,365.9,404.8,365.8z"/>
					<g>
						<defs>
							<path id="SVGID_17_" d="M404.8,365.8c-1.1-0.3-10.5-2.1-11.3-2.2c-0.5-0.1-0.7-0.2-0.9-0.5c-0.4-0.1-0.7-0.2-1-0.4
								c-0.6-0.3-4.9-2.5-5.4-2.8c-0.6-0.4-1-1.1-0.9-1.8v-18.8c0.1-0.8,0.4-1.6,0.9-2.2c0.6-0.9,11.5-15.1,12-15.7
								c0.9-0.7,2-1,3.1-0.9c0.8,0.2,9.2,2,10.2,2.2c0.8,0.1,1.5,0.5,2.2,0.9c0.7,0.4,4.4,2.5,5,2.8c0.3,0.1,0.5,0.3,0.7,0.6
								c0.4,0.1,0.6,0.4,0.6,1.6v17.1c0.1,1.3-0.2,2.7-1,3.7c-1.1,1.3-10.5,13.8-11.3,14.9c-0.7,0.9-1.4,1.6-2.2,1.6
								C405.1,365.9,404.9,365.9,404.8,365.8z"/>
						</defs>
						<clipPath id="SVGID_18_">
							<use xlink:href="#SVGID_17_"  style="overflow:visible;"/>
						</clipPath>
						<g id="Clip-9" class="st38">
							<path id="Фигура_764_копия_6" class="st17" d="M399,320.6l7.2,4.1c0,0,1.8,0.3,2.2,0.4s11.5,2.2,11.5,2.2l-7.2-5
								c0,0-10.1-2.1-11.1-2.2C400.7,320.2,399.8,320.3,399,320.6z"/>
							<path id="Фигура_763_копия_6" class="st39" d="M393.8,364.6c-0.3-0.2-0.5-0.5-0.4-0.9c0-0.4-0.5-20.6-0.5-20.6
								l-8.2-4.1l0.5,20.6c0,0-0.2,1,1.8,1.8S394.3,364.9,393.8,364.6z"/>
							<path id="Фигура_753_копия_22" class="st40" d="M392.4,343.7c0.1-0.9,0.4-1.7,1-2.4c0.7-1,10.6-14.1,11.3-15
								s1.4-1.8,2.7-1.5s10.7,2.1,11.3,2.2s1,0.1,1,1.7v18.2c0.1,1.1-0.3,2.1-1,2.9c-1.1,1.3-10.5,13.9-11.3,15s-1.7,1.9-2.7,1.5
								s-10.5-2.1-11.3-2.2s-1-0.3-1-1.7V343.7z"/>
							<path id="Фигура_753_копия_23" class="st18" d="M392.9,344.2c0.1-0.9,0.4-1.7,1-2.4c0.7-1,10.6-14.1,11.3-15
								s1.4-1.8,2.7-1.5s10.7,2.1,11.3,2.2s1,0.1,1,1.7v18.2c0.1,1.1-0.3,2.1-1,2.9c-1.1,1.3-10.5,13.9-11.3,15s-1.7,1.9-2.7,1.5
								s-10.5-2.1-11.3-2.2s-1-0.3-1-1.7V344.2z"/>
						</g>
					</g>
				</g>
				<g id="Фигура_753_копия_24-2">
					<path id="Фигура_753_копия_24-3" class="st39" d="M396.8,343.9c0.1-0.6,0.3-1.2,0.7-1.7c0.5-0.7,7.4-9.8,7.9-10.4
						s1-1.3,1.9-1.1s7.5,1.5,7.9,1.6s0.7,0.1,0.7,1.2v12.6c0.1,0.7-0.2,1.5-0.7,2c-0.7,0.9-7.4,9.6-7.9,10.4s-1.2,1.3-1.9,1.1
						s-7.4-1.4-7.9-1.6s-0.7-0.2-0.7-1.2V343.9z"/>
					<g>
						<defs>
							<path id="SVGID_19_" d="M396.8,343.9c0.1-0.6,0.3-1.2,0.7-1.7c0.5-0.7,7.4-9.8,7.9-10.4s1-1.3,1.9-1.1s7.5,1.5,7.9,1.6
								s0.7,0.1,0.7,1.2v12.6c0.1,0.7-0.2,1.5-0.7,2c-0.7,0.9-7.4,9.6-7.9,10.4s-1.2,1.3-1.9,1.1s-7.4-1.4-7.9-1.6s-0.7-0.2-0.7-1.2
								V343.9z"/>
						</defs>
						<clipPath id="SVGID_20_">
							<use xlink:href="#SVGID_19_"  style="overflow:visible;"/>
						</clipPath>
						<g id="Clip-10" class="st41">
							<path id="Фигура_568_копия_2" class="st17" d="M407.8,360.1l-8.2-5.8l-4.3-0.5v6.3l10.1,1L407.8,360.1z"/>
							<path id="Фигура_567_копия_2" class="st14" d="M416.5,347.1l-9.1-3.9l-9.1,12.5l10.6,4.8L416.5,347.1z"/>
							<path id="Фигура_753_копия_25" class="st42" d="M389.6,340.6c0.1-0.6,0.3-1.2,0.7-1.7c0.5-0.7,7.4-9.8,7.9-10.4
								s1-1.3,1.9-1.1s7.5,1.5,7.9,1.6s0.7,0.1,0.7,1.2v12.6c0.1,0.7-0.2,1.5-0.7,2c-0.7,0.9-7.4,9.6-7.9,10.4s-1.2,1.3-1.9,1.1
								s-7.4-1.4-7.9-1.6s-0.7-0.2-0.7-1.2V340.6z"/>
							<path id="Фигура_753_копия_26" class="st43" d="M392.9,342c0.1-0.6,0.3-1.2,0.7-1.7c0.5-0.7,7.4-9.8,7.9-10.4
								s1-1.3,1.9-1.1s7.5,1.5,7.9,1.6s0.7,0.1,0.7,1.2v12.6c0.1,0.7-0.2,1.5-0.7,2c-0.7,0.9-7.4,9.6-7.9,10.4s-1.2,1.3-1.9,1.1
								s-7.4-1.4-7.9-1.6s-0.7-0.2-0.7-1.2V342z"/>
						</g>
					</g>
				</g>
			</g>
			<path id="_Users" class="st44" d="M315.5,240.1c-3.2-1.9-4.3-5.3-0.3-8.2c3.8-2.7,7.8-1.9,10.8-1.1c2.1,0.5,3.8,1.1,4.7,0.5
				c0.9-0.7-0.1-1.3-0.6-1.6c-1.7-0.9-3.6-1.3-5.5-1.4c-0.5-0.1-0.9-0.2-0.8-0.5l0.9-3c0.1-0.3,0.5-0.5,0.8-0.6
				c3.5-0.5,7,0.2,10.1,1.8c3.4,2,5.1,5.9,1.1,8.7c-4.2,3-8.1,2.1-11.1,1.3c-2.1-0.6-3.7-1.2-4.7-0.5c-0.3,0.2-0.8,0.9,0.3,1.5
				c1,0.6,2.1,0.7,4.3,1c0.5,0.1,0.9,0.1,0.8,0.4l-0.8,2.9c-0.1,0.4-0.4,0.6-0.8,0.6c-0.7,0.1-1.4,0.1-2,0.1
				C320.2,242,317.7,241.4,315.5,240.1z M305.1,233.9c-2.3-1.3-2.3-3.2-1.3-5.1l-2.5,1.6c-0.3,0.2-0.8,0.3-1.1,0.1l-4.8-2.8
				c-0.3-0.2-0.3-0.5,0-0.7l17.8-12.7c0.3-0.2,0.8-0.3,1.1-0.1l4.9,2.9c0.3,0.2,0.3,0.5,0,0.7l-9,6.4c-2.2,1.6-2.8,3.6-0.5,5
				c0.6,0.3,1.2,0.6,1.8,0.7c0.6,0.2,0.8,0.4,0.4,0.9l-2.4,3.5c-0.3,0.4-0.7,0.6-1.2,0.5c-0.1,0-0.2,0-0.4,0
				C307.1,234.7,306,234.5,305.1,233.9L305.1,233.9z M283.3,221c-5.2-3.1-4.8-8.6,0.8-12.6s13.8-4.8,19.6-1.4c2.6,1.5,3.8,3.7,3.7,6
				c0,0.4-0.3,0.6-0.8,0.7l-4.3,0.3c-0.5,0.1-0.8,0-0.9-0.4c-0.4-1.1-1.2-2.1-2.3-2.6c-2-1.3-4.6-1.5-6.8-0.6l10.4,6.2
				c1.2,0.7,0.5,1.4-1.1,2.6c-3.3,2.3-7.2,3.6-11.2,3.6C287.9,222.8,285.4,222.2,283.3,221z M288.7,217.2c1.9,1,4.2,0.9,6-0.2
				l-6.5-3.8C286.6,214.8,287.1,216.3,288.7,217.2L288.7,217.2z M264.9,210.1c-3.2-1.9-4.3-5.3-0.3-8.2c3.8-2.7,7.8-1.9,10.8-1.1
				c2.1,0.5,3.8,1.1,4.7,0.5c0.9-0.7-0.1-1.3-0.6-1.6c-1.7-0.9-3.6-1.3-5.5-1.4c-0.5-0.1-0.9-0.2-0.8-0.5l0.9-3
				c0.1-0.3,0.5-0.5,0.8-0.6c3.5-0.5,7,0.2,10.1,1.8c3.4,2,5.1,5.9,1.1,8.7c-4.2,3-8.1,2.1-11.1,1.3c-2.1-0.6-3.7-1.2-4.7-0.5
				c-0.3,0.2-0.8,0.9,0.3,1.5c1,0.6,2.1,0.7,4.3,1c0.5,0.1,0.9,0.1,0.8,0.4l-0.8,2.9c-0.1,0.4-0.4,0.6-0.8,0.6
				c-0.7,0.1-1.4,0.1-2,0.1C269.6,212,267.1,211.3,264.9,210.1L264.9,210.1z M247.1,209.6l-5.2-3.1c-0.3-0.2-0.3-0.5,0-0.7l16-11.4
				c2.9-2,3.4-3.9,0.8-5.5c-2.6-1.5-5.4-1-8.3,1l-16,11.4c-0.3,0.2-0.8,0.3-1.1,0.1l-5.2-3.1c-0.3-0.2-0.3-0.5,0-0.7l16-11.4
				c7.1-5.1,15.3-5.4,21.1-2c5.8,3.5,6.1,8.8-1.1,13.9l-16,11.4c-0.2,0.1-0.4,0.2-0.7,0.2C247.5,209.8,247.3,209.7,247.1,209.6
				L247.1,209.6z"/>
			<g id="_c_копия_2">
				<g id="Фигура_2180-2">
					<path id="Фигура_2180-3" class="st23" d="M325.1,394c3.2,1.6,7,1.3,10-0.7c3.9-2.4,1.6-0.1,4.4-1.8s6.5-4.5,6.5-11.4v-39
						c-0.2-10-5.5-19.2-13.9-24.4c-9-5.5-191.5-114.1-195.5-116.4s-7-1.3-9.7,0.3s-2,0.7-5,2.4s-5.8,4-5.8,9.1v42.3
						c0,9.9,3.3,17.5,13.9,23.5S322.5,392.8,325.1,394z"/>
					<g>
						<defs>
							<path id="SVGID_21_" d="M325.1,394c3.2,1.6,7,1.3,10-0.7c3.9-2.4,1.6-0.1,4.4-1.8s6.5-4.5,6.5-11.4v-39
								c-0.2-10-5.5-19.2-13.9-24.4c-9-5.5-191.5-114.1-195.5-116.4s-7-1.3-9.7,0.3s-2,0.7-5,2.4s-5.8,4-5.8,9.1v42.3
								c0,9.9,3.3,17.5,13.9,23.5S322.5,392.8,325.1,394z"/>
						</defs>
						<clipPath id="SVGID_22_">
							<use xlink:href="#SVGID_21_"  style="overflow:visible;"/>
						</clipPath>
						<g id="Clip-11" class="st45">
							<path id="Фигура_2183" class="st25" d="M332,326.9l9-5l7.2,13.3l-12.9,6L332,326.9z"/>
							<path id="Фигура_2182" class="st26" d="M332,326.9l10-5.3c0,0-2.4-3.9-9.8-8.1S140.3,199.6,135.9,197.3
								s-7.4-1.6-9.8-0.3s-5.1,2.7-8.3,4.7s-5.8,8.5-1,8.4s4.7-3.1,13,1S313.4,321.3,319.9,325S332,326.9,332,326.9z"/>
							<path id="Фигура_2181" class="st27" d="M323.7,394.1c3.9,2.2,14.4,5.1,14.4-8.5v-41.2c0-11.2-3.6-19.6-13.1-25
								c-9.8-5.6-189.2-111.9-196.3-115.8s-13.7-0.8-13.7,8.8v42.1c0,3.9,1.5,15.3,10.4,20.9S319.8,392,323.7,394.1z"/>
						</g>
					</g>
				</g>
				<path id="Фигура_2181_копия" class="st28" d="M321.3,387.2c3.7,2.1,13.7,4.9,13.7-8.1v-32.8
					c0-10.7-3.5-18.7-12.5-23.9c-9.3-5.4-184.7-109.1-191.4-112.8s-13.1-0.7-13.1,8.4v35.6c0,3.7,1.4,14.6,10,20
					S317.6,385.1,321.3,387.2z"/>
				<path id="Эллипс_3848" class="st46" d="M133.4,216.8c1.4,0.9,2.3,2.5,2.4,4.2c0,1.5-1.1,2.1-2.4,1.4
					c-1.4-0.9-2.3-2.5-2.4-4.2C131,216.6,132,216,133.4,216.8z"/>
				<path id="Эллипс_3848_копия_2" class="st47" d="M150.6,232.2c-1.4-0.9-2.3-2.5-2.4-4.2c0-1.5,1.1-2.1,2.4-1.4
					c1.4,0.9,2.3,2.5,2.4,4.2c0,1.1-0.5,1.7-1.3,1.7C151.3,232.5,150.9,232.4,150.6,232.2z M142,227.2c-1.4-0.9-2.3-2.5-2.4-4.2
					c0-1.5,1.1-2.1,2.4-1.4c1.4,0.9,2.3,2.5,2.4,4.2c0,1.1-0.5,1.7-1.3,1.7C142.7,227.6,142.3,227.4,142,227.2L142,227.2z"/>
				<path id="Прямоугольник_скругл._углы_642_копия_9" class="st48" d="M231.4,309l-22.8-13.2
					c-0.7-0.5-1.1-1.3-1.1-2.1c0-0.8,0.5-1.2,1.1-0.9l22.8,13.2c0.7,0.5,1.1,1.3,1.1,2.1c0,0.6-0.3,1-0.7,1
					C231.7,309.1,231.5,309.1,231.4,309z M205.8,308.1l-16.4-9.5c-0.7-0.5-1.1-1.3-1.1-2.1c0-0.8,0.5-1.2,1.1-0.9l16.4,9.5
					c0.7,0.5,1.1,1.3,1.1,2.1c0,0.6-0.3,1-0.7,1C206.1,308.2,205.9,308.2,205.8,308.1L205.8,308.1z M214.3,306l-11.4-6.6
					c-0.7-0.5-1.1-1.3-1.1-2.1c0-0.8,0.5-1.2,1.1-0.9l11.4,6.6c0.7,0.5,1.1,1.3,1.1,2.1c0,0.6-0.3,1-0.7,1
					C214.6,306.2,214.5,306.1,214.3,306z M198,296.5l-8.5-5c-0.7-0.5-1.1-1.3-1.1-2.1c0-0.8,0.5-1.2,1.1-0.9l8.5,5
					c0.7,0.5,1.1,1.3,1.1,2.1c0,0.6-0.3,1-0.7,1C198.2,296.6,198.1,296.6,198,296.5L198,296.5z M220.7,295.8l-10-5.8
					c-0.7-0.5-1.1-1.3-1.1-2.1c0-0.8,0.5-1.2,1.1-0.9l10,5.8c0.7,0.5,1.1,1.3,1.1,2.1c0,0.6-0.3,1-0.7,1
					C221,295.9,220.9,295.8,220.7,295.8L220.7,295.8z M184.4,295.7l-5-2.9c-0.7-0.5-1.1-1.3-1.1-2.1c0-0.8,0.5-1.2,1.1-0.9l5,2.9
					c0.7,0.5,1.1,1.3,1.1,2.1c0,0.6-0.3,1-0.7,1C184.7,295.8,184.6,295.7,184.4,295.7L184.4,295.7z M228.6,293.3l-9.3-5.4
					c-0.7-0.5-1.1-1.3-1.1-2.1c0-0.8,0.5-1.2,1.1-0.9l9.3,5.4c0.7,0.5,1.1,1.3,1.1,2.1c0,0.6-0.3,1-0.7,1
					C228.8,293.4,228.7,293.4,228.6,293.3L228.6,293.3z M203.7,292.8l-7.8-4.6c-0.7-0.5-1.1-1.3-1.1-2.1c0-0.8,0.5-1.2,1.1-0.9
					l7.8,4.6c0.7,0.5,1.1,1.3,1.1,2.1c0,0.6-0.3,1-0.7,1C203.9,293,203.8,292.9,203.7,292.8L203.7,292.8z M174.5,289.9l-16.4-9.5
					c-0.7-0.5-1.1-1.3-1.1-2.1c0-0.8,0.5-1.2,1.1-0.9l16.4,9.5c0.7,0.5,1.1,1.3,1.1,2.1c0,0.6-0.3,1-0.7,1
					C174.7,290,174.6,289.9,174.5,289.9L174.5,289.9z M184.4,288.7l-13.5-7.9c-0.7-0.5-1.1-1.3-1.1-2.1c0-0.8,0.5-1.2,1.1-0.9
					l13.5,7.9c0.7,0.5,1.1,1.3,1.1,2.1c0,0.6-0.3,1-0.7,1C184.7,288.8,184.6,288.7,184.4,288.7L184.4,288.7z M205.8,287.1l-16.4-9.5
					c-0.7-0.5-1.1-1.3-1.1-2.1c0-0.8,0.5-1.2,1.1-0.9l16.4,9.5c0.7,0.5,1.1,1.3,1.1,2.1c0,0.6-0.3,1-0.7,1
					C206.1,287.2,205.9,287.2,205.8,287.1L205.8,287.1z M190.8,285.4l-24.2-14.1c-0.7-0.5-1.1-1.3-1.1-2.1c0-0.8,0.5-1.2,1.1-0.9
					l24.2,14.1c0.7,0.5,1.1,1.3,1.1,2.1c0,0.6-0.3,1-0.7,1C191.1,285.5,191,285.5,190.8,285.4L190.8,285.4z M214.3,285l-11.4-6.6
					c-0.7-0.5-1.1-1.3-1.1-2.1c0-0.8,0.5-1.2,1.1-0.9l11.4,6.6c0.7,0.5,1.1,1.3,1.1,2.1c0,0.6-0.3,1-0.7,1
					C214.6,285.2,214.5,285.1,214.3,285L214.3,285z M165.9,277.9l-23.5-13.7c-0.7-0.5-1.1-1.3-1.1-2.1c0-0.8,0.5-1.2,1.1-0.9
					l23.5,13.7c0.7,0.5,1.1,1.3,1.1,2.1c0,0.6-0.3,1-0.7,1C166.2,278,166.1,278,165.9,277.9z M153.1,277.5l-22.1-12.8
					c-0.7-0.5-1.1-1.3-1.1-2.1c0-0.8,0.5-1.2,1.1-0.9l22.1,12.8c0.7,0.5,1.1,1.3,1.1,2.1c0,0.6-0.3,1-0.7,1
					C153.4,277.6,153.3,277.5,153.1,277.5L153.1,277.5z M198,275.5l-8.5-5c-0.7-0.5-1.1-1.3-1.1-2.1c0-0.8,0.5-1.2,1.1-0.9l8.5,5
					c0.7,0.5,1.1,1.3,1.1,2.1c0,0.6-0.3,1-0.7,1C198.2,275.6,198.1,275.6,198,275.5L198,275.5z M184.4,274.7l-5-2.9
					c-0.7-0.5-1.1-1.3-1.1-2.1c0-0.8,0.5-1.2,1.1-0.9l5,2.9c0.7,0.5,1.1,1.3,1.1,2.1c0,0.6-0.3,1-0.7,1
					C184.7,274.8,184.6,274.7,184.4,274.7L184.4,274.7z M174.5,268.9l-16.4-9.5c-0.7-0.5-1.1-1.3-1.1-2.1c0-0.8,0.5-1.2,1.1-0.9
					l16.4,9.5c0.7,0.5,1.1,1.3,1.1,2.1c0,0.6-0.3,1-0.7,1C174.7,269,174.6,268.9,174.5,268.9L174.5,268.9z M161.7,268.4l-13.5-7.9
					c-0.7-0.5-1.1-1.3-1.1-2.1c0-0.8,0.5-1.2,1.1-0.9l13.5,7.9c0.7,0.5,1.1,1.3,1.1,2.1c0,0.6-0.3,1-0.7,1
					C161.9,268.5,161.8,268.5,161.7,268.4L161.7,268.4z M184.4,267.7l-13.5-7.9c-0.7-0.5-1.1-1.3-1.1-2.1c0-0.8,0.5-1.2,1.1-0.9
					l13.5,7.9c0.7,0.5,1.1,1.3,1.1,2.1c0,0.6-0.3,1-0.7,1C184.7,267.8,184.6,267.7,184.4,267.7L184.4,267.7z M137.5,261.3l-6.4-3.7
					c-0.7-0.5-1.1-1.3-1.1-2.1c0-0.8,0.5-1.2,1.1-0.9l6.4,3.7c0.7,0.5,1.1,1.3,1.1,2.1c0,0.6-0.3,1-0.7,1
					C137.7,261.5,137.6,261.4,137.5,261.3L137.5,261.3z M143.2,257.7l-12.1-7c-0.7-0.5-1.1-1.3-1.1-2.1c0-0.8,0.5-1.2,1.1-0.9
					l12.1,7c0.7,0.5,1.1,1.3,1.1,2.1c0,0.6-0.3,1-0.7,1C143.4,257.8,143.3,257.7,143.2,257.7L143.2,257.7z M165.9,256.9l-23.5-13.7
					c-0.7-0.5-1.1-1.3-1.1-2.1c0-0.8,0.5-1.2,1.1-0.9l23.5,13.7c0.7,0.5,1.1,1.3,1.1,2.1c0,0.6-0.3,1-0.7,1
					C166.2,257,166.1,257,165.9,256.9L165.9,256.9z M153.1,256.5l-22.1-12.8c-0.7-0.5-1.1-1.3-1.1-2.1c0-0.8,0.5-1.2,1.1-0.9
					l22.1,12.8c0.7,0.5,1.1,1.3,1.1,2.1c0,0.6-0.3,1-0.7,1C153.4,256.6,153.3,256.5,153.1,256.5L153.1,256.5z M137.5,240.4l-6.4-3.7
					c-0.7-0.5-1.1-1.3-1.1-2.1c0-0.8,0.5-1.2,1.1-0.9l6.4,3.7c0.7,0.5,1.1,1.3,1.1,2.1c0,0.6-0.3,1-0.7,1
					C137.7,240.5,137.6,240.4,137.5,240.4L137.5,240.4z"/>
				<path id="Прямоугольник_скругл._углы1048" class="st49" d="M263.4,302.3l33.2,19.4
					c4.1,2.4,7.4,8.8,7.4,14.3v20c0,5.5-3.3,8.1-7.4,5.7l-33.2-19.4c-4.1-2.4-7.4-8.8-7.4-14.3v-20
					C256,302.5,259.3,299.9,263.4,302.3z"/>
				<path id="Прямоугольник_скругл._углы1048_копия" class="st48" d="M256,320l47.9,28v8
					c0,5.5-3.3,8.1-7.4,5.7l-33.2-19.4c-4.1-2.4-7.4-8.8-7.4-14.3V320z"/>
			</g>
			<g id="Группа_198">
				<g id="Фигура_1041-2">
					<path id="Фигура_1041-3" class="st23" d="M142.3,604.1c0,0-0.5,4.3-0.5,5.1c0,4.5,5.3,6.1,7.9,6.1c4.2,0,7.9-2.6,9.3-6.5
						c0.9-2.1,5-5.2,7.4-7.4s6.5-6.2,6.5-8.4s1.1-8-3.3-9.3s-7.3,0.3-7.9,0.9S142.3,604.1,142.3,604.1z"/>
					<g>
						<defs>
							<path id="SVGID_23_" d="M142.3,604.1c0,0-0.5,4.3-0.5,5.1c0,4.5,5.3,6.1,7.9,6.1c4.2,0,7.9-2.6,9.3-6.5
								c0.9-2.1,5-5.2,7.4-7.4s6.5-6.2,6.5-8.4s1.1-8-3.3-9.3s-7.3,0.3-7.9,0.9S142.3,604.1,142.3,604.1z"/>
						</defs>
						<clipPath id="SVGID_24_">
							<use xlink:href="#SVGID_23_"  style="overflow:visible;"/>
						</clipPath>
						<g id="Clip-12" class="st50">
							<path id="Фигура_1042" class="st51" d="M142.8,605.5c0,0-0.4,5.1,6.1,5.1s8-1.8,9.3-3.7c2.8-3.7,5.9-7.1,9.3-10.2
								c3.2-2.6,5.1-6.6,5.1-10.7c0-4,2.7,4.9,1.9,7.9s-8.5,11.4-11.6,14s-5,8.3-7.9,8.8s-9.4,1.4-12.1-1.4s-3.8-4.8-2.8-8.4
								s3.3-4.2,3.3-4.2L142.8,605.5z"/>
						</g>
					</g>
				</g>
				<g id="Фигура_1039-2">
					<path id="Фигура_1039-3" class="st23" d="M194.4,605.5v2.8c0,2,1.8,4.7,6.1,4.7s7.4-2,11.6-3.7s12.6-4.7,16.8-7
						s7.7-5.5,7.9-9.3s-1.7-9.3-7.4-9.3c-4.8,0-9.7,0.5-14.4,1.4C212.3,585.6,194.4,605.5,194.4,605.5z"/>
					<g>
						<defs>
							<path id="SVGID_25_" d="M194.4,605.5v2.8c0,2,1.8,4.7,6.1,4.7s7.4-2,11.6-3.7s12.6-4.7,16.8-7s7.7-5.5,7.9-9.3
								s-1.7-9.3-7.4-9.3c-4.8,0-9.7,0.5-14.4,1.4C212.3,585.6,194.4,605.5,194.4,605.5z"/>
						</defs>
						<clipPath id="SVGID_26_">
							<use xlink:href="#SVGID_25_"  style="overflow:visible;"/>
						</clipPath>
						<g id="Clip-13" class="st52">
							<path id="Фигура_1040" class="st51" d="M198.6,607.3c0,0,3.8,2.2,7.4,0.5s9.9-4,14.4-5.6s14.4-5.7,15.8-12.6
								s3.4,2.7,2.3,6.1s-13.9,12.8-19.1,13.5s-15.2,5.6-19.1,6s-12.6-6-8.4-7.9s5.6-1.4,5.6-1.4L198.6,607.3z"/>
						</g>
					</g>
				</g>
				<g id="Фигура_1038-3">
					<path id="Фигура_1038-4" class="st53" d="M207.5,461.2c2.2,5.3,5.3,17,5.1,32.1s1.1,39,1.9,46.5s-2,34.3,3.3,43.8
						c1,1.8,3.1,6.5,0.9,10.2s-10.4,14.2-20.9,14.4c-1.8,0-5.8-0.5-6.1-9.8s-1.7-30-2.8-39.1s-1.2-33.6-4.7-43.3
						c-2.3-6.2-5.2-12.1-8.8-17.7c0.3,3.6,0.3,7.1,0,10.7c-1.3,12-5.8,26-7.4,34.4s-3.1,25.6-2.3,32.1s1.1,14,0.5,16.3
						s-3.5,14.2-9.3,16.8s-13.7,0.9-15.4-5.1s1.7-24.7,1.9-32.6s-1.5-35.4,2.3-54c0.4-2.1-3.9-60.3-4.2-63.8
						S205.3,455.9,207.5,461.2z"/>
					<g>
						<defs>
							<path id="SVGID_27_" d="M207.5,461.2c2.2,5.3,5.3,17,5.1,32.1s1.1,39,1.9,46.5s-2,34.3,3.3,43.8c1,1.8,3.1,6.5,0.9,10.2
								s-10.4,14.2-20.9,14.4c-1.8,0-5.8-0.5-6.1-9.8s-1.7-30-2.8-39.1s-1.2-33.6-4.7-43.3c-2.3-6.2-5.2-12.1-8.8-17.7
								c0.3,3.6,0.3,7.1,0,10.7c-1.3,12-5.8,26-7.4,34.4s-3.1,25.6-2.3,32.1s1.1,14,0.5,16.3s-3.5,14.2-9.3,16.8s-13.7,0.9-15.4-5.1
								s1.7-24.7,1.9-32.6s-1.5-35.4,2.3-54c0.4-2.1-3.9-60.3-4.2-63.8S205.3,455.9,207.5,461.2z"/>
						</defs>
						<clipPath id="SVGID_28_">
							<use xlink:href="#SVGID_27_"  style="overflow:visible;"/>
						</clipPath>
						<g id="Clip-14" class="st54">
							<path id="Фигура_1047" class="st55" d="M160.5,602.7c2.1-5.9,0.7-17.2-0.5-33s7.2-46.6,9.8-55.4s1.9-20.9,1.9-20.9
								l5.1,7.4l2.3,18.2c0,0-9.4,80.1-11.2,84.7c-0.8,2.1-2.8,3.4-5,3.5C160.9,607.1,159.4,605.7,160.5,602.7z M213.5,600.8
								c1.9-2.5-0.2-12.6-2.3-18.2s-3.7-33.8-3.3-42.4s-1.2-34.8-1.4-46.5s-4.7-28.4-4.7-28.4c-0.4-1.2,0-2.5,0.9-3.3
								c1.7-1.3,5.8-3.2,8.8-0.5s4.2,25,5.1,31.2s1.9,85.6,2.3,87s3.1,7,3.3,11.2c0.1,3.6-8.1,10.3-9,10.3
								C213.2,601.3,213.3,601.2,213.5,600.8L213.5,600.8z"/>
						</g>
					</g>
				</g>
				<path id="Фигура_1043" class="st56" d="M226.6,401.2c2.8,0.1,5.6-0.1,8.4-0.5c3.3-0.6,10.1-5.8,12.6-14s11.8-31.3,13.5-34
					s7.6-6.6,6.5-11.6s-2.9-7.9-3.7-8.8c-0.4-0.6-1.2-0.7-1.9-0.5c-0.7-0.9-0.9-2.2-0.5-3.3c0.9-2.4,2.4-5.7,3.3-7.4
					c0.7-1.5-1.2-4.1-2.8-1.4c-1.8,3-4.5,10.4-5.6,11.6s-2.8,1.9-3.3,0.9s0.1-1.9,1.4-2.3s1.3-2.5-0.5-2.3c-1.9,0.2-2.9-0.9-3.7,0.5
					s-1.1,6-1.4,7.9s0.2,2.7,0.5,4.2s1.2,5.1,1.4,6.1c0,1.7-0.5,3.3-1.4,4.7c-0.9,1.4-18.5,30.4-20,32.1S226.6,401.2,226.6,401.2z"
					/>
				<path id="Фигура_1044" class="st56" d="M128.8,393.2c0,0-0.7,5.3-0.9,8.8c-0.2,6.8,0.1,13.7,0.9,20.5
					c1,9.2,0.9,23.4,0.9,25.6s-2,13.1,2.8,17.7s9.4,1.5,9.3-2.3s-0.9-7.9-0.5-10.7s-0.9-7.3,0-23.3c0.6-10.1,2.2-20,4.7-29.8
					L128.8,393.2z"/>
				<g id="Фигура_1037-3">
					<path id="Фигура_1037-4" class="st57" d="M162.3,353.7c-1.6-0.5-10.2-2.7-17.2-0.5s-10.9,4.5-12.6,14s-3.3,18.6-3.7,22.3
						s-0.8,5.8,1.4,7.4c2.2,1.6,3.6,3.5,9.3,5.1c0.8,0.1,1.6,0.1,2.3,0c0,0,0.5,25.7-0.5,34.9s-2.4,13.8,0.5,16.8
						s13.8,14.9,39.6,14.9c5.5,0,19.1-0.6,23.3-3.3s6.7-6,6.1-9.8s-7.8-33.2-8.8-42.8s-0.1-11.9,1.4-12.6s3-0.4,6.5,0
						s10.7,1.9,14.9,1.9s7.9-4.1,7.9-10.2c0-1.7-0.8-7.9-2.8-10.2s-3.8-2.9-7.4-2.8s-14.3,0-20.9-5.1S190.2,363.5,162.3,353.7z"/>
					<g>
						<defs>
							<path id="SVGID_29_" d="M162.3,353.7c-1.6-0.5-10.2-2.7-17.2-0.5s-10.9,4.5-12.6,14s-3.3,18.6-3.7,22.3s-0.8,5.8,1.4,7.4
								c2.2,1.6,3.6,3.5,9.3,5.1c0.8,0.1,1.6,0.1,2.3,0c0,0,0.5,25.7-0.5,34.9s-2.4,13.8,0.5,16.8s13.8,14.9,39.6,14.9
								c5.5,0,19.1-0.6,23.3-3.3s6.7-6,6.1-9.8s-7.8-33.2-8.8-42.8s-0.1-11.9,1.4-12.6s3-0.4,6.5,0s10.7,1.9,14.9,1.9
								s7.9-4.1,7.9-10.2c0-1.7-0.8-7.9-2.8-10.2s-3.8-2.9-7.4-2.8s-14.3,0-20.9-5.1S190.2,363.5,162.3,353.7z"/>
						</defs>
						<clipPath id="SVGID_30_">
							<use xlink:href="#SVGID_29_"  style="overflow:visible;"/>
						</clipPath>
						<g id="Clip-15" class="st58">
							<path id="Фигура_1045" class="st59" d="M207,400.2c0,0-4.3-2.3-8.4-0.5s-4.6,11.6-2.8,19.1s8.3,39.5,8.4,44.2
								s8.9,1.2,9.8-2.8S207,400.2,207,400.2z"/>
						</g>
					</g>
				</g>
				<path id="Фигура_1036" class="st56" d="M155.8,354.6c-2.1-0.1-2.4,0.9-0.9,2.3s16.9,13.5,27.5,13.5c3.4,0,6.9-0.1,9.8-2.3
					c0.5-0.4,0.9-0.6-0.9-1.9c-4-3.1-6.4-7.9-6.5-13c0-1.4-0.5-2.1,0.9-1.9c2.6,0,4.9-1.4,6.1-3.7c1.3-2.8,3-6.6,3.3-7.4
					c0.4-1.2,0.6-2.5,0.5-3.7c-0.2-1.3-0.6-4.1,0-5.6c0.8-1.8,0.9-3.7,0.5-5.6c-0.7-2.2-2-4.1-3.7-5.6c-1.8-1.3-30.2,17.9-29.8,22.3
					s0.6,8.8-0.5,10.2S158,354.7,155.8,354.6z"/>
				<path id="Фигура_1035" class="st60" d="M154.9,334.6c0-9.8,6.4-19.8,13.5-23.3s10.4-3.3,14.9-3.3s12.6,3.4,12.6,8.8
					c0,4-1.9,4.7-1.9,4.7s-0.2,5,0,7s-1,3.4-1.4,4.7s-0.7,7-0.9,8.8s-2.1,2-1.9,0.9c0.5-2.3-0.9-3-4.2-0.5
					c-2.6,2-6.9,11.6-12.1,11.6C166.1,354.1,154.9,349.5,154.9,334.6z"/>
			</g>
		</g>
	</g>
</g>
</svg>
