<?xml version="1.0" encoding="utf-8"?>
<!-- Generator: Adobe Illustrator 23.0.3, SVG Export Plug-In . SVG Version: 6.00 Build 0)  -->
<svg version="1.1" id="Слой_1" xmlns="http://www.w3.org/2000/svg" xmlns:xlink="http://www.w3.org/1999/xlink" x="0px" y="0px"
	 viewBox="0 0 426 481" style="enable-background:new 0 0 426 481;" xml:space="preserve">
<style type="text/css">
	
		.st0{opacity:0.839;fill:url(#Прямоугольник_скругл._углы_504_копия_18_1_);enable-background:new    ;}
	
		.st1{opacity:0.839;fill:url(#Прямоугольник_скругл._углы_504_копия_19_1_);enable-background:new    ;}
	
		.st2{opacity:0.839;fill:url(#Прямоугольник_скругл._углы_504_копия_20_1_);enable-background:new    ;}
	
		.st3{opacity:0.839;fill:url(#Прямоугольник_скругл._углы_504_копия_20-2_1_);enable-background:new    ;}
	.st4{fill:#A7A6C0;}
	.st5{clip-path:url(#SVGID_2_);}
	.st6{opacity:0.361;fill:#C2CFE0;enable-background:new    ;}
	.st7{fill:#C2CFE0;}
	.st8{fill:#5D5988;}
	.st9{clip-path:url(#SVGID_4_);}
	.st10{clip-path:url(#SVGID_6_);}
	.st11{fill:#C4D0E1;}
	.st12{fill:#9795B6;}
	.st13{clip-path:url(#SVGID_8_);}
	.st14{fill:#B1B5CC;}
	.st15{fill:#534F7D;}
	.st16{fill:#CD8C7C;}
	.st17{clip-path:url(#SVGID_10_);}
	.st18{fill:#F7B7A7;}
	.st19{fill:#FECFC2;}
	.st20{fill:#FBF0DD;}
	.st21{fill:#D4718E;}
	.st22{clip-path:url(#SVGID_12_);}
	.st23{fill:#2E2B48;}
	.st24{opacity:0.349;fill:#D57390;enable-background:new    ;}
	.st25{clip-path:url(#SVGID_14_);}
	.st26{clip-path:url(#SVGID_16_);}
	.st27{clip-path:url(#SVGID_18_);}
	.st28{clip-path:url(#SVGID_20_);}
	.st29{clip-path:url(#SVGID_22_);}
	.st30{clip-path:url(#SVGID_24_);}
	.st31{clip-path:url(#SVGID_26_);}
	.st32{clip-path:url(#SVGID_28_);}
	.st33{clip-path:url(#SVGID_30_);}
	.st34{clip-path:url(#SVGID_32_);}
	.st35{fill:#F7B6A4;}
	.st36{clip-path:url(#SVGID_34_);}
	.st37{opacity:0.361;fill:#FEE9DF;enable-background:new    ;}
	.st38{fill:#FEE9DF;}
	.st39{fill:#D3708D;}
	.st40{fill:#494775;}
	.st41{fill:#FF584E;}
	.st42{fill:#6C6A96;}
	.st43{fill:#A9AAC8;}
	.st44{clip-path:url(#SVGID_36_);}
	.st45{fill:#696999;}
	.st46{opacity:0.631;enable-background:new    ;}
	.st47{fill:#4286A1;}
	.st48{fill:#BED9CF;}
	.st49{fill:#1C6789;}
	.st50{fill:#65A8C2;}
	.st51{clip-path:url(#SVGID_38_);}
	.st52{fill:#EBF6F2;}
	.st53{fill:#2A88B2;}
	.st54{fill:#E8F4EE;}
	.st55{fill:#BAD9D9;}
	.st56{clip-path:url(#SVGID_40_);}
	.st57{fill:#383852;}
	.st58{opacity:0.4;enable-background:new    ;}
	.st59{clip-path:url(#SVGID_42_);}
	.st60{clip-path:url(#SVGID_44_);}
	.st61{clip-path:url(#SVGID_46_);}
	.st62{clip-path:url(#SVGID_48_);}
	.st63{clip-path:url(#SVGID_50_);}
	.st64{clip-path:url(#SVGID_52_);}
	.st65{fill:#21B3FF;}
	.st66{fill:#7572B6;}
	
		.st67{opacity:0.839;fill:url(#Прямоугольник_скругл._углы_504_копия_17_1_);enable-background:new    ;}
	.st68{fill:#9392B6;}
	.st69{clip-path:url(#SVGID_54_);}
	.st70{fill:#565489;}
	.st71{fill:#7E7CA8;}
	.st72{opacity:0.651;fill:#7E7CA8;enable-background:new    ;}
	.st73{fill:#DCE7F4;}
	.st74{clip-path:url(#SVGID_56_);}
	.st75{fill:#B8B7DA;}
	.st76{clip-path:url(#SVGID_58_);}
	.st77{fill:#9C9AC2;}
	.st78{fill:#A4A3CA;}
	.st79{fill:#8B89BE;}
	.st80{clip-path:url(#SVGID_60_);}
	.st81{fill:#6C669D;}
	.st82{opacity:0.588;enable-background:new    ;}
	.st83{clip-path:url(#SVGID_62_);}
	.st84{fill:#8987B3;}
	.st85{fill:#E47890;}
	.st86{fill:#F196AA;}
	.st87{fill:#F3A8B9;}
	.st88{fill:#F7CFDA;}
	.st89{fill:#E2EAF5;}
	.st90{opacity:0.46;fill:#FFBB89;}
	.st91{opacity:0.46;fill:#FDB081;}
	.st92{opacity:0.46;fill:#F0996F;}
	.st93{opacity:0.46;fill:#D78465;}
	.st94{fill:#FFBB89;}
	.st95{fill:#FDB081;}
	.st96{fill:#F0996F;}
	.st97{fill:#D78465;}
	.st98{fill:#ED9E82;}
	.st99{clip-path:url(#SVGID_64_);}
	.st100{fill:#DA7865;}
	.st101{fill:#FFD562;}
	.st102{opacity:0.459;fill:#E97C67;enable-background:new    ;}
	.st103{opacity:0.471;enable-background:new    ;}
	.st104{clip-path:url(#SVGID_66_);}
	.st105{clip-path:url(#SVGID_68_);}
	.st106{fill:#4E4B76;}
	.st107{fill:#A6AAC5;}
	.st108{opacity:0.349;fill:#37355A;enable-background:new    ;}
	.st109{fill:#BA5B77;}
	.st110{clip-path:url(#SVGID_70_);}
	.st111{fill:#D6758F;}
	.st112{fill:#F9AFC3;}
	.st113{fill:#BF5F7B;}
	.st114{clip-path:url(#SVGID_72_);}
	.st115{fill:#D5748F;}
	.st116{opacity:0.78;fill:#F4AD50;enable-background:new    ;}
	.st117{clip-path:url(#SVGID_74_);}
	.st118{opacity:0.239;fill:#A06B46;enable-background:new    ;}
	.st119{opacity:0.4;fill:#A06B46;enable-background:new    ;}
	.st120{fill:#A06B46;}
	.st121{fill:#FFDF64;}
	.st122{opacity:0.51;fill:#632413;enable-background:new    ;}
	.st123{opacity:0.478;fill:#6E3224;enable-background:new    ;}
	.st124{opacity:0.478;fill:#FFF5CF;enable-background:new    ;}
</style>
<g>
	<g id="Canvas">
		<g id="Deploy">
			
				<linearGradient id="Прямоугольник_скругл._углы_504_копия_18_1_" gradientUnits="userSpaceOnUse" x1="-35.0779" y1="738.5115" x2="-35.4959" y2="737.5115" gradientTransform="matrix(168.0104 0 0 -103.9893 6241.3691 77185.0625)">
				<stop  offset="0" style="stop-color:#364D88;stop-opacity:0.58"/>
				<stop  offset="0.1124" style="stop-color:#2B427C;stop-opacity:0.4792"/>
				<stop  offset="0.2684" style="stop-color:#253C75;stop-opacity:0.3394"/>
				<stop  offset="0.647" style="stop-color:#233A73;stop-opacity:0"/>
				<stop  offset="1" style="stop-color:#192F67;stop-opacity:0"/>
			</linearGradient>
			<path id="Прямоугольник_скругл._углы_504_копия_18" class="st0" d="M384.5,388l11.9,6.8
				c0.5,0.3,0.5,0.7,0.1,1l-153.6,95.8c-0.5,0.3-1.2,0.3-1.7,0l-11.9-6.8c-0.5-0.3-0.5-0.7-0.1-1L382.8,388
				C383.3,387.7,384,387.7,384.5,388z"/>
			
				<linearGradient id="Прямоугольник_скругл._углы_504_копия_19_1_" gradientUnits="userSpaceOnUse" x1="-35.0805" y1="738.5563" x2="-35.4985" y2="737.5563" gradientTransform="matrix(171.0104 0 0 -105.9888 6330.3691 78649.6797)">
				<stop  offset="0.117" style="stop-color:#364D88;stop-opacity:0.58"/>
				<stop  offset="0.2125" style="stop-color:#2C437C;stop-opacity:0.4755"/>
				<stop  offset="0.3483" style="stop-color:#253C75;stop-opacity:0.3269"/>
				<stop  offset="0.647" style="stop-color:#233A73;stop-opacity:0"/>
				<stop  offset="1" style="stop-color:#192F67;stop-opacity:0"/>
			</linearGradient>
			<path id="Прямоугольник_скругл._углы_504_копия_19" class="st1" d="M365.7,371.2l14.9,8.8
				c0.5,0.3,0.5,0.7,0.1,1L227,476.8c-0.5,0.3-1.2,0.3-1.7,0l-14.9-8.8c-0.5-0.3-0.5-0.7-0.1-1L364,371.2
				C364.5,370.9,365.1,370.9,365.7,371.2z"/>
			
				<linearGradient id="Прямоугольник_скругл._углы_504_копия_20_1_" gradientUnits="userSpaceOnUse" x1="-35.0805" y1="738.5563" x2="-35.4985" y2="737.5563" gradientTransform="matrix(171.0104 0 0 -105.9893 6119.3696 78529.0625)">
				<stop  offset="0" style="stop-color:#364D88;stop-opacity:0.58"/>
				<stop  offset="0.5192" style="stop-color:#233A73;stop-opacity:0"/>
				<stop  offset="1" style="stop-color:#192F67;stop-opacity:0"/>
			</linearGradient>
			<path id="Прямоугольник_скругл._углы_504_копия_20" class="st2" d="M154.7,250.2l14.9,8.8
				c0.5,0.3,0.5,0.7,0.1,1L16,355.8c-0.5,0.3-1.2,0.3-1.7,0L-0.6,347c-0.5-0.3-0.5-0.7-0.1-1L153,250.2
				C153.5,249.9,154.1,249.9,154.7,250.2z"/>
			
				<linearGradient id="Прямоугольник_скругл._углы_504_копия_20-2_1_" gradientUnits="userSpaceOnUse" x1="-35.0767" y1="738.5093" x2="-35.4947" y2="737.5093" gradientTransform="matrix(168.0104 0 0 -103.9883 5988.3696 77035.3516)">
				<stop  offset="0" style="stop-color:#364D88;stop-opacity:0.58"/>
				<stop  offset="0.4673" style="stop-color:#233A73;stop-opacity:0"/>
				<stop  offset="1" style="stop-color:#192F67;stop-opacity:0"/>
			</linearGradient>
			<path id="Прямоугольник_скругл._углы_504_копия_20-2" class="st3" d="M131.7,239.2l11.9,6.8
				c0.5,0.3,0.5,0.7,0.1,1L-10,342.8c-0.5,0.3-1.2,0.3-1.7,0l-11.9-6.8c-0.5-0.3-0.5-0.7-0.1-1L130,239.2
				C130.5,238.9,131.1,238.9,131.7,239.2z"/>
			<g id="Группа_200">
				<g id="_2">
					<g id="Группа_195_копия_4">
						<g id="Фигура_2180_копия_2-7">
							<path id="Фигура_2180_копия_2-8" class="st4" d="M135.3,249.7c1.1,0.5,2.3,0.4,3.3-0.2c1.3-0.8,23.3-14.4,24.2-15
								c1.4-0.7,2.2-2.2,2.1-3.8V65.1c-0.1-3.3-1.8-6.4-4.6-8.2c-3-1.8-5.4-2.7-6.8-3.5c-1-0.6-2.3-0.6-3.2,0.1
								c-0.9,0.5-23.5,14.6-24.5,15.2c-1.2,0.5-2,1.7-1.9,3v166.6c-0.2,3.3,1.6,6.4,4.6,7.8C130.8,247.5,133,248.6,135.3,249.7z"/>
							<g>
								<defs>
									<path id="SVGID_1_" d="M135.3,249.7c1.1,0.5,2.3,0.4,3.3-0.2c1.3-0.8,23.3-14.4,24.2-15c1.4-0.7,2.2-2.2,2.1-3.8V65.1
										c-0.1-3.3-1.8-6.4-4.6-8.2c-3-1.8-5.4-2.7-6.8-3.5c-1-0.6-2.3-0.6-3.2,0.1c-0.9,0.5-23.5,14.6-24.5,15.2
										c-1.2,0.5-2,1.7-1.9,3v166.6c-0.2,3.3,1.6,6.4,4.6,7.8C130.8,247.5,133,248.6,135.3,249.7z"/>
								</defs>
								<clipPath id="SVGID_2_">
									<use xlink:href="#SVGID_1_"  style="overflow:visible;"/>
								</clipPath>
								<g id="Clip" class="st5">
									<path id="Фигура_2183_копия_2" class="st6" d="M138,74.2L163.6,58l2.4,4.5L139.1,79L138,74.2z"/>
									<path id="Фигура_2182_копия_2" class="st7" d="M137.5,74.6l26.4-16.1c-0.9-1.1-2-2.1-3.3-2.7
										c-2.5-1.4-5.6-2.6-7.1-3.4c-1-0.6-2.2-0.7-3.3-0.1c-0.8,0.4-24.8,15.3-25.8,15.9s-1.9,2.8-0.3,2.8s1.6-1,4.3,0.3
										c2.8,1.3,2.9,1.4,5,2.6C134.7,74.7,136.1,74.9,137.5,74.6z"/>
									<path id="Фигура_2181_копия_5" class="st8" d="M135.2,250.4c1.3,0.7,4.8,1.7,4.8-2.8V81.1
										c0-3.7-1.2-6.5-4.3-8.3c-3.2-1.9-4.7-1.9-7.1-3.3s-4.6-0.3-4.6,2.9v167.4c0,1.3,0.5,5.1,3.5,7
										C130.5,248.7,133.9,249.6,135.2,250.4z"/>
								</g>
							</g>
						</g>
					</g>
					<g id="Группа_195_копия_3">
						<g id="Фигура_2180_копия_2-9">
							<path id="Фигура_2180_копия_2-10" class="st4" d="M159.3,264.7c1.1,0.5,2.3,0.4,3.3-0.2
								c1.3-0.8,23.3-14.4,24.2-15c1.4-0.7,2.2-2.2,2.1-3.8V56.1c-0.1-3.3-1.8-6.4-4.6-8.2c-3-1.8-9.4-5.7-10.8-6.5
								c-1-0.6-2.3-0.6-3.2,0.1c-0.9,0.5-23.5,14.6-24.5,15.2c-1.2,0.5-2,1.7-1.9,3v190.6c-0.2,3.3,1.6,6.4,4.6,7.8
								C152.2,260.3,158.4,264.3,159.3,264.7z"/>
							<g>
								<defs>
									<path id="SVGID_3_" d="M159.3,264.7c1.1,0.5,2.3,0.4,3.3-0.2c1.3-0.8,23.3-14.4,24.2-15c1.4-0.7,2.2-2.2,2.1-3.8V56.1
										c-0.1-3.3-1.8-6.4-4.6-8.2c-3-1.8-9.4-5.7-10.8-6.5c-1-0.6-2.3-0.6-3.2,0.1c-0.9,0.5-23.5,14.6-24.5,15.2
										c-1.2,0.5-2,1.7-1.9,3v190.6c-0.2,3.3,1.6,6.4,4.6,7.8C152.2,260.3,158.4,264.3,159.3,264.7z"/>
								</defs>
								<clipPath id="SVGID_4_">
									<use xlink:href="#SVGID_3_"  style="overflow:visible;"/>
								</clipPath>
								<g id="Clip-2" class="st9">
									<path id="Фигура_2183_копия_2-2" class="st6" d="M162,66.2L187.6,50l2.4,4.5L163.1,71L162,66.2z"/>
									<path id="Фигура_2182_копия_2-2" class="st7" d="M161.5,65.6l26.4-16.1c-0.9-1.1-2-2.1-3.3-2.7
										c-2.5-1.4-9.6-5.6-11.1-6.4c-1-0.6-2.2-0.7-3.3-0.1c-0.8,0.4-24.8,15.3-25.8,15.9s-1.9,2.8-0.3,2.8s1.6-1,4.3,0.3
										s6.9,4.4,9,5.6C158.7,65.7,160.1,65.9,161.5,65.6z"/>
									<path id="Фигура_2181_копия_5-2" class="st8" d="M159.2,265.4c1.3,0.7,4.8,1.7,4.8-2.8V72.1
										c0-3.7-1.2-6.5-4.3-8.3c-3.2-1.9-8.7-5-11.1-6.3s-4.6-0.3-4.6,2.9v191.4c0,1.3,0.5,5.1,3.5,7S157.9,264.6,159.2,265.4z"/>
								</g>
							</g>
						</g>
					</g>
					<g id="Группа_203">
						<g id="Фигура_1826-2">
							<path id="Фигура_1826-3" class="st8" d="M146,61c-1.3-1.1-2.3-2.5-3-4c-1.1-2.1-6.7-11.3-7-12c-0.5-0.9-0.9-1.9-1-3V23
								c0-1.3-0.1-2.8,2-4s19.9-11.4,21-12c1.5-1,3.5-1,5,0c1.9,1.3,23,13.4,24,14c1.4,0.9,2.1,2.4,2,4v35c0,0-20.5,9.4-22,10
								s-4,0.2-6-1S146.7,61.4,146,61z"/>
							<g>
								<defs>
									<path id="SVGID_5_" d="M146,61c-1.3-1.1-2.3-2.5-3-4c-1.1-2.1-6.7-11.3-7-12c-0.5-0.9-0.9-1.9-1-3V23c0-1.3-0.1-2.8,2-4
										s19.9-11.4,21-12c1.5-1,3.5-1,5,0c1.9,1.3,23,13.4,24,14c1.4,0.9,2.1,2.4,2,4v35c0,0-20.5,9.4-22,10s-4,0.2-6-1
										S146.7,61.4,146,61z"/>
								</defs>
								<clipPath id="SVGID_6_">
									<use xlink:href="#SVGID_5_"  style="overflow:visible;"/>
								</clipPath>
								<g id="Clip-3" class="st10">
									<path id="Фигура_1828" class="st11" d="M165,37l-32-18l28-17l33,19l-3,5L165,37z"/>
									<path id="Фигура_1827" class="st4" d="M164,71V40c0.2-2,1.3-3.9,3-5c2.1-1.2,24-14,24-14l-1,12v37L164,71z"/>
								</g>
							</g>
						</g>
					</g>
					<g id="Группа_195_копия_2">
						<g id="Фигура_2180_копия_2-11">
							<path id="Фигура_2180_копия_2-12" class="st12" d="M205.2,88.8c0.7,0.3,1.6,0.3,2.2-0.1
								c0.9-0.5,15.5-9.7,16.2-10.1c0.9-0.5,1.5-1.5,1.4-2.6V51.1c0-2.2-1.2-4.3-3.1-5.5c-2-1.2-34.3-18.8-35.2-19.3
								c-0.7-0.4-1.5-0.4-2.1,0.1c-0.6,0.4-15.6,8.8-16.3,9.2c-0.8,0.4-1.3,1.2-1.3,2v25.6c-0.1,2.2,1.1,4.3,3.1,5.3
								C172.4,69.8,204.6,88.5,205.2,88.8z"/>
							<g>
								<defs>
									<path id="SVGID_7_" d="M205.2,88.8c0.7,0.3,1.6,0.3,2.2-0.1c0.9-0.5,15.5-9.7,16.2-10.1c0.9-0.5,1.5-1.5,1.4-2.6V51.1
										c0-2.2-1.2-4.3-3.1-5.5c-2-1.2-34.3-18.8-35.2-19.3c-0.7-0.4-1.5-0.4-2.1,0.1c-0.6,0.4-15.6,8.8-16.3,9.2
										c-0.8,0.4-1.3,1.2-1.3,2v25.6c-0.1,2.2,1.1,4.3,3.1,5.3C172.4,69.8,204.6,88.5,205.2,88.8z"/>
								</defs>
								<clipPath id="SVGID_8_">
									<use xlink:href="#SVGID_7_"  style="overflow:visible;"/>
								</clipPath>
								<g id="Clip-4" class="st13">
									<path id="Фигура_1823" class="st14" d="M207,61l20-12l-2-4l-23,13L207,61z"/>
									<path id="Фигура_2182_копия_2-3" class="st11" d="M206.3,56.9L224,46.3c-0.6-0.8-1.3-1.4-2.2-1.8
										c-1.6-0.9-34.5-18.7-35.5-19.2c-0.7-0.4-1.5-0.4-2.2-0.1c-0.5,0.3-16.6,9-17.4,9.4s-1.3,1.9-0.2,1.8s1.1-0.7,2.9,0.2
										s32.6,18.9,34.1,19.7C204.4,56.9,205.4,57.1,206.3,56.9z"/>
									<path id="Фигура_2181_копия_5-3" class="st15" d="M204.9,89.6c0.8,0.5,3.1,1.1,3.1-1.9V62.1
										c0-2.5-0.8-4.3-2.8-5.6c-2.1-1.2-33.7-19.3-35.2-20.2s-3-0.2-3,1.9v26.2c0,0.9,0.3,3.4,2.3,4.7S204.1,89.1,204.9,89.6z"/>
								</g>
							</g>
						</g>
					</g>
					<g id="_1">
						<g id="Эллипс_4_копия-8">
							<path id="Эллипс_4_копия-9" class="st16" d="M195.1,56.9c-0.6,0-1.2,0.1-1.7,0.3c0,0-7.6,4.4-7.7,4.4
								c-2.4,1.2-3.2,4.9-1.7,9.4c1.8,5.5,6.3,10,10.1,10c0.9,0.1,1.7-0.1,2.5-0.6c0,0,7.6-4.6,7.6-4.6c1.9-1.5,2.4-4.9,1-8.9
								C203.4,61.5,198.9,57,195.1,56.9z"/>
							<g>
								<defs>
									<path id="SVGID_9_" d="M195.1,56.9c-0.6,0-1.2,0.1-1.7,0.3c0,0-7.6,4.4-7.7,4.4c-2.4,1.2-3.2,4.9-1.7,9.4
										c1.8,5.5,6.3,10,10.1,10c0.9,0.1,1.7-0.1,2.5-0.6c0,0,7.6-4.6,7.6-4.6c1.9-1.5,2.4-4.9,1-8.9
										C203.4,61.5,198.9,57,195.1,56.9z"/>
								</defs>
								<clipPath id="SVGID_10_">
									<use xlink:href="#SVGID_9_"  style="overflow:visible;"/>
								</clipPath>
								<g id="Clip-5" class="st17">
									<path id="Фигура_1408" class="st18" d="M196.1,71.4l10-5.7l0.5,6.9l-10,5.8L196.1,71.4z"/>
									<path id="Фигура_1408_копия" class="st19" d="M187.7,68l15.2-8.2l3,6.9l-10,5.8L187.7,68z"/>
									<path id="Фигура_1408-2" class="st20" d="M184.5,61.8c0,0-1.1,1-0.9,1.4c0.4,0.6,1,1,1.6,1.4
										c0.3,0.1,7.9,2.1,7.9,2.1l10.9-6.3c0,0-5.1-4.4-6.8-4.6s-3.9-0.2-4.8,0.4S184.5,61.8,184.5,61.8z"/>
								</g>
							</g>
						</g>
						<path id="Эллипс_4" class="st21" d="M187.4,61.4c-3.8-0.1-5.4,4.3-3.6,9.7s6.3,10,10.1,10s5.4-4.3,3.6-9.7
							S191.2,61.4,187.4,61.4z"/>
						<g id="Эллипс_4_копия_5-6">
							<path id="Эллипс_4_копия_5-7" class="st18" d="M188.2,64.5c-2.7-0.1-3.8,3.1-2.6,7s4.5,7.2,7.2,7.2s3.8-3.1,2.6-7
								S190.9,64.6,188.2,64.5z"/>
							<g>
								<defs>
									<path id="SVGID_11_" d="M188.2,64.5c-2.7-0.1-3.8,3.1-2.6,7s4.5,7.2,7.2,7.2s3.8-3.1,2.6-7S190.9,64.6,188.2,64.5z"/>
								</defs>
								<clipPath id="SVGID_12_">
									<use xlink:href="#SVGID_11_"  style="overflow:visible;"/>
								</clipPath>
								<g id="Clip-6" class="st22">
									<path id="Фигура_1408_копия_2" class="st18" d="M180.8,69.7l10-5.7l0.5,6.9l-10,5.8L180.8,69.7z"/>
									<path id="Фигура_1408_копия_2-2" class="st20" d="M183.5,78.1c0,0-1.1,1-0.9,1.4c0.4,0.6,1,1,1.6,1.4
										c0.3,0.1,7.9,2.1,7.9,2.1l10.9-6.3c0,0-5.1-4.4-6.8-4.6s-3.9-0.2-4.8,0.4S183.5,78.1,183.5,78.1z"/>
									<path id="Фигура_1408_копия_2-3" class="st19" d="M177.2,75.5l15.2-8.2l3,6.9l-10,5.8L177.2,75.5z"/>
									<path id="Эллипс_4_копия_6" class="st23" d="M192,62.8c-2.7-0.1-3.8,3.1-2.6,7s4.5,7.2,7.2,7.2s3.8-3.1,2.6-7
										S194.7,62.9,192,62.8z"/>
									<path id="Эллипс_4_копия_7" class="st24" d="M189.6,63.5c-2.7-0.1-3.8,3.1-2.6,7s4.5,7.2,7.2,7.2s3.8-3.1,2.6-7
										S192.3,63.6,189.6,63.5z"/>
								</g>
							</g>
						</g>
					</g>
					<g id="_1_копия_3">
						<g id="Эллипс_4_копия-10">
							<path id="Эллипс_4_копия-11" class="st16" d="M150.1,229.9c-0.6,0-1.2,0.1-1.7,0.3c0,0-7.6,4.4-7.7,4.4
								c-2.4,1.2-3.2,4.9-1.7,9.4c1.8,5.5,6.3,10,10.1,10c0.9,0.1,1.7-0.1,2.5-0.6c0,0,7.6-4.6,7.6-4.6c1.9-1.5,2.4-4.9,1-8.9
								C158.4,234.5,153.9,230,150.1,229.9z"/>
							<g>
								<defs>
									<path id="SVGID_13_" d="M150.1,229.9c-0.6,0-1.2,0.1-1.7,0.3c0,0-7.6,4.4-7.7,4.4c-2.4,1.2-3.2,4.9-1.7,9.4
										c1.8,5.5,6.3,10,10.1,10c0.9,0.1,1.7-0.1,2.5-0.6c0,0,7.6-4.6,7.6-4.6c1.9-1.5,2.4-4.9,1-8.9
										C158.4,234.5,153.9,230,150.1,229.9z"/>
								</defs>
								<clipPath id="SVGID_14_">
									<use xlink:href="#SVGID_13_"  style="overflow:visible;"/>
								</clipPath>
								<g id="Clip-7" class="st25">
									<path id="Фигура_1408-3" class="st18" d="M151.1,244.4l10-5.7l0.5,6.9l-10,5.8L151.1,244.4z"/>
									<path id="Фигура_1408_копия-2" class="st19" d="M142.7,241l15.2-8.2l3,6.9l-10,5.8L142.7,241z"/>
									<path id="Фигура_1408-4" class="st20" d="M139.5,234.8c0,0-1.1,1-0.9,1.4c0.4,0.6,1,1,1.6,1.4
										c0.3,0.1,7.9,2.1,7.9,2.1l10.9-6.3c0,0-5.1-4.4-6.8-4.6s-3.9-0.2-4.8,0.4S139.5,234.8,139.5,234.8z"/>
								</g>
							</g>
						</g>
						<path id="Эллипс_4-2" class="st21" d="M142.4,234.4c-3.8-0.1-5.4,4.3-3.6,9.7s6.3,10,10.1,10s5.4-4.3,3.6-9.7
							S146.2,234.4,142.4,234.4z"/>
						<g id="Эллипс_4_копия_5-8">
							<path id="Эллипс_4_копия_5-9" class="st18" d="M143.2,237.5c-2.7-0.1-3.8,3.1-2.6,7s4.5,7.2,7.2,7.2
								s3.8-3.1,2.6-7S145.9,237.6,143.2,237.5z"/>
							<g>
								<defs>
									<path id="SVGID_15_" d="M143.2,237.5c-2.7-0.1-3.8,3.1-2.6,7s4.5,7.2,7.2,7.2s3.8-3.1,2.6-7S145.9,237.6,143.2,237.5z"/>
								</defs>
								<clipPath id="SVGID_16_">
									<use xlink:href="#SVGID_15_"  style="overflow:visible;"/>
								</clipPath>
								<g id="Clip-8" class="st26">
									<path id="Фигура_1408_копия_2-4" class="st18" d="M135.8,242.7l10-5.7l0.5,6.9l-10,5.8L135.8,242.7z"/>
									<path id="Фигура_1408_копия_2-5" class="st20" d="M138.5,251.1c0,0-1.1,1-0.9,1.4c0.4,0.6,1,1,1.6,1.4
										c0.3,0.1,7.9,2.1,7.9,2.1l10.9-6.3c0,0-5.1-4.4-6.8-4.6s-3.9-0.2-4.8,0.4S138.5,251.1,138.5,251.1z"/>
									<path id="Фигура_1408_копия_2-6" class="st19" d="M132.2,248.5l15.2-8.2l3,6.9l-10,5.8L132.2,248.5z"/>
									<path id="Эллипс_4_копия_6-2" class="st23" d="M147,235.8c-2.7-0.1-3.8,3.1-2.6,7s4.5,7.2,7.2,7.2
										s3.8-3.1,2.6-7S149.7,235.9,147,235.8z"/>
									<path id="Эллипс_4_копия_7-2" class="st24" d="M144.6,236.5c-2.7-0.1-3.8,3.1-2.6,7s4.5,7.2,7.2,7.2
										s3.8-3.1,2.6-7S147.3,236.6,144.6,236.5z"/>
								</g>
							</g>
						</g>
					</g>
				</g>
				<g id="_1-2">
					<g id="Группа_195_копия_3-2">
						<g id="Фигура_2180_копия_2-13">
							<path id="Фигура_2180_копия_2-14" class="st4" d="M367.3,387.7c1.1,0.5,2.3,0.4,3.3-0.2
								c1.3-0.8,23.3-14.4,24.2-15c1.4-0.7,2.2-2.2,2.1-3.8V167.1c-0.1-3.3-1.8-6.4-4.6-8.2c-3-1.8-9.4-5.7-10.8-6.5
								c-1-0.6-2.3-0.6-3.2,0.1c-0.9,0.5-23.5,14.6-24.5,15.2c-1.2,0.5-2,1.7-1.9,3v202.6c-0.2,3.3,1.6,6.4,4.6,7.8
								C360.2,383.3,366.4,387.3,367.3,387.7z"/>
							<g>
								<defs>
									<path id="SVGID_17_" d="M367.3,387.7c1.1,0.5,2.3,0.4,3.3-0.2c1.3-0.8,23.3-14.4,24.2-15c1.4-0.7,2.2-2.2,2.1-3.8V167.1
										c-0.1-3.3-1.8-6.4-4.6-8.2c-3-1.8-9.4-5.7-10.8-6.5c-1-0.6-2.3-0.6-3.2,0.1c-0.9,0.5-23.5,14.6-24.5,15.2
										c-1.2,0.5-2,1.7-1.9,3v202.6c-0.2,3.3,1.6,6.4,4.6,7.8C360.2,383.3,366.4,387.3,367.3,387.7z"/>
								</defs>
								<clipPath id="SVGID_18_">
									<use xlink:href="#SVGID_17_"  style="overflow:visible;"/>
								</clipPath>
								<g id="Clip-9" class="st27">
									<path id="Фигура_2183_копия_2-3" class="st6" d="M370,177.2l25.7-16.2l2.4,4.5L371.1,182L370,177.2z"/>
									<path id="Фигура_2182_копия_2-4" class="st7" d="M369.5,176.6l26.4-16.1c-0.9-1.1-2-2.1-3.3-2.7
										c-2.5-1.4-9.6-5.6-11.1-6.4c-1-0.6-2.2-0.7-3.3-0.1c-0.8,0.4-24.8,15.3-25.8,15.9s-1.9,2.8-0.3,2.8s1.6-1,4.3,0.3
										s6.9,4.4,9,5.6C366.7,176.7,368.1,176.9,369.5,176.6z"/>
									<path id="Фигура_2181_копия_5-4" class="st8" d="M367.2,388.4c1.3,0.7,4.8,1.7,4.8-2.8V183.1
										c0-3.7-1.2-6.5-4.3-8.3c-3.2-1.9-8.7-4.9-11.1-6.3s-4.6-0.3-4.6,2.9v203.4c0,1.3,0.5,5.1,3.5,7S365.9,387.6,367.2,388.4z"
										/>
								</g>
							</g>
						</g>
					</g>
					<g id="Группа_195_копия_4-2">
						<g id="Фигура_2180_копия_2-15">
							<path id="Фигура_2180_копия_2-16" class="st4" d="M388.3,399.7c1.1,0.5,2.3,0.4,3.3-0.2
								c1.3-0.8,23.3-14.4,24.2-15c1.4-0.7,2.2-2.2,2.1-3.8V203.1c-0.1-3.3-1.8-6.4-4.6-8.2c-3-1.8-5.4-2.7-6.8-3.5
								c-1-0.6-2.3-0.6-3.2,0.1c-0.9,0.5-23.5,14.6-24.5,15.2c-1.2,0.5-2,1.7-1.9,3v178.6c-0.2,3.3,1.6,6.4,4.6,7.8
								C383.8,397.5,386,398.6,388.3,399.7z"/>
							<g>
								<defs>
									<path id="SVGID_19_" d="M388.3,399.7c1.1,0.5,2.3,0.4,3.3-0.2c1.3-0.8,23.3-14.4,24.2-15c1.4-0.7,2.2-2.2,2.1-3.8V203.1
										c-0.1-3.3-1.8-6.4-4.6-8.2c-3-1.8-5.4-2.7-6.8-3.5c-1-0.6-2.3-0.6-3.2,0.1c-0.9,0.5-23.5,14.6-24.5,15.2
										c-1.2,0.5-2,1.7-1.9,3v178.6c-0.2,3.3,1.6,6.4,4.6,7.8C383.8,397.5,386,398.6,388.3,399.7z"/>
								</defs>
								<clipPath id="SVGID_20_">
									<use xlink:href="#SVGID_19_"  style="overflow:visible;"/>
								</clipPath>
								<g id="Clip-10" class="st28">
									<path id="Фигура_2183_копия_2-4" class="st6" d="M391,212.2l25.7-16.2l2.4,4.5L392.1,217L391,212.2z"/>
									<path id="Фигура_2182_копия_2-5" class="st7" d="M390.5,212.6l26.4-16.1c-0.9-1.1-2-2.1-3.3-2.7
										c-2.5-1.4-5.6-2.6-7.1-3.4c-1-0.6-2.2-0.7-3.3-0.1c-0.8,0.4-24.8,15.3-25.8,15.9s-2,2.8-0.3,2.8s1.6-1,4.3,0.3
										s2.9,1.4,5,2.6C387.7,212.7,389.1,212.9,390.5,212.6z"/>
									<path id="Фигура_2181_копия_5-5" class="st8" d="M388.2,400.4c1.3,0.7,4.8,1.7,4.8-2.8V219.1
										c0-3.7-1.2-6.5-4.3-8.3c-3.2-1.9-4.7-1.9-7.1-3.3s-4.6-0.3-4.6,2.9v179.4c0,1.3,0.5,5.1,3.5,7S386.9,399.6,388.2,400.4z"/>
								</g>
							</g>
						</g>
					</g>
					<g id="Группа_195_копия_2-2">
						<g id="Фигура_2180_копия_2-17">
							<path id="Фигура_2180_копия_2-18" class="st12" d="M355.2,176.8c0.7,0.3,1.6,0.3,2.2-0.1
								c0.9-0.5,15.5-9.7,16.2-10.1c0.9-0.5,1.5-1.5,1.4-2.6v-24.9c0-2.2-1.2-4.3-3.1-5.5c-2-1.2-34.3-19.8-35.2-20.3
								c-0.7-0.4-1.5-0.4-2.1,0.1c-0.6,0.4-15.6,9.8-16.3,10.2c-0.8,0.4-1.3,1.2-1.3,2v25.6c-0.1,2.2,1.1,4.3,3.1,5.3
								C322.4,157.8,354.6,176.5,355.2,176.8z"/>
							<g>
								<defs>
									<path id="SVGID_21_" d="M355.2,176.8c0.7,0.3,1.6,0.3,2.2-0.1c0.9-0.5,15.5-9.7,16.2-10.1c0.9-0.5,1.5-1.5,1.4-2.6v-24.9
										c0-2.2-1.2-4.3-3.1-5.5c-2-1.2-34.3-19.8-35.2-20.3c-0.7-0.4-1.5-0.4-2.1,0.1c-0.6,0.4-15.6,9.8-16.3,10.2
										c-0.8,0.4-1.3,1.2-1.3,2v25.6c-0.1,2.2,1.1,4.3,3.1,5.3C322.4,157.8,354.6,176.5,355.2,176.8z"/>
								</defs>
								<clipPath id="SVGID_22_">
									<use xlink:href="#SVGID_21_"  style="overflow:visible;"/>
								</clipPath>
								<g id="Clip-11" class="st29">
									<path id="Фигура_2182_копия_2-6" class="st11" d="M356.3,144.9l17.7-10.6c-0.6-0.8-1.3-1.4-2.2-1.8
										c-1.6-0.9-34.5-19.7-35.5-20.2c-0.7-0.4-1.5-0.4-2.2-0.1c-0.5,0.3-16.6,10-17.4,10.4s-1.3,1.9-0.2,1.8s1.1-0.7,2.9,0.2
										s32.6,18.9,34.1,19.7C354.4,145,355.4,145.1,356.3,144.9z"/>
									<path id="Фигура_2181_копия_5-6" class="st15" d="M354.9,177.6c0.8,0.5,3.1,1.1,3.1-1.9v-25.6
										c0-2.5-0.8-4.3-2.8-5.6c-2.1-1.2-33.7-19.3-35.2-20.2s-3-0.2-3,1.9v26.2c0,0.9,0.3,3.4,2.3,4.7S354.1,177.1,354.9,177.6z"
										/>
								</g>
							</g>
						</g>
					</g>
					<g id="_1-3">
						<g id="Эллипс_4_копия-12">
							<path id="Эллипс_4_копия-13" class="st16" d="M327.1,135.9c-0.6,0-1.2,0.1-1.7,0.3c0,0-7.6,4.4-7.7,4.4
								c-2.4,1.2-3.2,4.9-1.7,9.4c1.8,5.5,6.3,10,10.1,10c0.9,0.1,1.7-0.1,2.5-0.6c0,0,7.6-4.6,7.6-4.6c1.9-1.5,2.4-4.9,1-8.9
								C335.4,140.5,330.9,136,327.1,135.9z"/>
							<g>
								<defs>
									<path id="SVGID_23_" d="M327.1,135.9c-0.6,0-1.2,0.1-1.7,0.3c0,0-7.6,4.4-7.7,4.4c-2.4,1.2-3.2,4.9-1.7,9.4
										c1.8,5.5,6.3,10,10.1,10c0.9,0.1,1.7-0.1,2.5-0.6c0,0,7.6-4.6,7.6-4.6c1.9-1.5,2.4-4.9,1-8.9
										C335.4,140.5,330.9,136,327.1,135.9z"/>
								</defs>
								<clipPath id="SVGID_24_">
									<use xlink:href="#SVGID_23_"  style="overflow:visible;"/>
								</clipPath>
								<g id="Clip-12" class="st30">
									<path id="Фигура_1408-5" class="st18" d="M328.1,150.4l10-5.7l0.5,6.9l-10,5.8L328.1,150.4z"/>
									<path id="Фигура_1408_копия-3" class="st19" d="M319.7,147l15.2-8.2l3,6.9l-10,5.8L319.7,147z"/>
									<path id="Фигура_1408-6" class="st20" d="M316.5,140.8c0,0-1.1,1-0.9,1.4c0.4,0.6,1,1,1.6,1.4
										c0.3,0.1,7.9,2.1,7.9,2.1l10.9-6.3c0,0-5.1-4.4-6.8-4.6s-3.9-0.2-4.8,0.4S316.5,140.8,316.5,140.8z"/>
								</g>
							</g>
						</g>
						<path id="Эллипс_4-3" class="st21" d="M319.4,140.4c-3.8-0.1-5.4,4.3-3.6,9.7s6.3,10,10.1,10s5.4-4.3,3.6-9.7
							S323.2,140.4,319.4,140.4z"/>
						<g id="Эллипс_4_копия_5-10">
							<path id="Эллипс_4_копия_5-11" class="st18" d="M320.2,143.5c-2.7-0.1-3.8,3.1-2.6,7s4.5,7.2,7.2,7.2
								s3.8-3.1,2.6-7S322.9,143.6,320.2,143.5z"/>
							<g>
								<defs>
									<path id="SVGID_25_" d="M320.2,143.5c-2.7-0.1-3.8,3.1-2.6,7s4.5,7.2,7.2,7.2s3.8-3.1,2.6-7S322.9,143.6,320.2,143.5z"/>
								</defs>
								<clipPath id="SVGID_26_">
									<use xlink:href="#SVGID_25_"  style="overflow:visible;"/>
								</clipPath>
								<g id="Clip-13" class="st31">
									<path id="Фигура_1408_копия_2-7" class="st18" d="M312.8,148.7l10-5.7l0.5,6.9l-10,5.8L312.8,148.7z"/>
									<path id="Фигура_1408_копия_2-8" class="st20" d="M315.5,157.1c0,0-1.1,1-0.9,1.4c0.4,0.6,1,1,1.6,1.4
										c0.3,0.1,7.9,2.1,7.9,2.1l10.9-6.3c0,0-5.1-4.4-6.8-4.6s-3.9-0.2-4.8,0.4S315.5,157.1,315.5,157.1z"/>
									<path id="Фигура_1408_копия_2-9" class="st19" d="M309.2,154.5l15.2-8.2l3,6.9l-10,5.8L309.2,154.5z"/>
									<path id="Эллипс_4_копия_6-3" class="st23" d="M324,141.8c-2.7-0.1-3.8,3.1-2.6,7s4.5,7.2,7.2,7.2
										s3.8-3.1,2.6-7S326.7,141.9,324,141.8z"/>
									<path id="Эллипс_4_копия_7-3" class="st24" d="M321.6,142.5c-2.7-0.1-3.8,3.1-2.6,7s4.5,7.2,7.2,7.2
										s3.8-3.1,2.6-7S324.3,142.6,321.6,142.5z"/>
								</g>
							</g>
						</g>
					</g>
					<g id="_1_копия_3-2">
						<g id="Эллипс_4_копия-14">
							<path id="Эллипс_4_копия-15" class="st16" d="M358.1,352.9c-0.6,0-1.2,0.1-1.7,0.3c0,0-7.6,4.4-7.7,4.4
								c-2.4,1.2-3.2,4.9-1.7,9.4c1.8,5.5,6.3,10,10.1,10c0.9,0.1,1.7-0.1,2.5-0.6c0,0,7.6-4.6,7.6-4.6c1.9-1.5,2.4-4.9,1-8.9
								C366.4,357.5,361.9,353,358.1,352.9z"/>
							<g>
								<defs>
									<path id="SVGID_27_" d="M358.1,352.9c-0.6,0-1.2,0.1-1.7,0.3c0,0-7.6,4.4-7.7,4.4c-2.4,1.2-3.2,4.9-1.7,9.4
										c1.8,5.5,6.3,10,10.1,10c0.9,0.1,1.7-0.1,2.5-0.6c0,0,7.6-4.6,7.6-4.6c1.9-1.5,2.4-4.9,1-8.9
										C366.4,357.5,361.9,353,358.1,352.9z"/>
								</defs>
								<clipPath id="SVGID_28_">
									<use xlink:href="#SVGID_27_"  style="overflow:visible;"/>
								</clipPath>
								<g id="Clip-14" class="st32">
									<path id="Фигура_1408-7" class="st18" d="M359.1,367.4l10-5.7l0.5,6.9l-10,5.8L359.1,367.4z"/>
									<path id="Фигура_1408_копия-4" class="st19" d="M350.7,364l15.2-8.2l3,6.9l-10,5.8L350.7,364z"/>
									<path id="Фигура_1408-8" class="st20" d="M347.5,357.8c0,0-1.1,1-0.9,1.4c0.4,0.6,1,1,1.6,1.4
										c0.3,0.1,7.9,2.1,7.9,2.1l10.9-6.3c0,0-5.1-4.4-6.8-4.6s-3.9-0.2-4.8,0.4S347.5,357.8,347.5,357.8z"/>
								</g>
							</g>
						</g>
						<path id="Эллипс_4-4" class="st21" d="M350.4,357.4c-3.8-0.1-5.4,4.3-3.6,9.7s6.3,10,10.1,10s5.4-4.3,3.6-9.7
							S354.2,357.4,350.4,357.4z"/>
						<g id="Эллипс_4_копия_5-12">
							<path id="Эллипс_4_копия_5-13" class="st18" d="M351.2,360.5c-2.7-0.1-3.8,3.1-2.6,7s4.5,7.2,7.2,7.2
								s3.8-3.1,2.6-7S353.9,360.6,351.2,360.5z"/>
							<g>
								<defs>
									<path id="SVGID_29_" d="M351.2,360.5c-2.7-0.1-3.8,3.1-2.6,7s4.5,7.2,7.2,7.2s3.8-3.1,2.6-7S353.9,360.6,351.2,360.5z"/>
								</defs>
								<clipPath id="SVGID_30_">
									<use xlink:href="#SVGID_29_"  style="overflow:visible;"/>
								</clipPath>
								<g id="Clip-15" class="st33">
									<path id="Фигура_1408_копия_2-10" class="st18" d="M343.8,365.7l10-5.7l0.5,6.9l-10,5.8L343.8,365.7z"/>
									<path id="Фигура_1408_копия_2-11" class="st20" d="M346.5,374.1c0,0-1.1,1-0.9,1.4c0.4,0.6,1,1,1.6,1.4
										c0.3,0.1,7.9,2.1,7.9,2.1l10.9-6.3c0,0-5.1-4.4-6.8-4.6s-3.9-0.2-4.8,0.4S346.5,374.1,346.5,374.1z"/>
									<path id="Фигура_1408_копия_2-12" class="st19" d="M340.2,371.5l15.2-8.2l3,6.9l-10,5.8L340.2,371.5z"/>
									<path id="Эллипс_4_копия_6-4" class="st23" d="M355,358.8c-2.7-0.1-3.8,3.1-2.6,7s4.5,7.2,7.2,7.2
										s3.8-3.1,2.6-7S357.7,358.9,355,358.8z"/>
									<path id="Эллипс_4_копия_7-4" class="st24" d="M352.6,359.5c-2.7-0.1-3.8,3.1-2.6,7s4.5,7.2,7.2,7.2
										s3.8-3.1,2.6-7S355.3,359.6,352.6,359.5z"/>
								</g>
							</g>
						</g>
					</g>
					<g id="Группа_202">
						<g id="Фигура_1744-2">
							<path id="Фигура_1744-3" class="st8" d="M352,178c0,0.8-0.1,2,2,3s12.7,7.2,14,8c1.6,0.9,3.4,0.9,5,0c1.4-0.9,8-5,8-5
								s21.1-12.5,22-13c1.2-0.5,2.1-1.7,2-3v-18c0-1.5,0.1-2.6-2-4s-21.8-13.3-23-14c-1.2-0.9-2.8-0.9-4,0c-1.4,1-21.1,12.4-22,13
								s-2,1.2-2,3V178z"/>
							<g>
								<defs>
									<path id="SVGID_31_" d="M352,178c0,0.8-0.1,2,2,3s12.7,7.2,14,8c1.6,0.9,3.4,0.9,5,0c1.4-0.9,8-5,8-5s21.1-12.5,22-13
										c1.2-0.5,2.1-1.7,2-3v-18c0-1.5,0.1-2.6-2-4s-21.8-13.3-23-14c-1.2-0.9-2.8-0.9-4,0c-1.4,1-21.1,12.4-22,13s-2,1.2-2,3V178
										z"/>
								</defs>
								<clipPath id="SVGID_32_">
									<use xlink:href="#SVGID_31_"  style="overflow:visible;"/>
								</clipPath>
								<g id="Clip-16" class="st34">
									<path id="Фигура_1746" class="st11" d="M381,163c0,0-27.6-16.1-29-17s-0.4-2.8,2-4s23-14,23-14l30,17v3l-25,16
										L381,163z"/>
									<path id="Фигура_1745" class="st12" d="M380,185v-21c0-0.8-0.1-1.9,2-3s21.3-13,23-14s2,0,2,3v19c0,0.7-0.9,1.3-2,2
										s-24,15-24,15L380,185z"/>
								</g>
							</g>
						</g>
					</g>
				</g>
			</g>
			<g id="_c_копия_2">
				<g id="Фигура_2180-2">
					<path id="Фигура_2180-3" class="st35" d="M323.1,251c3.2,1.6,7,1.3,10-0.7c3.9-2.4,1.6-0.1,4.4-1.8s6.5-4.5,6.5-11.4v-68
						c-0.2-10-5.5-19.2-13.9-24.4c-9-5.5-142.5-85.1-146.5-87.4s-7-1.3-9.7,0.3s-2,0.7-5,2.4s-5.8,4-5.8,9.1v71.3
						c0,9.9,3.3,17.5,13.9,23.5S320.5,249.8,323.1,251z"/>
					<g>
						<defs>
							<path id="SVGID_33_" d="M323.1,251c3.2,1.6,7,1.3,10-0.7c3.9-2.4,1.6-0.1,4.4-1.8s6.5-4.5,6.5-11.4v-68
								c-0.2-10-5.5-19.2-13.9-24.4c-9-5.5-142.5-85.1-146.5-87.4s-7-1.3-9.7,0.3s-2,0.7-5,2.4s-5.8,4-5.8,9.1v71.3
								c0,9.9,3.3,17.5,13.9,23.5S320.5,249.8,323.1,251z"/>
						</defs>
						<clipPath id="SVGID_34_">
							<use xlink:href="#SVGID_33_"  style="overflow:visible;"/>
						</clipPath>
						<g id="Clip-17" class="st36">
							<path id="Фигура_2183" class="st37" d="M330,154.9l9-5l7.2,13.3l-12.9,6L330,154.9z"/>
							<path id="Фигура_2182" class="st38" d="M330,154.9l10-5.3c0,0-2.4-3.9-9.8-8.1S187.3,56.6,182.9,54.3s-7.4-1.6-9.8-0.3
								s-5.1,2.7-8.3,4.7s-5.8,8.5-1,8.4s4.7-3.1,13,1s134.5,81.2,141.1,84.9S330,154.9,330,154.9z"/>
							<path id="Фигура_2181" class="st39" d="M321.7,251.1c3.9,2.2,14.4,5.1,14.4-8.5v-70.2c0-11.2-3.6-19.6-13.1-25
								c-9.8-5.6-140.2-82.9-147.3-86.8S162,59.9,162,69.4v71.1c0,3.9,1.5,15.3,10.4,20.9S317.8,249,321.7,251.1z"/>
						</g>
					</g>
				</g>
				<path id="Фигура_2181_копия" class="st40" d="M319.3,244.2c3.7,2.1,13.7,4.9,13.7-8.1v-61.8
					c0-10.7-3.5-18.7-12.5-23.9c-9.3-5.4-135.7-80.1-142.4-83.8S165,65.8,165,74.9v64.6c0,3.7,1.4,14.6,10,20
					S315.6,242.1,319.3,244.2z"/>
				<path id="Эллипс_3848" class="st41" d="M180.4,73.8c1.4,0.9,2.3,2.5,2.4,4.2c0,1.5-1.1,2.1-2.4,1.4
					c-1.4-0.9-2.3-2.5-2.4-4.2C178,73.6,179,73,180.4,73.8z"/>
				<path id="Эллипс_3848_копия_2" class="st42" d="M197.6,89.2c-1.4-0.9-2.3-2.5-2.4-4.2c0-1.5,1.1-2.1,2.4-1.4
					c1.4,0.9,2.3,2.5,2.4,4.2c0,1.1-0.5,1.7-1.3,1.7C198.3,89.5,197.9,89.4,197.6,89.2z M189,84.2c-1.4-0.9-2.3-2.5-2.4-4.2
					c0-1.5,1.1-2.1,2.4-1.4c1.4,0.9,2.3,2.5,2.4,4.2c0,1.1-0.5,1.7-1.3,1.7C189.7,84.6,189.3,84.4,189,84.2L189,84.2z"/>
			</g>
			<g id="Группа_204">
				<g id="Фигура_753_копия_11-2">
					<path id="Фигура_753_копия_11-3" class="st43" d="M396.4,226.8c0.1-0.6,0.3-1.2,0.7-1.7c0.5-0.7,7.4-9.8,7.9-10.5
						s1-1.3,1.9-1.1s7.5,1.5,7.9,1.6s0.7,0.1,0.7,1.2v19.7c0.1,0.7-0.2,1.5-0.7,2c-0.7,0.9-7.3,9.7-7.9,10.5s-1.2,1.3-1.9,1.1
						s-7.3-1.4-7.9-1.6s-0.7-0.2-0.7-1.2V226.8z"/>
					<g>
						<defs>
							<path id="SVGID_35_" d="M396.4,226.8c0.1-0.6,0.3-1.2,0.7-1.7c0.5-0.7,7.4-9.8,7.9-10.5s1-1.3,1.9-1.1s7.5,1.5,7.9,1.6
								s0.7,0.1,0.7,1.2v19.7c0.1,0.7-0.2,1.5-0.7,2c-0.7,0.9-7.3,9.7-7.9,10.5s-1.2,1.3-1.9,1.1s-7.3-1.4-7.9-1.6s-0.7-0.2-0.7-1.2
								V226.8z"/>
						</defs>
						<clipPath id="SVGID_36_">
							<use xlink:href="#SVGID_35_"  style="overflow:visible;"/>
						</clipPath>
						<g id="Clip-18" class="st44">
							<path id="Фигура_570_копия" class="st45" d="M406.4,250l-11.4-6l-0.7-19.1l7.1-8.4l5-6.4l8.7,3.4l3.4,4.4
								l-0.3,27.6L406.4,250z"/>
							<path id="Фигура_571_копия" class="st46" d="M395.7,246.6l7.4,1.7l4-7.1l-11.1-2.7l-4,4.7L395.7,246.6z"/>
							<path id="Фигура_753_копия_9" class="st47" d="M408.7,243.9c-0.8-0.2-7.3-1.4-7.9-1.5c-0.3-0.1-0.5-0.1-0.6-0.3
								c-0.3,0-0.5-0.1-0.7-0.2c-0.5-0.2-3.4-1.7-3.8-1.9c-0.4-0.3-0.7-0.8-0.6-1.2c0-0.7-0.3-12-0.3-12.5c0-0.6,0.3-1.1,0.6-1.6
								c0.4-0.6,6-11.5,6.3-11.9c0.6-0.5,1.4-0.7,2.2-0.6c0.5,0.1,3.4,0.1,4.1,0.2c0.6,0.1,1.1,0.3,1.5,0.6c0.5,0.3,7.8,3.4,8.2,3.6
								c0.2,0.1,0.3,0.2,0.4,0.4c0.3,0.2,0.5,0.6,0.5,1.4c0,1.1,0.7,10.8,0.7,11.6c0.1,0.9-0.2,1.9-0.7,2.6
								c-0.7,0.9-7.3,9.6-7.9,10.4c-0.5,0.6-1,1.1-1.6,1.1C408.9,244,408.8,244,408.7,243.9z"/>
							<path id="Фигура_764_копия_3" class="st48" d="M402.3,212l7.4,3.2c0.3,0.2,0.6,0.5,0.9,0.6c0.3,0.1,8,1.6,8,1.6
								l-9.7-5.5c0,0-4.1-0.1-4.7-0.2C403.5,211.7,402.8,211.8,402.3,212z"/>
							<path id="Фигура_763_копия_3" class="st49" d="M401,243.1c-0.2-0.1-0.4-0.4-0.3-0.6c0-0.2-0.7-13.7-0.7-13.7
								l-5.7-2.8l0.7,13.7c0,0-0.1,0.7,1.2,1.2S401.3,243.2,401,243.1z"/>
						</g>
					</g>
				</g>
				<g id="Фигура_753_копия_13-2">
					<path id="Фигура_753_копия_13-3" class="st50" d="M410.7,245.6c-0.8-0.2-7.3-1.4-7.9-1.5c-0.3-0.1-0.5-0.1-0.6-0.3
						c-0.3,0-0.5-0.1-0.7-0.2c-0.5-0.2-3.4-1.7-3.8-1.9c-0.4-0.3-0.7-0.8-0.6-1.2v-13.1c0-0.6,0.3-1.1,0.6-1.6
						c0.4-0.6,8-10.5,8.3-10.9c0.6-0.5,1.4-0.7,2.2-0.6c0.5,0.1,6.4,1.4,7.1,1.6c0.6,0.1,1.1,0.3,1.5,0.6c0.5,0.3,3.1,1.7,3.5,1.9
						c0.2,0.1,0.4,0.2,0.5,0.4c0.2,0.1,0.4,0.3,0.4,1.1v11.9c0.1,0.9-0.2,1.9-0.7,2.6c-0.7,0.9-7.3,9.6-7.9,10.4
						c-0.5,0.6-1,1.1-1.6,1.1C410.9,245.7,410.8,245.6,410.7,245.6z"/>
					<g>
						<defs>
							<path id="SVGID_37_" d="M410.7,245.6c-0.8-0.2-7.3-1.4-7.9-1.5c-0.3-0.1-0.5-0.1-0.6-0.3c-0.3,0-0.5-0.1-0.7-0.2
								c-0.5-0.2-3.4-1.7-3.8-1.9c-0.4-0.3-0.7-0.8-0.6-1.2v-13.1c0-0.6,0.3-1.1,0.6-1.6c0.4-0.6,8-10.5,8.3-10.9
								c0.6-0.5,1.4-0.7,2.2-0.6c0.5,0.1,6.4,1.4,7.1,1.6c0.6,0.1,1.1,0.3,1.5,0.6c0.5,0.3,3.1,1.7,3.5,1.9c0.2,0.1,0.4,0.2,0.5,0.4
								c0.2,0.1,0.4,0.3,0.4,1.1v11.9c0.1,0.9-0.2,1.9-0.7,2.6c-0.7,0.9-7.3,9.6-7.9,10.4c-0.5,0.6-1,1.1-1.6,1.1
								C410.9,245.7,410.8,245.6,410.7,245.6z"/>
						</defs>
						<clipPath id="SVGID_38_">
							<use xlink:href="#SVGID_37_"  style="overflow:visible;"/>
						</clipPath>
						<g id="Clip-19" class="st51">
							<path id="Фигура_764_копия_4" class="st52" d="M406.6,214.1l5,2.9c0,0,1.3,0.2,1.5,0.3s9,1.9,9,1.9l-6-3.8
								c0,0-7.1-1.4-7.7-1.6C407.8,213.7,407.2,213.8,406.6,214.1z"/>
							<path id="Фигура_763_копия_4" class="st53" d="M403.1,244.8c-0.2-0.1-0.4-0.4-0.3-0.6c0-0.2-0.3-14.4-0.3-14.4
								l-5.7-2.8l0.3,14.4c0,0-0.1,0.7,1.2,1.2S403.4,244.9,403.1,244.8z"/>
							<path id="Фигура_753_копия_14" class="st54" d="M402.1,230.2c0.1-0.6,0.3-1.2,0.7-1.7c0.5-0.7,7.4-9.8,7.9-10.5
								s1-1.3,1.9-1.1s7.5,1.5,7.9,1.6s0.7,0.1,0.7,1.2v12.7c0.1,0.7-0.2,1.5-0.7,2c-0.7,0.9-7.3,9.7-7.9,10.5s-1.2,1.3-1.9,1.1
								s-7.3-1.4-7.9-1.6s-0.7-0.2-0.7-1.2V230.2z"/>
							<path id="Фигура_753_копия_15" class="st55" d="M402.4,230.5c0.1-0.6,0.3-1.2,0.7-1.7c0.5-0.7,7.4-9.8,7.9-10.5
								s1-1.3,1.9-1.1s7.5,1.5,7.9,1.6s0.7,0.1,0.7,1.2v12.7c0.1,0.7-0.2,1.5-0.7,2c-0.7,0.9-7.3,9.7-7.9,10.5s-1.2,1.3-1.9,1.1
								s-7.3-1.4-7.9-1.6s-0.7-0.2-0.7-1.2V230.5z"/>
						</g>
					</g>
				</g>
				<g id="Фигура_753_копия_16-2">
					<path id="Фигура_753_копия_16-3" class="st53" d="M405.1,230.3c0-0.4,0.2-0.8,0.5-1.2c0.4-0.5,5.2-6.8,5.5-7.3
						s0.7-0.9,1.3-0.8s5.3,1,5.5,1.1s0.5,0.1,0.5,0.8v8.8c0.1,0.5-0.1,1-0.5,1.4c-0.5,0.7-5.1,6.7-5.5,7.3s-0.8,0.9-1.3,0.8
						s-5.2-1-5.5-1.1s-0.5-0.1-0.5-0.8V230.3z"/>
					<g>
						<defs>
							<path id="SVGID_39_" d="M405.1,230.3c0-0.4,0.2-0.8,0.5-1.2c0.4-0.5,5.2-6.8,5.5-7.3s0.7-0.9,1.3-0.8s5.3,1,5.5,1.1
								s0.5,0.1,0.5,0.8v8.8c0.1,0.5-0.1,1-0.5,1.4c-0.5,0.7-5.1,6.7-5.5,7.3s-0.8,0.9-1.3,0.8s-5.2-1-5.5-1.1s-0.5-0.1-0.5-0.8
								V230.3z"/>
						</defs>
						<clipPath id="SVGID_40_">
							<use xlink:href="#SVGID_39_"  style="overflow:visible;"/>
						</clipPath>
						<g id="Clip-20" class="st56">
							<path id="Фигура_568_копия" class="st52" d="M412.8,241.6l-5.7-4l-3-0.3v4.4l7.1,0.7L412.8,241.6z"/>
							<path id="Фигура_567_копия" class="st50" d="M418.9,232.5l-6.4-2.7l-6.4,8.7l7.4,3.4L418.9,232.5z"/>
							<path id="Фигура_753_копия_17" class="st57" d="M400.1,228c0-0.4,0.2-0.8,0.5-1.2c0.4-0.5,5.2-6.8,5.5-7.3
								s0.7-0.9,1.3-0.8s5.3,1,5.5,1.1s0.5,0.1,0.5,0.8v8.8c0.1,0.5-0.1,1-0.5,1.4c-0.5,0.7-5.1,6.7-5.5,7.3s-0.8,0.9-1.3,0.8
								s-5.2-1-5.5-1.1s-0.5-0.1-0.5-0.8V228z"/>
							<path id="Фигура_753_копия_18" class="st58" d="M402.4,229c0-0.4,0.2-0.8,0.5-1.2c0.4-0.5,5.2-6.8,5.5-7.3
								s0.7-0.9,1.3-0.8s5.3,1,5.5,1.1s0.5,0.1,0.5,0.8v8.8c0.1,0.5-0.1,1-0.5,1.4c-0.5,0.7-5.1,6.7-5.5,7.3s-0.8,0.9-1.3,0.8
								s-5.2-1-5.5-1.1s-0.5-0.1-0.5-0.8V229z"/>
						</g>
					</g>
				</g>
				<g id="Фигура_753_копия_12-2">
					<path id="Фигура_753_копия_12-3" class="st43" d="M396.4,357.8c0.1-0.6,0.3-1.2,0.7-1.7c0.5-0.7,7.4-9.8,7.9-10.5
						s1-1.3,1.9-1.1s7.5,1.5,7.9,1.6s0.7,0.1,0.7,1.2v19.7c0.1,0.7-0.2,1.5-0.7,2c-0.7,0.9-7.3,9.7-7.9,10.5s-1.2,1.3-1.9,1.1
						s-7.3-1.4-7.9-1.6s-0.7-0.2-0.7-1.2V357.8z"/>
					<g>
						<defs>
							<path id="SVGID_41_" d="M396.4,357.8c0.1-0.6,0.3-1.2,0.7-1.7c0.5-0.7,7.4-9.8,7.9-10.5s1-1.3,1.9-1.1s7.5,1.5,7.9,1.6
								s0.7,0.1,0.7,1.2v19.7c0.1,0.7-0.2,1.5-0.7,2c-0.7,0.9-7.3,9.7-7.9,10.5s-1.2,1.3-1.9,1.1s-7.3-1.4-7.9-1.6s-0.7-0.2-0.7-1.2
								V357.8z"/>
						</defs>
						<clipPath id="SVGID_42_">
							<use xlink:href="#SVGID_41_"  style="overflow:visible;"/>
						</clipPath>
						<g id="Clip-21" class="st59">
							<path id="Фигура_570_копия_4" class="st45" d="M406.4,381l-11.4-6l-0.7-19.1l7.1-8.4l5-6.4l8.7,3.4l3.4,4.4
								l-0.3,27.6L406.4,381z"/>
							<path id="Фигура_571_копия_4" class="st46" d="M395.7,377.6l7.4,1.7l4-7.1l-11.1-2.7l-4,4.7L395.7,377.6z"/>
							<path id="Фигура_753_копия_10" class="st47" d="M408.7,374.9c-0.8-0.2-7.3-1.4-7.9-1.5c-0.3-0.1-0.5-0.1-0.6-0.3
								c-0.3,0-0.5-0.1-0.7-0.2c-0.5-0.2-3.4-1.7-3.8-1.9c-0.4-0.3-0.7-0.8-0.6-1.2c0-0.7-0.3-12-0.3-12.5c0-0.6,0.3-1.1,0.6-1.6
								c0.4-0.6,6-11.5,6.3-11.9c0.6-0.5,1.4-0.7,2.2-0.6c0.5,0.1,3.4,0.1,4.1,0.2c0.6,0.1,1.1,0.3,1.5,0.6c0.5,0.3,7.8,3.4,8.2,3.6
								c0.2,0.1,0.3,0.2,0.4,0.4c0.3,0.2,0.5,0.6,0.5,1.4c0,1.1,0.7,10.8,0.7,11.6c0.1,0.9-0.2,1.9-0.7,2.6
								c-0.7,0.9-7.3,9.6-7.9,10.4c-0.5,0.6-1,1.1-1.6,1.1C408.9,375,408.8,375,408.7,374.9z"/>
							<path id="Фигура_764_копия_10" class="st48" d="M402.3,343l7.4,3.2c0.3,0.2,0.6,0.5,0.9,0.6c0.3,0.1,8,1.6,8,1.6
								l-9.7-5.5c0,0-4.1-0.1-4.7-0.2C403.5,342.7,402.8,342.8,402.3,343z"/>
							<path id="Фигура_763_копия_10" class="st49" d="M401,374.1c-0.2-0.1-0.4-0.4-0.3-0.6c0-0.2-0.7-13.7-0.7-13.7
								l-5.7-2.8l0.7,13.7c0,0-0.1,0.7,1.2,1.2S401.3,374.2,401,374.1z"/>
						</g>
					</g>
				</g>
				<g id="Фигура_753_копия_38-2">
					<path id="Фигура_753_копия_38-3" class="st50" d="M410.7,376.6c-0.8-0.2-7.3-1.4-7.9-1.5c-0.3-0.1-0.5-0.1-0.6-0.3
						c-0.3,0-0.5-0.1-0.7-0.2c-0.5-0.2-3.4-1.7-3.8-1.9c-0.4-0.3-0.7-0.7-0.6-1.2v-13.1c0-0.6,0.3-1.1,0.6-1.6
						c0.4-0.6,8-10.5,8.3-10.9c0.6-0.5,1.4-0.7,2.2-0.6c0.5,0.1,6.4,1.4,7.1,1.6c0.6,0.1,1.1,0.3,1.5,0.6c0.5,0.3,3.1,1.7,3.5,1.9
						c0.2,0.1,0.4,0.2,0.5,0.4c0.2,0.1,0.4,0.3,0.4,1.1v11.9c0.1,0.9-0.2,1.9-0.7,2.6c-0.7,0.9-7.3,9.6-7.9,10.4
						c-0.5,0.6-1,1.1-1.6,1.1C410.9,376.7,410.8,376.6,410.7,376.6z"/>
					<g>
						<defs>
							<path id="SVGID_43_" d="M410.7,376.6c-0.8-0.2-7.3-1.4-7.9-1.5c-0.3-0.1-0.5-0.1-0.6-0.3c-0.3,0-0.5-0.1-0.7-0.2
								c-0.5-0.2-3.4-1.7-3.8-1.9c-0.4-0.3-0.7-0.7-0.6-1.2v-13.1c0-0.6,0.3-1.1,0.6-1.6c0.4-0.6,8-10.5,8.3-10.9
								c0.6-0.5,1.4-0.7,2.2-0.6c0.5,0.1,6.4,1.4,7.1,1.6c0.6,0.1,1.1,0.3,1.5,0.6c0.5,0.3,3.1,1.7,3.5,1.9c0.2,0.1,0.4,0.2,0.5,0.4
								c0.2,0.1,0.4,0.3,0.4,1.1v11.9c0.1,0.9-0.2,1.9-0.7,2.6c-0.7,0.9-7.3,9.6-7.9,10.4c-0.5,0.6-1,1.1-1.6,1.1
								C410.9,376.7,410.8,376.6,410.7,376.6z"/>
						</defs>
						<clipPath id="SVGID_44_">
							<use xlink:href="#SVGID_43_"  style="overflow:visible;"/>
						</clipPath>
						<g id="Clip-22" class="st60">
							<path id="Фигура_764_копия_11" class="st52" d="M406.6,345.1l5,2.9c0,0,1.3,0.2,1.5,0.3s9,1.9,9,1.9l-6-3.8
								c0,0-7.1-1.4-7.7-1.6C407.8,344.7,407.2,344.8,406.6,345.1z"/>
							<path id="Фигура_763_копия_11" class="st53" d="M403.1,375.8c-0.2-0.1-0.4-0.4-0.3-0.6c0-0.2-0.3-14.4-0.3-14.4
								l-5.7-2.8l0.3,14.4c0,0-0.1,0.7,1.2,1.2S403.4,375.9,403.1,375.8z"/>
							<path id="Фигура_753_копия_39" class="st54" d="M402.1,361.2c0.1-0.6,0.3-1.2,0.7-1.7c0.5-0.7,7.4-9.8,7.9-10.5
								s1-1.3,1.9-1.1s7.5,1.5,7.9,1.6s0.7,0.1,0.7,1.2v12.7c0.1,0.7-0.2,1.5-0.7,2c-0.7,0.9-7.3,9.7-7.9,10.5s-1.2,1.3-1.9,1.1
								s-7.3-1.4-7.9-1.6s-0.7-0.2-0.7-1.2V361.2z"/>
							<path id="Фигура_753_копия_40" class="st55" d="M402.4,361.5c0.1-0.6,0.3-1.2,0.7-1.7c0.5-0.7,7.4-9.8,7.9-10.5
								s1-1.3,1.9-1.1s7.5,1.5,7.9,1.6s0.7,0.1,0.7,1.2v12.7c0.1,0.7-0.2,1.5-0.7,2c-0.7,0.9-7.3,9.7-7.9,10.5s-1.2,1.3-1.9,1.1
								s-7.3-1.4-7.9-1.6s-0.7-0.2-0.7-1.2V361.5z"/>
						</g>
					</g>
				</g>
				<g id="Фигура_753_копия_41-2">
					<path id="Фигура_753_копия_41-3" class="st53" d="M405.1,361.3c0-0.4,0.2-0.8,0.5-1.2c0.4-0.5,5.2-6.8,5.5-7.3
						s0.7-0.9,1.3-0.8s5.3,1,5.5,1.1s0.5,0.1,0.5,0.8v8.8c0.1,0.5-0.1,1-0.5,1.4c-0.5,0.7-5.1,6.7-5.5,7.3s-0.8,0.9-1.3,0.8
						s-5.2-1-5.5-1.1s-0.5-0.1-0.5-0.8V361.3z"/>
					<g>
						<defs>
							<path id="SVGID_45_" d="M405.1,361.3c0-0.4,0.2-0.8,0.5-1.2c0.4-0.5,5.2-6.8,5.5-7.3s0.7-0.9,1.3-0.8s5.3,1,5.5,1.1
								s0.5,0.1,0.5,0.8v8.8c0.1,0.5-0.1,1-0.5,1.4c-0.5,0.7-5.1,6.7-5.5,7.3s-0.8,0.9-1.3,0.8s-5.2-1-5.5-1.1s-0.5-0.1-0.5-0.8
								V361.3z"/>
						</defs>
						<clipPath id="SVGID_46_">
							<use xlink:href="#SVGID_45_"  style="overflow:visible;"/>
						</clipPath>
						<g id="Clip-23" class="st61">
							<path id="Фигура_568_копия_4" class="st52" d="M412.8,372.6l-5.7-4l-3-0.3v4.4l7.1,0.7L412.8,372.6z"/>
							<path id="Фигура_567_копия_4" class="st50" d="M418.9,363.5l-6.4-2.7l-6.4,8.7l7.4,3.4L418.9,363.5z"/>
							<path id="Фигура_753_копия_42" class="st57" d="M400.1,359c0-0.4,0.2-0.8,0.5-1.2c0.4-0.5,5.2-6.8,5.5-7.3
								s0.7-0.9,1.3-0.8s5.3,1,5.5,1.1s0.5,0.1,0.5,0.8v8.8c0.1,0.5-0.1,1-0.5,1.4c-0.5,0.7-5.1,6.7-5.5,7.3s-0.8,0.9-1.3,0.8
								s-5.2-1-5.5-1.1s-0.5-0.1-0.5-0.8V359z"/>
							<path id="Фигура_753_копия_43" class="st58" d="M402.4,360c0-0.4,0.2-0.8,0.5-1.2c0.4-0.5,5.2-6.8,5.5-7.3
								s0.7-0.9,1.3-0.8s5.3,1,5.5,1.1s0.5,0.1,0.5,0.8v8.8c0.1,0.5-0.1,1-0.5,1.4c-0.5,0.7-5.1,6.7-5.5,7.3s-0.8,0.9-1.3,0.8
								s-5.2-1-5.5-1.1s-0.5-0.1-0.5-0.8V360z"/>
						</g>
					</g>
				</g>
				<g id="Фигура_753_копия_19-2">
					<path id="Фигура_753_копия_19-3" class="st43" d="M388.5,163.9c0-0.3,0.1-0.6,0.3-0.8c0.2-0.3,3.6-4.7,3.8-5
						s0.5-0.6,0.9-0.5s3.6,0.7,3.8,0.8s0.3,0,0.3,0.6v9.5c0,0.4-0.1,0.7-0.3,1c-0.4,0.5-3.5,4.7-3.8,5s-0.6,0.6-0.9,0.5
						s-3.5-0.7-3.8-0.8s-0.3-0.1-0.3-0.6V163.9z"/>
					<g>
						<defs>
							<path id="SVGID_47_" d="M388.5,163.9c0-0.3,0.1-0.6,0.3-0.8c0.2-0.3,3.6-4.7,3.8-5s0.5-0.6,0.9-0.5s3.6,0.7,3.8,0.8
								s0.3,0,0.3,0.6v9.5c0,0.4-0.1,0.7-0.3,1c-0.4,0.5-3.5,4.7-3.8,5s-0.6,0.6-0.9,0.5s-3.5-0.7-3.8-0.8s-0.3-0.1-0.3-0.6V163.9z"
								/>
						</defs>
						<clipPath id="SVGID_48_">
							<use xlink:href="#SVGID_47_"  style="overflow:visible;"/>
						</clipPath>
						<g id="Clip-24" class="st62">
							<path id="Фигура_570_копия_2" class="st45" d="M393.3,175.1l-5.5-2.9l-0.3-9.2l3.4-4l2.4-3.1l4.2,1.6l1.6,2.1
								l-0.2,13.3L393.3,175.1z"/>
							<path id="Фигура_571_копия_2" class="st46" d="M388.2,173.5l3.6,0.8l1.9-3.4l-5.3-1.3l-1.9,2.3L388.2,173.5z"/>
							<path id="Фигура_753_копия_20" class="st47" d="M394.4,172.2c-0.4-0.1-3.5-0.7-3.8-0.7c-0.2,0-0.2-0.1-0.3-0.2
								c-0.1,0-0.2-0.1-0.3-0.1c-0.2-0.1-1.7-0.8-1.8-0.9c-0.2-0.1-0.3-0.4-0.3-0.6c0-0.3-0.2-5.8-0.2-6c0-0.3,0.1-0.5,0.3-0.8
								c0.2-0.3,2.9-5.5,3-5.8c0.3-0.2,0.7-0.3,1-0.3c0.3,0.1,1.6,0,2,0.1c0.3,0,0.5,0.2,0.7,0.3c0.2,0.1,3.7,1.6,3.9,1.7
								c0.1,0,0.2,0.1,0.2,0.2c0.1,0.1,0.2,0.3,0.2,0.7c0,0.5,0.3,5.2,0.3,5.6c0,0.4-0.1,0.9-0.3,1.2c-0.4,0.4-3.5,4.6-3.8,5
								c-0.2,0.3-0.5,0.5-0.8,0.5C394.5,172.2,394.5,172.2,394.4,172.2z"/>
							<path id="Фигура_764_копия_5" class="st48" d="M391.3,156.8l3.6,1.5c0.1,0.1,0.3,0.2,0.4,0.3
								c0.1,0,3.9,0.8,3.9,0.8l-4.7-2.6c0,0-2,0-2.3-0.1C391.9,156.7,391.6,156.7,391.3,156.8z"/>
							<path id="Фигура_763_копия_5" class="st49" d="M390.7,171.8c-0.1-0.1-0.2-0.2-0.1-0.3c0-0.1-0.3-6.6-0.3-6.6
								l-2.7-1.4l0.3,6.6c0,0-0.1,0.3,0.6,0.6S390.9,171.8,390.7,171.8z"/>
						</g>
					</g>
				</g>
				<g id="Фигура_753_копия_21-2">
					<path id="Фигура_753_копия_21-3" class="st50" d="M395.4,173c-0.4-0.1-3.5-0.7-3.8-0.7c-0.2,0-0.2-0.1-0.3-0.2
						c-0.1,0-0.2-0.1-0.3-0.1c-0.2-0.1-1.7-0.8-1.8-0.9c-0.2-0.1-0.3-0.4-0.3-0.6v-6.3c0-0.3,0.1-0.5,0.3-0.8c0.2-0.3,3.9-5.1,4-5.3
						c0.3-0.2,0.7-0.3,1-0.3c0.3,0.1,3.1,0.7,3.4,0.8c0.3,0,0.5,0.1,0.7,0.3c0.2,0.1,1.5,0.8,1.7,0.9c0.1,0,0.2,0.1,0.2,0.2
						c0.1,0,0.2,0.1,0.2,0.5v5.7c0,0.4-0.1,0.9-0.3,1.2c-0.4,0.4-3.5,4.6-3.8,5c-0.2,0.3-0.5,0.5-0.8,0.5
						C395.5,173,395.4,173,395.4,173z"/>
					<g>
						<defs>
							<path id="SVGID_49_" d="M395.4,173c-0.4-0.1-3.5-0.7-3.8-0.7c-0.2,0-0.2-0.1-0.3-0.2c-0.1,0-0.2-0.1-0.3-0.1
								c-0.2-0.1-1.7-0.8-1.8-0.9c-0.2-0.1-0.3-0.4-0.3-0.6v-6.3c0-0.3,0.1-0.5,0.3-0.8c0.2-0.3,3.9-5.1,4-5.3
								c0.3-0.2,0.7-0.3,1-0.3c0.3,0.1,3.1,0.7,3.4,0.8c0.3,0,0.5,0.1,0.7,0.3c0.2,0.1,1.5,0.8,1.7,0.9c0.1,0,0.2,0.1,0.2,0.2
								c0.1,0,0.2,0.1,0.2,0.5v5.7c0,0.4-0.1,0.9-0.3,1.2c-0.4,0.4-3.5,4.6-3.8,5c-0.2,0.3-0.5,0.5-0.8,0.5
								C395.5,173,395.4,173,395.4,173z"/>
						</defs>
						<clipPath id="SVGID_50_">
							<use xlink:href="#SVGID_49_"  style="overflow:visible;"/>
						</clipPath>
						<g id="Clip-25" class="st63">
							<path id="Фигура_764_копия_6" class="st52" d="M393.4,157.8l2.4,1.4c0,0,0.6,0.1,0.7,0.1s3.9,0.8,3.9,0.8
								l-2.4-1.7c0,0-3.4-0.7-3.7-0.8C394,157.6,393.7,157.7,393.4,157.8z"/>
							<path id="Фигура_763_копия_6" class="st53" d="M391.7,172.6c-0.1-0.1-0.2-0.2-0.1-0.3c0-0.1-0.2-6.9-0.2-6.9
								l-2.7-1.4l0.2,6.9c0,0-0.1,0.3,0.6,0.6S391.9,172.6,391.7,172.6z"/>
							<path id="Фигура_753_копия_22" class="st54" d="M391.2,165.5c0-0.3,0.1-0.6,0.3-0.8c0.2-0.3,3.6-4.7,3.8-5
								s0.5-0.6,0.9-0.5s3.6,0.7,3.8,0.8s0.3,0,0.3,0.6v6.1c0,0.4-0.1,0.7-0.3,1c-0.4,0.5-3.5,4.7-3.8,5s-0.6,0.6-0.9,0.5
								s-3.5-0.7-3.8-0.8s-0.3-0.1-0.3-0.6V165.5z"/>
							<path id="Фигура_753_копия_23" class="st55" d="M391.4,165.7c0-0.3,0.1-0.6,0.3-0.8c0.2-0.3,3.6-4.7,3.8-5
								s0.5-0.6,0.9-0.5s3.6,0.7,3.8,0.8s0.3,0,0.3,0.6v6.1c0,0.4-0.1,0.7-0.3,1c-0.4,0.5-3.5,4.7-3.8,5s-0.6,0.6-0.9,0.5
								s-3.5-0.7-3.8-0.8s-0.3-0.1-0.3-0.6V165.7z"/>
						</g>
					</g>
				</g>
				<g id="Фигура_753_копия_24-2">
					<path id="Фигура_753_копия_24-3" class="st53" d="M392.7,165.6c0-0.2,0.1-0.4,0.2-0.6c0.2-0.2,2.5-3.3,2.7-3.5
						s0.3-0.4,0.6-0.4s2.5,0.5,2.7,0.5s0.2,0,0.2,0.4v4.2c0,0.2-0.1,0.5-0.2,0.7c-0.3,0.3-2.5,3.2-2.7,3.5s-0.4,0.4-0.6,0.4
						s-2.5-0.5-2.7-0.5s-0.2-0.1-0.2-0.4V165.6z"/>
					<g>
						<defs>
							<path id="SVGID_51_" d="M392.7,165.6c0-0.2,0.1-0.4,0.2-0.6c0.2-0.2,2.5-3.3,2.7-3.5s0.3-0.4,0.6-0.4s2.5,0.5,2.7,0.5
								s0.2,0,0.2,0.4v4.2c0,0.2-0.1,0.5-0.2,0.7c-0.3,0.3-2.5,3.2-2.7,3.5s-0.4,0.4-0.6,0.4s-2.5-0.5-2.7-0.5s-0.2-0.1-0.2-0.4
								V165.6z"/>
						</defs>
						<clipPath id="SVGID_52_">
							<use xlink:href="#SVGID_51_"  style="overflow:visible;"/>
						</clipPath>
						<g id="Clip-26" class="st64">
							<path id="Фигура_568_копия_2" class="st52" d="M396.4,171l-2.7-1.9l-1.5-0.2v2.1l3.4,0.3L396.4,171z"/>
							<path id="Фигура_567_копия_2" class="st50" d="M399.3,166.7l-3.1-1.3l-3.1,4.2l3.6,1.6L399.3,166.7z"/>
							<path id="Фигура_753_копия_25" class="st57" d="M390.3,164.5c0-0.2,0.1-0.4,0.2-0.6c0.2-0.2,2.5-3.3,2.7-3.5
								s0.3-0.4,0.6-0.4s2.5,0.5,2.7,0.5s0.2,0,0.2,0.4v4.2c0,0.2-0.1,0.5-0.2,0.7c-0.3,0.3-2.5,3.2-2.7,3.5s-0.4,0.4-0.6,0.4
								s-2.5-0.5-2.7-0.5s-0.2-0.1-0.2-0.4V164.5z"/>
							<path id="Фигура_753_копия_26" class="st58" d="M391.4,165c0-0.2,0.1-0.4,0.2-0.6c0.2-0.2,2.5-3.3,2.7-3.5
								s0.3-0.4,0.6-0.4s2.5,0.5,2.7,0.5s0.2,0,0.2,0.4v4.2c0,0.2-0.1,0.5-0.2,0.7c-0.3,0.3-2.5,3.2-2.7,3.5s-0.4,0.4-0.6,0.4
								s-2.5-0.5-2.7-0.5s-0.2-0.1-0.2-0.4V165z"/>
						</g>
					</g>
				</g>
			</g>
			<path id="Deploy-2" class="st65" d="M269.4,159.4c-0.4-0.3-0.8-0.5-1.2-0.9l0.4-3.1c0.2,0.2,0.4,0.4,0.7,0.6c0.6,0.4,1,0.4,1.2,0
				l0.2-0.5l-3.4-13.9l2.9,1.7l2,8.5l2-6.3l2.9,1.7l-3.9,11.1c-0.4,1.2-1,1.6-1.7,1.6C270.7,159.9,270,159.7,269.4,159.4z
				 M262.2,150.8c-2.9-1.7-4.7-5.6-4.7-8.9s1.8-5.1,4.7-3.4c3,1.7,4.7,5.6,4.7,8.9c0,2.4-1,4.1-2.7,4.1
				C263.6,151.4,262.9,151.2,262.2,150.8L262.2,150.8z M260.4,143.5c-0.1,1.5,0.6,3,1.9,3.9c1.2,0.7,1.9-0.2,1.9-1.8
				c0.1-1.5-0.6-3-1.9-3.9c-0.2-0.1-0.5-0.2-0.8-0.2C260.8,141.5,260.4,142.3,260.4,143.5L260.4,143.5z M253.3,145.3v-16.2l2.8,1.6
				v16.2L253.3,145.3z M242.8,143.7v-16.2l2.8,1.6v1.4c0.7-0.7,1.8-0.8,2.6-0.2c2.2,1.2,3.8,4.4,3.8,8.3c0,4-1.6,5.2-3.8,4
				c-1.2-0.8-2.1-1.9-2.6-3.1v5.8L242.8,143.7z M245.5,133.2v3.6c0.4,0.8,0.9,1.5,1.6,2c1.1,0.6,1.9,0,1.9-1.8
				c0.1-1.5-0.6-3-1.9-3.9c-0.3-0.1-0.5-0.2-0.8-0.2C246,132.9,245.7,133,245.5,133.2L245.5,133.2z M237.1,136.3
				c-3-2-4.8-5.3-4.7-8.9c0-3.4,1.9-5,4.6-3.5c2.6,1.5,4.4,5.1,4.4,9.1v0.8l-6.2-3.5c0.2,1.4,1,2.6,2.2,3.3c0.6,0.4,1.4,0.5,2.2,0.2
				l1.2,3c-0.3,0.2-0.7,0.3-1.1,0.3C238.8,137.1,237.9,136.8,237.1,136.3L237.1,136.3z M235.2,127.8l3.6,2.1c-0.1-1.2-0.7-2.4-1.8-3
				c-0.2-0.1-0.5-0.2-0.8-0.2C235.6,126.6,235.3,127.2,235.2,127.8L235.2,127.8z M225,129.1l-5-2.9V110l5,2.9
				c4.1,2.5,6.5,7,6.5,11.8c0,3.5-1.3,5.3-3.5,5.3C227,130,225.9,129.7,225,129.1L225,129.1z M223.1,124.3l1.9,1.1
				c2.1,1.2,3.3-0.2,3.3-2.6c0.1-2.5-1.2-4.9-3.3-6.3l-2-1.1L223.1,124.3z"/>
			<path id="Прямоугольник_скругл._углы_642_копия_9" class="st66" d="M242,185.4l-8.4-5.1
				c-0.7-0.5-1-1.3-1.1-2.1c0-0.8,0.5-1.2,1.1-0.9l8.4,5.1c0.7,0.5,1.1,1.3,1.1,2.1c0,0.6-0.3,1-0.6,1
				C242.3,185.6,242.1,185.5,242,185.4z M247.6,181.8l-7.7-4.7c-0.7-0.5-1.1-1.3-1.1-2.1c0-0.8,0.5-1.2,1.1-0.9l7.7,4.7
				c0.7,0.5,1.1,1.3,1.1,2.1c0,0.6-0.3,1-0.6,1C247.9,182,247.7,181.9,247.6,181.8L247.6,181.8z M228.7,177.4l-13.3-8
				c-0.7-0.5-1-1.3-1.1-2.1c0-0.8,0.5-1.2,1.1-0.9l13.3,8c0.7,0.5,1,1.3,1.1,2.1c0,0.6-0.3,1-0.6,1
				C228.9,177.5,228.8,177.5,228.7,177.4z M249.7,176.1l-16.1-9.7c-0.7-0.5-1-1.3-1.1-2.1c0-0.8,0.5-1.2,1.1-0.9l16.1,9.7
				c0.7,0.5,1.1,1.3,1.1,2.1c0,0.6-0.3,1-0.6,1C250,176.2,249.8,176.2,249.7,176.1L249.7,176.1z M235,174.2l-23.9-14.4
				c-0.7-0.5-1-1.3-1.1-2.1c0-0.8,0.5-1.2,1.1-0.9l23.9,14.4c0.7,0.5,1.1,1.3,1.1,2.1c0,0.6-0.3,1-0.6,1
				C235.3,174.3,235.1,174.3,235,174.2L235,174.2z M210.4,166.4l-23.2-14c-0.7-0.5-1.1-1.3-1.1-2.1c0-0.8,0.5-1.2,1.1-0.9l23.2,14
				c0.7,0.5,1,1.3,1.1,2.1c0,0.6-0.3,1-0.6,1C210.7,166.5,210.6,166.5,210.4,166.4L210.4,166.4z M242,164.4l-8.4-5.1
				c-0.7-0.5-1-1.3-1.1-2.1c0-0.8,0.5-1.2,1.1-0.9l8.4,5.1c0.7,0.5,1.1,1.3,1.1,2.1c0,0.6-0.3,1-0.6,1
				C242.3,164.6,242.1,164.5,242,164.4L242,164.4z M228.7,163.4l-4.9-3c-0.7-0.5-1.1-1.3-1.1-2.1c0-0.8,0.5-1.2,1.1-0.9l4.9,3
				c0.7,0.5,1,1.3,1.1,2.1c0,0.6-0.3,1-0.6,1C228.9,163.5,228.8,163.5,228.7,163.4z M218.9,157.5l-16.1-9.7c-0.7-0.5-1-1.3-1.1-2.1
				c0-0.8,0.5-1.2,1.1-0.9l16.1,9.7c0.7,0.5,1.1,1.3,1.1,2.1c0,0.6-0.3,1-0.6,1C219.1,157.6,219,157.5,218.9,157.5L218.9,157.5z
				 M206.2,156.8l-13.3-8c-0.7-0.5-1.1-1.3-1.1-2.1c0-0.8,0.5-1.2,1.1-0.9l13.3,8c0.7,0.5,1.1,1.3,1.1,2.1c0,0.6-0.3,1-0.6,1
				C206.5,157,206.3,156.9,206.2,156.8L206.2,156.8z M228.7,156.4l-13.3-8c-0.7-0.5-1-1.3-1.1-2.1c0-0.8,0.5-1.2,1.1-0.9l13.3,8
				c0.7,0.5,1,1.3,1.1,2.1c0,0.6-0.3,1-0.6,1C228.9,156.5,228.8,156.5,228.7,156.4z M182.4,149.4l-6.3-3.8c-0.7-0.5-1.1-1.3-1.1-2.1
				c0-0.8,0.5-1.2,1.1-0.9l6.3,3.8c0.7,0.5,1.1,1.3,1.1,2.1c0,0.6-0.3,1-0.6,1C182.6,149.6,182.5,149.5,182.4,149.4L182.4,149.4z
				 M188,145.8l-11.9-7.2c-0.7-0.5-1-1.3-1.1-2.1c0-0.8,0.5-1.2,1.1-0.9l11.9,7.2c0.7,0.5,1.1,1.3,1.1,2.1c0,0.6-0.3,1-0.6,1
				C188.2,146,188.1,145.9,188,145.8L188,145.8z M210.4,145.4l-23.2-14c-0.7-0.5-1.1-1.3-1.1-2.1c0-0.8,0.5-1.2,1.1-0.9l23.2,14
				c0.7,0.5,1,1.3,1.1,2.1c0,0.6-0.3,1-0.6,1C210.7,145.5,210.6,145.5,210.4,145.4L210.4,145.4z M197.8,144.8l-21.8-13.1
				c-0.7-0.5-1.1-1.3-1.1-2.1c0-0.8,0.5-1.2,1.1-0.9l21.7,13.1c0.7,0.5,1,1.3,1.1,2.1c0,0.6-0.3,1-0.6,1
				C198.1,144.9,197.9,144.8,197.8,144.8L197.8,144.8z M182.4,128.4l-6.3-3.8c-0.7-0.5-1.1-1.3-1.1-2.1c0-0.8,0.5-1.2,1.1-0.9
				l6.3,3.8c0.7,0.5,1.1,1.3,1.1,2.1c0,0.6-0.3,1-0.6,1C182.6,128.6,182.5,128.5,182.4,128.4L182.4,128.4z"/>
			<path id="Прямоугольник_скругл._углы_642_копия_10" class="st65" d="M295.2,208.8l-13.3-8
				c-0.7-0.5-1-1.3-1.1-2.1c0-0.8,0.5-1.2,1.1-0.9l13.3,8c0.7,0.5,1.1,1.3,1.1,2.1c0,0.6-0.3,1-0.6,1
				C295.5,209,295.3,208.9,295.2,208.8z M271.4,201.4l-6.3-3.8c-0.7-0.5-1-1.3-1.1-2.1c0-0.8,0.5-1.2,1.1-0.9l6.3,3.8
				c0.7,0.5,1.1,1.3,1.1,2.1c0,0.6-0.3,1-0.6,1C271.6,201.6,271.5,201.5,271.4,201.4L271.4,201.4z M277,197.8l-11.9-7.2
				c-0.7-0.5-1-1.3-1.1-2.1c0-0.8,0.5-1.2,1.1-0.9l11.9,7.2c0.7,0.5,1.1,1.3,1.1,2.1c0,0.6-0.3,1-0.6,1
				C277.2,198,277.1,197.9,277,197.8L277,197.8z M299.4,197.4l-23.2-14c-0.7-0.5-1.1-1.3-1.1-2.1c0-0.8,0.5-1.2,1.1-0.9l23.2,14
				c0.7,0.5,1,1.3,1.1,2.1c0,0.6-0.3,1-0.6,1C299.7,197.5,299.6,197.5,299.4,197.4L299.4,197.4z M286.8,196.8l-21.8-13.1
				c-0.7-0.5-1-1.3-1.1-2.1c0-0.8,0.5-1.2,1.1-0.9l21.7,13.1c0.7,0.5,1,1.3,1.1,2.1c0,0.6-0.3,1-0.6,1
				C287.1,196.9,286.9,196.8,286.8,196.8L286.8,196.8z M271.4,180.4l-6.3-3.8c-0.7-0.5-1-1.3-1.1-2.1c0-0.8,0.5-1.2,1.1-0.9l6.3,3.8
				c0.7,0.5,1.1,1.3,1.1,2.1c0,0.6-0.3,1-0.6,1C271.6,180.6,271.5,180.5,271.4,180.4L271.4,180.4z"/>
			<g id="Scalability_копия">
				
					<linearGradient id="Прямоугольник_скругл._углы_504_копия_17_1_" gradientUnits="userSpaceOnUse" x1="-34.9962" y1="738.8353" x2="-35.6638" y2="738.1545" gradientTransform="matrix(210.611 0 0 -129.0606 7557.52 95706.8438)">
					<stop  offset="0" style="stop-color:#364D88;stop-opacity:0.58"/>
					<stop  offset="0.1455" style="stop-color:#2D447E;stop-opacity:0.4695"/>
					<stop  offset="0.3834" style="stop-color:#253C76;stop-opacity:0.2888"/>
					<stop  offset="0.7638" style="stop-color:#233A73;stop-opacity:0"/>
					<stop  offset="1" style="stop-color:#192F67;stop-opacity:0"/>
				</linearGradient>
				<path id="Прямоугольник_скругл._углы_504_копия_17" class="st67" d="M144.6,332.1l76.7,45.7
					c0.8,0.5,0.9,1.2,0.1,1.7l-129.8,81c-0.9,0.4-2,0.4-2.9-0.1L12,414.7c-0.8-0.5-0.9-1.2-0.1-1.7l129.8-81
					C142.6,331.6,143.7,331.6,144.6,332.1z"/>
				<g id="Группа_169_копия_3">
					<g id="Эллипс_878-3">
						<path id="Эллипс_878-4" class="st68" d="M177.9,270.4c40,0,72.4,18.6,72.6,41.5c0,0.1,0,34.6,0,34.7
							c0,23.1-32.5,41.8-72.6,41.8s-72.6-18.7-72.6-41.8c0-0.1,0-34.6,0-34.7C105.5,288.9,138,270.4,177.9,270.4z"/>
						<g>
							<defs>
								<path id="SVGID_53_" d="M177.9,270.4c40,0,72.4,18.6,72.6,41.5c0,0.1,0,34.6,0,34.7c0,23.1-32.5,41.8-72.6,41.8
									s-72.6-18.7-72.6-41.8c0-0.1,0-34.6,0-34.7C105.5,288.9,138,270.4,177.9,270.4z"/>
							</defs>
							<clipPath id="SVGID_54_">
								<use xlink:href="#SVGID_53_"  style="overflow:visible;"/>
							</clipPath>
							<g id="Clip-27" class="st69">
								<path id="Фигура_882" class="st70" d="M164.1,394v-58.2l-58.8-35.5c0,0-21,46.1-4.3,60.7s43.9,35,43.9,35L164.1,394z"
									/>
								<path id="Фигура_883" class="st71" d="M153.1,396.6v-61.3l37.2,0.6v69.9L153.1,396.6z"/>
								<path id="Фигура_884" class="st72" d="M189.8,411.2v-74.5l29-8v81.9L189.8,411.2z"/>
							</g>
						</g>
					</g>
					<ellipse id="Эллипс_878_копия_9" class="st73" cx="177.9" cy="310.5" rx="72.7" ry="41.4"/>
				</g>
				<g id="Группа_169_копия_2">
					<g id="Эллипс_878-5">
						<path id="Эллипс_878-6" class="st68" d="M178.3,262.9c34.9,0,63.3,16.3,63.5,36.4c0,0.1,0,5.4,0,5.5
							c0,20.2-28.4,36.6-63.5,36.6s-63.5-16.4-63.5-36.6c0-0.1,0-5.4,0-5.5C115,279.2,143.3,262.9,178.3,262.9z"/>
						<g>
							<defs>
								<path id="SVGID_55_" d="M178.3,262.9c34.9,0,63.3,16.3,63.5,36.4c0,0.1,0,5.4,0,5.5c0,20.2-28.4,36.6-63.5,36.6
									s-63.5-16.4-63.5-36.6c0-0.1,0-5.4,0-5.5C115,279.2,143.3,262.9,178.3,262.9z"/>
							</defs>
							<clipPath id="SVGID_56_">
								<use xlink:href="#SVGID_55_"  style="overflow:visible;"/>
							</clipPath>
							<g id="Clip-28" class="st74">
								<path id="Фигура_882-2" class="st70" d="M166.2,349.5v-29l-51.5-31.2c0,0-18.4,25-3.8,37.8s38.5,24.1,38.5,24.1
									L166.2,349.5z"/>
								<path id="Фигура_883-2" class="st71" d="M156.6,351.8V320l32.6,0.5v39.3L156.6,351.8z"/>
								<path id="Фигура_884-2" class="st72" d="M188.8,364.6v-43.3l25.4-7.1v49.9L188.8,364.6z"/>
							</g>
						</g>
					</g>
					<g id="Эллипс_878_копия-2">
						<path id="Эллипс_878_копия-3" class="st75" d="M114.9,299.4L114.9,299.4c0,0-3.7-18.4,32.1-36
							c10.8-5.3,57.9-2,62.9-1c6.5,1.4,32.2,18.6,32.2,35.5c0,0,0,0.1,0,0.1c0,0.3,0,0.6,0,0.9c0,20.1-28.5,36.5-63.6,36.5
							C143.6,335.3,115.4,319.3,114.9,299.4z"/>
						<g>
							<defs>
								<path id="SVGID_57_" d="M114.9,299.4L114.9,299.4c0,0-3.7-18.4,32.1-36c10.8-5.3,57.9-2,62.9-1c6.5,1.4,32.2,18.6,32.2,35.5
									c0,0,0,0.1,0,0.1c0,0.3,0,0.6,0,0.9c0,20.1-28.5,36.5-63.6,36.5C143.6,335.3,115.4,319.3,114.9,299.4z"/>
							</defs>
							<clipPath id="SVGID_58_">
								<use xlink:href="#SVGID_57_"  style="overflow:visible;"/>
							</clipPath>
							<g id="Clip-29" class="st76">
								<path id="Фигура_1685" class="st77" d="M125.5,273.4c0.5,0.1,7.2,10.7,9.6,8.2s11.5-9,13.4-11s6.5-1.9,7.7-6.2
									s6.4-7.6-1-8.2s-0.2-3.5-11.5,1.9c-11.4,5.4-12.4,5.9-12.5,6.7S124.9,273.4,125.5,273.4z"/>
								<path id="Фигура_1684" class="st78" d="M214.2,330.1l-10.1-21.1l-14.9,1.4l-3.8,1.9l-0.5,4.8l1,17.8
									c-0.1,1.8-0.1,3.5,0,5.3c0.2,0.9,1.9,8.3,4.3,8.6s-4.2,2.5-2.9,2.4s31-6.4,30.7-7.2S214.2,330.1,214.2,330.1z"/>
								<path id="Фигура_1683" class="st77" d="M189.3,335.8l-1.9-21.6l-22.1-4.8l-3.4,3.8l-5.3,12.5l-2.4,21.6
									c0,0,21.1,5.4,22.1,5.3s13-1.9,13-1.9L189.3,335.8z"/>
								<path id="Фигура_1682" class="st79" d="M156.6,333.9l7.2-22.1c0,0-19.8-22.9-20.6-26.4s-4.2-7.4-4.3-8.6
									s-3.4-4.3-3.4-4.3l-8.2,1L113,289.7c0,0-1.1,8.3-1,10.6s0.8,10.9,1.4,11.5c1.1,1.6,2.6,2.9,4.3,3.8c3.4,2.1,6.7,6.5,7.7,8.2
									s0.8,3.8,3.4,4.8c2.5,1,2.6,1.6,4.8,1.9s2.6,0.5,5.8,1S156.6,333.9,156.6,333.9z"/>
							</g>
						</g>
					</g>
					<ellipse id="Эллипс_878_копия_5" class="st73" cx="179.7" cy="285.7" rx="51.8" ry="29"/>
					<g id="Эллипс_878_копия_10-2">
						<ellipse id="Эллипс_878_копия_10-3" class="st68" cx="179.7" cy="285.4" rx="47" ry="26.4"/>
						<g>
							<defs>
								<ellipse id="SVGID_59_" cx="179.7" cy="285.4" rx="47" ry="26.4"/>
							</defs>
							<clipPath id="SVGID_60_">
								<use xlink:href="#SVGID_59_"  style="overflow:visible;"/>
							</clipPath>
							<g id="Clip-30" class="st80">
								<path id="Фигура_891" class="st70" d="M201.4,300.5V260c0,0,25.3,5,27,19.7s-3.6,22.8-8.5,19.7
									S201.4,300.5,201.4,300.5z"/>
								<path id="Фигура_892" class="st81" d="M202.8,299v-39.9l-15.4-2.5v40.7L202.8,299z"/>
								<path id="Фигура_893" class="st71" d="M187.4,298.2v-44l-15.3-0.9V299L187.4,298.2z"/>
								<ellipse id="Эллипс_878_копия_6" class="st39" cx="179.7" cy="311.3" rx="47" ry="26.4"/>
								<path id="Фигура_1678" class="st82" d="M217.8,303.2c0,0-3-11.9-50.6-16.8c20.8-30.7,35.4-38,52-27.6
									s46.3,33.8,24,42.1S217.8,303.2,217.8,303.2z"/>
							</g>
						</g>
					</g>
				</g>
				<g id="круг_копия">
					<g id="Эллипс_4_копия-16">
						<path id="Эллипс_4_копия-17" class="st70" d="M180.7,292.6L180.7,292.6c-10.4,0-20.8-1-31-3.1
							c-17-3.5-31.7-9.7-42.5-18c-4.9-3.6-9.2-8-12.6-13c-3-4.4-5.1-9.3-5.9-14.6c0-0.3-0.1-10.7-0.1-10.8c-0.1-3.3,0.2-6.5,0.9-9.7
							c0.8-3.4,2.2-6.7,4.1-9.7c3.6-5.7,8.2-10.6,13.6-14.6c6.2-4.5,12.9-8.2,20-11c8-3.1,16.2-5.5,24.6-7
							c19.3-3.5,39.2-3.2,58.4,0.7c9.1,1.8,17.9,4.6,26.3,8.4c7.1,3.2,13.7,7.3,19.7,12.3c5,4.2,9.1,9.3,12,15.1
							c2.6,5.1,3.8,10.9,3.4,16.6c0,0.1,0,2-0.1,3.9c0,2.3-0.1,4.9-0.1,5.1c-0.6,5.1-2.3,9.9-5,14.2c-3.6,5.7-8.2,10.6-13.6,14.6
							c-6.2,4.5-12.9,8.2-20,11c-8,3.1-16.2,5.5-24.6,7C199.1,291.8,189.9,292.6,180.7,292.6z M179.2,188.6L179.2,188.6
							c-8.3,0-16.7,0.7-24.9,2.2c-7.7,1.4-15.2,3.5-22.4,6.3c-6.5,2.5-12.6,5.9-18.2,10c-4.9,3.6-9.1,8.1-12.4,13.2
							c-3.3,5.1-4.9,11.1-4.6,17.2c0.1,1.4,0.2,2.8,0.5,4.1c0.9,4.2,3.5,8.5,7.8,12.8c4.6,4.4,9.8,8.2,15.4,11.2
							c12.2,6.7,25.4,11.2,39.2,13.2c5.9,0.7,11.9,1.1,17.9,1h0c7.4,0,14.7-0.4,22-1.2c7.7-0.8,15.3-2.2,22.7-4.1
							c7-1.7,13.7-4.3,20.1-7.6c6.2-3.3,11-7.3,14.2-11.7c0.7-0.9,1.3-1.8,1.8-2.7c1.8-2.9,3.1-6,3.9-9.3c0.9-3.9,1-7.9,0.3-11.8
							c-0.8-4-2.4-7.8-4.6-11.3c-2.2-3.4-4.9-6.6-8-9.3c-3.5-3.1-7.3-5.8-11.3-8.2c-4.6-2.6-9.4-4.9-14.3-6.7
							c-5.6-2-11.3-3.6-17-4.8C198,189.5,188.6,188.6,179.2,188.6L179.2,188.6z"/>
						<g>
							<defs>
								<path id="SVGID_61_" d="M180.7,292.6L180.7,292.6c-10.4,0-20.8-1-31-3.1c-17-3.5-31.7-9.7-42.5-18c-4.9-3.6-9.2-8-12.6-13
									c-3-4.4-5.1-9.3-5.9-14.6c0-0.3-0.1-10.7-0.1-10.8c-0.1-3.3,0.2-6.5,0.9-9.7c0.8-3.4,2.2-6.7,4.1-9.7
									c3.6-5.7,8.2-10.6,13.6-14.6c6.2-4.5,12.9-8.2,20-11c8-3.1,16.2-5.5,24.6-7c19.3-3.5,39.2-3.2,58.4,0.7
									c9.1,1.8,17.9,4.6,26.3,8.4c7.1,3.2,13.7,7.3,19.7,12.3c5,4.2,9.1,9.3,12,15.1c2.6,5.1,3.8,10.9,3.4,16.6c0,0.1,0,2-0.1,3.9
									c0,2.3-0.1,4.9-0.1,5.1c-0.6,5.1-2.3,9.9-5,14.2c-3.6,5.7-8.2,10.6-13.6,14.6c-6.2,4.5-12.9,8.2-20,11
									c-8,3.1-16.2,5.5-24.6,7C199.1,291.8,189.9,292.6,180.7,292.6z M179.2,188.6L179.2,188.6c-8.3,0-16.7,0.7-24.9,2.2
									c-7.7,1.4-15.2,3.5-22.4,6.3c-6.5,2.5-12.6,5.9-18.2,10c-4.9,3.6-9.1,8.1-12.4,13.2c-3.3,5.1-4.9,11.1-4.6,17.2
									c0.1,1.4,0.2,2.8,0.5,4.1c0.9,4.2,3.5,8.5,7.8,12.8c4.6,4.4,9.8,8.2,15.4,11.2c12.2,6.7,25.4,11.2,39.2,13.2
									c5.9,0.7,11.9,1.1,17.9,1h0c7.4,0,14.7-0.4,22-1.2c7.7-0.8,15.3-2.2,22.7-4.1c7-1.7,13.7-4.3,20.1-7.6
									c6.2-3.3,11-7.3,14.2-11.7c0.7-0.9,1.3-1.8,1.8-2.7c1.8-2.9,3.1-6,3.9-9.3c0.9-3.9,1-7.9,0.3-11.8c-0.8-4-2.4-7.8-4.6-11.3
									c-2.2-3.4-4.9-6.6-8-9.3c-3.5-3.1-7.3-5.8-11.3-8.2c-4.6-2.6-9.4-4.9-14.3-6.7c-5.6-2-11.3-3.6-17-4.8
									C198,189.5,188.6,188.6,179.2,188.6L179.2,188.6z"/>
							</defs>
							<clipPath id="SVGID_62_">
								<use xlink:href="#SVGID_61_"  style="overflow:visible;"/>
							</clipPath>
							<g id="Clip-31" class="st83">
								<path id="Фигура_1408-9" class="st71" d="M155.5,269.1l-0.5,31.6l-53.1-25.7l-0.5-32.2L155.5,269.1z"/>
								<path id="Фигура_1408_копия-5" class="st84" d="M212.3,271.4l-0.5,31.6l-63.3-6.8l0.3-32.4L212.3,271.4z"/>
								<path id="Фигура_1408-10" class="st68" d="M275,224c0,0-3.2-12.2-6.1-12.7s-15.1,3.9-16.8,5.9s-48.8,49-48.8,49
									l-0.3,40.9c0,0,53.8-18.7,62.8-30.3s17.8-28.3,17.4-37.4S275,224,275,224z"/>
								<path id="Фигура_1458" class="st85" d="M211.9,176.3l-2.8,28.1c0,0,39.4,16.1,46,30.8s10.8,6.4,12.9-0.3
									s-1.9-34.1-8.8-41.2S229,174.5,222,173.6S211.9,176.3,211.9,176.3z"/>
								<path id="Фигура_1459" class="st86" d="M213.8,173.1l-3.8,31.1l-51.7-3.7l0-26.9L213.8,173.1z"/>
								<path id="Фигура_1460" class="st87" d="M160.4,169.9l-0.4,28.8l-39.5,11.9l-3.2-28.8L160.4,169.9z"/>
								<path id="Фигура_1461" class="st88" d="M117.4,176.9l5.8,36.6l-10.9,39.7l-15.8-7c0,0-12-33.2-10.8-35.3
									s14.6-22.8,20.8-26.2C110.4,182.6,114,180,117.4,176.9z"/>
							</g>
						</g>
					</g>
					<path id="фя" class="st89" d="M180.9,283.4L180.9,283.4c-10.4,0-20.8-1-31-3.1c-7.1-1.5-14.1-3.5-20.9-6.1
						c-5.9-2.3-11.7-5.2-17-8.7c-4.7-3-9-6.6-12.7-10.6c-3.3-3.5-6-7.6-8-12c-4.4-10.1-3.6-20.7,2.3-30.5
						c3.6-5.7,8.2-10.7,13.6-14.6c6.2-4.6,12.9-8.3,20-11.1c7.9-3.2,16.2-5.5,24.6-7c19.3-3.5,39.1-3.2,58.4,0.7
						c7.1,1.5,14.1,3.5,20.9,6.1c5.9,2.3,11.7,5.2,17,8.7c4.7,3,9,6.6,12.7,10.6c3.3,3.5,6,7.6,8,12c4.4,10.1,3.6,20.7-2.3,30.5
						c-3.6,5.7-8.2,10.7-13.6,14.6c-6.2,4.6-12.9,8.3-20,11.1c-7.9,3.2-16.2,5.5-24.6,7C199.2,282.6,190.1,283.4,180.9,283.4z
						 M179.9,181.2L179.9,181.2c-8.3,0-16.7,0.7-24.9,2.2c-7.7,1.4-15.1,3.5-22.4,6.4c-6.5,2.5-12.6,5.9-18.2,10.1
						c-4.9,3.6-9.1,8.1-12.4,13.3c-5.4,9-6.1,18.5-2.1,27.7c1.8,4,4.3,7.7,7.3,10.9c3.4,3.7,7.3,6.9,11.6,9.6
						c4.9,3.1,10,5.7,15.4,7.8c6.1,2.4,12.5,4.2,18.9,5.6c17.4,3.6,35.4,3.8,52.9,0.6c7.7-1.4,15.1-3.5,22.4-6.4
						c6.5-2.5,12.6-5.9,18.2-10.1c4.9-3.6,9.1-8.1,12.4-13.3c5.4-9,6.1-18.5,2.1-27.7c-1.8-4-4.3-7.7-7.3-10.9
						c-3.4-3.7-7.3-6.9-11.6-9.6c-4.9-3.1-10-5.7-15.4-7.8c-6.1-2.4-12.5-4.2-18.9-5.6C198.7,182.1,189.3,181.1,179.9,181.2
						L179.9,181.2z"/>
				</g>
				<g id="zlhj">
					<ellipse id="ifh_копия" class="st90" cx="181.7" cy="233.3" rx="68" ry="67.7"/>
					<path id="_1_копия" class="st91" d="M181.2,301.8c-27.3,0-52-16.3-62.8-41.4c-8.1-19-7-40.7,2.9-58.8
						c5.3-9.6,12.8-17.8,21.9-23.9c-7.1,20.2-4.2,42.5,7.8,60.2c21.1,31,63.2,39.2,94.4,18.4c-2.3,6.6-5.6,12.7-9.8,18.3
						C222.8,291.8,202.6,301.9,181.2,301.8z"/>
					<path id="_2_копия" class="st92" d="M181.2,301.8c-27.3,0-52-16.3-62.8-41.4c-3.5-8.3-5.4-17.3-5.4-26.4
						c0-4.9,0.5-9.7,1.5-14.4c2-9.1,5.9-17.8,11.4-25.3c2.7-3.7,5.8-7.2,9.2-10.3c-12.8,22.4-11.8,50.1,2.7,71.5
						c21.1,31.2,63.6,39.3,94.7,18.2c2.7-1.8,5.3-3.9,7.7-6.1C228.2,288.8,205.6,301.9,181.2,301.8z"/>
					<path id="_3_копия" class="st93" d="M181.2,301.8c-27.3,0-52.1-16.3-62.8-41.4c-10.2-24.1-5.6-52,11.9-71.5
						c-16.7,23-17.2,54-1.2,77.6c21.2,31.2,63.6,39.3,94.8,18.2c4.6-3.1,8.8-6.8,12.6-11C223.6,291.4,203.1,301.8,181.2,301.8
						L181.2,301.8z"/>
					<circle id="ifh" class="st94" cx="182.7" cy="233.8" r="53.5"/>
					<path id="_1-4" class="st95" d="M182.3,288c-29.6,0-53.6-24-53.6-53.6c0-9,2.2-17.8,6.5-25.6c4.2-7.6,10.1-14.1,17.3-18.9
						c-9.7,28,5,58.5,33,68.3c15.9,5.5,33.5,3.3,47.5-6.1C225.4,273.6,205.1,288,182.3,288z"/>
					<path id="_2-2" class="st96" d="M182.3,288c-29.6,0-53.6-23.9-53.6-53.5c0,0,0-0.1,0-0.1c0-3.8,0.4-7.6,1.2-11.4
						c1.6-7.2,4.6-14,8.9-20c2.1-2.9,4.5-5.7,7.2-8.1c-14.6,25.8-5.6,58.5,20.2,73.1c20.2,11.5,45.5,8.6,62.7-7.1
						c-4.6,8.1-11.3,14.8-19.3,19.6C201.3,285.4,191.9,288,182.3,288L182.3,288z"/>
					<path id="_3" class="st97" d="M182.3,288c-29.6,0-53.6-24-53.6-53.6c0-13.1,4.8-25.7,13.4-35.5c-13,18.2-13.3,42.6-0.8,61.1
						c5.8,8.6,14,15.4,23.6,19.4c6.6,2.8,13.7,4.2,20.9,4.2c3.9,0,7.9-0.4,11.7-1.3c7.4-1.6,14.4-4.9,20.4-9.4
						c3-2.2,5.7-4.8,8.2-7.6c-4.9,6.9-11.3,12.5-18.7,16.4C199.6,285.9,191,288,182.3,288L182.3,288z"/>
					<g id="t-2">
						<path id="t-3" class="st98" d="M180.5,184.5c-14.8,7-22.9,35.5-16.4,66.4c24.8,7.3,56.1-0.6,67.9-13.4
							C232.1,198.8,199,182.4,180.5,184.5z"/>
						<g>
							<defs>
								<path id="SVGID_63_" d="M180.5,184.5c-14.8,7-22.9,35.5-16.4,66.4c24.8,7.3,56.1-0.6,67.9-13.4
									C232.1,198.8,199,182.4,180.5,184.5z"/>
							</defs>
							<clipPath id="SVGID_64_">
								<use xlink:href="#SVGID_63_"  style="overflow:visible;"/>
							</clipPath>
							<g id="Clip-32" class="st99">
								<path id="t-4" class="st100" d="M181.4,201.1c-9.6,4.5-14.9,22.9-10.7,42.9c16.1,4.7,36.4-0.4,44.1-8.7
									C214.9,210.3,193.4,199.7,181.4,201.1z"/>
								<path id="t-5" class="st101" d="M181.5,213.7c-5.5,2.6-8.5,13.4-6.1,25c9.2,2.8,20.9-0.2,25.3-5.1
									C200.7,219.1,188.3,212.9,181.5,213.7z"/>
								<path id="t_копия" class="st102" d="M186.6,230.9c0,0-7.5,4-22.5,20.1c24.8,7.3,56.1-0.6,67.9-13.4
									C212.1,232.5,186.6,230.9,186.6,230.9z"/>
								<path id="t-1" class="st103" d="M180.5,184.5c1.9,13.2,6.1,46.4,6.1,46.4s25.4,2.2,45.4,6.7
									C232.1,198.8,199,182.4,180.5,184.5z"/>
							</g>
						</g>
					</g>
				</g>
				<g id="круг">
					<g id="Эллипс_4_копия-18">
						<path id="Эллипс_4_копия-19" class="st70" d="M244.4,206.7c14.2,10.2,21,23.5,17.8,36.8c-0.8,3.3-2.1,6.4-3.9,9.3
							c-0.6,0.9-1.2,1.8-1.8,2.7c-16.9,23.2-72.1,26.8-97,23.6s-58.8-19.6-62.4-37.3c-0.3-1.4-0.5-2.8-0.5-4.1
							c-0.2-6.1,1.4-12.1,4.6-17.2c4.2-6.9,10.8-12.9,19.1-17.7c3.2-7.1,9.5-14.3,11.9-16.5c-17.5,6-31.5,15.5-38.8,27.5
							c-4.3,7-5,12.4-5,19.4c0,0.3,0.1,10.5,0.1,10.8c3.1,20,26,38.3,61.1,45.5c47.8,9.9,100-4.4,116.7-31.9c2.7-4.3,4.4-9.2,5-14.2
							c0-0.3,0.2-8.7,0.2-9c1.3-17.8-13.1-34.9-38.2-45.4C237.1,192,242.1,200,244.4,206.7z"/>
						<g>
							<defs>
								<path id="SVGID_65_" d="M244.4,206.7c14.2,10.2,21,23.5,17.8,36.8c-0.8,3.3-2.1,6.4-3.9,9.3c-0.6,0.9-1.2,1.8-1.8,2.7
									c-16.9,23.2-72.1,26.8-97,23.6s-58.8-19.6-62.4-37.3c-0.3-1.4-0.5-2.8-0.5-4.1c-0.2-6.1,1.4-12.1,4.6-17.2
									c4.2-6.9,10.8-12.9,19.1-17.7c3.2-7.1,9.5-14.3,11.9-16.5c-17.5,6-31.5,15.5-38.8,27.5c-4.3,7-5,12.4-5,19.4
									c0,0.3,0.1,10.5,0.1,10.8c3.1,20,26,38.3,61.1,45.5c47.8,9.9,100-4.4,116.7-31.9c2.7-4.3,4.4-9.2,5-14.2
									c0-0.3,0.2-8.7,0.2-9c1.3-17.8-13.1-34.9-38.2-45.4C237.1,192,242.1,200,244.4,206.7z"/>
							</defs>
							<clipPath id="SVGID_66_">
								<use xlink:href="#SVGID_65_"  style="overflow:visible;"/>
							</clipPath>
							<g id="Clip-33" class="st104">
								<path id="Фигура_1408-11" class="st71" d="M155.5,269.1l-0.5,31.6l-53.1-25.7l-0.5-32.2L155.5,269.1z"/>
								<path id="Фигура_1408_копия-6" class="st84" d="M212.3,271.4l-0.5,31.6l-63.3-6.8l0.3-32.4L212.3,271.4z"/>
								<path id="Фигура_1408-12" class="st68" d="M275,224c0,0-3.2-12.2-6.1-12.7s-15.1,3.9-16.8,5.9s-48.8,49-48.8,49
									l-0.3,40.9c0,0,53.8-18.7,62.8-30.3s17.8-28.3,17.4-37.4S275,224,275,224z"/>
								<path id="Фигура_1458-2" class="st85" d="M211.9,176.3l-2.8,28.1c0,0,39.4,16.1,46,30.8s10.8,6.4,12.9-0.3
									s-1.9-34.1-8.8-41.2S229,174.5,222,173.6S211.9,176.3,211.9,176.3z"/>
								<path id="Фигура_1459-2" class="st86" d="M213.8,173.1l-3.8,31.1l-51.7-3.7l0-26.9L213.8,173.1z"/>
								<path id="Фигура_1460-2" class="st87" d="M160.4,169.9l-0.4,28.8l-39.5,11.9l-3.2-28.8L160.4,169.9z"/>
								<path id="Фигура_1461-2" class="st88" d="M117.4,176.9l5.8,36.6l-10.9,39.7l-15.8-7c0,0-12-33.2-10.8-35.3
									s14.6-22.8,20.8-26.2C110.4,182.6,114,180,117.4,176.9z"/>
								<path id="фя-2" class="st89" d="M238.1,194.1c22.7,12.8,31.9,32.5,20.8,50.9c-15.2,25.2-62.7,38.3-106.2,29.3
									s-66.4-36.7-51.2-61.8c5.1-8.5,14-15.6,25.1-21c2.2-2.2,4.6-5.1,7.5-8.3c-18.5,6.1-33.5,15.9-41,28.4
									c-16.7,27.7,8.6,58.2,56.5,68.1s100.3-4.4,117-32.1c14.1-23.3-1.6-48.6-35.4-61.9C233.7,188.8,234.9,190.2,238.1,194.1z"/>
							</g>
						</g>
					</g>
					<path id="фя_копия" class="st89" d="M238.2,194.9c22.6,12.8,31.8,32.4,20.8,50.7c-15.1,25.1-62.5,38.1-105.9,29.2
						s-66.2-36.6-51-61.7c5.1-8.5,13.9-15.6,25-20.9c2.2-2.2,4.6-5.1,7.5-8.3c-18.5,6-33.4,15.8-40.9,28.4
						c-16.7,27.6,8.5,58,56.3,67.9s100-4.4,116.6-32c14-23.2-1.6-48.4-35.3-61.7C233.8,189.6,235,191,238.2,194.9z"/>
				</g>
			</g>
			<g id="_1_копия_4">
				<g id="Эллипс_4_копия_8-2">
					<path id="Эллипс_4_копия_8-3" class="st8" d="M227.6,346.8c4.5-0.1,6.4,5,4.3,11.5s-7.6,11.7-12.1,11.8
						s-6.4-5-4.3-11.5S223.1,346.9,227.6,346.8z"/>
					<g>
						<defs>
							<path id="SVGID_67_" d="M227.6,346.8c4.5-0.1,6.4,5,4.3,11.5s-7.6,11.7-12.1,11.8s-6.4-5-4.3-11.5S223.1,346.9,227.6,346.8z"
								/>
						</defs>
						<clipPath id="SVGID_68_">
							<use xlink:href="#SVGID_67_"  style="overflow:visible;"/>
						</clipPath>
						<g id="Clip-34" class="st105">
							<path id="Фигура_1408_копия_3" class="st106" d="M239.9,355.3l-16.7-9.3l-0.8,11.4l16.7,9.6L239.9,355.3z"/>
							<path id="Фигура_1408_копия_4" class="st7" d="M235.6,369.1c0,0,1.8,1.7,1.6,2.2c-0.7,0.9-1.6,1.7-2.7,2.2
								c-0.5,0.1-13.2,3.4-13.2,3.4L203,366.7c0,0,8.5-7.2,11.4-7.6s6.6-0.2,8.1,0.7S235.6,369.1,235.6,369.1z"/>
							<path id="Фигура_1408_копия_5" class="st107" d="M246,364.7l-25.5-13.5l-5.1,11.2l16.8,9.4L246,364.7z"/>
							<path id="Эллипс_4_копия_9" class="st23" d="M221.3,344c4.5-0.1,6.4,5,4.3,11.5s-7.6,11.7-12.1,11.8
								s-6.4-5-4.3-11.5S216.8,344.1,221.3,344z"/>
							<path id="Эллипс_4_копия_10" class="st108" d="M225.3,345.1c4.5-0.1,6.4,5,4.3,11.5s-7.6,11.7-12.1,11.8
								s-6.4-5-4.3-11.5S220.8,345.2,225.3,345.1z"/>
						</g>
					</g>
				</g>
				<g id="Эллипс_4_копия-20">
					<path id="Эллипс_4_копия-21" class="st109" d="M227.7,348.9c0.6,0,1.2,0.1,1.7,0.3c0,0,7.6,4.4,7.7,4.4
						c2.4,1.2,3.2,4.9,1.7,9.4c-1.8,5.5-6.3,10-10.1,10c-0.9,0.1-1.7-0.1-2.5-0.6c0,0-7.6-4.6-7.6-4.6c-1.9-1.5-2.4-4.9-1-8.9
						C219.4,353.5,223.9,349,227.7,348.9z"/>
					<g>
						<defs>
							<path id="SVGID_69_" d="M227.7,348.9c0.6,0,1.2,0.1,1.7,0.3c0,0,7.6,4.4,7.7,4.4c2.4,1.2,3.2,4.9,1.7,9.4
								c-1.8,5.5-6.3,10-10.1,10c-0.9,0.1-1.7-0.1-2.5-0.6c0,0-7.6-4.6-7.6-4.6c-1.9-1.5-2.4-4.9-1-8.9
								C219.4,353.5,223.9,349,227.7,348.9z"/>
						</defs>
						<clipPath id="SVGID_70_">
							<use xlink:href="#SVGID_69_"  style="overflow:visible;"/>
						</clipPath>
						<g id="Clip-35" class="st110">
							<path id="Фигура_1408-13" class="st111" d="M226.7,363.4l-10-5.7l-0.5,6.9l10,5.8L226.7,363.4z"/>
							<path id="Фигура_1408_копия-7" class="st112" d="M235.1,360l-15.2-8.2l-3,6.9l10,5.8L235.1,360z"/>
							<path id="Фигура_1408-14" class="st20" d="M238.3,353.8c0,0,1.1,1,0.9,1.4c-0.4,0.6-1,1-1.6,1.4
								c-0.3,0.1-7.9,2.1-7.9,2.1l-10.9-6.3c0,0,5.1-4.4,6.8-4.6s3.9-0.2,4.8,0.4S238.3,353.8,238.3,353.8z"/>
						</g>
					</g>
				</g>
				<path id="Эллипс_4-5" class="st18" d="M235.4,353.4c3.8-0.1,5.4,4.3,3.6,9.7s-6.3,10-10.1,10s-5.4-4.3-3.6-9.7
					S231.6,353.4,235.4,353.4z"/>
				<g id="Эллипс_4_копия_5-14">
					<path id="Эллипс_4_копия_5-15" class="st113" d="M234.6,356.5c2.7-0.1,3.8,3.1,2.6,7s-4.5,7.2-7.2,7.2
						s-3.8-3.1-2.6-7S231.9,356.6,234.6,356.5z"/>
					<g>
						<defs>
							<path id="SVGID_71_" d="M234.6,356.5c2.7-0.1,3.8,3.1,2.6,7s-4.5,7.2-7.2,7.2s-3.8-3.1-2.6-7S231.9,356.6,234.6,356.5z"/>
						</defs>
						<clipPath id="SVGID_72_">
							<use xlink:href="#SVGID_71_"  style="overflow:visible;"/>
						</clipPath>
						<g id="Clip-36" class="st114">
							<path id="Фигура_1408_копия_2-13" class="st115" d="M242,361.7l-10-5.7l-0.5,6.9l10,5.8L242,361.7z"/>
							<path id="Фигура_1408_копия_2-14" class="st20" d="M239.4,370.1c0,0,1.1,1,0.9,1.4c-0.4,0.6-1,1-1.6,1.4
								c-0.3,0.1-7.9,2.1-7.9,2.1l-10.9-6.3c0,0,5.1-4.4,6.8-4.6s3.9-0.2,4.8,0.4S239.4,370.1,239.4,370.1z"/>
							<path id="Фигура_1408_копия_2-15" class="st112" d="M245.6,367.5l-15.2-8.2l-3,6.9l10,5.8L245.6,367.5z"/>
							<path id="Эллипс_4_копия_6-5" class="st23" d="M230.9,354.8c2.7-0.1,3.8,3.1,2.6,7s-4.5,7.2-7.2,7.2
								s-3.8-3.1-2.6-7S228.2,354.9,230.9,354.8z"/>
							<path id="Эллипс_4_копия_7-5" class="st24" d="M233.2,355.5c2.7-0.1,3.8,3.1,2.6,7s-4.5,7.2-7.2,7.2
								s-3.8-3.1-2.6-7S230.5,355.6,233.2,355.5z"/>
						</g>
					</g>
				</g>
			</g>
			<g id="Группа_205">
				<g id="Фигура_1846-2">
					<path id="Фигура_1846-3" class="st116" d="M232,372c-2.6-1.7-4.1-7.5-1-11s8.4-2.1,10-1s17.1,9.4,25,13
						c9.7,4.6,20.3,7,31,7c12.8,0,24.5-4.3,32-8s13.7-6.8,16-8s7.2-1.1,9,1s2.8,8.1,0,10s-19.5,10.9-24,13s-22,7-33,7
						s-28.4-4.4-38-9S234.6,373.7,232,372z"/>
					<g>
						<defs>
							<path id="SVGID_73_" d="M232,372c-2.6-1.7-4.1-7.5-1-11s8.4-2.1,10-1s17.1,9.4,25,13c9.7,4.6,20.3,7,31,7
								c12.8,0,24.5-4.3,32-8s13.7-6.8,16-8s7.2-1.1,9,1s2.8,8.1,0,10s-19.5,10.9-24,13s-22,7-33,7s-28.4-4.4-38-9
								S234.6,373.7,232,372z"/>
						</defs>
						<clipPath id="SVGID_74_">
							<use xlink:href="#SVGID_73_"  style="overflow:visible;"/>
						</clipPath>
						<g id="Clip-37" class="st117">
							<path id="Фигура_1848" class="st118" d="M295,386c5.5,0,8,10.9,0,11s-28.6-2.4-40-9s-28.1-16.6-29-18s-2.5-15.3,7-10
								S289.5,386,295,386z"/>
							<path id="Фигура_1848_копия" class="st119" d="M288,385c5.5,0,8,10.9,0,11s-28.6-2.4-40-9s-28.1-16.6-29-18
								s-2.5-15.3,7-10S282.5,385,288,385z"/>
							<path id="Фигура_1848_копия_2" class="st120" d="M281,383c5.5,0,8,10.9,0,11s-28.6-2.4-40-9s-28.1-16.6-29-18
								s-2.5-15.3,7-10S275.5,383,281,383z"/>
							<path id="Фигура_1846_копия" class="st121" d="M232,365c-2.6-1.7-4.1-7.5-1-11s8.4-2.1,10-1s17.1,9.4,25,13
								c9.7,4.6,20.3,7,31,7c12.8,0,24.5-4.3,32-8s13.7-6.8,16-8s7.2-1.1,9,1s2.8,8.1,0,10s-19.5,10.9-24,13s-22,7-33,7
								s-28.4-4.4-38-9S234.6,366.7,232,365z"/>
							<path id="Фигура_855_копия_10" class="st122" d="M285.6,388c0.2-9.8,9.9-9.6,9.9-9.6l0,1.5c0,0-8.3,0-8.4,8.1
								s8.9,8.4,8.9,8.4l0,1.5C296,398,285.4,397.8,285.6,388z M318,392.5c0,0,8-1.9,6.3-9.8s-10.6-6.2-10.6-6.2l-0.3-1.5
								c0,0,10.3-2.3,12.4,7.3s-7.5,11.6-7.5,11.6L318,392.5z M259.6,376.6c5-8.4,13.3-3.3,13.3-3.3l-0.8,1.3c0,0-7.1-4.2-11.3,2.8
								s3.5,11.8,3.5,11.8l-0.8,1.3C263.6,390.5,254.6,385,259.6,376.6L259.6,376.6z M337.9,384.3c0,0,8.1-1.9,6.3-9.8
								s-10.6-6.2-10.6-6.2l-0.3-1.5c0,0,10.3-2.3,12.4,7.3s-7.5,11.6-7.5,11.6L337.9,384.3z M239.5,368.9c5-8.4,13.3-3.3,13.3-3.3
								l-0.8,1.3c0,0-7.1-4.2-11.3,2.8s3.5,11.8,3.5,11.8l-0.8,1.3C243.5,382.7,234.5,377.3,239.5,368.9L239.5,368.9z"/>
							<path id="Прямоугольник_скругл._углы1851" class="st123" d="M295,394.5c0-0.3,0.2-0.5,0.5-0.5
								s0.5,0.2,0.5,0.5s-0.2,0.5-0.5,0.5S295,394.8,295,394.5z M311,388.5c0-0.8,0.7-1.5,1.5-1.5s1.5,0.7,1.5,1.5s-0.7,1.5-1.5,1.5
								S311,389.3,311,388.5z M280,386c0-0.6,0.4-1,1-1s1,0.4,1,1s-0.4,1-1,1S280,386.6,280,386z M305,385c0-0.6,0.4-1,1-1
								s1,0.4,1,1s-0.4,1-1,1S305,385.6,305,385z M296,385c0-0.6,0.4-1,1-1s1,0.4,1,1s-0.4,1-1,1S296,385.6,296,385z M266,385
								c0-0.6,0.4-1,1-1s1,0.4,1,1s-0.4,1-1,1S266,385.6,266,385z M331,382c0-0.6,0.4-1,1-1s1,0.4,1,1s-0.4,1-1,1S331,382.6,331,382
								z M317,380.5c0-0.8,0.7-1.5,1.5-1.5s1.5,0.7,1.5,1.5s-0.7,1.5-1.5,1.5S317,381.3,317,380.5z M339,376c0-0.6,0.4-1,1-1
								s1,0.4,1,1s-0.4,1-1,1S339,376.6,339,376z M253,373c0-0.6,0.4-1,1-1s1,0.4,1,1s-0.4,1-1,1S253,373.6,253,373z M350,372
								c0-0.6,0.4-1,1-1s1,0.4,1,1s-0.4,1-1,1S350,372.6,350,372z M237,371c0-1.1,0.9-2,2-2s2,0.9,2,2s-0.9,2-2,2S237,372.1,237,371
								z"/>
							<path id="Прямоугольник_скругл._углы1853" class="st124" d="M270,386.5c0-0.8,0.7-1.5,1.5-1.5
								s1.5,0.7,1.5,1.5s-0.7,1.5-1.5,1.5S270,387.3,270,386.5z M321,385c0-0.6,0.4-1,1-1s1,0.4,1,1s-0.4,1-1,1S321,385.6,321,385z
								 M255,382c0-1.1,0.9-2,2-2c1.1,0,2,0.9,2,2s-0.9,2-2,2C255.9,384,255,383.1,255,382z M272,379c0-1.1,0.9-2,2-2s2,0.9,2,2
								s-0.9,2-2,2S272,380.1,272,379z M327,378.5c0-0.3,0.2-0.5,0.5-0.5s0.5,0.2,0.5,0.5s-0.2,0.5-0.5,0.5S327,378.8,327,378.5z
								 M336,375c0-0.6,0.4-1,1-1s1,0.4,1,1s-0.4,1-1,1S336,375.6,336,375z M248,374c0-0.6,0.4-1,1-1s1,0.4,1,1s-0.4,1-1,1
								S248,374.6,248,374z M345,368.5c0-0.8,0.7-1.5,1.5-1.5s1.5,0.7,1.5,1.5s-0.7,1.5-1.5,1.5S345,369.3,345,368.5z M234,369
								c0-0.6,0.4-1,1-1s1,0.4,1,1s-0.4,1-1,1S234,369.6,234,369z M234,363c0-1.1,0.9-2,2-2s2,0.9,2,2s-0.9,2-2,2S234,364.1,234,363
								z"/>
						</g>
					</g>
				</g>
			</g>
		</g>
	</g>
</g>
</svg>
