<?xml version="1.0" encoding="utf-8"?>
<!-- Generator: Adobe Illustrator 23.0.3, SVG Export Plug-In . SVG Version: 6.00 Build 0)  -->
<svg version="1.1" id="Слой_1" xmlns="http://www.w3.org/2000/svg" xmlns:xlink="http://www.w3.org/1999/xlink" x="0px" y="0px"
	 viewBox="0 0 426 488" style="enable-background:new 0 0 426 488;" xml:space="preserve">
<style type="text/css">
	
		.st0{opacity:0.839;fill:url(#Прямоугольник_скругл._углы_504_копия_17_1_);enable-background:new    ;}
	
		.st1{opacity:0.839;fill:url(#Прямоугольник_скругл._углы_504_копия_18_1_);enable-background:new    ;}
	
		.st2{opacity:0.839;fill:url(#Прямоугольник_скругл._углы_504_копия_19_1_);enable-background:new    ;}
	
		.st3{opacity:0.839;fill:url(#Прямоугольник_скругл._углы_504_копия_20_1_);enable-background:new    ;}
	
		.st4{opacity:0.839;fill:url(#Прямоугольник_скругл._углы_504_копия_20-2_1_);enable-background:new    ;}
	.st5{fill:#A7A6C0;}
	.st6{clip-path:url(#SVGID_2_);}
	.st7{opacity:0.361;fill:#C2CFE0;enable-background:new    ;}
	.st8{fill:#C2CFE0;}
	.st9{fill:#5D5988;}
	.st10{clip-path:url(#SVGID_4_);}
	.st11{clip-path:url(#SVGID_6_);}
	.st12{fill:#C4D0E1;}
	.st13{fill:#9795B6;}
	.st14{clip-path:url(#SVGID_8_);}
	.st15{fill:#B1B5CC;}
	.st16{fill:#534F7D;}
	.st17{fill:#CD8C7C;}
	.st18{clip-path:url(#SVGID_10_);}
	.st19{fill:#F7B7A7;}
	.st20{fill:#FECFC2;}
	.st21{fill:#FBF0DD;}
	.st22{fill:#D4718E;}
	.st23{clip-path:url(#SVGID_12_);}
	.st24{fill:#2E2B48;}
	.st25{opacity:0.349;fill:#D57390;enable-background:new    ;}
	.st26{clip-path:url(#SVGID_14_);}
	.st27{clip-path:url(#SVGID_16_);}
	.st28{clip-path:url(#SVGID_18_);}
	.st29{clip-path:url(#SVGID_20_);}
	.st30{clip-path:url(#SVGID_22_);}
	.st31{clip-path:url(#SVGID_24_);}
	.st32{clip-path:url(#SVGID_26_);}
	.st33{clip-path:url(#SVGID_28_);}
	.st34{clip-path:url(#SVGID_30_);}
	.st35{clip-path:url(#SVGID_32_);}
	.st36{fill:#F7B6A4;}
	.st37{clip-path:url(#SVGID_34_);}
	.st38{opacity:0.361;fill:#FEE9DF;enable-background:new    ;}
	.st39{fill:#FEE9DF;}
	.st40{fill:#D3708D;}
	.st41{fill:#494775;}
	.st42{fill:#FF584E;}
	.st43{fill:#6C6A96;}
	.st44{fill:#A9AAC8;}
	.st45{clip-path:url(#SVGID_36_);}
	.st46{fill:#696999;}
	.st47{opacity:0.631;enable-background:new    ;}
	.st48{fill:#4286A1;}
	.st49{fill:#BED9CF;}
	.st50{fill:#1C6789;}
	.st51{fill:#65A8C2;}
	.st52{clip-path:url(#SVGID_38_);}
	.st53{fill:#EBF6F2;}
	.st54{fill:#2A88B2;}
	.st55{fill:#E8F4EE;}
	.st56{fill:#BAD9D9;}
	.st57{clip-path:url(#SVGID_40_);}
	.st58{fill:#383852;}
	.st59{opacity:0.4;enable-background:new    ;}
	.st60{clip-path:url(#SVGID_42_);}
	.st61{clip-path:url(#SVGID_44_);}
	.st62{clip-path:url(#SVGID_46_);}
	.st63{clip-path:url(#SVGID_48_);}
	.st64{clip-path:url(#SVGID_50_);}
	.st65{clip-path:url(#SVGID_52_);}
	.st66{fill:#9695B6;}
	.st67{clip-path:url(#SVGID_54_);}
	.st68{clip-path:url(#SVGID_56_);}
	.st69{fill:#A6AAC5;}
	.st70{fill:#222242;}
	.st71{opacity:0.349;fill:#5D5988;enable-background:new    ;}
	.st72{clip-path:url(#SVGID_58_);}
	.st73{fill:#F53F48;}
	.st74{clip-path:url(#SVGID_60_);}
	.st75{fill:#FFAE8B;}
	.st76{fill:#FF746B;}
	.st77{fill:#9F2344;}
	.st78{clip-path:url(#SVGID_62_);}
	.st79{fill:#4E4B76;}
	.st80{opacity:0.349;fill:#37355A;enable-background:new    ;}
	.st81{fill:#BA5B77;}
	.st82{clip-path:url(#SVGID_64_);}
	.st83{fill:#D6758F;}
	.st84{fill:#F9AFC3;}
	.st85{fill:#BF5F7B;}
	.st86{clip-path:url(#SVGID_66_);}
	.st87{fill:#D5748F;}
	.st88{opacity:0.78;fill:#F4AD50;enable-background:new    ;}
	.st89{clip-path:url(#SVGID_68_);}
	.st90{opacity:0.239;fill:#A06B46;enable-background:new    ;}
	.st91{opacity:0.4;fill:#A06B46;enable-background:new    ;}
	.st92{fill:#A06B46;}
	.st93{fill:#FFDF64;}
	.st94{opacity:0.51;fill:#632413;enable-background:new    ;}
	.st95{opacity:0.478;fill:#6E3224;enable-background:new    ;}
	.st96{opacity:0.478;fill:#FFF5CF;enable-background:new    ;}
	.st97{fill:#7572B6;}
	.st98{fill:#21B3FF;}
</style>
<g>
	<g id="Canvas">
		<g id="Customize">
			
				<linearGradient id="Прямоугольник_скругл._углы_504_копия_17_1_" gradientUnits="userSpaceOnUse" x1="-106.485" y1="735.4362" x2="-106.891" y2="734.4362" gradientTransform="matrix(133.0104 0 0 -79.9888 14320.1191 59185.6562)">
				<stop  offset="0" style="stop-color:#364D88;stop-opacity:0.58"/>
				<stop  offset="0.647" style="stop-color:#233A73;stop-opacity:0"/>
				<stop  offset="1" style="stop-color:#192F67;stop-opacity:0"/>
			</linearGradient>
			<path id="Прямоугольник_скругл._углы_504_копия_17" class="st0" d="M142.7,359.2l52.9,31.8
				c0.5,0.3,0.5,0.7,0.1,1L118,438.8c-0.5,0.3-1.2,0.3-1.7,0L63.4,407c-0.5-0.3-0.5-0.7-0.1-1l77.6-46.8
				C141.5,358.9,142.1,358.9,142.7,359.2z"/>
			
				<linearGradient id="Прямоугольник_скругл._углы_504_копия_18_1_" gradientUnits="userSpaceOnUse" x1="-106.6483" y1="737.6436" x2="-107.0663" y2="736.6436" gradientTransform="matrix(168.0104 0 0 -103.989 18261.1191 77096.8359)">
				<stop  offset="0" style="stop-color:#364D88;stop-opacity:0.58"/>
				<stop  offset="0.647" style="stop-color:#233A73;stop-opacity:0"/>
				<stop  offset="1" style="stop-color:#192F67;stop-opacity:0"/>
			</linearGradient>
			<path id="Прямоугольник_скругл._углы_504_копия_18" class="st1" d="M379.7,390.2l11.9,6.8
				c0.5,0.3,0.5,0.7,0.1,1L238,493.8c-0.5,0.3-1.2,0.3-1.7,0l-11.9-6.8c-0.5-0.3-0.5-0.7-0.1-1L378,390.2
				C378.5,389.9,379.1,389.9,379.7,390.2z"/>
			
				<linearGradient id="Прямоугольник_скругл._углы_504_копия_19_1_" gradientUnits="userSpaceOnUse" x1="-106.6595" y1="737.7823" x2="-107.0775" y2="736.7823" gradientTransform="matrix(171.0104 0 0 -105.9885 18566.1191 78569.4531)">
				<stop  offset="0" style="stop-color:#364D88;stop-opacity:0.58"/>
				<stop  offset="0.647" style="stop-color:#233A73;stop-opacity:0"/>
				<stop  offset="1" style="stop-color:#192F67;stop-opacity:0"/>
			</linearGradient>
			<path id="Прямоугольник_скругл._углы_504_копия_19" class="st2" d="M360.7,373.2l14.9,8.8
				c0.5,0.3,0.5,0.7,0.1,1L222,478.8c-0.5,0.3-1.2,0.3-1.7,0l-14.9-8.8c-0.5-0.3-0.5-0.7-0.1-1L359,373.2
				C359.5,372.9,360.1,372.9,360.7,373.2z"/>
			
				<linearGradient id="Прямоугольник_скругл._углы_504_копия_20_1_" gradientUnits="userSpaceOnUse" x1="-106.6595" y1="737.7823" x2="-107.0775" y2="736.7823" gradientTransform="matrix(171.0104 0 0 -105.9885 18355.1191 78448.4531)">
				<stop  offset="0" style="stop-color:#364D88;stop-opacity:0.58"/>
				<stop  offset="0.647" style="stop-color:#233A73;stop-opacity:0"/>
				<stop  offset="1" style="stop-color:#192F67;stop-opacity:0"/>
			</linearGradient>
			<path id="Прямоугольник_скругл._углы_504_копия_20" class="st3" d="M149.7,252.2l14.9,8.8
				c0.5,0.3,0.5,0.7,0.1,1L11,357.8c-0.5,0.3-1.2,0.3-1.7,0L-5.6,349c-0.5-0.3-0.5-0.7-0.1-1L148,252.2
				C148.5,251.9,149.1,251.9,149.7,252.2z"/>
			
				<linearGradient id="Прямоугольник_скругл._углы_504_копия_20-2_1_" gradientUnits="userSpaceOnUse" x1="-106.6481" y1="737.6434" x2="-107.0661" y2="736.6434" gradientTransform="matrix(168.0104 0 0 -103.9888 18008.1191 76947.6328)">
				<stop  offset="0" style="stop-color:#364D88;stop-opacity:0.58"/>
				<stop  offset="0.647" style="stop-color:#233A73;stop-opacity:0"/>
				<stop  offset="1" style="stop-color:#192F67;stop-opacity:0"/>
			</linearGradient>
			<path id="Прямоугольник_скругл._углы_504_копия_20-2" class="st4" d="M126.7,241.2l11.9,6.8
				c0.5,0.3,0.5,0.7,0.1,1L-15,344.8c-0.5,0.3-1.2,0.3-1.7,0l-11.9-6.8c-0.5-0.3-0.5-0.7-0.1-1L125,241.2
				C125.5,240.9,126.1,240.9,126.7,241.2z"/>
			<g id="Группа_200">
				<g id="_2">
					<g id="Группа_195_копия_4">
						<g id="Фигура_2180_копия_2-8">
							<path id="Фигура_2180_копия_2-9" class="st5" d="M130.3,251.7c1.1,0.5,2.3,0.4,3.3-0.2c1.3-0.8,23.3-14.4,24.2-15
								c1.4-0.7,2.2-2.2,2.1-3.8V67.1c-0.1-3.3-1.8-6.4-4.6-8.2c-3-1.8-5.4-2.7-6.8-3.5c-1-0.6-2.3-0.6-3.2,0.1
								c-0.9,0.5-23.5,14.6-24.5,15.2c-1.2,0.5-2,1.7-1.9,3v166.6c-0.2,3.3,1.6,6.4,4.6,7.8C125.8,249.5,128,250.6,130.3,251.7z"/>
							<g>
								<g>
									<g>
										<defs>
											<path id="SVGID_1_" d="M130.3,251.7c1.1,0.5,2.3,0.4,3.3-0.2c1.3-0.8,23.3-14.4,24.2-15c1.4-0.7,2.2-2.2,2.1-3.8V67.1
												c-0.1-3.3-1.8-6.4-4.6-8.2c-3-1.8-5.4-2.7-6.8-3.5c-1-0.6-2.3-0.6-3.2,0.1c-0.9,0.5-23.5,14.6-24.5,15.2
												c-1.2,0.5-2,1.7-1.9,3v166.6c-0.2,3.3,1.6,6.4,4.6,7.8C125.8,249.5,128,250.6,130.3,251.7z"/>
										</defs>
										<clipPath id="SVGID_2_">
											<use xlink:href="#SVGID_1_"  style="overflow:visible;"/>
										</clipPath>
										<g id="Clip" class="st6">
											<path id="Фигура_2183_копия_2" class="st7" d="M133,76.2L158.6,60l2.4,4.5L134.1,81L133,76.2z"/>
											<path id="Фигура_2182_копия_2" class="st8" d="M132.5,76.6l26.4-16.1c-0.9-1.1-2-2.1-3.3-2.7
												c-2.5-1.4-5.6-2.6-7.1-3.4c-1-0.6-2.2-0.7-3.3-0.1c-0.8,0.4-24.8,15.3-25.8,15.9s-1.9,2.8-0.3,2.8s1.6-1,4.3,0.3
												s2.9,1.4,5,2.6C129.7,76.7,131.1,76.9,132.5,76.6z"/>
											<path id="Фигура_2181_копия_5" class="st9" d="M130.2,252.4c1.3,0.7,4.8,1.7,4.8-2.8V83.1
												c0-3.7-1.2-6.5-4.3-8.3c-3.4-1.8-4.6-2.2-7.1-3.3c-3.1-1.3-4.6-0.3-4.6,2.9v167.4c0,1.3,0.5,5.1,3.5,7
												S128.9,251.6,130.2,252.4z"/>
										</g>
									</g>
								</g>
							</g>
						</g>
					</g>
					<g id="Группа_195_копия_3">
						<g id="Фигура_2180_копия_2-10">
							<path id="Фигура_2180_копия_2-11" class="st5" d="M154.3,266.7c1.1,0.5,2.3,0.4,3.3-0.2
								c1.3-0.8,23.3-14.4,24.2-15c1.4-0.7,2.2-2.2,2.1-3.8V58.1c-0.1-3.3-1.8-6.4-4.6-8.2c-3-1.8-9.4-5.7-10.8-6.5
								c-1-0.6-2.3-0.6-3.2,0.1c-0.9,0.5-23.5,14.6-24.5,15.2c-1.2,0.5-2,1.7-1.9,3v190.6c-0.2,3.3,1.6,6.4,4.6,7.8
								C147.2,262.3,153.4,266.3,154.3,266.7z"/>
							<g>
								<g>
									<g>
										<defs>
											<path id="SVGID_3_" d="M154.3,266.7c1.1,0.5,2.3,0.4,3.3-0.2c1.3-0.8,23.3-14.4,24.2-15c1.4-0.7,2.2-2.2,2.1-3.8V58.1
												c-0.1-3.3-1.8-6.4-4.6-8.2c-3-1.8-9.4-5.7-10.8-6.5c-1-0.6-2.3-0.6-3.2,0.1c-0.9,0.5-23.5,14.6-24.5,15.2
												c-1.2,0.5-2,1.7-1.9,3v190.6c-0.2,3.3,1.6,6.4,4.6,7.8C147.2,262.3,153.4,266.3,154.3,266.7z"/>
										</defs>
										<clipPath id="SVGID_4_">
											<use xlink:href="#SVGID_3_"  style="overflow:visible;"/>
										</clipPath>
										<g id="Clip-2" class="st10">
											<path id="Фигура_2183_копия_2-2" class="st7" d="M157,68.2L182.6,52l2.4,4.5L158.1,73L157,68.2z"/>
											<path id="Фигура_2182_копия_2-2" class="st8" d="M156.5,67.6l26.4-16.1c-0.9-1.1-2-2.1-3.3-2.7
												c-2.5-1.4-9.6-5.6-11.1-6.4c-1-0.6-2.2-0.7-3.3-0.1c-0.8,0.4-24.8,15.3-25.8,15.9s-1.9,2.8-0.3,2.8s1.6-1,4.3,0.3
												s6.9,4.4,9,5.6C153.7,67.7,155.1,67.9,156.5,67.6z"/>
											<path id="Фигура_2181_копия_5-2" class="st9" d="M154.2,267.4c1.3,0.7,4.8,1.7,4.8-2.8V74.1
												c0-3.7-1.2-6.5-4.3-8.3c-3.2-1.9-8.7-5-11.1-6.3s-4.6-0.3-4.6,2.9v191.4c0,1.3,0.5,5.1,3.5,7S152.9,266.6,154.2,267.4z"
												/>
										</g>
									</g>
								</g>
							</g>
						</g>
					</g>
					<g id="Группа_203">
						<g id="Фигура_1826-2">
							<path id="Фигура_1826-3" class="st9" d="M141,63c-1.3-1.1-2.3-2.5-3-4c-1.1-2.1-6.7-11.3-7-12c-0.5-0.9-0.9-1.9-1-3V25
								c0-1.3-0.1-2.8,2-4s19.9-11.4,21-12c1.5-1,3.5-1,5,0c1.9,1.3,23,13.4,24,14c1.4,0.9,2.1,2.4,2,4v35c0,0-20.5,9.4-22,10
								s-4,0.2-6-1S141.7,63.4,141,63z"/>
							<g>
								<g>
									<g>
										<defs>
											<path id="SVGID_5_" d="M141,63c-1.3-1.1-2.3-2.5-3-4c-1.1-2.1-6.7-11.3-7-12c-0.5-0.9-0.9-1.9-1-3V25c0-1.3-0.1-2.8,2-4
												s19.9-11.4,21-12c1.5-1,3.5-1,5,0c1.9,1.3,23,13.4,24,14c1.4,0.9,2.1,2.4,2,4v35c0,0-20.5,9.4-22,10s-4,0.2-6-1
												S141.7,63.4,141,63z"/>
										</defs>
										<clipPath id="SVGID_6_">
											<use xlink:href="#SVGID_5_"  style="overflow:visible;"/>
										</clipPath>
										<g id="Clip-3" class="st11">
											<path id="Фигура_1828" class="st12" d="M160,39l-32-18l28-17l33,19l-3,5L160,39z"/>
											<path id="Фигура_1827" class="st5" d="M159,73V42c0.2-2,1.3-3.9,3-5c2.1-1.2,24-14,24-14l-1,12v37L159,73z"/>
										</g>
									</g>
								</g>
							</g>
						</g>
					</g>
					<g id="Группа_195_копия_2">
						<g id="Фигура_2180_копия_2-12">
							<path id="Фигура_2180_копия_2-13" class="st13" d="M200.2,90.8c0.7,0.3,1.6,0.3,2.2-0.1
								c0.9-0.5,15.5-9.7,16.2-10.1c0.9-0.5,1.5-1.5,1.4-2.6V53.1c0-2.2-1.2-4.3-3.1-5.5c-2-1.2-34.3-18.8-35.2-19.3
								c-0.7-0.4-1.5-0.4-2.1,0.1c-0.6,0.4-15.6,8.8-16.3,9.2c-0.8,0.4-1.3,1.2-1.3,2v25.6c-0.1,2.2,1.1,4.3,3.1,5.3
								C167.4,71.8,199.6,90.5,200.2,90.8z"/>
							<g>
								<g>
									<g>
										<defs>
											<path id="SVGID_7_" d="M200.2,90.8c0.7,0.3,1.6,0.3,2.2-0.1c0.9-0.5,15.5-9.7,16.2-10.1c0.9-0.5,1.5-1.5,1.4-2.6V53.1
												c0-2.2-1.2-4.3-3.1-5.5c-2-1.2-34.3-18.8-35.2-19.3c-0.7-0.4-1.5-0.4-2.1,0.1c-0.6,0.4-15.6,8.8-16.3,9.2
												c-0.8,0.4-1.3,1.2-1.3,2v25.6c-0.1,2.2,1.1,4.3,3.1,5.3C167.4,71.8,199.6,90.5,200.2,90.8z"/>
										</defs>
										<clipPath id="SVGID_8_">
											<use xlink:href="#SVGID_7_"  style="overflow:visible;"/>
										</clipPath>
										<g id="Clip-4" class="st14">
											<path id="Фигура_1823" class="st15" d="M202,63l20-12l-2-4l-23,13L202,63z"/>
											<path id="Фигура_2182_копия_2-3" class="st12" d="M201.3,58.9L219,48.3c-0.6-0.8-1.3-1.4-2.2-1.8
												c-1.6-0.9-34.5-18.7-35.5-19.2c-0.7-0.4-1.5-0.4-2.2-0.1c-0.5,0.3-16.6,9-17.4,9.4s-1.3,1.9-0.2,1.8s1.1-0.7,2.9,0.2
												s32.6,18.9,34.1,19.7C199.4,58.9,200.4,59.1,201.3,58.9z"/>
											<path id="Фигура_2181_копия_5-3" class="st16" d="M199.9,91.6c0.8,0.5,3.1,1.1,3.1-1.9V64.1
												c0-2.5-0.8-4.3-2.8-5.6c-2.1-1.2-33.7-19.3-35.2-20.2s-3.3-0.4-3.3,1.7l0.3,26.4c0,0.9,0.3,3.4,2.3,4.7
												S199.1,91.1,199.9,91.6z"/>
										</g>
									</g>
								</g>
							</g>
						</g>
					</g>
					<g id="_1">
						<g id="Эллипс_4_копия-6">
							<path id="Эллипс_4_копия-7" class="st17" d="M190.1,58.9c-0.6,0-1.2,0.1-1.7,0.3c0,0-7.6,4.4-7.7,4.4
								c-2.4,1.2-3.2,4.9-1.7,9.4c1.8,5.5,6.3,10,10.1,10c0.9,0.1,1.7-0.1,2.5-0.6l7.6-4.6c1.9-1.5,2.4-4.9,1-8.9
								C198.4,63.5,193.9,59,190.1,58.9z"/>
							<g>
								<g>
									<g>
										<defs>
											<path id="SVGID_9_" d="M190.1,58.9c-0.6,0-1.2,0.1-1.7,0.3c0,0-7.6,4.4-7.7,4.4c-2.4,1.2-3.2,4.9-1.7,9.4
												c1.8,5.5,6.3,10,10.1,10c0.9,0.1,1.7-0.1,2.5-0.6l7.6-4.6c1.9-1.5,2.4-4.9,1-8.9C198.4,63.5,193.9,59,190.1,58.9z"/>
										</defs>
										<clipPath id="SVGID_10_">
											<use xlink:href="#SVGID_9_"  style="overflow:visible;"/>
										</clipPath>
										<g id="Clip-5" class="st18">
											<path id="Фигура_1408" class="st19" d="M191.1,73.4l10-5.7l0.5,6.9l-10,5.8L191.1,73.4z"/>
											<path id="Фигура_1408_копия" class="st20" d="M182.7,70l15.2-8.2l3,6.9l-10,5.8L182.7,70z"/>
											<path id="Фигура_1408-2" class="st21" d="M179.5,63.8c0,0-1.1,1-0.9,1.4c0.4,0.6,1,1,1.6,1.4
												c0.3,0.1,7.9,2.1,7.9,2.1l10.9-6.3c0,0-5.1-4.4-6.8-4.6s-3.9-0.2-4.8,0.4S179.5,63.8,179.5,63.8z"/>
										</g>
									</g>
								</g>
							</g>
						</g>
						<path id="Эллипс_4" class="st22" d="M182.4,63.4c-3.8-0.1-5.4,4.3-3.6,9.7s6.3,10,10.1,10s5.4-4.3,3.6-9.7
							S186.2,63.4,182.4,63.4z"/>
						<g id="Эллипс_4_копия_5-6">
							<path id="Эллипс_4_копия_5-7" class="st19" d="M183.2,66.5c-2.7-0.1-3.8,3.1-2.6,7s4.5,7.2,7.2,7.2s3.8-3.1,2.6-7
								S185.9,66.6,183.2,66.5z"/>
							<g>
								<g>
									<g>
										<defs>
											<path id="SVGID_11_" d="M183.2,66.5c-2.7-0.1-3.8,3.1-2.6,7s4.5,7.2,7.2,7.2s3.8-3.1,2.6-7S185.9,66.6,183.2,66.5z"/>
										</defs>
										<clipPath id="SVGID_12_">
											<use xlink:href="#SVGID_11_"  style="overflow:visible;"/>
										</clipPath>
										<g id="Clip-6" class="st23">
											<path id="Фигура_1408_копия_2" class="st19" d="M175.8,71.7l10-5.7l0.5,6.9l-10,5.8L175.8,71.7z"/>
											<path id="Фигура_1408_копия_2-2" class="st21" d="M178.5,80.1c0,0-1.1,1-0.9,1.4c0.4,0.6,1,1,1.6,1.4
												c0.3,0.1,7.9,2.1,7.9,2.1l10.9-6.3c0,0-5.1-4.4-6.8-4.6s-3.9-0.2-4.8,0.4S178.5,80.1,178.5,80.1z"/>
											<path id="Фигура_1408_копия_2-3" class="st20" d="M172.2,77.5l15.2-8.2l3,6.9l-10,5.8L172.2,77.5z"/>
											<path id="Эллипс_4_копия_6" class="st24" d="M187,64.8c-2.7-0.1-3.8,3.1-2.6,7s4.5,7.2,7.2,7.2s3.8-3.1,2.6-7
												S189.7,64.9,187,64.8z"/>
											<path id="Эллипс_4_копия_7" class="st25" d="M184.6,65.5c-2.7-0.1-3.8,3.1-2.6,7s4.5,7.2,7.2,7.2
												s3.8-3.1,2.6-7S187.3,65.6,184.6,65.5z"/>
										</g>
									</g>
								</g>
							</g>
						</g>
					</g>
					<g id="_1_копия_3">
						<g id="Эллипс_4_копия-8">
							<path id="Эллипс_4_копия-9" class="st17" d="M145.1,231.9c-0.6,0-1.2,0.1-1.7,0.3c0,0-7.6,4.4-7.7,4.4
								c-2.4,1.2-3.2,4.9-1.7,9.4c1.8,5.5,6.3,10,10.1,10c0.9,0.1,1.7-0.1,2.5-0.6l7.6-4.6c1.9-1.5,2.4-4.9,1-8.9
								C153.4,236.5,148.9,232,145.1,231.9z"/>
							<g>
								<g>
									<g>
										<defs>
											<path id="SVGID_13_" d="M145.1,231.9c-0.6,0-1.2,0.1-1.7,0.3c0,0-7.6,4.4-7.7,4.4c-2.4,1.2-3.2,4.9-1.7,9.4
												c1.8,5.5,6.3,10,10.1,10c0.9,0.1,1.7-0.1,2.5-0.6l7.6-4.6c1.9-1.5,2.4-4.9,1-8.9C153.4,236.5,148.9,232,145.1,231.9z"/>
										</defs>
										<clipPath id="SVGID_14_">
											<use xlink:href="#SVGID_13_"  style="overflow:visible;"/>
										</clipPath>
										<g id="Clip-7" class="st26">
											<path id="Фигура_1408-3" class="st19" d="M146.1,246.4l10-5.7l0.5,6.9l-10,5.8L146.1,246.4z"/>
											<path id="Фигура_1408_копия-2" class="st20" d="M137.7,243l15.2-8.2l3,6.9l-10,5.8L137.7,243z"/>
											<path id="Фигура_1408-4" class="st21" d="M134.5,236.8c0,0-1.1,1-0.9,1.4c0.4,0.6,1,1,1.6,1.4
												c0.3,0.1,7.9,2.1,7.9,2.1l10.9-6.3c0,0-5.1-4.4-6.8-4.6s-3.9-0.2-4.8,0.4S134.5,236.8,134.5,236.8z"/>
										</g>
									</g>
								</g>
							</g>
						</g>
						<path id="Эллипс_4-2" class="st22" d="M137.4,236.4c-3.8-0.1-5.4,4.3-3.6,9.7s6.3,10,10.1,10s5.4-4.3,3.6-9.7
							S141.2,236.4,137.4,236.4z"/>
						<g id="Эллипс_4_копия_5-8">
							<path id="Эллипс_4_копия_5-9" class="st19" d="M138.2,239.5c-2.7-0.1-3.8,3.1-2.6,7s4.5,7.2,7.2,7.2
								s3.8-3.1,2.6-7S140.9,239.6,138.2,239.5z"/>
							<g>
								<g>
									<g>
										<defs>
											<path id="SVGID_15_" d="M138.2,239.5c-2.7-0.1-3.8,3.1-2.6,7s4.5,7.2,7.2,7.2s3.8-3.1,2.6-7S140.9,239.6,138.2,239.5z"/>
										</defs>
										<clipPath id="SVGID_16_">
											<use xlink:href="#SVGID_15_"  style="overflow:visible;"/>
										</clipPath>
										<g id="Clip-8" class="st27">
											<path id="Фигура_1408_копия_2-4" class="st19" d="M130.8,244.7l10-5.7l0.5,6.9l-10,5.8L130.8,244.7z"/>
											<path id="Фигура_1408_копия_2-5" class="st21" d="M133.5,253.1c0,0-1.1,1-0.9,1.4c0.4,0.6,1,1,1.6,1.4
												c0.3,0.1,7.9,2.1,7.9,2.1l10.9-6.3c0,0-5.1-4.4-6.8-4.6s-3.9-0.2-4.8,0.4S133.5,253.1,133.5,253.1z"/>
											<path id="Фигура_1408_копия_2-6" class="st20" d="M127.2,250.5l15.2-8.2l3,6.9l-10,5.8L127.2,250.5z"/>
											<path id="Эллипс_4_копия_6-2" class="st24" d="M142,237.8c-2.7-0.1-3.8,3.1-2.6,7s4.5,7.2,7.2,7.2
												s3.8-3.1,2.6-7S144.7,237.9,142,237.8z"/>
											<path id="Эллипс_4_копия_7-2" class="st25" d="M139.6,238.5c-2.7-0.1-3.8,3.1-2.6,7s4.5,7.2,7.2,7.2
												s3.8-3.1,2.6-7S142.3,238.6,139.6,238.5z"/>
										</g>
									</g>
								</g>
							</g>
						</g>
					</g>
				</g>
				<g id="_1-2">
					<g id="Группа_195_копия_3-2">
						<g id="Фигура_2180_копия_2-14">
							<path id="Фигура_2180_копия_2-15" class="st5" d="M362.3,389.7c1.1,0.5,2.3,0.4,3.3-0.2
								c1.3-0.8,23.3-14.4,24.2-15c1.4-0.7,2.2-2.2,2.1-3.8V169.1c-0.1-3.3-1.8-6.4-4.6-8.2c-3-1.8-9.4-5.7-10.8-6.5
								c-1-0.6-2.3-0.6-3.2,0.1c-0.9,0.5-23.5,14.6-24.5,15.2c-1.2,0.5-2,1.7-1.9,3v202.6c-0.2,3.3,1.6,6.4,4.6,7.8
								C355.2,385.3,361.4,389.3,362.3,389.7z"/>
							<g>
								<g>
									<g>
										<defs>
											<path id="SVGID_17_" d="M362.3,389.7c1.1,0.5,2.3,0.4,3.3-0.2c1.3-0.8,23.3-14.4,24.2-15c1.4-0.7,2.2-2.2,2.1-3.8V169.1
												c-0.1-3.3-1.8-6.4-4.6-8.2c-3-1.8-9.4-5.7-10.8-6.5c-1-0.6-2.3-0.6-3.2,0.1c-0.9,0.5-23.5,14.6-24.5,15.2
												c-1.2,0.5-2,1.7-1.9,3v202.6c-0.2,3.3,1.6,6.4,4.6,7.8C355.2,385.3,361.4,389.3,362.3,389.7z"/>
										</defs>
										<clipPath id="SVGID_18_">
											<use xlink:href="#SVGID_17_"  style="overflow:visible;"/>
										</clipPath>
										<g id="Clip-9" class="st28">
											<path id="Фигура_2183_копия_2-3" class="st7" d="M365,179.2l25.7-16.2l2.4,4.5l-27,16.5L365,179.2z"/>
											<path id="Фигура_2182_копия_2-4" class="st8" d="M364.5,178.6l26.4-16.1c-0.9-1.1-2-2.1-3.3-2.7
												c-2.5-1.4-9.6-5.6-11.1-6.4c-1-0.6-2.2-0.7-3.3-0.1c-0.8,0.4-24.8,15.3-25.8,15.9s-2,2.8-0.3,2.8s1.6-1,4.3,0.3
												s6.9,4.4,9,5.6C361.7,178.7,363.1,178.9,364.5,178.6z"/>
											<path id="Фигура_2181_копия_5-4" class="st9" d="M362.2,390.4c1.3,0.7,4.8,1.7,4.8-2.8V185.1
												c0-3.7-1.2-6.5-4.3-8.3c-3.2-1.9-8.7-4.9-11.1-6.3s-4.6-0.3-4.6,2.9v203.4c0,1.3,0.5,5.1,3.5,7S360.9,389.6,362.2,390.4z
												"/>
										</g>
									</g>
								</g>
							</g>
						</g>
					</g>
					<g id="Группа_195_копия_4-2">
						<g id="Фигура_2180_копия_2-16">
							<path id="Фигура_2180_копия_2-17" class="st5" d="M383.3,401.7c1.1,0.5,2.3,0.4,3.3-0.2
								c1.3-0.8,23.3-14.4,24.2-15c1.4-0.7,2.2-2.2,2.1-3.8V205.1c-0.1-3.3-1.8-6.4-4.6-8.2c-3-1.8-5.4-2.7-6.8-3.5
								c-1-0.6-2.3-0.6-3.2,0.1c-0.9,0.5-23.5,14.6-24.5,15.2c-1.2,0.5-2,1.7-1.9,3v178.6c-0.2,3.3,1.6,6.4,4.6,7.8
								C378.8,399.5,381,400.6,383.3,401.7z"/>
							<g>
								<g>
									<g>
										<defs>
											<path id="SVGID_19_" d="M383.3,401.7c1.1,0.5,2.3,0.4,3.3-0.2c1.3-0.8,23.3-14.4,24.2-15c1.4-0.7,2.2-2.2,2.1-3.8V205.1
												c-0.1-3.3-1.8-6.4-4.6-8.2c-3-1.8-5.4-2.7-6.8-3.5c-1-0.6-2.3-0.6-3.2,0.1c-0.9,0.5-23.5,14.6-24.5,15.2
												c-1.2,0.5-2,1.7-1.9,3v178.6c-0.2,3.3,1.6,6.4,4.6,7.8C378.8,399.5,381,400.6,383.3,401.7z"/>
										</defs>
										<clipPath id="SVGID_20_">
											<use xlink:href="#SVGID_19_"  style="overflow:visible;"/>
										</clipPath>
										<g id="Clip-10" class="st29">
											<path id="Фигура_2183_копия_2-4" class="st7" d="M386,214.2l25.7-16.2l2.4,4.5l-27,16.5L386,214.2z"/>
											<path id="Фигура_2182_копия_2-5" class="st8" d="M385.5,214.6l26.4-16.1c-0.9-1.1-2-2.1-3.3-2.7
												c-2.5-1.4-5.6-2.6-7.1-3.4c-1-0.6-2.2-0.7-3.3-0.1c-0.8,0.4-24.8,15.3-25.8,15.9s-1.9,2.8-0.3,2.8s1.6-1,4.3,0.3
												s2.9,1.4,5,2.6C382.7,214.7,384.1,214.9,385.5,214.6z"/>
											<path id="Фигура_2181_копия_5-5" class="st9" d="M383.2,402.4c1.3,0.7,4.8,1.7,4.8-2.8V221.1
												c0-3.7-1.2-6.5-4.3-8.3c-3.2-1.9-4.6-2.2-7.1-3.3c-2.9-1.2-4.6-0.7-4.6,2.5l0.1,179.8c0,1.3,0.5,5.1,3.5,7
												S381.9,401.6,383.2,402.4z"/>
										</g>
									</g>
								</g>
							</g>
						</g>
					</g>
					<g id="Группа_195_копия_2-2">
						<g id="Фигура_2180_копия_2-18">
							<path id="Фигура_2180_копия_2-19" class="st13" d="M350.2,178.8c0.7,0.3,1.6,0.3,2.2-0.1
								c0.9-0.5,15.5-9.7,16.2-10.1c0.9-0.5,1.5-1.5,1.4-2.6v-24.9c0-2.2-1.2-4.3-3.1-5.5c-2-1.2-34.3-19.8-35.2-20.3
								c-0.7-0.4-1.5-0.4-2.1,0.1c-0.6,0.4-15.6,9.8-16.3,10.2c-0.8,0.4-1.3,1.2-1.3,2v25.6c-0.1,2.2,1.1,4.3,3.1,5.3
								C317.4,159.8,349.6,178.5,350.2,178.8z"/>
							<g>
								<g>
									<g>
										<defs>
											<path id="SVGID_21_" d="M350.2,178.8c0.7,0.3,1.6,0.3,2.2-0.1c0.9-0.5,15.5-9.7,16.2-10.1c0.9-0.5,1.5-1.5,1.4-2.6v-24.9
												c0-2.2-1.2-4.3-3.1-5.5c-2-1.2-34.3-19.8-35.2-20.3c-0.7-0.4-1.5-0.4-2.1,0.1c-0.6,0.4-15.6,9.8-16.3,10.2
												c-0.8,0.4-1.3,1.2-1.3,2v25.6c-0.1,2.2,1.1,4.3,3.1,5.3C317.4,159.8,349.6,178.5,350.2,178.8z"/>
										</defs>
										<clipPath id="SVGID_22_">
											<use xlink:href="#SVGID_21_"  style="overflow:visible;"/>
										</clipPath>
										<g id="Clip-11" class="st30">
											<path id="Фигура_2182_копия_2-6" class="st12" d="M351.3,146.9l17.7-10.6c-0.6-0.8-1.3-1.4-2.2-1.8
												c-1.6-0.9-34.5-19.7-35.5-20.2c-0.7-0.4-1.5-0.4-2.2-0.1c-0.5,0.3-16.6,10-17.4,10.4s-1.3,1.9-0.2,1.8s1.1-0.7,2.9,0.2
												s32.6,18.9,34.1,19.7C349.4,147,350.4,147.1,351.3,146.9z"/>
											<path id="Фигура_2181_копия_5-6" class="st16" d="M349.9,179.6c0.8,0.5,3.1,1.1,3.1-1.9v-25.6
												c0-2.5-0.8-4.3-2.8-5.6c-2.1-1.2-33.7-19.3-35.2-20.2c-2.6-1.4-3-0.2-3,1.9v26.2c0,0.9,0.3,3.4,2.3,4.7
												S349.1,179.1,349.9,179.6z"/>
										</g>
									</g>
								</g>
							</g>
						</g>
					</g>
					<g id="_1-3">
						<g id="Эллипс_4_копия-10">
							<path id="Эллипс_4_копия-11" class="st17" d="M322.1,137.9c-0.6,0-1.2,0.1-1.7,0.3c0,0-7.6,4.4-7.7,4.4
								c-2.4,1.2-3.2,4.9-1.7,9.4c1.8,5.5,6.3,10,10.1,10c0.9,0.1,1.7-0.1,2.5-0.6l7.6-4.6c1.9-1.5,2.4-4.9,1-8.9
								C330.4,142.5,325.9,138,322.1,137.9z"/>
							<g>
								<g>
									<g>
										<defs>
											<path id="SVGID_23_" d="M322.1,137.9c-0.6,0-1.2,0.1-1.7,0.3c0,0-7.6,4.4-7.7,4.4c-2.4,1.2-3.2,4.9-1.7,9.4
												c1.8,5.5,6.3,10,10.1,10c0.9,0.1,1.7-0.1,2.5-0.6l7.6-4.6c1.9-1.5,2.4-4.9,1-8.9C330.4,142.5,325.9,138,322.1,137.9z"/>
										</defs>
										<clipPath id="SVGID_24_">
											<use xlink:href="#SVGID_23_"  style="overflow:visible;"/>
										</clipPath>
										<g id="Clip-12" class="st31">
											<path id="Фигура_1408-5" class="st19" d="M323.1,152.4l10-5.7l0.5,6.9l-10,5.8L323.1,152.4z"/>
											<path id="Фигура_1408_копия-3" class="st20" d="M314.7,149l15.2-8.2l3,6.9l-10,5.8L314.7,149z"/>
											<path id="Фигура_1408-6" class="st21" d="M311.5,142.8c0,0-1.1,1-0.9,1.4c0.4,0.6,1,1,1.6,1.4
												c0.3,0.1,7.9,2.1,7.9,2.1l10.9-6.3c0,0-5.1-4.4-6.8-4.6s-3.9-0.2-4.8,0.4S311.5,142.8,311.5,142.8z"/>
										</g>
									</g>
								</g>
							</g>
						</g>
						<path id="Эллипс_4-3" class="st22" d="M314.4,142.4c-3.8-0.1-5.4,4.3-3.6,9.7s6.3,10,10.1,10s5.4-4.3,3.6-9.7
							S318.2,142.4,314.4,142.4z"/>
						<g id="Эллипс_4_копия_5-10">
							<path id="Эллипс_4_копия_5-11" class="st19" d="M315.2,145.5c-2.7-0.1-3.8,3.1-2.6,7s4.5,7.2,7.2,7.2
								s3.8-3.1,2.6-7S317.9,145.6,315.2,145.5z"/>
							<g>
								<g>
									<g>
										<defs>
											<path id="SVGID_25_" d="M315.2,145.5c-2.7-0.1-3.8,3.1-2.6,7s4.5,7.2,7.2,7.2s3.8-3.1,2.6-7S317.9,145.6,315.2,145.5z"/>
										</defs>
										<clipPath id="SVGID_26_">
											<use xlink:href="#SVGID_25_"  style="overflow:visible;"/>
										</clipPath>
										<g id="Clip-13" class="st32">
											<path id="Фигура_1408_копия_2-7" class="st19" d="M307.8,150.7l10-5.7l0.5,6.9l-10,5.8L307.8,150.7z"/>
											<path id="Фигура_1408_копия_2-8" class="st21" d="M310.5,159.1c0,0-1.1,1-0.9,1.4c0.4,0.6,1,1,1.6,1.4
												c0.3,0.1,7.9,2.1,7.9,2.1l10.9-6.3c0,0-5.1-4.4-6.8-4.6s-3.9-0.2-4.8,0.4S310.5,159.1,310.5,159.1z"/>
											<path id="Фигура_1408_копия_2-9" class="st20" d="M304.2,156.5l15.2-8.2l3,6.9l-10,5.8L304.2,156.5z"/>
											<path id="Эллипс_4_копия_6-3" class="st24" d="M319,143.8c-2.7-0.1-3.8,3.1-2.6,7s4.5,7.2,7.2,7.2
												s3.8-3.1,2.6-7S321.7,143.9,319,143.8z"/>
											<path id="Эллипс_4_копия_7-3" class="st25" d="M316.6,144.5c-2.7-0.1-3.8,3.1-2.6,7s4.5,7.2,7.2,7.2
												s3.8-3.1,2.6-7S319.3,144.6,316.6,144.5z"/>
										</g>
									</g>
								</g>
							</g>
						</g>
					</g>
					<g id="_1_копия_3-2">
						<g id="Эллипс_4_копия-12">
							<path id="Эллипс_4_копия-13" class="st17" d="M353.1,354.9c-0.6,0-1.2,0.1-1.7,0.3c0,0-7.6,4.4-7.7,4.4
								c-2.4,1.2-3.2,4.9-1.7,9.4c1.8,5.5,6.3,10,10.1,10c0.9,0.1,1.7-0.1,2.5-0.6l7.6-4.6c1.9-1.5,2.4-4.9,1-8.9
								C361.4,359.5,356.9,355,353.1,354.9z"/>
							<g>
								<g>
									<g>
										<defs>
											<path id="SVGID_27_" d="M353.1,354.9c-0.6,0-1.2,0.1-1.7,0.3c0,0-7.6,4.4-7.7,4.4c-2.4,1.2-3.2,4.9-1.7,9.4
												c1.8,5.5,6.3,10,10.1,10c0.9,0.1,1.7-0.1,2.5-0.6l7.6-4.6c1.9-1.5,2.4-4.9,1-8.9C361.4,359.5,356.9,355,353.1,354.9z"/>
										</defs>
										<clipPath id="SVGID_28_">
											<use xlink:href="#SVGID_27_"  style="overflow:visible;"/>
										</clipPath>
										<g id="Clip-14" class="st33">
											<path id="Фигура_1408-7" class="st19" d="M354.1,369.4l10-5.7l0.5,6.9l-10,5.8L354.1,369.4z"/>
											<path id="Фигура_1408_копия-4" class="st20" d="M345.7,366l15.2-8.2l3,6.9l-10,5.8L345.7,366z"/>
											<path id="Фигура_1408-8" class="st21" d="M342.5,359.8c0,0-1.1,1-0.9,1.4c0.4,0.6,1,1,1.6,1.4
												c0.3,0.1,7.9,2.1,7.9,2.1l10.9-6.3c0,0-5.1-4.4-6.8-4.6s-3.9-0.2-4.8,0.4S342.5,359.8,342.5,359.8z"/>
										</g>
									</g>
								</g>
							</g>
						</g>
						<path id="Эллипс_4-4" class="st22" d="M345.4,359.4c-3.8-0.1-5.4,4.3-3.6,9.7s6.3,10,10.1,10s5.4-4.3,3.6-9.7
							S349.2,359.4,345.4,359.4z"/>
						<g id="Эллипс_4_копия_5-12">
							<path id="Эллипс_4_копия_5-13" class="st19" d="M346.2,362.5c-2.7-0.1-3.8,3.1-2.6,7s4.5,7.2,7.2,7.2
								s3.8-3.1,2.6-7S348.9,362.6,346.2,362.5z"/>
							<g>
								<g>
									<g>
										<defs>
											<path id="SVGID_29_" d="M346.2,362.5c-2.7-0.1-3.8,3.1-2.6,7s4.5,7.2,7.2,7.2s3.8-3.1,2.6-7S348.9,362.6,346.2,362.5z"/>
										</defs>
										<clipPath id="SVGID_30_">
											<use xlink:href="#SVGID_29_"  style="overflow:visible;"/>
										</clipPath>
										<g id="Clip-15" class="st34">
											<path id="Фигура_1408_копия_2-10" class="st19" d="M338.8,367.7l10-5.7l0.5,6.9l-10,5.8L338.8,367.7z"/>
											<path id="Фигура_1408_копия_2-11" class="st21" d="M341.5,376.1c0,0-1.1,1-0.9,1.4c0.4,0.6,1,1,1.6,1.4
												c0.3,0.1,7.9,2.1,7.9,2.1l10.9-6.3c0,0-5.1-4.4-6.8-4.6s-3.9-0.2-4.8,0.4S341.5,376.1,341.5,376.1z"/>
											<path id="Фигура_1408_копия_2-12" class="st20" d="M335.2,373.5l15.2-8.2l3,6.9l-10,5.8L335.2,373.5z"/>
											<path id="Эллипс_4_копия_6-4" class="st24" d="M350,360.8c-2.7-0.1-3.8,3.1-2.6,7s4.5,7.2,7.2,7.2
												s3.8-3.1,2.6-7S352.7,360.9,350,360.8z"/>
											<path id="Эллипс_4_копия_7-4" class="st25" d="M347.6,361.5c-2.7-0.1-3.8,3.1-2.6,7s4.5,7.2,7.2,7.2
												s3.8-3.1,2.6-7S350.3,361.6,347.6,361.5z"/>
										</g>
									</g>
								</g>
							</g>
						</g>
					</g>
					<g id="Группа_202">
						<g id="Фигура_1744-2">
							<path id="Фигура_1744-3" class="st9" d="M347,180c0,0.8-0.1,2,2,3s12.7,7.2,14,8c1.6,0.9,3.4,0.9,5,0c1.4-0.9,8-5,8-5
								s21.1-12.5,22-13c1.2-0.5,2.1-1.7,2-3v-18c0-1.5,0.1-2.6-2-4s-21.8-13.3-23-14c-1.2-0.9-2.8-0.9-4,0c-1.4,1-21.1,12.4-22,13
								s-2,1.2-2,3V180z"/>
							<g>
								<g>
									<g>
										<defs>
											<path id="SVGID_31_" d="M347,180c0,0.8-0.1,2,2,3s12.7,7.2,14,8c1.6,0.9,3.4,0.9,5,0c1.4-0.9,8-5,8-5s21.1-12.5,22-13
												c1.2-0.5,2.1-1.7,2-3v-18c0-1.5,0.1-2.6-2-4s-21.8-13.3-23-14c-1.2-0.9-2.8-0.9-4,0c-1.4,1-21.1,12.4-22,13s-2,1.2-2,3
												V180z"/>
										</defs>
										<clipPath id="SVGID_32_">
											<use xlink:href="#SVGID_31_"  style="overflow:visible;"/>
										</clipPath>
										<g id="Clip-16" class="st35">
											<path id="Фигура_1746" class="st12" d="M376,165c0,0-27.6-16.1-29-17s-0.4-2.8,2-4s23-14,23-14l30,17v3l-25,16
												L376,165z"/>
											<path id="Фигура_1745" class="st13" d="M375,187v-21c0-0.8-0.1-1.9,2-3s21.3-13,23-14s2,0,2,3v19
												c0,0.7-0.9,1.3-2,2s-24,15-24,15L375,187z"/>
										</g>
									</g>
								</g>
							</g>
						</g>
					</g>
				</g>
			</g>
			<g id="_c_копия_2">
				<g id="Фигура_2180-2">
					<path id="Фигура_2180-3" class="st36" d="M318.1,324c3.2,1.6,7,1.3,10-0.7c3.9-2.4,1.6-0.1,4.4-1.8s6.5-4.5,6.5-11.4
						v-139c-0.2-10-5.5-19.2-13.9-24.4c-9-5.5-142.5-85.1-146.5-87.4s-7-1.3-9.7,0.3s-2,0.7-5,2.4s-5.8,4-5.8,9.1v142.3
						c0,9.9,3.3,17.5,13.9,23.5S315.5,322.8,318.1,324z"/>
					<g>
						<g>
							<g>
								<defs>
									<path id="SVGID_33_" d="M318.1,324c3.2,1.6,7,1.3,10-0.7c3.9-2.4,1.6-0.1,4.4-1.8s6.5-4.5,6.5-11.4v-139
										c-0.2-10-5.5-19.2-13.9-24.4c-9-5.5-142.5-85.1-146.5-87.4s-7-1.3-9.7,0.3s-2,0.7-5,2.4s-5.8,4-5.8,9.1v142.3
										c0,9.9,3.3,17.5,13.9,23.5S315.5,322.8,318.1,324z"/>
								</defs>
								<clipPath id="SVGID_34_">
									<use xlink:href="#SVGID_33_"  style="overflow:visible;"/>
								</clipPath>
								<g id="Clip-17" class="st37">
									<path id="Фигура_2183" class="st38" d="M325,156.9l9-5l7.2,13.3l-12.9,6L325,156.9z"/>
									<path id="Фигура_2182" class="st39" d="M325,156.9l10-5.3c0,0-2.4-3.9-9.8-8.1S182.3,58.6,177.9,56.3
										s-7.4-1.6-9.8-0.3s-5.1,2.7-8.3,4.7s-5.8,8.5-1,8.4s4.7-3.1,13,1s134.5,81.2,141.1,84.9S325,156.9,325,156.9z"/>
									<path id="Фигура_2181" class="st40" d="M316.7,324.1c3.9,2.2,14.4,5.1,14.4-8.5V174.4c0-11.2-3.6-19.6-13.1-25
										c-9.8-5.6-140.2-82.9-147.3-86.8S157,61.9,157,71.4v142.1c0,3.9,1.5,15.3,10.4,20.9S312.8,322,316.7,324.1z"/>
								</g>
							</g>
						</g>
					</g>
				</g>
				<path id="Фигура_2181_копия" class="st41" d="M314.3,317.2c3.7,2.1,13.7,4.9,13.7-8.1V176.3
					c0-10.7-3.5-18.7-12.5-23.9c-9.3-5.4-135.7-80.1-142.4-83.8S160,67.8,160,76.9v135.6c0,3.7,1.4,14.6,10,20
					S310.6,315.1,314.3,317.2z"/>
				<path id="Эллипс_3848" class="st42" d="M175.4,75.8c1.4,0.9,2.3,2.5,2.4,4.2c0,1.5-1.1,2.1-2.4,1.4
					c-1.4-0.9-2.3-2.5-2.4-4.2C173,75.6,174,75,175.4,75.8z"/>
				<path id="Эллипс_3848_копия_2" class="st43" d="M192.6,91.2c-1.4-0.9-2.3-2.5-2.4-4.2c0-1.5,1.1-2.1,2.4-1.4
					c1.4,0.9,2.3,2.5,2.4,4.2c0,1.1-0.5,1.7-1.3,1.7C193.3,91.5,192.9,91.4,192.6,91.2z M184,86.2c-1.4-0.9-2.3-2.5-2.4-4.2
					c0-1.5,1.1-2.1,2.4-1.4c1.4,0.9,2.3,2.5,2.4,4.2c0,1.1-0.5,1.7-1.3,1.7C184.7,86.6,184.3,86.4,184,86.2L184,86.2z"/>
			</g>
			<g id="Группа_204">
				<g id="Фигура_753_копия_11-2">
					<path id="Фигура_753_копия_11-3" class="st44" d="M391.4,228.8c0.1-0.6,0.3-1.2,0.7-1.7c0.5-0.7,7.4-9.8,7.9-10.5
						s1-1.3,1.9-1.1s7.5,1.5,7.9,1.6s0.7,0.1,0.7,1.2V238c0.1,0.7-0.2,1.5-0.7,2c-0.7,0.9-7.3,9.7-7.9,10.5s-1.2,1.3-1.9,1.1
						s-7.3-1.4-7.9-1.6s-0.7-0.2-0.7-1.2V228.8z"/>
					<g>
						<g>
							<g>
								<defs>
									<path id="SVGID_35_" d="M391.4,228.8c0.1-0.6,0.3-1.2,0.7-1.7c0.5-0.7,7.4-9.8,7.9-10.5s1-1.3,1.9-1.1s7.5,1.5,7.9,1.6
										s0.7,0.1,0.7,1.2V238c0.1,0.7-0.2,1.5-0.7,2c-0.7,0.9-7.3,9.7-7.9,10.5s-1.2,1.3-1.9,1.1s-7.3-1.4-7.9-1.6
										s-0.7-0.2-0.7-1.2V228.8z"/>
								</defs>
								<clipPath id="SVGID_36_">
									<use xlink:href="#SVGID_35_"  style="overflow:visible;"/>
								</clipPath>
								<g id="Clip-18" class="st45">
									<path id="Фигура_570_копия" class="st46" d="M401.4,252l-11.4-6l-0.7-19.1l7.1-8.4l5-6.4l8.7,3.4l3.4,4.4
										l-0.3,27.6L401.4,252z"/>
									<path id="Фигура_571_копия" class="st47" d="M390.7,248.6l7.4,1.7l4-7.1l-11.1-2.7l-4,4.7L390.7,248.6z"/>
									<path id="Фигура_753_копия_9" class="st48" d="M403.7,245.9c-0.8-0.2-7.3-1.4-7.9-1.5c-0.3-0.1-0.5-0.1-0.6-0.3
										c-0.3,0-0.5-0.1-0.7-0.2c-0.5-0.2-3.4-1.7-3.8-1.9c-0.4-0.3-0.7-0.8-0.6-1.2c0-0.7-0.3-12-0.3-12.5c0-0.6,0.3-1.1,0.6-1.6
										c0.4-0.6,6-11.5,6.3-11.9c0.6-0.5,1.4-0.7,2.2-0.6c0.5,0.1,3.4,0.1,4.1,0.2c0.6,0.1,1.1,0.3,1.5,0.6
										c0.5,0.3,7.8,3.4,8.2,3.6c0.2,0.1,0.3,0.2,0.4,0.4c0.3,0.2,0.5,0.6,0.5,1.4c0,1.1,0.7,10.8,0.7,11.6
										c0.1,0.9-0.2,1.9-0.7,2.6c-0.7,0.9-7.3,9.6-7.9,10.4c-0.5,0.6-1,1.1-1.6,1.1C403.9,246,403.8,246,403.7,245.9z"/>
									<path id="Фигура_764_копия_3" class="st49" d="M397.3,214l7.4,3.2c0.3,0.2,0.6,0.5,0.9,0.6s8,1.6,8,1.6
										l-9.7-5.5c0,0-4.1-0.1-4.7-0.2C398.5,213.7,397.8,213.8,397.3,214z"/>
									<path id="Фигура_763_копия_3" class="st50" d="M396,245.1c-0.2-0.1-0.4-0.4-0.3-0.6c0-0.2-0.7-13.7-0.7-13.7
										l-5.7-2.8l0.7,13.7c0,0-0.1,0.7,1.2,1.2S396.3,245.2,396,245.1z"/>
								</g>
							</g>
						</g>
					</g>
				</g>
				<g id="Фигура_753_копия_13-2">
					<path id="Фигура_753_копия_13-3" class="st51" d="M405.7,247.6c-0.8-0.2-7.3-1.4-7.9-1.5c-0.3-0.1-0.5-0.1-0.6-0.3
						c-0.3,0-0.5-0.1-0.7-0.2c-0.5-0.2-3.4-1.7-3.8-1.9c-0.4-0.3-0.7-0.8-0.6-1.2v-13.1c0-0.6,0.3-1.1,0.6-1.6
						c0.4-0.6,8-10.5,8.3-10.9c0.6-0.5,1.4-0.7,2.2-0.6c0.5,0.1,6.4,1.4,7.1,1.6c0.6,0.1,1.1,0.3,1.5,0.6c0.5,0.3,3.1,1.7,3.5,1.9
						c0.2,0.1,0.4,0.2,0.5,0.4c0.2,0.1,0.4,0.3,0.4,1.1v11.9c0.1,0.9-0.2,1.9-0.7,2.6c-0.7,0.9-7.3,9.6-7.9,10.4
						c-0.5,0.6-1,1.1-1.6,1.1C405.9,247.7,405.8,247.6,405.7,247.6z"/>
					<g>
						<g>
							<g>
								<defs>
									<path id="SVGID_37_" d="M405.7,247.6c-0.8-0.2-7.3-1.4-7.9-1.5c-0.3-0.1-0.5-0.1-0.6-0.3c-0.3,0-0.5-0.1-0.7-0.2
										c-0.5-0.2-3.4-1.7-3.8-1.9c-0.4-0.3-0.7-0.8-0.6-1.2v-13.1c0-0.6,0.3-1.1,0.6-1.6c0.4-0.6,8-10.5,8.3-10.9
										c0.6-0.5,1.4-0.7,2.2-0.6c0.5,0.1,6.4,1.4,7.1,1.6c0.6,0.1,1.1,0.3,1.5,0.6c0.5,0.3,3.1,1.7,3.5,1.9
										c0.2,0.1,0.4,0.2,0.5,0.4c0.2,0.1,0.4,0.3,0.4,1.1v11.9c0.1,0.9-0.2,1.9-0.7,2.6c-0.7,0.9-7.3,9.6-7.9,10.4
										c-0.5,0.6-1,1.1-1.6,1.1C405.9,247.7,405.8,247.6,405.7,247.6z"/>
								</defs>
								<clipPath id="SVGID_38_">
									<use xlink:href="#SVGID_37_"  style="overflow:visible;"/>
								</clipPath>
								<g id="Clip-19" class="st52">
									<path id="Фигура_764_копия_4" class="st53" d="M401.6,216.1l5,2.9c0,0,1.3,0.2,1.5,0.3s9,1.9,9,1.9l-6-3.8
										c0,0-7.1-1.4-7.7-1.6C402.8,215.7,402.2,215.8,401.6,216.1z"/>
									<path id="Фигура_763_копия_4" class="st54" d="M398.1,246.8c-0.2-0.1-0.4-0.4-0.3-0.6c0-0.2-0.3-14.4-0.3-14.4
										l-5.7-2.8l0.3,14.4c0,0-0.1,0.7,1.2,1.2S398.4,246.9,398.1,246.8z"/>
									<path id="Фигура_753_копия_14" class="st55" d="M397.1,232.2c0.1-0.6,0.3-1.2,0.7-1.7c0.5-0.7,7.4-9.8,7.9-10.5
										s1-1.3,1.9-1.1s7.5,1.5,7.9,1.6s0.7,0.1,0.7,1.2v12.7c0.1,0.7-0.2,1.5-0.7,2c-0.7,0.9-7.3,9.7-7.9,10.5s-1.2,1.3-1.9,1.1
										s-7.3-1.4-7.9-1.6s-0.7-0.2-0.7-1.2V232.2z"/>
									<path id="Фигура_753_копия_15" class="st56" d="M397.4,232.5c0.1-0.6,0.3-1.2,0.7-1.7c0.5-0.7,7.4-9.8,7.9-10.5
										s1-1.3,1.9-1.1s7.5,1.5,7.9,1.6s0.7,0.1,0.7,1.2v12.7c0.1,0.7-0.2,1.5-0.7,2c-0.7,0.9-7.3,9.7-7.9,10.5s-1.2,1.3-1.9,1.1
										s-7.3-1.4-7.9-1.6s-0.7-0.2-0.7-1.2V232.5z"/>
								</g>
							</g>
						</g>
					</g>
				</g>
				<g id="Фигура_753_копия_16-2">
					<path id="Фигура_753_копия_16-3" class="st54" d="M400.1,232.3c0-0.4,0.2-0.8,0.5-1.2c0.4-0.5,5.2-6.8,5.5-7.3
						s0.7-0.9,1.3-0.8s5.3,1,5.5,1.1s0.5,0.1,0.5,0.8v8.8c0.1,0.5-0.1,1-0.5,1.4c-0.5,0.7-5.1,6.7-5.5,7.3s-0.8,0.9-1.3,0.8
						s-5.2-1-5.5-1.1s-0.5-0.1-0.5-0.8V232.3z"/>
					<g>
						<g>
							<g>
								<defs>
									<path id="SVGID_39_" d="M400.1,232.3c0-0.4,0.2-0.8,0.5-1.2c0.4-0.5,5.2-6.8,5.5-7.3s0.7-0.9,1.3-0.8s5.3,1,5.5,1.1
										s0.5,0.1,0.5,0.8v8.8c0.1,0.5-0.1,1-0.5,1.4c-0.5,0.7-5.1,6.7-5.5,7.3s-0.8,0.9-1.3,0.8s-5.2-1-5.5-1.1s-0.5-0.1-0.5-0.8
										V232.3z"/>
								</defs>
								<clipPath id="SVGID_40_">
									<use xlink:href="#SVGID_39_"  style="overflow:visible;"/>
								</clipPath>
								<g id="Clip-20" class="st57">
									<path id="Фигура_568_копия" class="st53" d="M407.8,243.6l-5.7-4l-3-0.3v4.4l7.1,0.7L407.8,243.6z"/>
									<path id="Фигура_567_копия" class="st51" d="M413.9,234.5l-6.4-2.7l-6.4,8.7l7.4,3.4L413.9,234.5z"/>
									<path id="Фигура_753_копия_17" class="st58" d="M395.1,230c0-0.4,0.2-0.8,0.5-1.2c0.4-0.5,5.2-6.8,5.5-7.3
										s0.7-0.9,1.3-0.8s5.3,1,5.5,1.1s0.5,0.1,0.5,0.8v8.8c0.1,0.5-0.1,1-0.5,1.4c-0.5,0.7-5.1,6.7-5.5,7.3s-0.8,0.9-1.3,0.8
										s-5.2-1-5.5-1.1s-0.5-0.1-0.5-0.8V230z"/>
									<path id="Фигура_753_копия_18" class="st59" d="M397.4,231c0-0.4,0.2-0.8,0.5-1.2c0.4-0.5,5.2-6.8,5.5-7.3
										s0.7-0.9,1.3-0.8s5.3,1,5.5,1.1s0.5,0.1,0.5,0.8v8.8c0.1,0.5-0.1,1-0.5,1.4c-0.5,0.7-5.1,6.7-5.5,7.3s-0.8,0.9-1.3,0.8
										s-5.2-1-5.5-1.1s-0.5-0.1-0.5-0.8V231z"/>
								</g>
							</g>
						</g>
					</g>
				</g>
				<g id="Фигура_753_копия_12-2">
					<path id="Фигура_753_копия_12-3" class="st44" d="M391.4,359.8c0.1-0.6,0.3-1.2,0.7-1.7c0.5-0.7,7.4-9.8,7.9-10.5
						s1-1.3,1.9-1.1s7.5,1.5,7.9,1.6s0.7,0.1,0.7,1.2V369c0.1,0.7-0.2,1.5-0.7,2c-0.7,0.9-7.3,9.7-7.9,10.5s-1.2,1.3-1.9,1.1
						s-7.3-1.4-7.9-1.6s-0.7-0.2-0.7-1.2V359.8z"/>
					<g>
						<g>
							<g>
								<defs>
									<path id="SVGID_41_" d="M391.4,359.8c0.1-0.6,0.3-1.2,0.7-1.7c0.5-0.7,7.4-9.8,7.9-10.5s1-1.3,1.9-1.1s7.5,1.5,7.9,1.6
										s0.7,0.1,0.7,1.2V369c0.1,0.7-0.2,1.5-0.7,2c-0.7,0.9-7.3,9.7-7.9,10.5s-1.2,1.3-1.9,1.1s-7.3-1.4-7.9-1.6
										s-0.7-0.2-0.7-1.2V359.8z"/>
								</defs>
								<clipPath id="SVGID_42_">
									<use xlink:href="#SVGID_41_"  style="overflow:visible;"/>
								</clipPath>
								<g id="Clip-21" class="st60">
									<path id="Фигура_570_копия_4" class="st46" d="M401.4,383l-11.4-6l-0.7-19.1l7.1-8.4l5-6.4l8.7,3.4l3.4,4.4
										l-0.3,27.6L401.4,383z"/>
									<path id="Фигура_571_копия_4" class="st47" d="M390.7,379.6l7.4,1.7l4-7.1l-11.1-2.7l-4,4.7L390.7,379.6z"/>
									<path id="Фигура_753_копия_10" class="st48" d="M403.7,376.9c-0.8-0.2-7.3-1.4-7.9-1.5
										c-0.3-0.1-0.5-0.1-0.6-0.3c-0.3,0-0.5-0.1-0.7-0.2c-0.5-0.2-3.4-1.7-3.8-1.9c-0.4-0.3-0.7-0.7-0.6-1.2
										c0-0.7-0.3-12-0.3-12.5c0-0.6,0.3-1.1,0.6-1.6c0.4-0.6,6-11.5,6.3-11.9c0.6-0.5,1.4-0.7,2.2-0.6c0.5,0.1,3.4,0.1,4.1,0.2
										c0.6,0.1,1.1,0.3,1.5,0.6c0.5,0.3,7.8,3.4,8.2,3.6c0.2,0.1,0.3,0.2,0.4,0.4c0.3,0.2,0.5,0.6,0.5,1.4
										c0,1.1,0.7,10.8,0.7,11.6c0.1,0.9-0.2,1.9-0.7,2.6c-0.7,0.9-7.3,9.6-7.9,10.4c-0.5,0.6-1,1.1-1.6,1.1
										C403.9,377,403.8,377,403.7,376.9z"/>
									<path id="Фигура_764_копия_10" class="st49" d="M397.3,345l7.4,3.2c0.3,0.2,0.6,0.5,0.9,0.6s8,1.6,8,1.6
										l-9.7-5.5c0,0-4.1-0.1-4.7-0.2C398.5,344.7,397.8,344.8,397.3,345z"/>
									<path id="Фигура_763_копия_10" class="st50" d="M396,376.1c-0.2-0.1-0.4-0.4-0.3-0.6c0-0.2-0.7-13.7-0.7-13.7
										l-5.7-2.8l0.7,13.7c0,0-0.1,0.7,1.2,1.2S396.3,376.2,396,376.1z"/>
								</g>
							</g>
						</g>
					</g>
				</g>
				<g id="Фигура_753_копия_38-2">
					<path id="Фигура_753_копия_38-3" class="st51" d="M405.7,378.6c-0.8-0.2-7.3-1.4-7.9-1.5c-0.3-0.1-0.5-0.1-0.6-0.3
						c-0.3,0-0.5-0.1-0.7-0.2c-0.5-0.2-3.4-1.7-3.8-1.9c-0.4-0.3-0.7-0.8-0.6-1.2v-13.1c0-0.6,0.3-1.1,0.6-1.6
						c0.4-0.6,8-10.5,8.3-10.9c0.6-0.5,1.4-0.7,2.2-0.6c0.5,0.1,6.4,1.4,7.1,1.6c0.6,0.1,1.1,0.3,1.5,0.6c0.5,0.3,3.1,1.7,3.5,1.9
						c0.2,0.1,0.4,0.2,0.5,0.4c0.2,0.1,0.4,0.3,0.4,1.1v11.9c0.1,0.9-0.2,1.9-0.7,2.6c-0.7,0.9-7.3,9.6-7.9,10.4
						c-0.5,0.6-1,1.1-1.6,1.1C405.9,378.7,405.8,378.6,405.7,378.6z"/>
					<g>
						<g>
							<g>
								<defs>
									<path id="SVGID_43_" d="M405.7,378.6c-0.8-0.2-7.3-1.4-7.9-1.5c-0.3-0.1-0.5-0.1-0.6-0.3c-0.3,0-0.5-0.1-0.7-0.2
										c-0.5-0.2-3.4-1.7-3.8-1.9c-0.4-0.3-0.7-0.8-0.6-1.2v-13.1c0-0.6,0.3-1.1,0.6-1.6c0.4-0.6,8-10.5,8.3-10.9
										c0.6-0.5,1.4-0.7,2.2-0.6c0.5,0.1,6.4,1.4,7.1,1.6c0.6,0.1,1.1,0.3,1.5,0.6c0.5,0.3,3.1,1.7,3.5,1.9
										c0.2,0.1,0.4,0.2,0.5,0.4c0.2,0.1,0.4,0.3,0.4,1.1v11.9c0.1,0.9-0.2,1.9-0.7,2.6c-0.7,0.9-7.3,9.6-7.9,10.4
										c-0.5,0.6-1,1.1-1.6,1.1C405.9,378.7,405.8,378.6,405.7,378.6z"/>
								</defs>
								<clipPath id="SVGID_44_">
									<use xlink:href="#SVGID_43_"  style="overflow:visible;"/>
								</clipPath>
								<g id="Clip-22" class="st61">
									<path id="Фигура_764_копия_11" class="st53" d="M401.6,347.1l5,2.9c0,0,1.3,0.2,1.5,0.3s9,1.9,9,1.9l-6-3.8
										c0,0-7.1-1.4-7.7-1.6C402.8,346.7,402.2,346.8,401.6,347.1z"/>
									<path id="Фигура_763_копия_11" class="st54" d="M398.1,377.8c-0.2-0.1-0.4-0.4-0.3-0.6c0-0.2-0.3-14.4-0.3-14.4
										l-5.7-2.8l0.3,14.4c0,0-0.1,0.7,1.2,1.2S398.4,377.9,398.1,377.8z"/>
									<path id="Фигура_753_копия_39" class="st55" d="M397.1,363.2c0.1-0.6,0.3-1.2,0.7-1.7c0.5-0.7,7.4-9.8,7.9-10.5
										s1-1.3,1.9-1.1s7.5,1.5,7.9,1.6s0.7,0.1,0.7,1.2v12.7c0.1,0.7-0.2,1.5-0.7,2c-0.7,0.9-7.3,9.7-7.9,10.5s-1.2,1.3-1.9,1.1
										s-7.3-1.4-7.9-1.6s-0.7-0.2-0.7-1.2V363.2z"/>
									<path id="Фигура_753_копия_40" class="st56" d="M397.4,363.5c0.1-0.6,0.3-1.2,0.7-1.7c0.5-0.7,7.4-9.8,7.9-10.5
										s1-1.3,1.9-1.1s7.5,1.5,7.9,1.6s0.7,0.1,0.7,1.2v12.7c0.1,0.7-0.2,1.5-0.7,2c-0.7,0.9-7.3,9.7-7.9,10.5s-1.2,1.3-1.9,1.1
										s-7.3-1.4-7.9-1.6s-0.7-0.2-0.7-1.2V363.5z"/>
								</g>
							</g>
						</g>
					</g>
				</g>
				<g id="Фигура_753_копия_41-2">
					<path id="Фигура_753_копия_41-3" class="st54" d="M400.1,363.3c0-0.4,0.2-0.8,0.5-1.2c0.4-0.5,5.2-6.8,5.5-7.3
						s0.7-0.9,1.3-0.8s5.3,1,5.5,1.1s0.5,0.1,0.5,0.8v8.8c0.1,0.5-0.1,1-0.5,1.4c-0.5,0.7-5.1,6.7-5.5,7.3s-0.8,0.9-1.3,0.8
						s-5.2-1-5.5-1.1s-0.5-0.1-0.5-0.8V363.3z"/>
					<g>
						<g>
							<g>
								<defs>
									<path id="SVGID_45_" d="M400.1,363.3c0-0.4,0.2-0.8,0.5-1.2c0.4-0.5,5.2-6.8,5.5-7.3s0.7-0.9,1.3-0.8s5.3,1,5.5,1.1
										s0.5,0.1,0.5,0.8v8.8c0.1,0.5-0.1,1-0.5,1.4c-0.5,0.7-5.1,6.7-5.5,7.3s-0.8,0.9-1.3,0.8s-5.2-1-5.5-1.1s-0.5-0.1-0.5-0.8
										V363.3z"/>
								</defs>
								<clipPath id="SVGID_46_">
									<use xlink:href="#SVGID_45_"  style="overflow:visible;"/>
								</clipPath>
								<g id="Clip-23" class="st62">
									<path id="Фигура_568_копия_4" class="st53" d="M407.8,374.6l-5.7-4l-3-0.3v4.4l7.1,0.7L407.8,374.6z"/>
									<path id="Фигура_567_копия_4" class="st51" d="M413.9,365.5l-6.4-2.7l-6.4,8.7l7.4,3.4L413.9,365.5z"/>
									<path id="Фигура_753_копия_42" class="st58" d="M395.1,361c0-0.4,0.2-0.8,0.5-1.2c0.4-0.5,5.2-6.8,5.5-7.3
										s0.7-0.9,1.3-0.8s5.3,1,5.5,1.1s0.5,0.1,0.5,0.8v8.8c0.1,0.5-0.1,1-0.5,1.4c-0.5,0.7-5.1,6.7-5.5,7.3s-0.8,0.9-1.3,0.8
										s-5.2-1-5.5-1.1s-0.5-0.1-0.5-0.8V361z"/>
									<path id="Фигура_753_копия_43" class="st59" d="M397.4,362c0-0.4,0.2-0.8,0.5-1.2c0.4-0.5,5.2-6.8,5.5-7.3
										s0.7-0.9,1.3-0.8s5.3,1,5.5,1.1s0.5,0.1,0.5,0.8v8.8c0.1,0.5-0.1,1-0.5,1.4c-0.5,0.7-5.1,6.7-5.5,7.3s-0.8,0.9-1.3,0.8
										s-5.2-1-5.5-1.1s-0.5-0.1-0.5-0.8V362z"/>
								</g>
							</g>
						</g>
					</g>
				</g>
				<g id="Фигура_753_копия_19-2">
					<path id="Фигура_753_копия_19-3" class="st44" d="M383.5,165.9c0-0.3,0.1-0.6,0.3-0.8c0.2-0.3,3.6-4.7,3.8-5
						s0.5-0.6,0.9-0.5s3.6,0.7,3.8,0.8s0.3,0,0.3,0.6v9.5c0,0.4-0.1,0.7-0.3,1c-0.4,0.5-3.5,4.7-3.8,5s-0.6,0.6-0.9,0.5
						s-3.5-0.7-3.8-0.8s-0.3-0.1-0.3-0.6V165.9z"/>
					<g>
						<g>
							<g>
								<defs>
									<path id="SVGID_47_" d="M383.5,165.9c0-0.3,0.1-0.6,0.3-0.8c0.2-0.3,3.6-4.7,3.8-5s0.5-0.6,0.9-0.5s3.6,0.7,3.8,0.8
										s0.3,0,0.3,0.6v9.5c0,0.4-0.1,0.7-0.3,1c-0.4,0.5-3.5,4.7-3.8,5s-0.6,0.6-0.9,0.5s-3.5-0.7-3.8-0.8s-0.3-0.1-0.3-0.6V165.9
										z"/>
								</defs>
								<clipPath id="SVGID_48_">
									<use xlink:href="#SVGID_47_"  style="overflow:visible;"/>
								</clipPath>
								<g id="Clip-24" class="st63">
									<path id="Фигура_570_копия_2" class="st46" d="M388.3,177.1l-5.5-2.9l-0.3-9.2l3.4-4l2.4-3.1l4.2,1.6l1.6,2.1
										l-0.2,13.3L388.3,177.1z"/>
									<path id="Фигура_571_копия_2" class="st47" d="M383.2,175.5l3.6,0.8l1.9-3.4l-5.3-1.3l-1.9,2.3L383.2,175.5z"/>
									<path id="Фигура_753_копия_20" class="st48" d="M389.4,174.2c-0.4-0.1-3.5-0.7-3.8-0.7c-0.2,0-0.2-0.1-0.3-0.2
										c-0.1,0-0.2-0.1-0.3-0.1c-0.2-0.1-1.7-0.8-1.8-0.9c-0.2-0.1-0.3-0.4-0.3-0.6c0-0.3-0.2-5.8-0.2-6c0-0.3,0.1-0.5,0.3-0.8
										c0.2-0.3,2.9-5.5,3-5.8c0.3-0.2,0.7-0.3,1-0.3c0.3,0.1,1.6,0,2,0.1c0.3,0,0.5,0.2,0.7,0.3s3.7,1.6,3.9,1.7
										c0.1,0,0.2,0.1,0.2,0.2c0.1,0.1,0.2,0.3,0.2,0.7c0,0.5,0.3,5.2,0.3,5.6c0,0.4-0.1,0.9-0.3,1.2c-0.4,0.4-3.5,4.6-3.8,5
										c-0.2,0.3-0.5,0.5-0.8,0.5C389.5,174.2,389.5,174.2,389.4,174.2z"/>
									<path id="Фигура_764_копия_5" class="st49" d="M386.3,158.8l3.6,1.5c0.1,0.1,0.3,0.2,0.4,0.3
										c0.1,0,3.9,0.8,3.9,0.8l-4.7-2.6c0,0-2,0-2.3-0.1C386.9,158.7,386.6,158.7,386.3,158.8z"/>
									<path id="Фигура_763_копия_5" class="st50" d="M385.7,173.8c-0.1-0.1-0.2-0.2-0.1-0.3c0-0.1-0.3-6.6-0.3-6.6
										l-2.7-1.4l0.3,6.6c0,0-0.1,0.3,0.6,0.6S385.9,173.8,385.7,173.8z"/>
								</g>
							</g>
						</g>
					</g>
				</g>
				<g id="Фигура_753_копия_21-2">
					<path id="Фигура_753_копия_21-3" class="st51" d="M390.4,175c-0.4-0.1-3.5-0.7-3.8-0.7c-0.2,0-0.2-0.1-0.3-0.2
						c-0.1,0-0.2-0.1-0.3-0.1c-0.2-0.1-1.7-0.8-1.8-0.9c-0.2-0.1-0.3-0.4-0.3-0.6v-6.3c0-0.3,0.1-0.5,0.3-0.8c0.2-0.3,3.9-5.1,4-5.3
						c0.3-0.2,0.7-0.3,1-0.3c0.3,0.1,3.1,0.7,3.4,0.8c0.3,0,0.5,0.2,0.7,0.3s1.5,0.8,1.7,0.9c0.1,0,0.2,0.1,0.2,0.2
						c0.1,0,0.2,0.1,0.2,0.5v5.7c0,0.4-0.1,0.9-0.3,1.2c-0.4,0.4-3.5,4.6-3.8,5c-0.2,0.3-0.5,0.5-0.8,0.5
						C390.5,175,390.4,175,390.4,175z"/>
					<g>
						<g>
							<g>
								<defs>
									<path id="SVGID_49_" d="M390.4,175c-0.4-0.1-3.5-0.7-3.8-0.7c-0.2,0-0.2-0.1-0.3-0.2c-0.1,0-0.2-0.1-0.3-0.1
										c-0.2-0.1-1.7-0.8-1.8-0.9c-0.2-0.1-0.3-0.4-0.3-0.6v-6.3c0-0.3,0.1-0.5,0.3-0.8c0.2-0.3,3.9-5.1,4-5.3
										c0.3-0.2,0.7-0.3,1-0.3c0.3,0.1,3.1,0.7,3.4,0.8c0.3,0,0.5,0.2,0.7,0.3s1.5,0.8,1.7,0.9c0.1,0,0.2,0.1,0.2,0.2
										c0.1,0,0.2,0.1,0.2,0.5v5.7c0,0.4-0.1,0.9-0.3,1.2c-0.4,0.4-3.5,4.6-3.8,5c-0.2,0.3-0.5,0.5-0.8,0.5
										C390.5,175,390.4,175,390.4,175z"/>
								</defs>
								<clipPath id="SVGID_50_">
									<use xlink:href="#SVGID_49_"  style="overflow:visible;"/>
								</clipPath>
								<g id="Clip-25" class="st64">
									<path id="Фигура_764_копия_6" class="st53" d="M388.4,159.8l2.4,1.4c0,0,0.6,0.1,0.7,0.1s3.9,0.8,3.9,0.8
										l-2.4-1.7c0,0-3.4-0.7-3.7-0.8C389,159.6,388.7,159.7,388.4,159.8z"/>
									<path id="Фигура_763_копия_6" class="st54" d="M386.7,174.6c-0.1-0.1-0.2-0.2-0.1-0.3c0-0.1-0.2-6.9-0.2-6.9
										l-2.7-1.4l0.2,6.9c0,0-0.1,0.3,0.6,0.6S386.9,174.6,386.7,174.6z"/>
									<path id="Фигура_753_копия_22" class="st55" d="M386.2,167.5c0-0.3,0.1-0.6,0.3-0.8c0.2-0.3,3.6-4.7,3.8-5
										s0.5-0.6,0.9-0.5s3.6,0.7,3.8,0.8s0.3,0,0.3,0.6v6.1c0,0.4-0.1,0.7-0.3,1c-0.4,0.5-3.5,4.7-3.8,5s-0.6,0.6-0.9,0.5
										s-3.5-0.7-3.8-0.8s-0.3-0.1-0.3-0.6V167.5z"/>
									<path id="Фигура_753_копия_23" class="st56" d="M386.4,167.7c0-0.3,0.1-0.6,0.3-0.8c0.2-0.3,3.6-4.7,3.8-5
										s0.5-0.6,0.9-0.5s3.6,0.7,3.8,0.8s0.3,0,0.3,0.6v6.1c0,0.4-0.1,0.7-0.3,1c-0.4,0.5-3.5,4.7-3.8,5s-0.6,0.6-0.9,0.5
										s-3.5-0.7-3.8-0.8s-0.3-0.1-0.3-0.6V167.7z"/>
								</g>
							</g>
						</g>
					</g>
				</g>
				<g id="Фигура_753_копия_24-2">
					<path id="Фигура_753_копия_24-3" class="st54" d="M387.7,167.6c0-0.2,0.1-0.4,0.2-0.6c0.2-0.2,2.5-3.3,2.7-3.5
						s0.3-0.4,0.6-0.4s2.5,0.5,2.7,0.5s0.2,0,0.2,0.4v4.2c0,0.2-0.1,0.5-0.2,0.7c-0.3,0.3-2.5,3.2-2.7,3.5s-0.4,0.4-0.6,0.4
						s-2.5-0.5-2.7-0.5s-0.2-0.1-0.2-0.4V167.6z"/>
					<g>
						<g>
							<g>
								<defs>
									<path id="SVGID_51_" d="M387.7,167.6c0-0.2,0.1-0.4,0.2-0.6c0.2-0.2,2.5-3.3,2.7-3.5s0.3-0.4,0.6-0.4s2.5,0.5,2.7,0.5
										s0.2,0,0.2,0.4v4.2c0,0.2-0.1,0.5-0.2,0.7c-0.3,0.3-2.5,3.2-2.7,3.5s-0.4,0.4-0.6,0.4s-2.5-0.5-2.7-0.5s-0.2-0.1-0.2-0.4
										V167.6z"/>
								</defs>
								<clipPath id="SVGID_52_">
									<use xlink:href="#SVGID_51_"  style="overflow:visible;"/>
								</clipPath>
								<g id="Clip-26" class="st65">
									<path id="Фигура_568_копия_2" class="st53" d="M391.4,173l-2.7-1.9l-1.5-0.2v2.1l3.4,0.3L391.4,173z"/>
									<path id="Фигура_567_копия_2" class="st51" d="M394.3,168.7l-3.1-1.3l-3.1,4.2l3.6,1.6L394.3,168.7z"/>
									<path id="Фигура_753_копия_25" class="st58" d="M385.3,166.5c0-0.2,0.1-0.4,0.2-0.6c0.2-0.2,2.5-3.3,2.7-3.5
										s0.3-0.4,0.6-0.4s2.5,0.5,2.7,0.5s0.2,0,0.2,0.4v4.2c0,0.2-0.1,0.5-0.2,0.7c-0.3,0.3-2.5,3.2-2.7,3.5s-0.4,0.4-0.6,0.4
										s-2.5-0.5-2.7-0.5s-0.2-0.1-0.2-0.4V166.5z"/>
									<path id="Фигура_753_копия_26" class="st59" d="M386.4,167c0-0.2,0.1-0.4,0.2-0.6c0.2-0.2,2.5-3.3,2.7-3.5
										s0.3-0.4,0.6-0.4s2.5,0.5,2.7,0.5s0.2,0,0.2,0.4v4.2c0,0.2-0.1,0.5-0.2,0.7c-0.3,0.3-2.5,3.2-2.7,3.5s-0.4,0.4-0.6,0.4
										s-2.5-0.5-2.7-0.5s-0.2-0.1-0.2-0.4V167z"/>
								</g>
							</g>
						</g>
					</g>
				</g>
			</g>
			<g id="Группа_197_копия_4">
				<g id="Группа_195">
					<g id="Фигура_2180_копия_2-20">
						<path id="Фигура_2180_копия_2-21" class="st66" d="M178.2,402.2c1.5,0.7,3.2,0.6,4.6-0.3
							c1.8-1.1,64.5-39.5,65.8-40.3c1.9-1,3.1-3,2.9-5.2v-28.1c-0.1-4.5-2.5-8.7-6.3-11.1c-4.1-2.5-49.2-29.5-51-30.5
							c-1.4-0.8-3.1-0.8-4.4,0.1c-1.2,0.7-64.8,39.8-66.1,40.5c-1.6,0.7-2.7,2.3-2.6,4.1V361c0,4.5,1.5,7.9,6.3,10.6
							C132.2,374.5,177,401.7,178.2,402.2z"/>
						<g>
							<g>
								<g>
									<defs>
										<path id="SVGID_53_" d="M178.2,402.2c1.5,0.7,3.2,0.6,4.6-0.3c1.8-1.1,64.5-39.5,65.8-40.3c1.9-1,3.1-3,2.9-5.2v-28.1
											c-0.1-4.5-2.5-8.7-6.3-11.1c-4.1-2.5-49.2-29.5-51-30.5c-1.4-0.8-3.1-0.8-4.4,0.1c-1.2,0.7-64.8,39.8-66.1,40.5
											c-1.6,0.7-2.7,2.3-2.6,4.1V361c0,4.5,1.5,7.9,6.3,10.6C132.2,374.5,177,401.7,178.2,402.2z"/>
									</defs>
									<clipPath id="SVGID_54_">
										<use xlink:href="#SVGID_53_"  style="overflow:visible;"/>
									</clipPath>
									<g id="Clip-27" class="st67">
										<path id="Фигура_2183_копия_2-5" class="st7" d="M181.2,361.4l67.9-41.7l3.2,6l-69.7,42.1L181.2,361.4z"/>
										<path id="Фигура_2182_копия_2-7" class="st8" d="M181.2,361.4l68.4-41.8c-1.2-1.5-2.7-2.8-4.4-3.7
											c-3.3-1.9-49.3-29.4-51.3-30.4c-1.3-0.9-3-0.9-4.4-0.1c-1.1,0.6-66.2,40.7-67.7,41.5s-2.6,3.8-0.4,3.8s2.1-1.4,5.9,0.4
											c3.7,1.8,45.5,27.7,48.5,29.4C177.4,361.5,179.4,361.8,181.2,361.4z"/>
										<path id="Фигура_2181_копия_5-7" class="st9" d="M177.9,401.8c1.8,1,6.5,2.3,6.5-3.9v-28.2
											c0-5.1-1.6-8.9-5.9-11.3c-4.4-2.5-48.1-28.5-51.3-30.2s-6.2-0.4-6.2,4v29.5c0,1.8,0.7,6.9,4.7,9.5
											C129.8,373.7,176.2,400.8,177.9,401.8z"/>
									</g>
								</g>
							</g>
						</g>
					</g>
					<g id="Фигура_2181_копия_9-2">
						<path id="Фигура_2181_копия_9-3" class="st66" d="M175.8,397.4c1.5,0.8,5.4,1.9,5.4-3.2v-23.6
							c0-4.3-1.4-7.4-4.9-9.5c-3.7-2.1-44.3-26.6-47-28s-5.2-0.3-5.2,3.3v24.7c0,1.5,0.6,5.8,3.9,7.9
							C131.3,371.1,174.4,396.6,175.8,397.4z"/>
						<g>
							<g>
								<g>
									<defs>
										<path id="SVGID_55_" d="M175.8,397.4c1.5,0.8,5.4,1.9,5.4-3.2v-23.6c0-4.3-1.4-7.4-4.9-9.5c-3.7-2.1-44.3-26.6-47-28
											s-5.2-0.3-5.2,3.3v24.7c0,1.5,0.6,5.8,3.9,7.9C131.3,371.1,174.4,396.6,175.8,397.4z"/>
									</defs>
									<clipPath id="SVGID_56_">
										<use xlink:href="#SVGID_55_"  style="overflow:visible;"/>
									</clipPath>
									<g id="Clip-28" class="st68">
										<path id="Фигура_950" class="st8" d="M124.6,367.8l56.6-34.4l42.6,22.2L185.3,404l-7.2-0.5L124.6,367.8z"/>
										<path id="Фигура_951-2" class="st69" d="M123.7,364.1l54.8-33.1l2.7,1.4l0.5,2.3l-55.3,34l-2.7-1.8V364.1z"/>
										<path id="Фигура_2181_копия_10" class="st70" d="M194,386.5c1.5,0.8,5.4,1.9,5.4-3.2v-23.6
											c0-4.3-1.4-7.4-4.9-9.5c-3.7-2.1-44.3-26.6-47-28s-5.2-0.3-5.2,3.3v24.7c0,1.5,0.6,5.8,3.9,7.9S192.5,385.7,194,386.5z"/>
										<path id="Фигура_2181_копия_11" class="st71" d="M180.8,394.2c1.5,0.8,5.4,1.9,5.4-3.2v-23.6
											c0-4.3-1.4-7.4-4.9-9.5c-3.7-2.1-44.3-26.6-47-28s-5.2-0.3-5.2,3.3v24.7c0,1.5,0.6,5.8,3.9,7.9S179.4,393.4,180.8,394.2z"
											/>
									</g>
								</g>
							</g>
						</g>
					</g>
				</g>
				<g id="Прямоугольник_скругл._углы_956-2">
					<path id="Прямоугольник_скругл._углы_956-3" class="st66" d="M145.5,330.6l55.4-34
						c1.2-0.5,2.6-0.4,3.7,0.4l25.2,15.8c1.2,0.7,1.4,1.8,0.6,2.3l-55.4,34c-1.2,0.5-2.6,0.4-3.7-0.4L146.1,333
						C144.9,332.2,144.6,331.2,145.5,330.6z"/>
					<g>
						<g>
							<g>
								<defs>
									<path id="SVGID_57_" d="M145.5,330.6l55.4-34c1.2-0.5,2.6-0.4,3.7,0.4l25.2,15.8c1.2,0.7,1.4,1.8,0.6,2.3l-55.4,34
										c-1.2,0.5-2.6,0.4-3.7-0.4L146.1,333C144.9,332.2,144.6,331.2,145.5,330.6z"/>
								</defs>
								<clipPath id="SVGID_58_">
									<use xlink:href="#SVGID_57_"  style="overflow:visible;"/>
								</clipPath>
								<g id="Clip-29" class="st72">
									<path id="Фигура_957" class="st9" d="M230.6,317.9l-30.8-18.6l25.8,5.9l11.8,8.2L230.6,317.9z"/>
									<path id="Прямоугольник_скругл._углы_956_копия" class="st69" d="M145.5,332.9l55.4-34
										c1.2-0.5,2.6-0.4,3.7,0.4l25.2,15.8c1.2,0.7,1.4,1.8,0.6,2.3l-55.4,34c-1.2,0.5-2.6,0.4-3.7-0.4l-25.2-15.8
										C144.9,334.5,144.6,333.4,145.5,332.9z"/>
								</g>
							</g>
						</g>
					</g>
				</g>
				<g id="Фигура_951-3">
					<path id="Фигура_951-4" class="st73" d="M150,332c0,0.4,0.1,0.7,0.5,0.9c0.4,0.2,22.2,12.9,22.6,13.1
						c0.6,0.3,1.3,0.3,1.8,0c0.6-0.4,51-30.7,51.2-30.8c0.3-0.2,0.5-0.5,0.5-0.9v-15.9c0-0.4,0-0.8-0.9-1.4s-21.1-12.3-21.7-12.7
						s-1.6-0.7-2.3,0s-24.9,28.5-24.9,28.5s-25,2.2-25.8,2.3s-0.9,0.2-0.9,0.9L150,332z"/>
					<g>
						<g>
							<g>
								<defs>
									<path id="SVGID_59_" d="M150,332c0,0.4,0.1,0.7,0.5,0.9c0.4,0.2,22.2,12.9,22.6,13.1c0.6,0.3,1.3,0.3,1.8,0
										c0.6-0.4,51-30.7,51.2-30.8c0.3-0.2,0.5-0.5,0.5-0.9v-15.9c0-0.4,0-0.8-0.9-1.4s-21.1-12.3-21.7-12.7s-1.6-0.7-2.3,0
										s-24.9,28.5-24.9,28.5s-25,2.2-25.8,2.3s-0.9,0.2-0.9,0.9L150,332z"/>
								</defs>
								<clipPath id="SVGID_60_">
									<use xlink:href="#SVGID_59_"  style="overflow:visible;"/>
								</clipPath>
								<g id="Clip-30" class="st74">
									<path id="Фигура_954" class="st75" d="M199.8,327h0.5c0,0,26-29.1,26.3-29.4s0.6-0.6-0.5-1.4s-21.9-12.7-22.6-13.1
										s-1.8,0.9-2.5,1.4S175.8,313,175.8,313L199.8,327z"/>
									<path id="Фигура_953" class="st76" d="M173.5,329.3l26.8-2.3l-24.9-15c0,0-25,2.3-25.8,2.7s-0.9,2.1,0,2.3
										s24,13.1,24,13.1L173.5,329.3z"/>
									<path id="Фигура_952" class="st77" d="M149.5,332.9v-16.3c0-0.4,0.1-1.5,1.8-0.5s21.1,12.4,21.7,12.7
										s0.9,0.6,0.9,1.8V346c0,0.6-0.1,0.9-0.9,0.5S149.5,332.9,149.5,332.9z"/>
								</g>
							</g>
						</g>
					</g>
				</g>
			</g>
			<g id="_1_копия_4">
				<g id="Эллипс_4_копия_8-2">
					<path id="Эллипс_4_копия_8-3" class="st9" d="M222.6,348.8c4.5-0.1,6.4,5,4.3,11.5s-7.6,11.7-12.1,11.8
						s-6.4-5-4.3-11.5S218.1,348.9,222.6,348.8z"/>
					<g>
						<g>
							<g>
								<defs>
									
										<ellipse id="SVGID_61_" transform="matrix(0.5034 -0.864 0.864 0.5034 -202.859 367.8527)" cx="218.6" cy="360.4" rx="12.8" ry="7.4"/>
								</defs>
								<clipPath id="SVGID_62_">
									<use xlink:href="#SVGID_61_"  style="overflow:visible;"/>
								</clipPath>
								<g id="Clip-31" class="st78">
									<path id="Фигура_1408_копия_3" class="st79" d="M234.9,357.3l-16.7-9.3l-0.8,11.4l16.7,9.6L234.9,357.3z"/>
									<path id="Фигура_1408_копия_4" class="st8" d="M230.6,371.1c0,0,1.8,1.7,1.6,2.2c-0.7,0.9-1.6,1.7-2.7,2.2
										c-0.5,0.1-13.2,3.4-13.2,3.4L198,368.7c0,0,8.5-7.2,11.4-7.6s6.6-0.2,8.1,0.7S230.6,371.1,230.6,371.1z"/>
									<path id="Фигура_1408_копия_5" class="st69" d="M241,366.7l-25.5-13.5l-5.1,11.2l16.8,9.4L241,366.7z"/>
									<path id="Эллипс_4_копия_9" class="st24" d="M216.3,346c4.5-0.1,6.4,5,4.3,11.5s-7.6,11.7-12.1,11.8
										s-6.4-5-4.3-11.5S211.8,346.1,216.3,346z"/>
									<path id="Эллипс_4_копия_10" class="st80" d="M220.3,347.1c4.5-0.1,6.4,5,4.3,11.5s-7.6,11.7-12.1,11.8
										s-6.4-5-4.3-11.5S215.8,347.2,220.3,347.1z"/>
								</g>
							</g>
						</g>
					</g>
				</g>
				<g id="Эллипс_4_копия-14">
					<path id="Эллипс_4_копия-15" class="st81" d="M222.7,350.9c0.6,0,1.2,0.1,1.7,0.3c0,0,7.6,4.4,7.7,4.4
						c2.4,1.2,3.2,4.9,1.7,9.4c-1.8,5.5-6.3,10-10.1,10c-0.9,0.1-1.7-0.1-2.5-0.6l-7.6-4.6c-1.9-1.5-2.4-4.9-1-8.9
						C214.4,355.5,218.9,351,222.7,350.9z"/>
					<g>
						<g>
							<g>
								<defs>
									<path id="SVGID_63_" d="M222.7,350.9c0.6,0,1.2,0.1,1.7,0.3c0,0,7.6,4.4,7.7,4.4c2.4,1.2,3.2,4.9,1.7,9.4
										c-1.8,5.5-6.3,10-10.1,10c-0.9,0.1-1.7-0.1-2.5-0.6l-7.6-4.6c-1.9-1.5-2.4-4.9-1-8.9C214.4,355.5,218.9,351,222.7,350.9z"
										/>
								</defs>
								<clipPath id="SVGID_64_">
									<use xlink:href="#SVGID_63_"  style="overflow:visible;"/>
								</clipPath>
								<g id="Clip-32" class="st82">
									<path id="Фигура_1408-9" class="st83" d="M221.7,365.4l-10-5.7l-0.5,6.9l10,5.8L221.7,365.4z"/>
									<path id="Фигура_1408_копия-5" class="st84" d="M230.1,362l-15.2-8.2l-3,6.9l10,5.8L230.1,362z"/>
									<path id="Фигура_1408-10" class="st21" d="M233.3,355.8c0,0,1.1,1,0.9,1.4c-0.4,0.6-1,1-1.6,1.4
										c-0.3,0.1-7.9,2.1-7.9,2.1l-10.9-6.3c0,0,5.1-4.4,6.8-4.6s3.9-0.2,4.8,0.4S233.3,355.8,233.3,355.8z"/>
								</g>
							</g>
						</g>
					</g>
				</g>
				<path id="Эллипс_4-5" class="st19" d="M230.4,355.4c3.8-0.1,5.4,4.3,3.6,9.7s-6.3,10-10.1,10s-5.4-4.3-3.6-9.7
					S226.6,355.4,230.4,355.4z"/>
				<g id="Эллипс_4_копия_5-14">
					<path id="Эллипс_4_копия_5-15" class="st85" d="M229.6,358.5c2.7-0.1,3.8,3.1,2.6,7s-4.5,7.2-7.2,7.2
						s-3.8-3.1-2.6-7S226.9,358.6,229.6,358.5z"/>
					<g>
						<g>
							<g>
								<defs>
									<path id="SVGID_65_" d="M229.6,358.5c2.7-0.1,3.8,3.1,2.6,7s-4.5,7.2-7.2,7.2s-3.8-3.1-2.6-7S226.9,358.6,229.6,358.5z"/>
								</defs>
								<clipPath id="SVGID_66_">
									<use xlink:href="#SVGID_65_"  style="overflow:visible;"/>
								</clipPath>
								<g id="Clip-33" class="st86">
									<path id="Фигура_1408_копия_2-13" class="st87" d="M237,363.7l-10-5.7l-0.5,6.9l10,5.8L237,363.7z"/>
									<path id="Фигура_1408_копия_2-14" class="st21" d="M234.4,372.1c0,0,1.1,1,0.9,1.4c-0.4,0.6-1,1-1.6,1.4
										c-0.3,0.1-7.9,2.1-7.9,2.1l-10.9-6.3c0,0,5.1-4.4,6.8-4.6s3.9-0.2,4.8,0.4S234.4,372.1,234.4,372.1z"/>
									<path id="Фигура_1408_копия_2-15" class="st84" d="M240.6,369.5l-15.2-8.2l-3,6.9l10,5.8L240.6,369.5z"/>
									<path id="Эллипс_4_копия_6-5" class="st24" d="M225.9,356.8c2.7-0.1,3.8,3.1,2.6,7s-4.5,7.2-7.2,7.2
										s-3.8-3.1-2.6-7S223.2,356.9,225.9,356.8z"/>
									<path id="Эллипс_4_копия_7-5" class="st25" d="M228.2,357.5c2.7-0.1,3.8,3.1,2.6,7s-4.5,7.2-7.2,7.2
										s-3.8-3.1-2.6-7S225.5,357.6,228.2,357.5z"/>
								</g>
							</g>
						</g>
					</g>
				</g>
			</g>
			<g id="Группа_205">
				<g id="Фигура_1846-2">
					<path id="Фигура_1846-3" class="st88" d="M227,374c-2.6-1.7-4.1-7.5-1-11s8.4-2.1,10-1s17.1,9.4,25,13
						c9.7,4.6,20.3,7,31,7c12.8,0,24.5-4.3,32-8s13.7-6.8,16-8s7.2-1.1,9,1s2.8,8.1,0,10s-19.5,10.9-24,13s-22,7-33,7
						s-28.4-4.4-38-9S229.6,375.7,227,374z"/>
					<g>
						<g>
							<g>
								<defs>
									<path id="SVGID_67_" d="M227,374c-2.6-1.7-4.1-7.5-1-11s8.4-2.1,10-1s17.1,9.4,25,13c9.7,4.6,20.3,7,31,7
										c12.8,0,24.5-4.3,32-8s13.7-6.8,16-8s7.2-1.1,9,1s2.8,8.1,0,10s-19.5,10.9-24,13s-22,7-33,7s-28.4-4.4-38-9
										S229.6,375.7,227,374z"/>
								</defs>
								<clipPath id="SVGID_68_">
									<use xlink:href="#SVGID_67_"  style="overflow:visible;"/>
								</clipPath>
								<g id="Clip-34" class="st89">
									<path id="Фигура_1848" class="st90" d="M290,388c5.5,0,8,10.9,0,11s-28.6-2.4-40-9s-28.1-16.6-29-18s-2.5-15.3,7-10
										S284.5,388,290,388z"/>
									<path id="Фигура_1848_копия" class="st91" d="M283,387c5.5,0,8,10.9,0,11s-28.6-2.4-40-9s-28.1-16.6-29-18
										s-2.5-15.3,7-10S277.5,387,283,387z"/>
									<path id="Фигура_1848_копия_2" class="st92" d="M276,385c5.5,0,8,10.9,0,11s-28.6-2.4-40-9s-28.1-16.6-29-18
										s-2.5-15.3,7-10S270.5,385,276,385z"/>
									<path id="Фигура_1846_копия" class="st93" d="M227,367c-2.6-1.7-4.1-7.5-1-11s8.4-2.1,10-1s17.1,9.4,25,13
										c9.7,4.6,20.3,7,31,7c12.8,0,24.5-4.3,32-8s13.7-6.8,16-8s7.2-1.1,9,1s2.8,8.1,0,10s-19.5,10.9-24,13s-22,7-33,7
										s-28.4-4.4-38-9S229.6,368.7,227,367z"/>
									<path id="Фигура_855_копия_10" class="st94" d="M280.6,390c0.2-9.8,9.9-9.6,9.9-9.6v1.5c0,0-8.3,0-8.4,8.1
										s8.9,8.4,8.9,8.4v1.5C291,400,280.4,399.8,280.6,390z M313,394.5c0,0,8-1.9,6.3-9.8s-10.6-6.2-10.6-6.2l-0.3-1.5
										c0,0,10.3-2.3,12.4,7.3s-7.5,11.6-7.5,11.6L313,394.5z M254.6,378.6c5-8.4,13.3-3.3,13.3-3.3l-0.8,1.3
										c0,0-7.1-4.2-11.3,2.8s3.5,11.8,3.5,11.8l-0.8,1.3C258.6,392.5,249.6,387,254.6,378.6L254.6,378.6z M332.9,386.3
										c0,0,8.1-1.9,6.3-9.8s-10.6-6.2-10.6-6.2l-0.3-1.5c0,0,10.3-2.3,12.4,7.3s-7.5,11.6-7.5,11.6L332.9,386.3z M234.5,370.9
										c5-8.4,14-4.4,14-4.4l-0.8,1.3c0,0-7.8-3.1-11.9,3.9s3.5,11.8,3.5,11.8l-0.8,1.3C238.5,384.7,229.5,379.3,234.5,370.9
										L234.5,370.9z"/>
									<path id="Прямоугольник_скругл._углы1851" class="st95" d="M290,396.5c0-0.3,0.2-0.5,0.5-0.5
										s0.5,0.2,0.5,0.5s-0.2,0.5-0.5,0.5S290,396.8,290,396.5z M306,390.5c0-0.8,0.7-1.5,1.5-1.5s1.5,0.7,1.5,1.5
										s-0.7,1.5-1.5,1.5S306,391.3,306,390.5z M275,388c0-0.6,0.4-1,1-1s1,0.4,1,1s-0.4,1-1,1S275,388.6,275,388z M300,387
										c0-0.6,0.4-1,1-1s1,0.4,1,1s-0.4,1-1,1S300,387.6,300,387z M291,387c0-0.6,0.4-1,1-1s1,0.4,1,1s-0.4,1-1,1
										S291,387.6,291,387z M261,387c0-0.6,0.4-1,1-1s1,0.4,1,1s-0.4,1-1,1S261,387.6,261,387z M326,384c0-0.6,0.4-1,1-1
										s1,0.4,1,1s-0.4,1-1,1S326,384.6,326,384z M312,382.5c0-0.8,0.7-1.5,1.5-1.5s1.5,0.7,1.5,1.5s-0.7,1.5-1.5,1.5
										S312,383.3,312,382.5z M334,378c0-0.6,0.4-1,1-1s1,0.4,1,1s-0.4,1-1,1S334,378.6,334,378z M248,375c0-0.6,0.4-1,1-1
										s1,0.4,1,1s-0.4,1-1,1S248,375.6,248,375z M345,374c0-0.6,0.4-1,1-1s1,0.4,1,1s-0.4,1-1,1S345,374.6,345,374z M232,373
										c0-1.1,0.9-2,2-2s2,0.9,2,2s-0.9,2-2,2S232,374.1,232,373z"/>
									<path id="Прямоугольник_скругл._углы1853" class="st96" d="M265,388.5c0-0.8,0.7-1.5,1.5-1.5
										s1.5,0.7,1.5,1.5s-0.7,1.5-1.5,1.5S265,389.3,265,388.5z M316,387c0-0.6,0.4-1,1-1s1,0.4,1,1s-0.4,1-1,1S316,387.6,316,387
										z M250,384c0-1.1,0.9-2,2-2s2,0.9,2,2s-0.9,2-2,2S250,385.1,250,384z M267,381c0-1.1,0.9-2,2-2s2,0.9,2,2s-0.9,2-2,2
										S267,382.1,267,381z M322,380.5c0-0.3,0.2-0.5,0.5-0.5s0.5,0.2,0.5,0.5s-0.2,0.5-0.5,0.5S322,380.8,322,380.5z M331,377
										c0-0.6,0.4-1,1-1s1,0.4,1,1s-0.4,1-1,1S331,377.6,331,377z M243,376c0-0.6,0.4-1,1-1s1,0.4,1,1s-0.4,1-1,1
										S243,376.6,243,376z M340,370.5c0-0.8,0.7-1.5,1.5-1.5s1.5,0.7,1.5,1.5s-0.7,1.5-1.5,1.5S340,371.3,340,370.5z M229,371
										c0-0.6,0.4-1,1-1s1,0.4,1,1s-0.4,1-1,1S229,371.6,229,371z M229,365c0-1.1,0.9-2,2-2s2,0.9,2,2s-0.9,2-2,2
										S229,366.1,229,365z"/>
								</g>
							</g>
						</g>
					</g>
				</g>
			</g>
			<path id="Прямоугольник_скругл._углы_642_копия_9" class="st97" d="M243,230.4l-8.4-5.1
				c-0.7-0.5-1.1-1.3-1.1-2.1s0.5-1.2,1.1-0.9l8.4,5.1c0.7,0.5,1,1.3,1.1,2.1c0,0.6-0.3,1-0.6,1C243.3,230.6,243.1,230.5,243,230.4z
				 M219.9,223.5l-16.1-9.7c-0.7-0.5-1.1-1.3-1.1-2.1s0.5-1.2,1.1-0.9l16.1,9.7c0.7,0.5,1,1.3,1.1,2.1c0,0.6-0.3,1-0.6,1
				C220.1,223.6,220,223.5,219.9,223.5L219.9,223.5z M207.2,222.8l-13.3-8c-0.7-0.5-1-1.3-1.1-2.1c0-0.8,0.5-1.2,1.1-0.9l13.3,8
				c0.7,0.5,1,1.3,1.1,2.1c0,0.6-0.3,1-0.6,1C207.5,223,207.3,222.9,207.2,222.8L207.2,222.8z M229.7,222.4l-13.3-8
				c-0.7-0.5-1.1-1.3-1.1-2.1s0.5-1.2,1.1-0.9l13.3,8c0.7,0.5,1.1,1.3,1.1,2.1c0,0.6-0.3,1-0.6,1S229.8,222.5,229.7,222.4
				L229.7,222.4z M236,219.2l-9.8-5.9c-0.7-0.5-1-1.3-1.1-2.1c0-0.8,0.5-1.2,1.1-0.9l9.8,5.9c0.7,0.5,1,1.3,1.1,2.1
				c0,0.6-0.3,1-0.6,1C236.3,219.3,236.1,219.3,236,219.2L236,219.2z M236.7,212.6l-4.9-3c-0.7-0.5-1-1.3-1.1-2.1
				c0-0.8,0.5-1.2,1.1-0.9l4.9,3c0.7,0.5,1.1,1.3,1.1,2.1c0,0.6-0.3,1-0.6,1C237,212.8,236.8,212.7,236.7,212.6L236.7,212.6z
				 M189,211.8l-11.9-7.2c-0.7-0.5-1-1.3-1-2.1s0.5-1.2,1.1-0.9l11.9,7.2c0.7,0.5,1,1.3,1.1,2.1c0,0.6-0.3,1-0.6,1
				C189.2,212,189.1,211.9,189,211.8L189,211.8z M211.4,211.4l-23.2-14c-0.7-0.5-1-1.3-1.1-2.1c0-0.8,0.5-1.2,1.1-0.9l23.2,14
				c0.7,0.5,1.1,1.3,1.1,2.1c0,0.6-0.3,1-0.6,1C211.7,211.5,211.6,211.5,211.4,211.4L211.4,211.4z M198.8,210.8L177,197.6
				c-0.7-0.5-1-1.3-1-2.1s0.5-1.2,1.1-0.9l21.7,13.1c0.7,0.5,1.1,1.3,1.1,2.1c0,0.6-0.3,1-0.6,1
				C199.1,210.9,198.9,210.8,198.8,210.8L198.8,210.8z M221.3,210.3L200.9,198c-0.7-0.5-1-1.3-1.1-2.1c0-0.8,0.5-1.2,1.1-0.9
				l20.3,12.3c0.7,0.5,1,1.3,1.1,2.1c0,0.6-0.3,1-0.6,1C221.5,210.4,221.4,210.4,221.3,210.3L221.3,210.3z M243,209.4l-8.4-5.1
				c-0.7-0.5-1.1-1.3-1.1-2.1s0.5-1.2,1.1-0.9l8.4,5.1c0.7,0.5,1,1.3,1.1,2.1c0,0.6-0.3,1-0.6,1C243.3,209.6,243.1,209.5,243,209.4
				L243,209.4z M248.6,206.8l-7.7-4.7c-0.7-0.5-1-1.3-1.1-2.1c0-0.8,0.5-1.2,1.1-0.9l7.7,4.7c0.7,0.5,1,1.3,1.1,2.1
				c0,0.6-0.3,1-0.6,1C248.9,207,248.7,206.9,248.6,206.8L248.6,206.8z M226.9,206.7l-30.2-18.2c-0.7-0.5-1-1.3-1.1-2.1
				c0-0.8,0.5-1.2,1.1-0.9l30.2,18.2c0.7,0.5,1,1.3,1.1,2.1c0,0.6-0.3,1-0.6,1C227.1,206.8,227,206.8,226.9,206.7z M229.7,201.4
				l-13.3-8c-0.7-0.5-1.1-1.3-1.1-2.1s0.5-1.2,1.1-0.9l13.3,8c0.7,0.5,1.1,1.3,1.1,2.1c0,0.6-0.3,1-0.6,1S229.8,201.5,229.7,201.4
				L229.7,201.4z M250.7,201.1l-16.1-9.7c-0.7-0.5-1.1-1.3-1.1-2.1s0.5-1.2,1.1-0.9l16.1,9.7c0.7,0.5,1,1.3,1.1,2.1
				c0,0.6-0.3,1-0.6,1C251,201.2,250.8,201.2,250.7,201.1L250.7,201.1z M236,199.2l-23.9-14.4c-0.7-0.5-1-1.3-1.1-2.1
				c0-0.8,0.5-1.2,1.1-0.9l23.9,14.4c0.7,0.5,1,1.3,1.1,2.1c0,0.6-0.3,1-0.6,1C236.3,199.3,236.1,199.3,236,199.2L236,199.2z
				 M196,195.1l-18.9-11.4c-0.7-0.5-1.1-1.3-1.1-2.1s0.5-1.2,1.1-0.9l18.9,11.4c0.7,0.5,1,1.3,1.1,2.1c0,0.6-0.3,1-0.6,1
				C196.3,195.2,196.1,195.1,196,195.1z M183.4,194.4l-6.3-3.8c-0.7-0.5-1.1-1.3-1.1-2.1s0.5-1.2,1.1-0.9l6.3,3.8
				c0.7,0.5,1,1.3,1.1,2.1c0,0.6-0.3,1-0.6,1C183.6,194.6,183.5,194.5,183.4,194.4L183.4,194.4z M211.4,190.4l-23.2-14
				c-0.7-0.5-1-1.3-1.1-2.1c0-0.8,0.5-1.2,1.1-0.9l23.2,14c0.7,0.5,1.1,1.3,1.1,2.1c0,0.6-0.3,1-0.6,1
				C211.7,190.5,211.6,190.5,211.4,190.4L211.4,190.4z M243,189.4l-8.4-5.1c-0.7-0.5-1.1-1.3-1.1-2.1s0.5-1.2,1.1-0.9l8.4,5.1
				c0.7,0.5,1,1.3,1.1,2.1c0,0.6-0.3,1-0.6,1C243.3,189.6,243.1,189.5,243,189.4L243,189.4z M229.7,188.4l-4.9-3
				c-0.7-0.5-1-1.3-1.1-2.1c0-0.8,0.5-1.2,1.1-0.9l4.9,3c0.7,0.5,1.1,1.3,1.1,2.1c0,0.6-0.3,1-0.6,1S229.8,188.5,229.7,188.4z
				 M248.6,185.8l-7.7-4.7c-0.7-0.5-1-1.3-1.1-2.1c0-0.8,0.5-1.2,1.1-0.9l7.7,4.7c0.7,0.5,1,1.3,1.1,2.1c0,0.6-0.3,1-0.6,1
				C248.9,186,248.7,185.9,248.6,185.8L248.6,185.8z M191.8,185.5l-14.7-8.9c-0.7-0.5-1.1-1.3-1.1-2.1s0.5-1.2,1.1-0.9l14.7,8.9
				c0.7,0.5,1.1,1.3,1.1,2.1c0,0.6-0.3,1-0.6,1C192.1,185.7,191.9,185.6,191.8,185.5L191.8,185.5z M219.9,182.5l-16.1-9.7
				c-0.7-0.5-1.1-1.3-1.1-2.1s0.5-1.2,1.1-0.9l16.1,9.7c0.7,0.5,1,1.3,1.1,2.1c0,0.6-0.3,1-0.6,1C220.1,182.6,220,182.6,219.9,182.5
				L219.9,182.5z M207.2,181.9l-13.3-8.1c-0.7-0.5-1-1.3-1.1-2.1c0-0.8,0.5-1.2,1.1-0.9l13.3,8c0.7,0.5,1,1.3,1.1,2.1
				c0,0.6-0.3,1-0.6,1C207.5,182,207.3,181.9,207.2,181.9L207.2,181.9z M229.7,181.4l-13.3-8c-0.7-0.5-1.1-1.3-1.1-2.1
				s0.5-1.2,1.1-0.9l13.3,8c0.7,0.5,1.1,1.3,1.1,2.1c0,0.6-0.3,1-0.6,1S229.8,181.5,229.7,181.4L229.7,181.4z M250.7,180.1
				l-16.1-9.7c-0.7-0.5-1.1-1.3-1.1-2.1s0.5-1.2,1.1-0.9l16.1,9.7c0.7,0.5,1,1.3,1.1,2.1c0,0.6-0.3,1-0.6,1
				C251,180.2,250.8,180.2,250.7,180.1L250.7,180.1z M236,178.2l-23.9-14.4c-0.7-0.5-1-1.3-1.1-2.1c0-0.8,0.5-1.2,1.1-0.9l23.9,14.4
				c0.7,0.5,1,1.3,1.1,2.1c0,0.6-0.3,1-0.6,1C236.3,178.3,236.1,178.3,236,178.2L236,178.2z M183.4,173.4l-6.3-3.8
				c-0.7-0.5-1-1.3-1.1-2.1c0-0.8,0.5-1.2,1.1-0.9l6.3,3.8c0.7,0.5,1,1.3,1.1,2.1c0,0.6-0.3,1-0.6,1
				C183.6,173.6,183.5,173.5,183.4,173.4L183.4,173.4z M189,170.8l-11.9-7.2c-0.7-0.5-1-1.3-1.1-2.1c0-0.8,0.5-1.2,1.1-0.9l11.9,7.2
				c0.7,0.5,1,1.3,1.1,2.1c0,0.6-0.3,1-0.6,1C189.2,171,189.1,170.9,189,170.8L189,170.8z M211.4,170.4l-23.2-14
				c-0.7-0.5-1-1.3-1.1-2.1c0-0.8,0.5-1.2,1.1-0.9l23.2,14c0.7,0.5,1.1,1.3,1.1,2.1c0,0.6-0.3,1-0.6,1
				C211.7,170.5,211.6,170.5,211.4,170.4L211.4,170.4z M198.8,169.8L177,156.6c-0.7-0.5-1-1.3-1-2.1s0.5-1.2,1.1-0.9l21.7,13.1
				c0.7,0.5,1.1,1.3,1.1,2.1c0,0.6-0.3,1-0.6,1C199.1,169.9,198.9,169.8,198.8,169.8L198.8,169.8z M243,168.4l-8.4-5.1
				c-0.7-0.5-1.1-1.3-1.1-2.1s0.5-1.2,1.1-0.9l8.4,5.1c0.7,0.5,1,1.3,1.1,2.1c0,0.6-0.3,1-0.6,1C243.3,168.6,243.1,168.5,243,168.4
				L243,168.4z M229.7,167.4l-4.9-3c-0.7-0.5-1-1.3-1.1-2.1c0-0.8,0.5-1.2,1.1-0.9l4.9,3c0.7,0.5,1.1,1.3,1.1,2.1c0,0.6-0.3,1-0.6,1
				S229.8,167.5,229.7,167.4z M219.9,161.5l-16.1-9.7c-0.7-0.5-1.1-1.3-1.1-2.1s0.5-1.2,1.1-0.9l16.1,9.7c0.7,0.5,1,1.3,1.1,2.1
				c0,0.6-0.3,1-0.6,1C220.1,161.6,220,161.5,219.9,161.5L219.9,161.5z M207.2,160.8l-13.3-8c-0.7-0.5-1-1.3-1.1-2.1
				c0-0.8,0.5-1.2,1.1-0.9l13.3,8c0.7,0.5,1,1.3,1.1,2.1c0,0.6-0.3,1-0.6,1C207.5,161,207.3,160.9,207.2,160.8L207.2,160.8z
				 M229.7,160.4l-13.3-8c-0.7-0.5-1.1-1.3-1.1-2.1s0.5-1.2,1.1-0.9l13.3,8c0.7,0.5,1.1,1.3,1.1,2.1c0,0.6-0.3,1-0.6,1
				S229.8,160.5,229.7,160.4L229.7,160.4z M183.4,153.4l-6.3-3.8c-0.7-0.5-1-1.3-1.1-2.1c0-0.8,0.5-1.2,1.1-0.9l6.3,3.8
				c0.7,0.5,1,1.3,1.1,2.1c0,0.6-0.3,1-0.6,1C183.6,153.6,183.5,153.5,183.4,153.4L183.4,153.4z M189,149.8l-11.9-7.2
				c-0.7-0.5-1-1.3-1.1-2.1c0-0.8,0.5-1.2,1.1-0.9l11.9,7.2c0.7,0.5,1,1.3,1.1,2.1c0,0.6-0.3,1-0.6,1
				C189.2,150,189.1,149.9,189,149.8L189,149.8z M211.4,149.4l-23.2-14c-0.7-0.5-1-1.3-1.1-2.1c0-0.8,0.5-1.2,1.1-0.9l23.2,14
				c0.7,0.5,1.1,1.3,1.1,2.1c0,0.6-0.3,1-0.6,1C211.7,149.5,211.6,149.5,211.4,149.4L211.4,149.4z M198.8,148.8L177,135.6
				c-0.7-0.5-1-1.3-1-2.1s0.5-1.2,1.1-0.9l21.7,13.1c0.7,0.5,1.1,1.3,1.1,2.1c0,0.6-0.3,1-0.6,1
				C199.1,148.9,198.9,148.8,198.8,148.8L198.8,148.8z M183.4,132.4l-6.3-3.8c-0.7-0.5-1-1.3-1-2.1s0.5-1.2,1.1-0.9l6.3,3.8
				c0.7,0.5,1,1.3,1.1,2.1c0,0.6-0.3,1-0.6,1C183.6,132.6,183.5,132.5,183.4,132.4L183.4,132.4z"/>
			<path id="Прямоугольник_скругл._углы_642_копия_10" class="st98" d="M296.2,266.8l-13.3-8
				c-0.7-0.5-1.1-1.3-1.1-2.1c0-0.8,0.5-1.2,1.1-0.9l13.3,8c0.7,0.5,1,1.3,1.1,2.1c0,0.6-0.3,1-0.6,1
				C296.5,267,296.3,266.9,296.2,266.8z M272.4,259.4l-6.3-3.8c-0.7-0.5-1-1.3-1.1-2.1c0-0.8,0.5-1.2,1.1-0.9l6.3,3.8
				c0.7,0.5,1,1.3,1.1,2.1c0,0.6-0.3,1-0.6,1C272.6,259.6,272.5,259.5,272.4,259.4L272.4,259.4z M278,255.8l-11.9-7.2
				c-0.7-0.5-1-1.3-1.1-2.1c0-0.8,0.5-1.2,1.1-0.9l11.9,7.2c0.7,0.5,1,1.3,1.1,2.1c0,0.6-0.3,1-0.6,1
				C278.2,256,278.1,255.9,278,255.8L278,255.8z M300.4,255.4l-23.2-14c-0.7-0.5-1-1.3-1.1-2.1c0-0.8,0.5-1.2,1.1-0.9l23.2,14
				c0.7,0.5,1.1,1.3,1.1,2.1c0,0.6-0.3,1-0.6,1C300.7,255.5,300.6,255.5,300.4,255.4L300.4,255.4z M287.8,254.8L266,241.7
				c-0.7-0.5-1-1.3-1.1-2.1c0-0.8,0.5-1.2,1.1-0.9l21.7,13.1c0.7,0.5,1.1,1.3,1.1,2.1c0,0.6-0.3,1-0.6,1
				C288.1,254.9,287.9,254.8,287.8,254.8L287.8,254.8z M272.4,238.4l-6.3-3.8c-0.7-0.5-1-1.3-1.1-2.1c0-0.8,0.5-1.2,1.1-0.9l6.3,3.8
				c0.7,0.5,1,1.3,1.1,2.1c0,0.6-0.3,1-0.6,1C272.6,238.6,272.5,238.5,272.4,238.4L272.4,238.4z"/>
			<path id="Эллипс_1860_копия_2" class="st97" d="M306,226.7c-2.6,8.8-9.9,11.9-18.5,6.8c-10.8-6.4-19.5-23.2-19.5-37.6
				c0-12.5,6.6-19,15.3-16.4c-0.1,1.7-0.3,8.9-0.1,11.4c-4.2-0.2-7.2,3.6-7.2,10.1c0,8.6,5.2,18.6,11.5,22.4
				c4.6,2.8,8.6,1.5,10.4-2.7C300.8,222.6,303.5,224.5,306,226.7z"/>
			<path id="Эллипс_1860_копия_3" class="st98" d="M283.1,179.5c1.5,0.5,3,1.1,4.4,1.9c10.8,6.4,19.5,23.2,19.5,37.6
				c0,2.5-0.3,4.9-0.9,7.3c-2.5,9.1-9.7-1.4-8-6c0.6-1.7,0.9-3.6,0.9-5.4c0-8.6-5.2-18.6-11.5-22.4c-1.4-0.9-2.9-1.4-4.5-1.5
				C278.9,190.9,278.8,178.4,283.1,179.5z"/>
		</g>
	</g>
</g>
<path id="Customize_1_" class="st98" d="M274,159c-1.9-1.3-3-3.5-3-5.8c0-2.3,1.2-3.4,2.9-2.4c1.6,0.9,2.8,3.3,2.8,6v0.5l-3.8-2.3
	c0.1,0.9,0.6,1.7,1.4,2.2c0.4,0.2,1,0.4,1.3,0.1l0.7,2c-0.2,0.1-0.5,0.2-0.7,0.2C275,159.5,274.5,159.3,274,159z M272.8,153.4
	l2.2,1.3c0-0.8-0.5-1.5-1.1-2c-0.1-0.1-0.3-0.1-0.5-0.2C273.1,152.5,272.9,153,272.8,153.4L272.8,153.4z M265.8,154v-1.8l2.2-2.5
	l-2.2-1.3v-2.2l4.5,2.7v1.8l-2.2,2.6l2.3,1.3v2.1L265.8,154z M263,152.4v-7.8l1.7,1v7.8L263,152.4z M260.1,150.6v-4.8
	c0-0.6-0.2-1.1-0.7-1.5c-0.3-0.2-0.7-0.1-1,0.2c0,0,0,0,0,0v5l-1.7-1v-4.8c0-0.6-0.2-1.1-0.7-1.5c-0.3-0.2-0.7-0.1-1,0.2v5l-1.7-1
	v-7.8l1.7,1v1c0.5-0.5,1.2-0.5,1.8-0.1c0.8,0.5,1.4,1.3,1.5,2.3c0.4-0.6,1.2-0.7,1.8-0.3c0,0,0,0,0.1,0c1.1,0.7,1.7,2,1.6,3.3v5.7
	L260.1,150.6z M249.4,144.5c-1.9-1.3-3-3.5-2.9-5.8c0-2.2,1.1-3.4,2.9-2.4c1.9,1.3,3,3.5,3,5.8c0,1.6-0.6,2.8-1.7,2.8
	C250.2,144.9,249.8,144.8,249.4,144.5L249.4,144.5z M248.2,139.7c-0.1,1,0.4,2,1.2,2.6c0.8,0.4,1.2-0.2,1.2-1.2c0.1-1-0.4-2-1.2-2.6
	c-0.1-0.1-0.3-0.1-0.5-0.1C248.5,138.4,248.3,138.9,248.2,139.7L248.2,139.7z M263.9,144.4c-0.6-0.5-1-1.2-1-2c0-0.8,0.4-1.2,1-0.8
	c0.6,0.5,1,1.2,1,2c0,0.6-0.3,1-0.6,1C264.1,144.5,264,144.4,263.9,144.4L263.9,144.4z M244.8,141.8c-1.1-0.7-1.8-2-1.7-3.3V135
	l-0.9-0.5v-2.2l0.9,0.5v-2.1l1.7,1v2.1l1.1,0.6v2.2l-1.1-0.6v2.8c0,0.4,0.2,0.8,0.5,1.1c0.2,0.1,0.4,0.1,0.4,0.1l0.3,2.1
	c-0.1,0.1-0.2,0.1-0.3,0.1C245.5,142.2,245.1,142,244.8,141.8L244.8,141.8z M239.5,138.7c-1.1-0.7-1.9-1.6-2.5-2.7l0.7-1.3
	c0.5,0.9,1.1,1.6,1.9,2.2c0.5,0.3,0.7,0.2,0.7-0.2c0-1-3.1-1.9-3.1-5c0-1.4,0.8-2.1,2.3-1.2c0.9,0.6,1.7,1.4,2.3,2.4l-0.7,1.3
	c-0.4-0.7-0.9-1.3-1.6-1.8c-0.4-0.2-0.7-0.2-0.7,0.2c0,0.9,3.1,1.9,3.1,5.1c0,1-0.4,1.6-1.1,1.6
	C240.3,139.1,239.9,138.9,239.5,138.7L239.5,138.7z M234.4,135.5v-0.9c-0.3,0.4-1,0.6-1.9,0c-1.2-0.8-1.9-2.1-1.8-3.5v-5.6l1.7,1
	v4.5c-0.1,0.7,0.3,1.4,0.9,1.8c0.3,0.2,0.8,0.2,1-0.1c0,0,0,0,0,0v-5l1.7,1v7.8L234.4,135.5z M226.7,131.2c-2.3-1.3-4-4.6-4-7.9
	c0-3.3,1.7-4.5,4-3.2c1.6,1.1,2.8,2.9,3.3,4.8l-1.7,0.2c-0.2-1-0.8-1.9-1.6-2.5c-1.2-0.7-2.1,0.1-2.1,1.9c0,1.7,0.7,3.3,2.1,4.3
	c0.5,0.3,1.1,0.2,1.4-0.3c0.1-0.1,0.1-0.2,0.2-0.4l1.7,2.1c-0.2,0.8-1,1.4-1.8,1.4C227.7,131.6,227.2,131.5,226.7,131.2L226.7,131.2
	z"/>
</svg>
